<mxfile host="65bd71144e">
    <diagram name="penggunaan multimeter" id="9nPOo9RUkjAjLuvvArwG">
        <mxGraphModel dx="1030" dy="537" grid="1" gridSize="10" guides="1" tooltips="1" connect="1" arrows="1" fold="1" page="1" pageScale="1" pageWidth="827" pageHeight="1169" math="0" shadow="0">
            <root>
                <mxCell id="Ef5aAg3daOjvYsMQ55Ko-0"/>
                <mxCell id="Ef5aAg3daOjvYsMQ55Ko-1" parent="Ef5aAg3daOjvYsMQ55Ko-0"/>
                <mxCell id="Ef5aAg3daOjvYsMQ55Ko-2" value="" style="rounded=0;whiteSpace=wrap;html=1;fontSize=29;fontStyle=1;strokeWidth=2;fillColor=#f5f5f5;fontColor=#333333;strokeColor=none;" parent="Ef5aAg3daOjvYsMQ55Ko-1" vertex="1">
                    <mxGeometry x="240" y="60" width="1920" height="1080" as="geometry"/>
                </mxCell>
                <mxCell id="2S4IqR70EECTiOiU6gtD-48" value="" style="rounded=1;whiteSpace=wrap;html=1;strokeWidth=4;fillColor=#fff2cc;strokeColor=#d6b656;arcSize=4;" parent="Ef5aAg3daOjvYsMQ55Ko-1" vertex="1">
                    <mxGeometry x="1391" y="454" width="700" height="594" as="geometry"/>
                </mxCell>
                <mxCell id="2S4IqR70EECTiOiU6gtD-38" value="" style="group" parent="Ef5aAg3daOjvYsMQ55Ko-1" vertex="1" connectable="0">
                    <mxGeometry x="293" y="730" width="1009" height="381" as="geometry"/>
                </mxCell>
                <mxCell id="2S4IqR70EECTiOiU6gtD-39" value="" style="rounded=1;whiteSpace=wrap;html=1;strokeWidth=4;fillColor=#f8cecc;strokeColor=#b85450;arcSize=4;" parent="2S4IqR70EECTiOiU6gtD-38" vertex="1">
                    <mxGeometry width="1009.0000000000002" height="380.99999999999994" as="geometry"/>
                </mxCell>
                <mxCell id="2S4IqR70EECTiOiU6gtD-30" value="" style="rounded=1;whiteSpace=wrap;html=1;strokeColor=#6c8ebf;strokeWidth=4;fontSize=50;fillColor=#dae8fc;arcSize=4;" parent="Ef5aAg3daOjvYsMQ55Ko-1" vertex="1">
                    <mxGeometry x="663" y="221" width="666" height="390" as="geometry"/>
                </mxCell>
                <mxCell id="Ef5aAg3daOjvYsMQ55Ko-3" value="Penggunaan Multimeter" style="rounded=1;whiteSpace=wrap;html=1;fontSize=40;fontStyle=1;strokeWidth=3;fillColor=#6d8764;strokeColor=none;fontColor=#ffffff;" parent="Ef5aAg3daOjvYsMQ55Ko-1" vertex="1">
                    <mxGeometry x="926.25" y="100" width="517.5" height="100" as="geometry"/>
                </mxCell>
                <mxCell id="Ef5aAg3daOjvYsMQ55Ko-4" value="Dasar Elektronika" style="rounded=1;whiteSpace=wrap;html=1;fontSize=29;fontStyle=1;strokeWidth=3;fillColor=#a0522d;strokeColor=none;fontColor=#ffffff;" parent="Ef5aAg3daOjvYsMQ55Ko-1" vertex="1">
                    <mxGeometry x="270" y="90" width="300" height="60" as="geometry"/>
                </mxCell>
                <mxCell id="Ef5aAg3daOjvYsMQ55Ko-15" value="Voltage" style="rounded=1;whiteSpace=wrap;html=1;strokeWidth=4;arcSize=4;fillColor=#dae8fc;strokeColor=#6c8ebf;fontStyle=1;fontSize=25;fontColor=#0066CC;" parent="Ef5aAg3daOjvYsMQ55Ko-1" vertex="1">
                    <mxGeometry x="510" y="300" width="130" height="60" as="geometry"/>
                </mxCell>
                <mxCell id="Ef5aAg3daOjvYsMQ55Ko-17" value="Diode" style="rounded=1;whiteSpace=wrap;html=1;strokeWidth=4;arcSize=4;fillColor=#f8cecc;strokeColor=#b85450;fontStyle=1;fontSize=25;fontColor=#CC0066;" parent="Ef5aAg3daOjvYsMQ55Ko-1" vertex="1">
                    <mxGeometry x="510" y="570" width="110" height="60" as="geometry"/>
                </mxCell>
                <mxCell id="Ef5aAg3daOjvYsMQ55Ko-18" value="Resistance" style="rounded=1;whiteSpace=wrap;html=1;strokeWidth=4;arcSize=4;fillColor=#fff2cc;strokeColor=#d6b656;fontStyle=1;fontSize=25;fontColor=#FF8000;" parent="Ef5aAg3daOjvYsMQ55Ko-1" vertex="1">
                    <mxGeometry x="1690" y="291" width="170" height="60" as="geometry"/>
                </mxCell>
                <mxCell id="Ef5aAg3daOjvYsMQ55Ko-21" value="Pilih DCV untuk arus searah (DC) atau ACV untuk arus bolak-balik (AC)." style="rounded=1;whiteSpace=wrap;html=1;strokeWidth=4;arcSize=4;fillColor=#647687;strokeColor=none;fontSize=20;fontStyle=1;fontColor=#ffffff;" parent="Ef5aAg3daOjvYsMQ55Ko-1" vertex="1">
                    <mxGeometry x="680" y="266.25" width="310" height="127.5" as="geometry"/>
                </mxCell>
                <mxCell id="Ef5aAg3daOjvYsMQ55Ko-27" value="Pilih Î© (Ohm)." style="rounded=1;whiteSpace=wrap;html=1;strokeWidth=4;arcSize=4;fillColor=#fa6800;strokeColor=none;fontSize=26;fontStyle=1;fontColor=#FFFFFF;" parent="Ef5aAg3daOjvYsMQ55Ko-1" vertex="1">
                    <mxGeometry x="1645" y="506" width="260" height="124" as="geometry"/>
                </mxCell>
                <mxCell id="Ef5aAg3daOjvYsMQ55Ko-30" value="" style="endArrow=none;html=1;fontSize=25;fontColor=#7F00FF;exitX=1;exitY=0.5;exitDx=0;exitDy=0;entryX=0;entryY=0.5;entryDx=0;entryDy=0;fontStyle=0;strokeWidth=4;strokeColor=#6c8ebf;" parent="Ef5aAg3daOjvYsMQ55Ko-1" source="Ef5aAg3daOjvYsMQ55Ko-5" target="Ef5aAg3daOjvYsMQ55Ko-15" edge="1">
                    <mxGeometry width="50" height="50" relative="1" as="geometry">
                        <mxPoint x="600" y="620" as="sourcePoint"/>
                        <mxPoint x="650" y="570" as="targetPoint"/>
                    </mxGeometry>
                </mxCell>
                <mxCell id="Ef5aAg3daOjvYsMQ55Ko-31" value="" style="endArrow=none;html=1;fontSize=25;fontColor=#7F00FF;exitX=1;exitY=0.5;exitDx=0;exitDy=0;entryX=0;entryY=0.5;entryDx=0;entryDy=0;fontStyle=0;strokeWidth=4;strokeColor=#6c8ebf;" parent="Ef5aAg3daOjvYsMQ55Ko-1" source="Ef5aAg3daOjvYsMQ55Ko-15" target="Ef5aAg3daOjvYsMQ55Ko-21" edge="1">
                    <mxGeometry width="50" height="50" relative="1" as="geometry">
                        <mxPoint x="495" y="520.0000000000001" as="sourcePoint"/>
                        <mxPoint x="495" y="570" as="targetPoint"/>
                    </mxGeometry>
                </mxCell>
                <mxCell id="Ef5aAg3daOjvYsMQ55Ko-34" value="" style="endArrow=none;html=1;fontSize=25;fontColor=#7F00FF;exitX=1;exitY=0.5;exitDx=0;exitDy=0;entryX=0;entryY=0.5;entryDx=0;entryDy=0;fontStyle=0;strokeWidth=4;strokeColor=#b85450;" parent="Ef5aAg3daOjvYsMQ55Ko-1" source="Ef5aAg3daOjvYsMQ55Ko-8" target="Ef5aAg3daOjvYsMQ55Ko-17" edge="1">
                    <mxGeometry width="50" height="50" relative="1" as="geometry">
                        <mxPoint x="2595" y="600.0000000000001" as="sourcePoint"/>
                        <mxPoint x="2595" y="650" as="targetPoint"/>
                    </mxGeometry>
                </mxCell>
                <mxCell id="Ef5aAg3daOjvYsMQ55Ko-36" value="" style="endArrow=none;html=1;fontSize=25;fontColor=#7F00FF;exitX=0.5;exitY=0;exitDx=0;exitDy=0;entryX=0.5;entryY=1;entryDx=0;entryDy=0;fontStyle=0;strokeWidth=4;strokeColor=#d6b656;" parent="Ef5aAg3daOjvYsMQ55Ko-1" source="2S4IqR70EECTiOiU6gtD-43" target="Ef5aAg3daOjvYsMQ55Ko-18" edge="1">
                    <mxGeometry width="50" height="50" relative="1" as="geometry">
                        <mxPoint x="2945" y="770" as="sourcePoint"/>
                        <mxPoint x="2945" y="710" as="targetPoint"/>
                    </mxGeometry>
                </mxCell>
                <mxCell id="Ef5aAg3daOjvYsMQ55Ko-37" value="" style="endArrow=none;html=1;fontSize=25;fontColor=#7F00FF;exitX=1;exitY=0.5;exitDx=0;exitDy=0;entryX=0;entryY=0.5;entryDx=0;entryDy=0;fontStyle=0;strokeWidth=4;strokeColor=#d6b656;" parent="Ef5aAg3daOjvYsMQ55Ko-1" source="Ef5aAg3daOjvYsMQ55Ko-9" target="Ef5aAg3daOjvYsMQ55Ko-18" edge="1">
                    <mxGeometry width="50" height="50" relative="1" as="geometry">
                        <mxPoint x="3305" y="772.46" as="sourcePoint"/>
                        <mxPoint x="3305" y="710" as="targetPoint"/>
                    </mxGeometry>
                </mxCell>
                <mxCell id="2S4IqR70EECTiOiU6gtD-5" value="Hubungkan probe merah ke terminal positif (+) dan hitam ke negatif (-)." style="rounded=1;whiteSpace=wrap;html=1;strokeWidth=4;arcSize=4;fillColor=#647687;strokeColor=none;fontSize=20;fontStyle=1;fontColor=#ffffff;" parent="Ef5aAg3daOjvYsMQ55Ko-1" vertex="1">
                    <mxGeometry x="685" y="456" width="300" height="130" as="geometry"/>
                </mxCell>
                <mxCell id="2S4IqR70EECTiOiU6gtD-11" value="Hubungkan kedua probe ke ujung komponen. Pastikan rangkaian tidak dialiri listrik." style="rounded=1;whiteSpace=wrap;html=1;strokeWidth=4;arcSize=4;fillColor=#fa6800;strokeColor=none;fontSize=26;fontStyle=1;fontColor=#FFFFFF;" parent="Ef5aAg3daOjvYsMQ55Ko-1" vertex="1">
                    <mxGeometry x="1428" y="780" width="300" height="230" as="geometry"/>
                </mxCell>
                <mxCell id="2S4IqR70EECTiOiU6gtD-15" value="" style="group" parent="Ef5aAg3daOjvYsMQ55Ko-1" vertex="1" connectable="0">
                    <mxGeometry x="270" y="230" width="200" height="200" as="geometry"/>
                </mxCell>
                <mxCell id="Ef5aAg3daOjvYsMQ55Ko-5" value="" style="rounded=1;whiteSpace=wrap;html=1;strokeWidth=4;arcSize=4;fillColor=#dae8fc;strokeColor=#6c8ebf;" parent="2S4IqR70EECTiOiU6gtD-15" vertex="1">
                    <mxGeometry width="200" height="200" as="geometry"/>
                </mxCell>
                <mxCell id="2S4IqR70EECTiOiU6gtD-0" value="" style="shape=image;verticalLabelPosition=bottom;labelBackgroundColor=default;verticalAlign=top;aspect=fixed;imageAspect=0;image=data:image/png,iVBORw0KGgoAAAANSUhEUgAAAgAAAAIACAYAAAD0eNT6AAAABHNCSVQICAgIfAhkiAAAAAlwSFlzAAAOxAAADsQBlSsOGwAAABl0RVh0U29mdHdhcmUAd3d3Lmlua3NjYXBlLm9yZ5vuPBoAACAASURBVHic7N15nFxlmTf833XOqe3Umj1kgRACCSFAQiBsAZolSVdvSS8nGyCb4OMuCuJOi4LKIOk8n+d5P+87j8v4OOKCMoqjuMwMM87oiODMOBBIdzUgorjMKFvSnfRS9/tHjLIkpPt0Vd3nqvp9/1OSql+q6pxznevcC0BEREREREREREREREREREREREREREREREREREREREREREREREREREREREREREREREREREREREREREREREREREREREREREREREREREREREREREREREREREREREREREREREREREREREREREREVFNiOwARVZYJAndwj7PIOOVlpmyWOY5ZZIzME8gcoDzLQJIAsvjz8W8AvCgw+4zI72DktyLlX5fL8nMY85i42H287zwld989bu9fRUSVxgKASLndHR1ZdzTWBJGzjcHZEJwBIF3RNxHsQRkPiYMfoWx+PB4b/cdl9977YkXfg4hqigUAkUKl4pbjjJS7BKbZAOcBiNU4wggE/2zKuE8c8zcnfOtrT9T4/YloilgAECnR375tJsbGtgrMdgjOtp3nJYwB/tURfGFkTL500nfv/oPtQER0ZCwAiCKuv63zVBl33gSRywD4tvMcwX4D8xVTxh3LvvO1/7QdhogOjwUAUUT1t/ac5xj0GuAi21nCkb8rm/HeZffd80PbSYjo1VgAEEXMQEv3mYB8BMA621kqwsh3jRn/4NLv3POg7ShE9GcsAIgi4smWYO6oKX8YIq8H4NjOU2HGwPx1zIvfuPjeL/7WdhgiYgFAZJ3p7XVKP9n1VsB8GEDedp4qe84Y+eAJZ570/0hvb9l2GKJGxgKAyKJHW7qO8YzzVxA02c5SSwb4kWPc1x1/35cft52FqFHVW5uRSI2BluBKD85/NtrFHwAEOMfI+E9LLcHltrMQNSp2AIhqrFQsJgz8/wmR62xniQRj/nI047z1pLvvHrEdhaiRsAAgqqHdHVvnOWPjXwPMWbazRIkBfjQ+Xu5Z/t17fm07C1GjYAFAVCMDrVtOhBn7LiALbWeJIgM8Bdc0L/3m13bbzkLUCDgGgKgG+pu7zoAZ/wEv/ocnwDEyLj8stQVRWuaYqG6xACCqst3F4CJxnPsBzLSdRYHpxpjvldp6mmwHIap3fARAVEWlYtdZxnG+D4OM7SzKDJmybFj6nbv/xXYQonrFAoCoSgZagpWA+QcA02xnUep5R+TiJd+6+6e2gxDVIxYARFWwuz041hk3DwCYZTuLcr8dQ/nM5d++5ynbQYjqDccAEFXYrqYg446bb4AX/0qY48H5dql4ac52EKJ6wwKAqIJMb68TS5kvGOBk21nqyHLjjHzRBIFrOwhRPWEBQFRBpZ888j4IOmznqDvGtAzuxY22YxDVE44BIKqQ/uauM8RxfgggZjtLnRoTUz7v+Pvu+bHtIET1gAUAUQXsagoyMd/8G4DjbWepc0+ISaw6/r4vvGA7CJF2fARAVAFx3+wAL/61sNjI/ttthyCqB+wAEE1Rf3OwVhzzA/B4qpVy2ZTPX3bfPT+0HYRIM3YAiKbg/qYmTxz8L/DiX0uOI+7/+9Dq6zjWgmgKWAAQTcH81Mx3AuZU2zkaj1mRm/2H622nINKMdy1EIT3RsW3O2NjoAAAuUmODYE/Z9ZYuu/dLz9iOQqQROwBEIY2Njn4CvPjbY5BxxkZvtR2DSCt2AIhCKLV3nWbGnQfBItq2snHk7KV/e/dPbAch0oYnL6JJMoCYsrMTPH6iwJFx02d4M0M0aTyBEU3SYGv3pTBYazsH/ZHg7MFiz3bbMYi0YdVMNAnPtLf7e8YTjwE42nYWeplfDY+llp76vc/vtR2ESAt2AIgmYc944r3gxT+K5qdiwzfZDkGkCTsARBM0uH7rwrI3thuAbzsLHdLweNlbfuJ3vvRz20GINGAHgGiCyt7YJ8GLf5SlHGfsE7ZDEGnBDgDRBOwudp3riPPP4DETeWKk6fj77v4n2zmIoo4dAKIjML29jiPOTvDir4IR02eCwLWdgyjqWAAQHUHpwV2vB7Dadg6asJUDe8pX2w5BFHW8oyF6DaXipbmy7O8XYK7tLDQpv4vFx5Ye+/WvP2c7CFFUebYDEEWa7LtZIHVx8ZeUILkshvgiD05e4GYONADH95RRft5g5MlR7Osfgxk2lpNWxOyxUe8DAG6wHYQoqtgBIDqMwQ3BkrJrHgGQsJ1lKmJHucgWU0itikNir/1nzSgw/G8jePG+IYz+plybgNUzWi7Lycu+c3e/7SBEUcQOANFhlD3shNF78RcXyHenkWlKTHi0j8QA/8w4/DPi2HP/Pjx/zxDMeHVzVlHMccwnAbTZDkIURewAEB3CQGv3JTDyfds5wnIygplvySK+aGo1/siTY/jv/7UH5b16uwHGoGXpfV+9z3YOoqjhLACiV7i/qckDpM92jrAkJZj51qlf/AEgfqyHWe/IQny99woiuPOh1dcd4eEHUeNhAUD0Cgv8GW+FwUm2c4Q1/YoM4sdU7ulebKGLGVdmKvZ6FizLz/7Dm22HIIoavWU9URXs2hBMj7mmBGC67SxhpM9NYNrl6aq89rOf24O9/zpSldeugefEyAnH33f3f9kOQhQV7AAQvUTMNbdB6cXfSQvyXamqvX4hSMPJqL1nKBgxt9gOQRQlLACI/qi0ofskANfYzhFWvsOHk67eIS2+IN+uei+ka/vbOk+1HYIoKlgAEP2RcWUHlE6N9ea58NfGq/4+6fMSiC1Qu8y+i7K3w3YIoqhgAUAEoFQMegCss50jrELgQ9watOedA++llcBcONDS3W07B1EUsACghlcqFhPGMR+znSOs1Ko4kifWbpZbYmkMqZWaZ9XJXzzZdGXSdgoi21gAUMMzkr4RBkts5whDXCDfWb2Bf4eT7/GPuKxwhB07mt77LtshiGxjAUANrb8tmA/BTbZzhJVdn4I3u/bP5L2ZLrIXK76JNuZ9g+u3LrQdg8gmFgDU2Mrlj8FA5So3TlaQ2WDvIpxpTsHNq50W6Btv7KO2QxDZxAKAGlap2HWWQC6znSOsfLcPJ2nvAuwkBblOvQMCDXB5f3Ow1nYOIltYAFBDMoAYcfqgdDXM2NEu0mfa36gwfWaiInsOWCLimD7T28vzIDUk/vCpIQ20dr8OwJm2c4QiQGFzOhqliwCFzX40soSzeuCBR9R2gYimggUANZxdTUFGynKb7Rxh+WviSCyJzl13fLEHf439bkRYIri9VLw0ZzsHUa2xAKCGE0+b90Iwz3aOMCQuyG+M3nP3fGfK6niEKZpjsO/dtkMQ1RoLAGoou9uDY43BO23nCCtbTMGdHr3D1i04yKxXPC1Q5IbBDYHKtSCIworemYSoipxxcwcAlVcqd7qD7MXRbbVn16XgzVB7SkmUXXzcdgiiWlJ7tBJN1mBr14UAumznCKvQ40Pi0W2zS+zA1ES9TPdAS6B2PwiiyWIBQA3BBIFbNk6f7RxhJZZ4SK2q/m5/U5U6LY7ECXrXCIaYHfc3NUVnhCVRFbEAoIYwuAfXATjFdo5QojTtbwIKm1N6zywGJ833Z7zedgyiWtB6mBJN2FOt26cZMbfYzhFW+rwkYkfXfr3/sGILPKTPje5YhSOTWx/r7JxhOwVRtbEAoLq33+y/GcBM2znCcJKCfHvtd/ubqnyHD0kpaVm82nR3n/sB2yGIqo0FANW1gdYtJwLyJts5wsq1p+Bk9V1Inawg16qvcPkTwVsGWztX2I5BVE0sAKiuGTN+JwCVo9Jic1ykm1TOWAQAZC5MwJun59HFK3hl4+2wHYKomlgAUN0aaOlpE6DZdo6w8oEPUXv9BMQVFALV0wIvGWgNWm2nIKoWFgBUl3YFQRzAHbZzhJVcEUNyhcrGxcskT4wheXL0py8enukrFYuaRzQSHRYLAKpLsSHzNgBLbecIQ1wg36P5zvnlCpo7GQZLyki/xXYMompgAUB1Z3B952wYqB3FnbkwidhcrVfMV/NmO6rHMojg5idbgrm2cxBVGgsAqjvGc28FkLedIwz1o+cPI9eegpNTe7rJjileR4LocNQekUSHMtASrDTAVbZzhJXfqHr+/GFpXc/gIGNwze6W7tNt5yCqJBYAVGdMHwCV/fPYQhfpc+p3vFl6bULVioav4Lhw+oyaBZmJjowFANWN/mKwBcAFtnOEVQjS9X1EClDY4qu9hBqYcwdbugPbOYgqpZ5PN9RAng6ClEhZ7X7uB3bRq/9N6BLHxVTsang4Brjjmfb2+pmiQQ2NBQDVhX1DuBGQRZZjhCIxIN/dONeUQo8PiSttA0AW7hlLvMt2CqJKYAFA6vW3BfONMe+2nSOs7PoUvBmNcyi60x1kL9E7LRCC9z7eHhxtOwbRVDXOWYfqlpTLtwNI284RhltwkFmvd3R8WNnmJNzpak8/qfGyuc12CKKpUnsEEgFAqS04G5BttnOEle/04dTvwP/Dkrggv1Fx4WOwvb+15zzbMYimggUAqWV6ex1TNn1QOq48vtiDv0bvgLip8tckkFiiduCjSFn6TG8vz6GkFn+8pFbpJ49cAWCN7RyhCFDYrHdKXEUIUNic1vsZiDmt9JNdr7MdgygsFgCk0u6OjiyAW23nCCt9VhzxRWrvfismdrSL9Jman4GYj5eKl+ZspyAKgwUAqeSMxt8P4CjbOcJwkoLcJpVjFqsi3+3DSWptA2BOWfa913YIojBYAJA6A63diyF4h+0cYWWLKbh5tRe8inOygkyz3gGBAnnn423dx9vOQTRZLABIHWPkTgAq+8beTBeZixTPga+S7LokvNlq9wmIl8vO7bZDEE0WCwBSZXcxuEiAjbZzhJXv8SEx2ymiR1wg36m3C2BgNpWKPett5yCaDBYApIYJAtcV02c7R1jJpR5SK3n1P5zUqjiSy/V+Pkaw4/6mJo7sJDVYAJAaA3vwRgOcbDtHKA6QDzjw70jygQ9x1Y6PWD7Pn/EG2yGIJooFAKnwVOv2aSLmZts5wkqfl0Bsgdpn3DUTO8qFv1bv4kgC+chjnZ0zbOcgmggWAKTCCPbfAmCm7RxhiC/IcwfZCct3+HDSak9N09x9rtpClRqL2qOMGsdA65YTjRG1rdV8ewpORm1bu+actCDXqndAIARveqwl0PmoihoKCwCKvnJ5BwCVo8Nicx2kz+e0v8lKXxCHN0/teDrXFbPDdgiiI2EBQJFWaunZCDEbbOcIqxCkIXz0P2niCgqbFXcBDC4utQYdtmMQvRYWABRZu4IgDhi1C6wkT4kjcZLKxkUkJJfFkDxZ7+dnTPnOUrGocsEqagwsACiy4kPmegM5wXaOMMQ9sMY9TU1hcxriaR0/IccZpN9uOwXR4bAAoEgaXN852xio3WQlc3ESsTk8vKbKm+Ugc6Him2jBBx7d0KVy0yqqfzxDUSSVY+7HAORt5wjDyTrIFRU/v46YbGsKbl7tqSrruvIR2yGIDkXtUUX1q1TsXgWDK23nCCu/KQVJaW1bR4+TFOTa9RZUArmqv7nrDNs5iF6JBQBFigHEiOyE0t9mbKGH9DmKW9YRlT43gfgitdMCHRFnpwFYFVKkqDzJUv0qtQTbAJxnO0dYhc0pnuarQYDCZl/vZys4u9TSvdV2DKKXYgFAkfF0EKQMzG22c4Tlnx5H4ni909aiLr7Yg79a7z4BgNz+s/WXc0coigwWABQZQ3vNTQIcYztHGBIT5Lo47a/a8t0+HL1PWBYkveEbbYcgOogFAEVCqdi1QIAbbOcIK7shCW86D6dqc6c5yKzTPCAQ7360pUtlkUv1h2csigaROwCobI9qvyhpk92QhKu32Ep5xvm47RBEAAsAioDB1p5zDGSz7RxhKW9LqyMxQb5TccEl2DrQ0nW+7RhELADIKtPb6xiDnVA6vlv/wDSd/NMTSCxROy0QgNNnent5/iWr+AMkqwZ+8sjVBjjddo5QtE9N00yAwhbVn/2qwQd3XWU7BDU2FgBkze6OjqwAt9jOEVb6HNWL06infdElY8xtj18SqFzumuoDCwCyxhmNfwiAyo1SnKQg16H4OXSdyG9Uvezy7PF4+f22Q1DjYgFAVpSKW46D4K22c4SVbVG9QU3dcHIOcs2aCzF5+2MtW1RueU368QxGVhgZ7wOgsn/rzXKQuUhl9LqUuUT11stxF+U7bIegxqT2qCG9+pt7LgbQZjtHWIUgDfHUtp3rjrhAXvUqjKZ9sCVotp2CGg8LAKqp+5uaPHGkz3aOsJLLYkiewvX+oyZ5ahyJ5Xq/lzLKdz60+jq9/wBSiQUA1dR8f9abAbPCdo4wxBXkA813mvWtsDkNcW2nCEtOzM35/Rttp6DGwgKAambXhmA6jPmg7Rxhpc9PIDZf7RWm7sXmOkifr3lshvT2t2+baTsFNQ4WAFQzMa/8UQhm2M4RhviCXFvSdgw6gny7DyejdnzGNIyPfth2CGocLACoJkrFYDmMXGs7R1j5jhScNA+XqBNfkGvV+5hGgDfsbu4+xXYOagw8o1FNGDE7AKhcNi92lIv0eZpby40lc4HqRzWu68gO2yGoMbAAoKobaO3pArDedo6w8oEPcdW2lRuPA+Q3q9xZGgBggIv624JO2zmo/rEAoKraFQRxGKjd/zy1Mo6k4ulljSq51EPyVL27NErZ3PFk05UcdEJVxQKAqsrba94F4HjbOcI4sMCM5mVmG1shSGlesGnxmL/3HbZDUH1jAUBV80THtjkCvMd2jrAylyThzVb7LLnheTNdZC7SexNtxLx/d8fWebZzUP1iAUBVMzY6+gkAOds5wnCygmyRd//aZVuSejdtMsg4Y6O32o5B9UvpkUFRN9garIbgcts5wsp3peEk1baP6Y+cpCC3UXMhJ1f0twVrbKeg+sQCgCrOAFKG6YPS31dsoYf0WXoHkNHLpc9OIL5I5QxUABApY6cBWI1Sxak8QVO0DbZ2XwqDtbZzhCJAYYvP0209EaCwWfN3as4aLPZst52C6g8LAKqoZ9rbfWNE7XNLf00ciSVq7xbpMOKLPfhn6O3qGMEnfrb+cr2LG1AksQCgitoznngvgKNt5whDYoL8Rr3LyNJry3f5cPQu6Dg/FRu+yXYIqi8sAKhiBtdvXQjgnbZzhJVtTsKdzkOiXrkFB5n1igs8gxsfa966yHYMqh8821HFlGNjdwJQeYZ1pzvIrtM7Z5wmJrs+AW+G2tNe0nXGbrcdguqH2iOBomV3setcGHTbzhFWoduHxNWOEqMJkpgg16myRj0oKBWDC2yHoPrAAoCmzPT2Oo44O6F0nHXiuBhSp+kdIEaT458eR+IEvQM9jZg+EwRcopKmjAUATVnpJ49cC2C17RyhCJDfnFJaulBYhSCt+ey3sjSEa2yHIP30HgIUCaXipTkD9NrOEVb63ATix+i9G6RwYgtdpM/VOyUAxnz0yU2bCrZjkG4sAGhKyrK/V4C5tnOE4SQF+Q7Ny8TSVOTbU5CU2tbPrLER94O2Q5BuLAAotMENwRIB3mw7R1jZ1hScHA+BRuXkHORa9BaABvLW3c3BUts5SC+e/Si0soedAFSOnvNmO8hcqLgFTBWRuSiJ2Fy14+lijmM+aTsE6cUCgEIZaAnWwZgW2znCKmxOQzy17V+qEHGBfLfqaYGt/cWeou0QpBMLAJq0+5uaPIjZYTtHWMllMSRXxGzHUOG5F4ztCFWXPFn370EEdz60+jq9/wCyhgUATdo8f9bbYHCS7RxhiCsHdoajI3rmt2X8+KejtmPURD7wIWqfBGBZfs7v32I7BOnDAoAmpVQMZgmM2tHH6QsS8ObpPdPXijHAp78wBF/vGLlJic1xkb5A75gQA+l9omPbHNs5SBcWADQpRsxHAKicf+ykBblWrvc/Eff9/X6UnhzHtAaaJZFv8+Fk1I4LyY2NjfbaDkG6NM7RTVPW39Z5KoDX284RVn5jCk6aP/kj+c3vyrjn2/sBAPmc2gvipIkvyLerfjx03WBroHNFTrKCZ0OaMBl3+wCo7J9781z4mld+qxFjgE/fNYSR0QOD/wr5xjpFpM9LILZA7cqQThmmz3Bha5qgxjq6KbRSa08AQZPtHGEVAh/i8rx4JN//wQj6Hx8HADgOkEk32GfmAIVA8cAHg7WDxUDtrpxUWywA6IiebLoyaYxRuw956rQ4kidyltSR/PcfyvjqN/f96X/nMgKnAc8QiaUxpFapXN8KAGCkfOcz7bqfZVBtNODhTZM16u+5AZBFlmOEIp4gv4nnwiMxBvjMF4exb/+f5/3nG2gA4Cvle3yI2ppRFu4pJ6+3nYKir3GPcJqQ/rZgPgQ32c4RVnZdAt5s/syP5P4f7scju8de9v812vP/l/JmOMheovlRgHnf4+3B0bZjULQ17hFOE1M2H4dBxnaMMJycg8wGxSfxGnn2uTK+cu/+V/3/hQaaAXAomQ1JuHm1n4E/Nl7+qO0QFG0sAOiwSsWuswS41HaOsArdPpyk2hN4zXzqi8MYGn71kr+NNAXwUJykINep9/GRQC7rbw7W2s5B0cUCgA7JAGLE2QmlU4piR7vw1+gdyFUrP/jxCB5+dOyQ/y2fVfnVV1T6zATix6qdFijimD7T28vzPB0Sfxh0SAOt3a8DsMZ2jlAEKGzxlZYutfPcCwZ3/c2+w/73Rh4D8CdyYAqp4t/S6oEHHrnMdgiKJh7h9Cq7moKMlOU22znCSp+ZQOI4tUO4a+ZzXxnC0NDhd/tr9EcAB8UXe6q7SSK4vVS8NGc7B0UPCwB6lbhv3gfBPNs5wtD+3LZWfvTgKH76s0O3/g8qNPA0wFdSPp5kDpz9amfyUPXwCKeXGWjtXmwAtXOIlY/crok9ewzuumf4iH8un+Xp4SDtM0qMwQ2Pt3UfbzsHRQuPcHq5stwBQOWWeernbtfIZ788jBf2HL71DwCppCDBrRNeRvmaEvHxsnzcdgiKFrW/Zqq8wdauCyHotJ0jrHy35tXbauPf/nMUD/7H6BH/HJ//v1odrCrZNdASrLMdgqKDBQABAEwQuGXj9NnOEVZiaQyp0/QO1KqFPXvL+MyXjtz6B/j8/3DU7yshZsf9TU1q5zVSZfEoJwDA4JB5A4BTbOcIRfsObjXy+a/uwwsvvnbr/yCuAXB4qneWNDhpQWrWtbZjUDSwACA81bp9mjH4sO0cYSnfw70mfrZrDP/60JFb/wflOZDysLx5Lvxz9Q6QMGI++lhn5wzbOcg+FgCE/WakF8BM2znCkJQgz51PX9PwPoPPfmloUn+HMwBeW35jCk5abZE03d3vfNB2CLKPR3mDG2jdciKAN9rOEVa+LQUno/ZEXBNf+No+/OG5ibX+D+IqgK/NSQtyLZofO8mbB1s7V9hOQXbxKG9wxozfCUDlqKbYHBfpJpUzFmtm18AY/vmBkUn/vQLHABxRuikBb55rO0ZYXtl4O2yHILtYADSwUrG7XYBm2znCygc+RO35t/qG9xl86gvDMJO7+QfAMQATIa6gsFnz4ydzyUBLT5vtFGQPC4AGtSsI4hDcYTtHWMmTY0iuUNm4qJkvf2M/fv+Hcqi/y2mAE5Ncpv13aPpKxaLeEY00JTzKG1RsyLzNQE6wnSMMcQ8s+kOH91hpDPf/cH+ov+u6gozeAW41V9ichnhaPy85roz0W2ynIDtYADSgwfWds2HwAds5wspclERsLnv/h7N/xOAzXwzX+geAbAZweGaYMG+2g0yT3ptoEdz8ZEsw13YOqj0e5g3IeO6tAPK2c4ThZB3lo6+r7+579+G3/xWu9Q+w/R9Gti0FR+/nlh0Tc4vtEFR7an+xFE6p2L3KAFfZzhFWviMFSWltt1bf4JNj+Lt/nvyo/5fK672QWeMkBfkOvYWpMbhmd0v36bZzUG3xSG8wRpw+ACr757GFLtKKV2CrttExg0/ftQ/l8Df/AIACNwIKJX1uAvFj1K5I6QhkpwH45TcQFgANpL8YbAHM+bZzhFUI0vzFvoavfWs/fvWb8Sm/DncCDEmA/OaU2kuoAOcMtnQHtnNQ7fB02iCeDoKUSFntfuCp1XEkTlB7d1V1Tzw1hu/8Q7hR/69U4DLAoSWOiyG1Su+ulAa445l2rq3dKHikN4h9e827AVlkOUYoEhPku3hOOpyxceBTX5h66/8gLgI0NYUeHxLX+hnKwr3l5A22U1BtsABoAKVi1wID3Gg7R1jZ9Ql4M/hTPZyv37cPv/z11Fv/B/ERwNS40x1k1+ldotoY855HW7qOsZ2Dqo9n1QZgxLkdQNp2jjDcgoPMet79H84vfjWOb32/Mq3/gzgNcOqyzUm409V+jikPcpvtEFR9an+hNDGltuBsAFtt5wgr3+XD4cD/QxofP7DW/3iFWv8HcSvgqZOYIL9Rc+Eq2/pbe86znYKqi0d6HTO9vY4pmz4oHZccX+zBP0PvgKpq++b3RvDzpyvX+geAVFKQYMFVEf6aOBJL1A5cFSlLn+nt5TWijvHLrWODDzx8JYA1tnOEIjiw05rK0qX6nvltGd/8/r6Kvy6f/1eQAIUtin/DYk4r/eSRK2zHoOphAVCndnd0ZI3IR23nCCt9dgLxRWrvnqqqXAb+8vNDGB2t/Gvz+X9lxRZ6SJ+luov1sccvCVQuG05HxqO9Tjlj8Q8AOMp2jjCcpCC3Ue+yqtX27X/Yjyeeqmzr/yB2ACov35WGk1T7uc4Zj5n32g5B1cECoA4NtHYvBvB22znCyrYk4eb50zyUX/92HF//dmVH/b8UC4DKc7KCbFFxQSu4/vG27uNtx6DK41m2DhkjdwJQOZTLm+kic6Hik2UVGQN8+q59GBkNuc/vBPARQHVkLknCm61yCw4AiJfLzu22Q1Dl8WivM7uLwUUCbLSdI6x8TwoSs50imr77jyMYeGKsqu/BnQCrQ1yoXs3SwGwqtXZvsJ2DKotHex0xQeC6Yvps5wgrudRDaqXqAVNV81+/L+OewXXjWwAAIABJREFUb1V+1P8rcSfA6kmtjCG5XG91a4zc+dDq6/T+A+hVWADUkdKQeZMBTradIxQHyG9WuVhh1RkDfPaLw9i3v3qt/4M4BqC68oEPcdV+xsuzs599g+0QVDksAOrEU63bp6GMm23nCCtzfhKx+WqfkVbVP/zLCB7pr27r/yCOAaiu2FEu/LV6u1wi5pbHOjtn2M5BlcGjvU6MYP8tEKg8MMUX5No48O9Q/vtZg6/cW/3WPwC4riCbUXt3qka+w4eTVnvqnebuc9XeaNDLqf0V0p+VisFyY0Rtay7fnoLDC88hffaLQxjeV/3WPwBkM4Dwa6g6Jy3ItendLRCCNz3WEuh81EgvwwKgDhjgTgAqB+fE5jpIn6/4ZFhF//SvI3j4sdq0/gG2/2spfX5C8yMv14Pewcb0Zzzilesvdm+CGLXTcwqb0xC158Hqee55gy9+vTat/4M4ALB2xBXkA83TAnFRqaVH7XRjOoAFgGK7giAuImoX6EieGkdC8bSoavrcV4YxNFSb1v9B7ADUVnJZDMlT9P7+DXBnqVhUueAYHcAjXrH4kLkegMolOrUvjFJNP3xwFD/9zyrs9HMEBS6/XHOFIA3x1HZeFhuk1S45TiwA1HqiY9scY6B2k47MJUnE5vDn90ov7jG4655hK++dz6q9EKnlzXKQuUjxTbTgA49u6FK56RixAFBrbGz0YwBUbtPpZB3kmjnt71D+6svDeHFPbVv/B3EMgB3ZlpTmza+ynueo3Xa80an91TWyUnvXaQCusJ0jrPymFCTFi80rPfDvo3jwP2rf+j+IBYAdTlKQ61BcEBtc2d8WrLEdgyaPBYAyBhAz7vRB6XcXW+ghfY7ilmeV7NlbxufvttP6P4hjAOxJn5NAfJFnO0ZYjoybPgOwglSGR7wypZZgG4DzbOcIq7DF52niEP7v3fvwwot2Wv8HcQyARQIUNis+NgRnl1q6t9qOQZPDAkCRp4MgZWBus50jLP+MBBJL1N7lVM1/7BrDj39qr/UPAKmkIBHXevWpD/HFHvzVevcJAOT2n62/nDt6KcICQJGhPeX3CHCM7RxhSEyQ61T8nLNKhvcZfPZLdlv/ANv/UZHv9uHofUK2IOkN32g7BE0cj3olBtdvXSgiN9jOEVZ2QxLedP7cXumvv7oPzz5Xth2D7f+IcKc5yKzTWygL8O7Hmrcusp2DJoZnZCXGvbE7AKhcOUf7Sa1aHukfw7/8ZMR2DACcARAl2Q1JuHqL5ZTnjH7cdgiaGLW/skYy2NpzjgCB7RxhKW9rVsXwPoNPfWEYxu64vz/hMsDRITFRvUqmgWwZaOk633YOOjIe9RFnensdY7ATSscH6x/YVB1f/Po+/OFZ+63/g/J5lT+vuuWfHkfieL37BABOnwkCbvMVcSwAIm7ggYevMcDptnOEon1qU5U8OjCGf/pRNFr/B3EMQPQUNqc0HzurBvaaq2yHoNfGAiDCdnd0ZCFyi+0cYaXPVb24SVXsHzH4zBej0/o/iI8Aokf7olkC3Pr4JYHK5cobBY/6CHPH4zcLMNd2jjCcpCDXzoF/r/Tle/fhd/8dndb/QSwAoim/UfWy2bPHY+YDtkPQ4fGoj6hScctxxuAttnOElW1VvcFJVQw+OYa//0G0Wv8HcRZANDk5B7mi4kJa8LbHWracYDsGHRrP0BFlZLwPgMr+nzfLQeZCldGrZmTU4C//OnqtfwBwXUE2wwIgqjIXq946O+6ifIftEHRoan9V9WygtfsSAG22c4RVCHyIxwvKS33tb/fjN7+LXusfAHJZgfDriixxgXy35hV2TftgS9BsOwW9GguAiLm/qcmDcXbYzhFWclkMyVM47e+lHv/5OL77j/ttxzgszgCIvuQpMSRO0jstsIzynQ+tvk7vP6BOsQCImPn+rDcDZoXtHGGIKwemLtGfjI4ZfOquIZSjefMPgM//tSgEaYjamfVyYm7O799oOwW9HAuACNm1IZgOYz5oO0dY6fMT8OZx2t9Lff2+/fjVryN89Qc3AtIiNtdB+vyk7RhTIL397dtm2k5Bf8YjP0JiXvmjEMywnSMMJy3ItWk+OVXeL345jm//XXRb/wdxCqAe+fYUHL0DNqdhfPTDtkPQn/HIj4jShu6TYORa2znCynf4cNL8OR00Pm7wqbuGMR7tm38AHAOgifiCXJvex2wCvGF3c/cptnPQATxjR4RxZQcAlf3z2FEu/LUc+PdS935vBD9/etx2jAkpcAyAKpnzk4gtUDsYwBXH6bMdgg5gARABA609XQDW2c4RVj7wIS4vIgc9/asyvvndfbZjTFieYwB0cYB8oHdaoMBc2N8WdNrOQSwArNsVBHEYqN0/O7UyhuRyzu456EDrfwhjOm7+AXAWgEbJpR5SK/V23aRs7niy6UoOGrKMBYBl3h5zA4DjbecIQ1yo3re8Gr799yN48heKrv7gGACt8j0piN7ae/GIv+d62yEaHQsAi57o2DZHBDfZzhFWdl0S3my1zyIr7te/HcfXv6On9Q8AqaQgEWcBoJE300XmIr030SJ43+6OrfNs52hkLAAsGh8bvR1AznaOMJysINOsdzRypRkDfPqufRgdtZ1kcrgGgG7ZYgpuXmkBZ5BxRsdusx2jkfHot2SwNVhtgMts5wgr3+3DSSo98VTBd+7fj4EnxmzHmDTOANDNSQpym/QOCITgdf1twRrbMRoVCwALDCBlmD4o/fxjCz2kz+Rufwf91+/LuOfbulr/B3EAoH7ps+KIL1I5gxgARMrYaQD+EC1QeQHSbrAluAwGa23nCEWAwhafh+sfGQP8n78exv7oL/h3SPksTwHqCVDYrPmYNGcNtnZfajtFI+LRX2PPtLf7BuajtnOE5a9JILFE7d1Gxf39D0awe1Bf6/+gvNbnx/Qy8cUe/DV6pwUaIx/f1RRkbOdoNCwAamzPWPx9AI62nSMMiQvyGznw76D/ftbg7r/V2fo/iGMA6ke+04ej98nc/Jhv1M6I0ooFQA0Nrt+6ECJq575mm5Nwp/MnAxxo/X/2riEM7zO2o0xJnhsB1Q234CCzXnWBfsNjzVsX2Q7RSHj011A5NnYnAJUr57jTHWQv0TvnuNL+6UcjeHi33tb/QQWOAagr2fUpeDPUfqdJ1xm73XaIRqL2l6JNf3OwFgbdtnOEVejxIVwwBgDw3PMGX/qG7tb/QQWOAagrElO/OmdQautpsh2iUbAAqAHT2+uIY/qgdJxu4rgYUqv0DjCqtL/6yjCGhnW3/gHAdQWZtMqfJL2G1Oo4EifoHahrytJngoBLjNYAC4AaKP3k4esArLadIxRO+3uZf35gBP/2n8qW+zuMXFYg/F7rUiFIKz67m1NLe83rbadoBGp/IlqUipfmAOm1nSOs9NoEYkezGAeA518o46576qP1D3AGQD2LLXSRPkfvlAAAH3ly06aC7RD1jgVAlZVlfy+AObZzhOEkBfl21aOKK+pzd+/D3iH9rf+DuAtgfctv9CEptd/xrLER94O2Q9Q7FgBV1N/evUyAt9jOEVa2LQWH08QAAD/+6Sge+o/6aP0flOdGQHXNyQpyLXoLeAN5W2lD90m2c9QzngGqyBmXOwGo3LHbm+0g06S6hVgxe/YY/PVXh23HqLhpfARQ9zIXJRGbq/YRnmdc2WE7RD1jAVAlA61BqwGKtnOEVQh8iMcLBAB87ivDeGFP/bT+D+IiQPVPXCDfo3pa4Lr+5u4W2yHqFc8AVfDQ6utiMOaTtnOElTwxhuTJnPYHAP/+yCge+Pf6av0fxDEAjSG5IobkCpWNSACAuLJzVxDwhFQFLACqIDvn2bcCWGo7RxjiCgqB6juGihkaNvirL9fPqP9X4iJAjSMf+BCtTwIMlsT3lt9sO0Y9YgFQYaViMEtg1I5eTTcl4M3TeqaorM/fPYxnnyvbjlE1fATQOGJzXKQv0LuUt4H0PtkSzLWdo97wDFBhBuWPAlA5f9VJ6x41XEk/2zWKHz5Yn63/g3J8BNBQ8u0pOHq/89woTK/tEPWGBUAFDbQEKyFyje0cYeU3+XC4NCyG9xl8to5b/wCQSgoS3NuhoUhK/boe1w62BjpXVI0oFgAVZfoAqOyfe/Nc+OdwnA0A3HXPPvzh2fpt/QPAND7/b0jptUnEFqjdJ8AxBjsNFyavGBYAFVJq7QkAXGA7R1jTtvoQl8fVowPj+MGPR2zHqDo+/29QDlDYqndvDwNz7mAxULuratTwLFABTzZdmTTGqN3HOnVaHIkT9E4TqpT9+4HP3DUEU39T/l+lwAKgYSWWeKp39zRSvvOZ9nZOVaoAngUqYDS150ZAFlmOEYrEgHw3jyUA+NI3hvG739d36/+gfM52ArKp0OND1I4BkYV7xhPvtJ2iHmj9BURGf1swX8qmH0DadpYwci0p5DpUDwyqiN2DY/jY/9zbEHf/ABCLAbEYD/+pWnqci3dcm1a5rfIL3xjCC/epHew65Lpy4nHfvPsXtoNopnY0SFSIMZ+A0ou/W3CQWa93bnCl7B8x+PRdww1z8QeA0VFgdLSB/sFVEI8Jtm1Kqbz4A0C2mMLeB0Yw/geVXS9/bNzcCuBy20E04yOAKSgVu86CwXbbOcLKd6bgJJWevSroa3+7D7/9L5UnQbKouy2BubP1nkIlLshv1Pv4T4BL+5uDtbZzaKb312uZAcSIsxNKH6PEF3vw13C3v8Enx/G9f6r/Uf9UWcctcrGhDnbL9NfEkViithEs4pg+09vL61hI/OBCKrUEVwBYYztHKHJgtz+dpUvljI4daP2XefNPkxDzBK/f7sOph7OnAIXNac3ngtUDDz7MxwAh1cNPuOZ2NQUZGHOr7Rxhpc9MIH6s2qq/Yv7mW/vxq9+M245BymwqJjD/qPo5dcaOdpE+U283Q4x8olS8lPNaQqifX3ENeX75/RDMs50jDCcpyHXqfe5XKU/9chz3/cN+2zFImaMXuGi5RO/F8nDy3b7m8UBzIPvfYzuERiwAJmmgtXuxQN5hO0dYmeYU3AZfBnZsHPj/Pj+Mcbb+aRJcV/D67Sm4dXjWdLKCzAa9M4IM8K7H27qPt51Dmzr8KVdZWe4AoPJI8WY4yF6sMnpF3fvdffjlM2z90+R0bEhg0UKVW31MSHZ9Cp7eWQ3x8bJ83HYIbdR+2zbsLgYXQdBpO0dY+R4f0uAr/j79qzL+9nts/dPkLJzvoH19/bX+X0rcAzuCKtZVKvastx1CExYAE2SCwHXE7LCdI6zE0pjq9b8rYXzc4P98YQhjvPmnSTjQ+vfh1e/N/5+kTosjeaLeuwQj2HF/UxNHOE8QC4AJGhwybwBwiu0coTh/nPbX4L71dyP4+dO8+tPktFwcx7FHN8DV/48KgeqdQZcvSM261nYILVgATMBTrdunGYMP284RVvq8BGILGucEdijP/LaMb3xX7brnZMlRc1xsam6scTPePBf+Wr3dQiPmo491ds6wnUMDFgATsN+M9AKYaTtHGOIL8g2+c6YxwGfuGsboqO0kpIkIcM32JGJ6O+Kh5Tt8OGm1l4fp7n7ng7ZDaKD2G66VgdYtJwJ4o+0cYeXbfDgZte28irjv7/dj4Ikx2zFImeYLEzhhcWM+TnbSglyL5s6HvHmwtXOF7RRRxwLgCIwZvxOAynuA2FwH6Qvqe+Tykfzmd2Xc822O+qfJmTXDQZfqC+DUpZsS8OapLYC8Mtw+2yGijgXAaygVu9sFaLadI6xCkIY08KN/Y4BP3zWEEW57S5MgAlx7WQqJxq6dIa6gsDllO0Z4BhcPtPS02Y4RZSwADmNXEMQhuMN2jrCSp8SROEll46Jivv+DEfQ/zlH/NDkXnx/HMr075FVUclkMyZM1n0dMX6lYbPBS7vBYABxGbC/ebiAn2M4RhrgH1vZuZP/9hzK++k2O+qfJmTlNELQ1duv/lQqb0xBP6zgiOc446bfaThFVLAAOYXB952zAvN92jrAyFyURm9O4X60xwGe+OIx9+9n6p4kTAa7a7iOld1OcqvBmOchcqPgm2uBDj27oOsp2jChq3KvEaxj3nNsA5G3nCMPJOsi1KH5uVwH3/3A/HtnNUf80ORecE8fJy9j6P5RsawpOTu3lIhtznVtsh4gitd9otZSK3asEcpXtHGHlN6Ygqca9g3n2uTK+ci9H/dPkFPKCrRvZ+j8cJynIt+u9sTDA1btbuk+3nSNqWAC8ghGnD0o/l9hCD+lzFLfqKuBTXxzG0DBb/zQ5V25OwW/gwnki0msTiB+jtkPiCGSnAfglv4TKC1219Lf2bAXM+bZzhFXYnGrob/QHPx7Bw4+y9U+Tc96ZcZx2iuaR7jUiQGGLr/YSKsA5A8Vgs+0cUdLAl4uXezoIUjBQu5+0f3ocieMb9yT23AsGd/0NR/3T5ORzDrZ3sfU/UfHFHlKn6d0nQMTc8bP1l6dt54gKFgB/NLTX3CTAMbZzhCExQa6zsaf9fe4rQxgaYuufJueKIIm0r/SW1pJCtw+Jq/3MFvje8A22Q0QFCwAApWLXAgHU/iiyG5LwZjTuV/mvD43ipz9j658m56zVMZy+snG7ZmG50x1k1+kda2SAmx5t6VJ5s1dpjXvVeAkjzu0AVLaF3GkOMuv0js6dqj17DL7wtWHbMUiZTEZwWXfjHjdTlW1OwZ2u9vKR8iC32Q4RBWq/wUoptQVnA9hqO0dY+a4UHL3F+JR99svDeGEPW/80OVdsTiGXVdvGtk5igvwmzY8dZVt/a895tlPY1tAFgOntdUwZO6F0XGt8sQf/9Ma9+v/7w2N48D9GbccgZVatiOHMVWz9T5V/RhwJvXsmiBjsNL29DX0NVPvtVcLgg7uuAswZtnOEIkBhs94pOZXw5C/G0HSO3hHJUfHEL8bxi182xqZJaV9w9TaO+q+IP04L/O1tLwA6m3CrBh94+EoAn7EdxJaGvXzs7ujIOmPxfgAq14hOn5vANM5moQr47JeGcf8PR2zHqIk3vM7HuWfw7r+Snv2/e7H3R2pX3/ydOyInHPd3dz9vO4gNDdv+cMbiH4DSi7+TFOQ6OICJKuP5F3Xevk3WqSfFePGvgnynr3n58dnjMfNe2yFsacgCoFTcchyAt9vOEVa2mIKbb8ivjqrguefrvwBIJQVXbWHrvxqcrCBXVPzZCq5/rGWLyq3fp6ohryIG43cCUDl6zpvpInOxyugUUc+/WLYdoeq2dyUxfVpDnu5qInNxCt5s13aMsOIOxm+3HcKGhjsi+pt7Loagw3aOsApBCuKpbbdRxBgDvPBCfXcAlp/g4vyzOFi0msQ9MCVZKwE2llq7N9jOUWsNVQCYIHAdBzts5wgrudRD8lSeyKhy9g6VMTpWvwVAIgFcvd2HsGauutTKOBLL9Y6xMAY7Hlp9nd5/QAgNVQCUhsybDHCy7RyhOEB+M0f9U2U9/4LtBNW1dWMKsxt4mexaKwQ+RO2TADkxO/vZN9hOUUsNc2Q81bp9Gsq42XaOsDIXJBGbr/bIooh6ro6f/y9b4uGiteyY1VLsKBfp8/WOURIxt/S3b5tpO0etNEwBMGJGPgLBDNs5whBfkGtTPMqWIuu55+qzAEjEBddsT7H1b0G+3YeTVntpmeaUR9TeKE6W2m9pMkrFYLkB1LZ2lB9QFGHPv2g7QXX0tCcwZxaPGRu037AYI298rCXQ+ah4khriCDFidkDpssfaW2oUbc+/UH8dgCXHuljHY8Yq5Y8sXQ+mz3aIWqj7AqC/2L0JwHrbOcLSPaiGoq7e1gCIeQda/07dn9kiTvmgZQNcVGrp2Wg7R7XV9WGyKwjiIqJ2gQft02oo+p57vr4KgM7WBObPZcUcBdqnLRvgzlKxWNetpLouAOJ78U4Ax9vOEYb2hTVIh3qaBnjMAhfFi+r6fK2O8oXLFsNJv8N2iGqq2wLgiY5tcwz0bvKgfGlNUuLZOhkD4LnAGy5Pwa3bM5pO2pcuNwbvf3RDl8pN4yaibg+XsbGRjwPI2c4RhvrNNUiF0TGD4eH6WAWwY0MSC+axYI4i5ZuXZT3XudV2iGpR+628llJ712mAvM52jrCUb69JSjz/4oG9ALRbON9B23q9d5n1rg62L7+ivy1YYztENdRdAWAAMeNOH5T+22ILPaTP5smMqu/5OhgA6LqCay/14fHmP9LS5yQQX6RyJjYAODJu+gxQd3dlKi+Sr2Ww2LMdwHm2c4QiQGGLX4c/M4qi5+rg+X/rJXEsWsirf+QJUNis+NwmOLvUEmyzHaPS6qoAeDoIUkZwm+0cYflnxJFYorZKJmW0LwI0b46DjRs4VkaL+GIP/umau5vm9p+tv1zv4gaHUFcFwPCQeS+Ao23nCENigtwm33YMaiCalwEWAa7enkKMy2Soku9KwdFbA8xPukPvth2ikuqmABhcv3UhDN5lO0dY2eYUvOl183WQAs8q3gioeHECJyxmt0wbd5qDzDq9AwJF5MbHmrcusp2jUurmijPujd0BQOUttDvdQXad3rKYdNK6DPDc2Q66Wni8aJXdkIQ3Q+2lJ+U5ox+3HaJS1H4LL7W72HWuAIHtHGEVun1IXOvoGNJK4yqAIsA1233EYzxetJKYINep8l4NAGAgW0rF4ALbOSpBfQFgensdV5w+KB1fGl/sIXWa3vWySS+NswDWnR/H0uM46l87//Q4EsfrHcBhxPSZIFD/Q1RfAAw88PA1Bjjddo5QOO2PLDEGeEFZATBzuoOedo76rxeFzSnNV6CVA3vNVbZDTJXejx/A7o6OLERusZ0jrPTaBOLHcCAT1d7eoTLGxm2nmDgR4OptKSQTrJbrRWyhh/Q5esdyCHDr45cEeds5pkJ1AeCOx28WYK7tHGE4SUG+Xe9oWNLtuRd0rQF84bkJrFjGYrne5DtSmpc9nz0eMx+wHWIq1BYAgxuCJcbgLbZzhJVtTcHJqf34STlNBcC0goPNHXrvFOnwnJyDXIviGyHB23Y3B0ttxwhL7RWo7Jo+ACrPCt4sB5kLVUanOqFpH4DXb0vB13uXSEeQuSiJ2By1l6K445g7bIcIS+WnPtDafQmAVts5wipsTkM8ntDInueVdADOPyuOk5ez9V/PxAXy3XqnBQJoG2wJmm2HCENdAXB/U5MH4+ywnSOs5LIYkifrnf5C9eG5F6NfABRygu2dHPXfCJKnxJE4Se95sYzynQ+tvk7dP0BdAbAgNfMtgFlhO0cY4sqBqS9ElmnYCOiKzT58n52yRlEI0hC1M+vlxNycZ99kO8VkqSoAdm0IphtA7ajL9AVxePPYziT7ol4AnHNGDKtP5bHSSGJzHaTP19zxMTf3t2+baTvFZKgqAGKuuRWCGbZzhOGkBblW3v1TNDz3fHQfAWQygu2dPFYaUb49BSejtuszTcojqtalUVMAlDZ0nwTg9bZzhJXv8OGk1XzcVOeiPAbgqi0p5LJqLwI0BeIL8u2KBwQauW53c/cptmNMlJorknFlBwCVPUFvngt/Ldf7p2gYHTMYHo5mAXDaKTGcsVLdWCqqoPR5CcQWqB0M4Irj9NkOMVEqCoCBlu5uAOts5wirEPgQl3c0FA3Pv2BgInj9z6QdXL2Vrf+G5xw4Z2olMBcOtPZ02c4xEZEvAErFYgIiavdfTq2KI3ki72goOqL6/P/yniRb/wQASCyNIaW5E2Rwx5NNV0Z+RGPkCwDjZG6AwRLbOcIQF8hzMBNFzPMvRm8GwKkneTj7dMUnfKq4fI8P0fuTOHYkteedtkMcSaQLgCc6ts2BMe+2nSOs7PoUvNlqn2VRnYraKoCppOCqrXpbvlQd3kwX2YsjfxN9WOLgvbs7ts6zneO1RLoAGB8bvR1AznaOMJysILNB74+X6tdzEVsD4NLuJKYX2PqnV8s0p+Dmlf42DDLO6NhttmO8lsgWAIOtwWoDXGY7R1j5bh9OUukPl+palMYAnHSCh/PO5AwZOjQnKch1Ku4OCV430NJ9pu0YhxPJAsAAYgx2IqL5jiR2tIv0mdztj6IpKmMAUknB6y9NQVgn02tIn5lAfJHKGeAAIIDTZ4BI/sojeYEdKPZcbmDOtZ0jFDmw2180v26i6IwB2LIxgRnTI3kKoigRoLDZV3xONWcNtgSR7GZH7uh7pr3dFzEftZ0jLH9NHIklaqtVagDPRaAAOPF4Dxeeyy4ZTUx8sQd/jd7fi4H52K6mIGM7xytFrgDYMxZ/HyALbecIQ+KC/EbFz6uo7hkDvGB5EGAiLrh6G1v/NDn5zpTmcVXzY765yXaIV4rUp/l4e3D0+Lh5DIDKq2huo49ckSP/aWr27C3j9v89VJXXNgZ46pfjVXntiUolBXNm1e7e4+zTYyhepPfukf7shW8P44V7h23HCGtf2ZXly75595O2gxwUqV71+DjuhNKLvzvdQfZinmRo6jJpB+Nlg6d/FY3BepU2vM/g50/XpghZf0EczRfyuKwX2XUpDP1wP8Z+r/LYSDplczuAwHaQgyLzCGCwtetCwHTbzhFWoceHxCPVUCHFTjuZU+OmwnGAK7ekcFkPHzXUE4kdmGKtlkHPQEsQmX1tIlEAmCBwy8bdYTtHWIklHlKreMKmylm1gitIhpVMCN5xXRoXcQfOupQ6LY7ECXrXCIaYHfc3NUWi+x6JAqC0t3wtYE61nSMUTvujKjj2aA/TCpE4PFUp5ATve3saK0+KxPmVqqSwORWRq1cIBifN92deYzsGEIGP8MlNmwqA3GI7R1jp85KIHc27NaoskQMb5NDEzT/Kwc3vymDRQh6P9S62wENa9zTS23ZtCKbbDmG9ABjd790MYJbtHGFISpBv525/VB2rVrAAmKjlJ7j44PUZLizUQPKbfDhpta3X6Z5rPmA7hNWjpb+9exkEb7aZYSrybSk43L+cquSkpR4SHFh6RGvXxHHDmzLwU/ysGomTFuRa9N6ACfDW0obuk2xmsFoAOONyJwCVozlic1ykmzjn9EZVAAAU40lEQVTnn6onHhMsX8p29mtpuySBay9LwePH1JDSTQl489R++Z5xnT6bAawVAAOtQasBirbef6rygQ9R+7sjLU5bobI+rjrXPbCa4OaNSU7za2DiCgqB4mmBMJf0N3e32Hp3KwXAQ6uvi8GYT9p470pIroghyRMz1cCqk2O8wL1CMiG4/jofTedwmh8ByRNjSCpeN0Nc2VkqFq2MaLRSAGRn/+FtAJbaeO+pEhfI92iuOEmTXFaw+Bi2mg4q5AUfeEcapyznAEn6s0LgQzyllbLBkrJkrIyFq3kBMLi+c7YIrI9+DCtzYRKxuTwhU+2sYrcJALBgnoved2Vw9AIef/Ry3mwH6Qv0TgsUmJufbAnm1vp9a14AmJj7UQCFWr9vJThZQa5V76hT0um0k3m3u2KZhw9en8b0aZzmR4eWa0/Byan9feRGTfnDtX7Tmn5aAy3BSmNwdS3fs5LyG30IpxpRjS2Y52LWDLUntim74Ow43vXGNFJ6t4KlGnCSytdlEXn9YGuwupZvWeOziukDoLJ/F1voIn2O3hYT6daIiwKJAJ0tSVyzPQW3cesfmoT02oTmlVkdY7DT1HBh+ZodVqWW7s0ALqjV+1VaIUhHYN1EalQrT26scQCeC1x3WQqddgZHk1YCFLb4avdmMTDnDrb29NTq/WpySXuy6cqkAT5Ri/eqhgO7TzXeHRhFx4nHew2z0p3vC258cxrnrtE7tYvsSRwXU707qzHmk8+0t9dkqllNCoDR1J4bAVlUi/eqNPX7T1NdcB3g5BPrvwidOd3Bh96ZwYnH1/+/laqn0OND1C6jLQv3jCfeWYt3qnoB0N8WzIfgpmq/T7Vk16fgNfAALIqOep8OuPgYF703ZDBvDo83mhp3uoPsJaqXan/v4+3B0dV+k6ofaWLMJwCkq/0+1eAWHGTWKx5VSnVl5QqvbgfDnXyih5vekkaOm2tRhWSbk3D17g7pj42bW6v9JlX9dEptwdkw2F7N96imfKcPh2OQKCL8lGDpkvprjV9wThzvfIPPaX5UURIX5DfqvYET4NL+5mBtNd+jagWAAcSUTR+UjseML/bgcxASRczKOnoM8KdpfttScF2VpwmKOH9NAgm9RbOIYKfp7a3adbpqL1xqCa4AsKZar19VAhQ2651KQvWrXlYFjHmCN17hc5ofVZcAhc1pvedyMacNPPjw5dV6+aoUALuaggxM9Z9fVEv6rDjii+rjREv1ZfZMB/OV70WR9gXvfksaZ62un24GRVfsaBfpM/UWmmLkE6XipblqvHZVCgDPL78fgnnVeO1qc5KC3CaVYxapQWheFXD2DAcfemcaS4/TXcSQLvluH47eMSZzIPvfU40XrngBMNDavVgg76j069ZKtpiCm1f7Q6EGsFLpY4DjFrn40LsyOGoOL/5UW05WkGnWOyDQAO96vK37+Eq/bsULADHOJwGonIDpzXSRuUhldGogxx/rqZsut/pUD+95K6f5kT3ZdUl4s9UWn/Hxcan4aroVLQB2F4OLDMymSr5mLeV7fAgfS1LEiQArT9LzQ11/QRxvuyaNhNqV2ageiAvkO/V2ASDoLBV71lfyJStWAJggcB0xOyr1erWWXOohtVLPSZUam4ZVAR0HuLwnict6UhBe+ykCUqviSC6P/rFzOEaw4/6mpoo9A6xYATCwt/w/AJxSqderKQfIBxz4R3qsWOYhFuHzWCIueNs1PtZdoHf0NdWnfOBD9K47sXxBeuZ1lXqxihQAT7VunyaQ3kq8lg2Z85OILVD7bIgaUCIBLD8hmhVAJu3gxjf7OO2UaOajxhY7yoW/Vu8ib8bgI491ds6oxGtVpADYXx75MICZlXitWhNfkGtT/FyIGtaqFdErWufMOjDN74TFOmcqUGPId/hw0mr3CZju7nc/VIkXmvInMNC65UQI/kclwtiQb0/ByahtB1EDO+3keKSerS851sPN78xg7my1J1ZqEE5akGtVfeP3psHWzhVTfZEpH6nGjN8JQGWvLzbXQfp8TvsjnQp5wTEReXR1xsoY3vNWHxkW06RE+oI4vHlqO1VeGW7fVF9kSgVAqTXoEKB5qiFsKQRpSDTOn0ShRGFVwPUXxPGWq33EY7z4kx7iCgqbFXcBDC4uFbvbp/ISoQuAXUEQhyn/xVTe3KbkKTEkFM2lJjoUmwPtHAe4YnOK0/xIreSyGJKnKB4QKNhRKobfUSt0ARDbi7cbyAlh/75N4gL5bk77I/2OWeBi5rTaX30TCeAd16Vx8Xl6T55EAFAIfIintYKV44yTfmvYvx2qABhc3zkbMO8P+6a2ZS5OIjaHA5WoPpxa40WBCjnB+9+ewcqT7D9+IJoqb5aDzIWK16sw+NCjG7qOCvNXQ10Fxz3nNgD5MH/XNifrIFdU/NyH6BVOq2EBMP8oBx+6IYtFCzl4hupHtjUFN6/2pjAbc51bwvzFSf+LS8XuVQK5KsybRUF+UwqS0truIXq1ZSe4SNVgq9PlJ7j44PUZK48ciKrJSQpy7XpvDA1wdX9z1xmT/XuTLgCMOH1h/l4UxBZ6SJ+juNVDdAgxT7BiWXXb8WvXxHHDmzLwWTxTnUqfm0B8kdrHWg4cp88AkzpAJ3Uh72/t2QqY8yeXKzoKm1OT/HiIdFhZxemA6y+I49rLUvDY9ad6JkBhs6/2GiHAOQPFYPNk/s6EC4CngyAFg49PPlY0+KfHkTie0/6oPq1a4cGt8AYnriu4aiun+VHjiC/24K/WO7NFxNzxs/WXT3iK24QLgKG95iYBjgkXyy6JCXJdvu0YRFWTSTs47pjK3aInE4Lrr/Nx4bl6T4ZEYeS7fTh6nxQv8L3hGyb6hydUAJSKXQsEmPCLRk12QxLedJXDFogmbNXJlXkMUMgLPvCONE5ZrvZ5KFFo7jQHmXWqBwTe9GhL14Ru1id0VTRw/gKAypVztH+ZRBO16uSpP+JaMM9F77syODoiewwQ2ZDdkISr96Yx5cH52ET+4BH/haW24GwItkw9kx3K2zlEEzZvjjOlnfhWLPPwwevTmD5N7YmPqCIkJsh3qr5x3Nbf2nPekf7Qax7pprfXMWXshNJxkdoHdBBN1qqQiwKdf1Yc73pjuibrCRBp4J+eQGKJ3sdgYrDT9Pa+5jX+Nf/j4AMPXwmYSS8uEAnKp3QQhTHZcQAiQGdLEq+/NAWXN/5EfyZAYYvqa8iqA9fwwzvsIf90EKSM/P/t3WuQnFWdx/Hf/3T33DMTAgEWJLVAeibBILiFg4IGsKhgbhAug2iJuG7trrVS6Ooq6tZaUcsXuKtW+W7L+66ssk0MhGQmKrUrRkRRS0EUSYJxAS9BFmFuZma6n78vcmEymcn09HT302fy/byb5+l+nt/MVPX59znPOcc+UvVIddJ+SdSLOgAV6T4nq46O8j6xshnp797Sqmsr30wMWNBiXzzOZR/77caNM06Bm7EAODCid0l6WU1S1VhoMXVeHfX4DVCREKQLVs5e+La1md73znZd2ssQGXA8XddEvHy86YzhYvOtM52etgDYt2nTYpe/r3apamvRuqg3dgDmZbbZAKcsCfrwezq0Mk8PGTCb0BnU+YaIv1CaPvjzq/qWTHdq2lZyYizzT5KmfUOjyy4N6nh9vF02wHy94ryscjPsb77szIz+5R/bdQbbYQNl67gy6i3kF2dD8q7pThzzGx0cL7B31D5TbSzua5fN8OEHnAhamk0rlh87j//8lVn987vbddLiaD/IgFRYRuqKeDVZM7t1uiWCj/kkGCq2vF2mk+sTq7paVuTU8grW+wemTge87JImvefv25jmB1So5YImNZ8XbfuypDU7evPUg0cVAL55c7Dg03YVNDrLmLr64q3QgGp65flZmb00ze9v3tRa9c2CgBPN4hvbZdEukmnvnrpd8FEFwO7vP3aFXMvrG6o62lc3K3dmtP8ZoKpOXhJ09rKs3nEL0/yAasmdHtS+uiXtGJXq2bu2b/XkA0cVACHorfXNUx3WZurcEO0/BaiJ229t02tYCROoqq6NrQplrrXRaBJLjhoGOFIAPLLm5nY3XVf/SPPXdXWrQjsPNgGTMd4PVJ+1mTrXxzncbLK+yQsDHWk1W7OjV8vVkU6syuX+IqP219HFCQCoj47Loh1y7hxJmtcf/mHy1+YNKYSZt66+NhkPNwEA6iVIXTceM6suDv5SWx8kyfv6MnK7Kr1ElWm9MKeWeKdlAAAi1dKTVeuF8T1j49Law7sEBkl6ctQvjm3uf+wLMwAA4tZ1Q2uMC88t3fuDR3ulQwVAKdHlqcapQMeVLcqeGuUYDABgAcieklHH6yOcgRbCZdKhAsDMXp1umrkJi0yL1ka8OQMAYEFYtK4lus3nPNHFkhQOrgzkURUAXde1KzDFCQCQstBi6rwmsi+kpkskyR5/w01/mQnFfWnnKVfurKxO+1DnlAUNAQBIiUvP3jGo8V8X005SNvPkrJALpRVpBymbSYvf2EbjDwBoHCYtvjGutinx0BMSqSftIOVq621S8/Js2jEAADhK0zlZtb0qnmmBIaOe4PLutIOUw7KmrmuY9gcAaExdm9qimRbo7t3BpGVpBylH2yXNyiyJ60lLAMCJI7MkqO3VkfQCuC0LkpamnWNWJi1aw3r/AIDGtmhNaxzPAgQtjaIAyL0sq+wpLPoDAGhs2VODcmdG8KyaHywAlqSdYzatq1jvHwAQh0j2qDk5SGr4AYvs6Yz9AwDikD0jijarKUhq+L6KzEl0/wMA4hBJm5WNogCQedoJAABYSLJBUsOvXegH0k4AAECZxqL40loKkobTTjGbif2ltCMAAFCWid9F0WYNBZeG0k4xm/FfNXwnBQAAkhTJpkA+FEx6Me0Ysxn7xYR8Iu0UAAAcn4+7xh6PocGyweDSb9OOMZvkgGv0IR4EAAA0tpEHx5UciOEZAHsmmPtTaccox9A3x+SlGP6oAIATUiIN/8+f0k5RFpM/FWT2dNpBylF8rqTh+8fSjgEAwLSG7v+Tin9I0o5RHtPTwd32pJ2jXIPbRjX+fzE8XAEAOJFMPF3U4L1xfPuXJHffGyyER9MOUi4vSc9/blilFyOpsAAAC17phUT//+8j8ihm/x1knv1pyLcluyWNph2mXMU/JHruU0PxdLMAABas4rMlPffpQRWfi6j1l0aWX7xyn0nS7nU3/EBSb8qB5iS0By1+U5vaLmr4vYwAAAvQ6MPjeuGuESUjcT2gbrIH8/2F12YlyUy73OMqAJKRRM9/blgju3JadGWLWlblJEs7FQBgQXPpwM8mNPStAxrbE8N8/2MlSnZJhzcCSvwBmb031UQVGntiQmNPTCh0BrV0Z9V0Tk5hkRQ6AgUBAGB+EikZdiVDicZ+VdTY7gklQ3F9458qo/CAdKgAyDaXdk2MZ0uSotjDcDrJYKLRH41r9EfjaUcBAKBRFd2bvidJQZLOvueeFyR9L9VIAACgply2Kz9w56B0qACQJJNvTS8SAACoNbOX2vojBUAxyVEAAACwcHkm2L2HfzhSAKzc+bVfS3o4jUQAAKC2XHro3PsKR/b/CVPOf6HOeQAAQB0Es6Pa+KMKAPPmryqiVQEBAEBZRkqZsf+efOCoAiA/cOegTF+rbyYAAFBLZvqvFdu2DU0+NnUIQB78XyWx0D4AAAuDuzKfnnrwmAKg574tv5TUX5dIAACgpkx2b/eOux6fevyYAkCSPLE7ah8JAADUXNAnpj88jZ6dhe/KjF4AAABi5tqW3154aLpT0xYAklRyfUA8CwAAQKwSz5Q+PNPJGQuAlf2Fn8n1n7XJBAAAasv/o2f71kdmOjtjASBJ2Vzudkl/rHomAABQS8+HYnL78V5w3ALgnG1f3S/pg1WNBAAAasql25d/c+uzx3vNcQsAScr3rvqsyR6sXiwAAFA79p3u/rs/P9urZi0AbPPmpJTRzZIGq5ILAADUyoulJHOLST7bC2ctACRpxX2FfW5+2/xzAQCAWjHXOw/t7jursgoASerZseXLLn2l4lQAAKB2XF/OD9x9Z7kvL7sAkKSm0Y6/leyHc08FAABq6Ccd2bF/mMsbbK53eHJj37JSyX8o6dS5vhcAAFTdfvPkovzA15+Zy5vm1AMgSefeV3jKgm2SNDLX9wIAgCoyDXuSbJxr4y9VUABIUn574SGZb5I0Vsn7AQDAvE0Et76enV+vaGi+ogJAkrp3bLlfsrdLKlV6DQAAUJGSu928vL+ws9ILzPkZgKn2rLv+Rpd9RVJuvtcCAACzmjC3N+cHCnfP5yLzLgAkafe6GzZIKkhqqcb1AADAtMbc/aaegS33zPdCVSkAJOmXa6+7NFjYKmlpta4JAACOeN7crssPFB6oxsWqVgBI0p61bzzXrbRd0opqXhcAgBOaaW9Ssg0rdhaeqNYlK34IcDr5gbuenCjZpZJ2VPO6AACcsFzbmtXUW83GX6pyD8BhLtmedX23Sf4JSU21uAcAAAtc0aWPd/eu+qht3pxU++I1KQAOe2JDX68l/kVJ59XyPgAALCz2WDC9bfmOwo9rdYeqDgFM1bO98PDg/iUXmukDYtEgAABmMyHXHebDF9Wy8Zdq3AMw2d71165KPPNJSWvqdU8AAKLh9g1Lkvfmv7Hl5/W4Xd0KgMN2r7/+Snn4N8kvqPe9AQBoPP64ZO/v7r97ez3vWtMhgOl079hyf7735X9l7ldLerje9wcAoDHYI+66Jd8ezq934y+l0AMw1Z7111/lCrfJ/SpJmbTzAABQQyVJA5J9pru/8K00g6ReABy2d81NZ3mu9Nfu/jZJZ6edBwCA6vEnJfuSB/tiz/bCb9JOIzVQATDZnrXXv9KDXWuuTS6dn3YeAAAq8Ki732MWtnb3F36adpipGrIAmGzfur7Ti0pWS7bapUt1cE0BFhcCADSSMUm/MPMHJftO1m3X2f2F36cd6ngavgCY6n8vvzx7ZvtpeVNplcu6TcnpidtZJjtNSpZKZpJOSjsnAGBB+aPkLrdnzWy/LHnGFX5v8t2uzGO/Gdm/54pvf7uYdkgAAAAAAAAAAAAAAAAAAAAAAAAAAAAAAAAAAAAAAAAAAAAAAAAAAAAAAAAAAAAAAAAAAAAAAAAAAAAAAAAAAAAAAAAAAAAAAAAAAAAAAAAAABrYnwF1Ev23lQS60QAAAABJRU5ErkJggg==;" parent="2S4IqR70EECTiOiU6gtD-15" vertex="1">
                    <mxGeometry x="35" y="35" width="130" height="130" as="geometry"/>
                </mxCell>
                <mxCell id="2S4IqR70EECTiOiU6gtD-16" value="" style="endArrow=none;html=1;fontSize=25;fontColor=#7F00FF;exitX=0.5;exitY=1;exitDx=0;exitDy=0;entryX=0.5;entryY=0;entryDx=0;entryDy=0;fontStyle=0;strokeWidth=4;strokeColor=#6c8ebf;" parent="Ef5aAg3daOjvYsMQ55Ko-1" source="Ef5aAg3daOjvYsMQ55Ko-21" target="2S4IqR70EECTiOiU6gtD-19" edge="1">
                    <mxGeometry width="50" height="50" relative="1" as="geometry">
                        <mxPoint x="850" y="329.35" as="sourcePoint"/>
                        <mxPoint x="890" y="329.35" as="targetPoint"/>
                    </mxGeometry>
                </mxCell>
                <mxCell id="2S4IqR70EECTiOiU6gtD-17" value="Mode" style="rounded=1;whiteSpace=wrap;html=1;strokeWidth=4;arcSize=4;fillColor=#dae8fc;strokeColor=#6c8ebf;fontStyle=1;fontSize=20;fontColor=#0066CC;" parent="Ef5aAg3daOjvYsMQ55Ko-1" vertex="1">
                    <mxGeometry x="790" y="240" width="90" height="40" as="geometry"/>
                </mxCell>
                <mxCell id="2S4IqR70EECTiOiU6gtD-19" value="Langkah" style="rounded=1;whiteSpace=wrap;html=1;strokeWidth=4;arcSize=4;fillColor=#dae8fc;strokeColor=#6c8ebf;fontStyle=1;fontSize=20;fontColor=#0066CC;" parent="Ef5aAg3daOjvYsMQ55Ko-1" vertex="1">
                    <mxGeometry x="777.5" y="430" width="115" height="40" as="geometry"/>
                </mxCell>
                <mxCell id="2S4IqR70EECTiOiU6gtD-20" value="" style="shape=image;verticalLabelPosition=bottom;labelBackgroundColor=default;verticalAlign=top;aspect=fixed;imageAspect=0;image=data:image/png,iVBORw0KGgoAAAANSUhEUgAAAgAAAAIACAYAAAD0eNT6AAAACXBIWXMAAC4gAAAuIAHVHB4bAAAAGXRFWHRTb2Z0d2FyZQB3d3cuaW5rc2NhcGUub3Jnm+48GgAAIABJREFUeJzt3Xl81PW97/H3dyY7W9ghAiGAKCIICaCiaMStVa9VK25tredWrad6etuqtVhbrZWjVu+xva1Hjm3vsUdtbS3WraJHEVxww7AEwo5sYZMtkBCyzXzvHxSuC2oy85v5zvy+r+efPJzv750Zk897fqtRQMaNG3eOtfYSSSdLKpFUGNTaALwTl7TNGLPKWvtsXl7ef7799tu7XIcCwsQku8CECROGt7W1/acxZmIQgQDgMHZL+nFVVdVDroMAYRFN5sXjx4+fGI/HXzXGDA8qEAAcRqGkc0tKSvpu2bLlBddhgDBIuACMGTNmsDFmlqSeAeYBgM8zvqSkpHnLli1vug4CZLtIoi+MRqMPSOodYBYAaI+flZeXD3MdAsh2CRWAcePGHSvpgoCzAEB75Bpjfug6BJDtEioA1toLgw4CAB3wlSlTpiR1DhPgu0QPAZQHmgIAOqbP6tWrB7gOAWSzhAqAMaZv0EEAoCMikUg/1xmAbJboIYC8oIMAQEfE4/F81xmAbJbwVQAAACB7UQAAAPAQBQAAAA9RAAAA8BAFAAAAD1EAAADwEAUAAAAPUQAAAPAQBQAAAA9RAAAA8BAFAAAAD1EAAADwEAUAAAAPUQAAAPAQBQAAAA9RAAAA8BAFAAAAD1EAAADwEAUAAAAPUQAAAPAQBQAAAA9RAAAA8BAFAAAAD1EAAADwEAUAAAAP5bgOkArdy8o05KyzVFJRoaJevVRQXOw6EpDxYi0tatyxQ7s/+EDr5szRutdek43FXMcCkCKhKgD5XbroxBtv1JHnnCMTYecG0FFFvXqp19FH68hzztGe9ev15r33atN777mOBSAFQjMlu/TvrwseeUTDzzuP4Q8EoFtpqc75zW80csoU11EApEAoJmVuUZG+9MtfqltpqesoQKiYSEQTb75ZgysrXUcBELBQFIDya65R96FDXccAQslEIjrlttuU26mT6ygAApT1BSC/Wzcde+mlrmMAoVZQXMyhACBksr4ADD7lFEXz8lzHAEJvyBlnuI4AIEBZXwB6HXOM6wiAF3oOH65obq7rGAACkvUFoKhnT9cRAC+YSESF/L4BoZH1BSAnP991BMAbHG4DwiPrCwAAAOg4CgAAAB6iAAAA4CEKAAAAHqIAAADgIQoAAAAeogAAAOAhCgAAAB6iAAAA4CEKAAAAHqIAAADgIQoAAAAeogAAAOAhCgAAAB6iAAAA4CEKAAAAHqIAAADgIQoAAAAeogAAAOAhCgAAAB6iAAAA4CEKAAAAHqIAAADgIQoAAAAeogAAAOAhCgAAAB6iAAAA4CEKAAAAHqIAAADgIQoAAAAeogAAAOAhCgAAAB6iAAAA4CEKAAAAHqIAAADgIQoAAAAeogAAAOChHNcBAABfKFJaWnq8MeY4Y0wva+3eSCSyuqWlZXZtbe1+1+F8NHTo0GOttROstSXGmH3W2o2xWGzWhg0bdrvO1l4UAADIUCNHjszbt2/fPxtjbpHU/+C/G2NkrVVubm5jWVnZ73Jzc3++cuXKHQ6j+sKUlZVNkXRHPB4fcfAfrbWSpGg02lZWVvaUMea2Dz74YJWrkO3FIQAAyEClpaX9GxsbXzfG/FIfGf6fUCTpu62trcvKyspOSWM87wwePLigrKzsvyT9WdKIz/jPciRdYq2tLisruzJ96RJDAQCADDNs2LCu0Wj0FUnHt/MlvSS9WFZWNiGFsXwWNcb8VdLX2/nfF0h6ZMiQIVekMFPSKAAAkGHa2tr+01p7TAdfVijpyZKSkqJUZPLZ4MGDb5N0bgdfZqy1vxs2bNjQVGQKAgUAADLI0KFDJxpjLkrw5YPy8/O/F2ggz5WVlfU1xtyc4MsL4/H4XYEGChAFAAAySDwe/5/JvN5am9Tr8XHW2sskdUri9V8dNGhQ9wAjBYYCAACZ5axkXmyMGZrJu52zjTHmzCSXyDXGVAaRJWgUAADIEJWVlTmSSpJdx1pbGkAcHJD0e2mMycjPgwIAABli9erVXSVFk13HWpuRu5yzVHGyC0QikYz8PCgAABAy1lrjOgMyHwUAAAAPUQAAAPAQBQAAAA9RAAAA8BAFAAAAD1EAAADwEAUAAAAPUQAAAPAQBQAAAA9RAAAA8BAFAAAAD1EAAADwEAUAAAAPUQAAAPAQBQAAAA9RAAAA8BAFAAAAD1EAAADwEAUAAAAPUQAAAPAQBQAAAA9RAAAA8BAFAAAAD1EAAADwEAUAAAAPUQAAAPBQjusAAJDt7NixpZK+LGmYrO2S6DqNUv4zLS1J5xkTjX57xJgxZya8gDFNsrZW0egsU1U1P+lAaTZhwoSe8Xj8XElHSeqVzFrNzc3drbVJ5YlGo+eNGzeuXxJLtFprtxpj3iwrK3vjySefjCUV6B8oAACQIDt27DGy9l5J5x36R2MSXq9I0uX5+ckHk85IegVjpHhctrx8ieLxW8zChS8EkCulKioq+ku6MxaLXaWA5lteXl4Qy5Rba8uTXcRaqw8++GBTRUXFHVVVVf9XUjyZ9TgEAAAJsGPHXibpfRlz3hf+x9nM2mNlzN/t2LH32ylToq7jfJby8vITJM2XdLXC/eX2CEm/raioeGrkyJGdk1mIAgAAHWTHjv2ypMckFbrOkkY3as2ae1yHOJzy8vIRxpgXJSWzmz3bfKWgoGDGlCRKGQUAADrAHntsX0lPSMrYb8MpY+1Ntrz8S65jfFRlZWWOMWaGpG6uszhw1tq1a29M9MUUAADoiNzcH0vq6jqGMwfOecgY9fX1V0ka4TqHK9baqWPGjClO5LUUAABop38cA7/cdQ7HRtuxY49zHeIjrnQdwLHinJyc/5HICykAANBea9aMUZKXlYXE6a4DSFJlZWWBpImuc7hmrU3o86AAAEB7xeMDXEfICNYOdB1BkhobG/vLx3MxPi2hz4MCAADtZYy/x/4/LiNOuGttbeXzOCChz4MCAACAhygAAAB4iAIAAICHKAAAAHiIAgAAgIcoAAAAeIgCAACAhygAAAB4iAIAAICHKAAAAHiIAgAAgIcoAAAAeIgCAACAhygAAAB4iAIAAICHKAAAAHiIAgAAgIcoAAAAeCjrC0BLY6PrCIA34q2triMACEjWF4DGHTtcRwC8YK1V486drmMACEjWF4CtCxe6jgB4YdfKlYq1tLiOASAgWV8Aat9+Wy0NDa5jAKH3wSuvuI4AIEBZXwBaGxu16A9/cB0DCLX9O3dqyZ//7DoGgABlfQGQpEWPPqpN8+a5jgGEko3F9OpPf6pWTrgFQiUUBSDe1qZXbrmFEgAErLWxUa/ceqs2vfuu6ygAAhaKAiBJzXv36oUbbtDbDzygpro613GArGat1drZs/XUN76htbNmuY4DIAVyXAcIko3FtPjxx7X0r39VSUWF+o0Zo6LevZVbWOg6GpDxbDyu/bt2qW7dOm2cO1f1W7a4jgQghUJVAA6KNTdr41tvaeNbb7mOAgBARgrNIQAAANB+FAAAADxEAQAAwEMUAAAAPEQBAADAQxQAAAA8RAEAAMBDFAAAADxEAQAAwEMUAAAAPEQBAADAQxQAAAA8RAEAAMBDFAAAADxEAQAAwEM5rgNkmvxio4Jio5xOxnUUSVKsxap5t9S0Ky4bd5ulh6RekoqtdRvkH5ol7TBG2yS1Oc4SL+imeKfeihf1UCa8Oybequi+nYrWb5ViLa7jAMhAFABJuZ2Nhnw5V/1PyFFRn8wY/J/Uuk/aNr9Na//eqvpN6WsCRdbqCklnW6uytG21A6zVPklzJT0WiWhpOjedk6/G0VO0/+hz1NpreBq33H6mrUn5699R0cI/Kn/TfNdxAGQQ7wtAv/FRjb46XzlFmTn4D8rtJA2YlKMBJ+VozfOtWjmjJeV7BI63Vj+3Vj1Su5mkdZJ0lqQz43E9ZYzuN0atKd5ma79jtfvL9yjWpV+Kt5Qcm1OgpqGVahpaqcKV/61us34u07rfdSwAGcDrcwAGTc5R+b8UZPzw/5iINPT8XB33z/lSCmOfYa3+TxYM/48ykr5qrX5pbUqbbcvACdr51Yczfvh/0v7hZ2nXV/9DNrfQdRQAGcDbAtDj6IhGfjO1QzSVSk7I0bDzc1Oy9pGSfmatoilZPfWOt1bfT9F5CrGuJdr15Xtko3kpWT/VWvoco7rTf+I6BoAM4GUBMBHpmK/ny2T5Tz/sK3kq7Bl8g/m+tcoPfNX0mmKthqegBNRPvEG2oGvg66ZT0/Cz1DJwgusYABzL8hGYmJ4joupamv0/eiRXGjg52J3dR0qakCFn+ScjIumSgNeMd+ql/UeeEfCqbuwbc5nrCAAcy/4pmIA+5dm6c/vT+o4NtgBMCsHwP+iUgNdrKpukrN9t9A/NA4/P2sMYAIIRjr9mHdSpX3h+7E79I4GexzA4uKWc62GtgtxZ31ZcGuBqbtmcfMW69ncdA4BD4ZmEHZDXNUvP/DuMSI6UG+BVDJlyk5+gdA/w54kXdQ9srUwQL8qmazwABM3LAhCSvbiHBPnzREx4ypEkRQP9ecL13nj6649ghO2XIdsldCyYvwAA0F7GeH/zNElqtra36wz4/6y1Ce2epAAAQDs1xOPhOREkCTFr+7rOIEmxWKzAdYZMYK3tnMjraLMA0E4t1naOhewwWSJiUkZcQmKt7WFDdt5SIqy1CX2ZpwAAQDutb2lZZBg4klTlOoAkNTc3b25qanIdwzljzJpEXschAAAAPEQBAADAQxQAAAA8RAEAAMBDFAAAADxEAQAAwEMUAAAAPEQBAADAQxQAAAA8RAEAAMBDFAAAADxEAQAAwEMUAAAAPEQBAADAQxQAAAA8RAEAAMBDFAAAADxEAQAAwEMUAAAAPEQBAADAQxQAAAA8RAEAAMBDFAAAADxEAQAAwEMUAAAAPEQBAADAQxQAAAA8RAEAAMBDFAAAADzkZQFo229dRwiOldqagluuMbilMkJDgGuZ1nC9O6YlyHcHQLbxsgA07QpPAWipt4q3BvfzbAtsJffaJO0McL1ow4cBruZe2H4eAB3jZQHYuTTmOkJgdiwJ9meZF+hqbs03RkG+O/kbw/Pu5OxYpcj+3a5jAHDIywKwrSqmtqZw7AXYNLct0PXeNUa7jAl0TVdeCHi93G01yqnbEPCqbhStmOk6AgDHvCwALfVWa2cGOzhd2LU8ru3Vwe4BaJb0cKArurHGGL0QdJGxcXWe+5tg13Qg2rBNRYv+7DoGAMe8LACStPqZlqw+FNCy12rhQwGe/fcRM4zRf6dk5fRolHSrpHgK1i5c86qKFs9IwcppEmtV8Uu3ybQ1u04CwDFvC4CNSfN/1awdi7OvBOzfbvXu3U0pO5nRSvpZJKKXU7J6au2UdEMkojUpPIzR7bX7VLTkqZStnyqmuV49nv+B8jYtcB0FQAbIcR3ApdZGq3n3N2nQ6Tk68oI85XXN7GPf8TZpw6xWrfpbi1r3pXZbzZJujUT0tqTrrFUfm9nnTMQlPWeMHjJGO1K+sTZ1e/Vflb/hXe2deINixQNTvcXkWKuCVS+ry1u/Uc7eza7TAMgQXhcASbJxaf3Lbdo4u009j4mq+5FRFfQwiha4TnZAvFVq3mNVvz6uDxfF1LovfYPYSnpW0t+N0VhJ5ZL6SuqUtgSf7+BlfmuM0ZuSdqV5+wWrZ6lgzWy19DtWLQPGK9alr+L5XdOc4vCMjSmyb6dydq9Twbo3FeGSPwCf4H0BOCjeJm2vjgV+Ul0YxCS9b4zedx0kE9m48rZUK29LteskANAh3p4DAACAzygAAAB4iAIAAICHKAAAAHiIAgAAgIcoAAAAeIgCAACAhygAAAB4iAIAAICHKAAAAHiIAgAAgIcoAAAAeIgCAACAhygAAAB4iAIAAICHKAAAAHiIAgAAgIcoAAAAeIgCAACAhygAAAB4iAIAAICHKAAAAHiIAgAAgIdyXAfwgTFG3bt31+DBg9WjRw916tRJ+fn5KioqUn5+vpqbm9Xc3KympiY1Njaqrq5OGzZs0Pbt29XW1uY6PjooGo2qT58+Ki4uVkFBgYqKig591rFYTE1NTYc+68bGRm3fvl11dXWuYwPwDAUgBfr27atRo0bpyCOP1MCBA2WMkbU2obWstdqxY4dWrlyp6upq1dbWJrwWgtelSxcde+yxGj58uEpKSnTEEUeof//+ysnp2K9WY2OjNm/erNraWtXW1mrp0qVasWIFBRBAylAAAtCpUyeNHz9eo0aN0qhRo9S3b19JUmtrq1auXJnUwDbGaNy4caqsrJQk1dXVafHixVq8eLHee+897d69O4gfAe0UjUY1ZswYjRkzRqNGjVJpaakikeSPpBUVFWnYsGEaNmzYoX9rbm7WsmXLVF1draqqKq1bty7p7QDAQRSABEUiEY0aNUqTJ0/WCSecoIKCgrRst7i4WJMmTdKkSZN03XXXacWKFZo9e7Zef/117d+/Py0ZfDRw4EBNnjxZkydPVnFxcVq2mZ+ff6hsXHnlldqwYYPmzp2rV199VR9++GFaMgAILwpABxUXF+v888/X6aefnrZB8FkikYhGjBihESNG6KqrrtIbb7yhp556Slu3bnWaKyzy8vJ05pln6pxzztGAAQNcx9GgQYM0aNAgXXrppVqwYIH+9re/afHixa5jAchSFIB2Ki4u1le+8hWde+65ys/Pdx3nU4qKinT22WfrzDPPVFVVlf70pz9pzZo1rmNlpcLCQp1xxhm66KKL1KNHD9dxPiUSiaiiokIVFRX64IMP9Ne//lVvvfUW54YA6BAKwBfo0qWLvvGNb+j000/v8IldLkQiEY0fP14VFRV655139Mgjj2jbtm2uY2WF3NxcXXDBBbrwwgvVqVMn13HaZciQIfrhD3+otWvX6ve//z17BAC0W+ZPNEeMMaqsrNQ//dM/qVu3bq7jdFgkEtHEiRM1btw4zZgxQzNmzFBra6vrWBlr1KhRuvbaazVo0CDXURJSVlamu+66S/PmzdP06dO1Y8cO15EAZDgKwGGUlZXpuuuu09FHH+06StLy8vJ0+eWX65RTTtH06dNVXV3tOlJG6dmzp66++mpNnDjRdZRAjB8/XiNHjtTjjz+umTNnKhaLuY4EIENxJ8BPOO200/SLX/wiFMP/o4444gjdeeeduuaaaxSNRl3HyQjHHXec/u3f/i00w/+goqIiXXzxxbrzzjs1cOBA13EAZCj2APxDUVGRvvOd72jSpEmuo6SMMUbnnXeejjrqKN13333enhsQjUY1ZcoUXXrppYFcw59pdu/erS1btsgYo+uvv15z5szRiy++6DoWgAwTvr9+CSgtLdUDDzwQ6uH/UUceeaTuv/9+HXfcca6jpF2PHj10zz336PLLLw/l8K+rq9OWLVsOXREQj8d16qmn6oYbbpAxxnE6AJkkfH8BO+ioo47StGnT1K9fP9dR0qpr16766U9/qlNOOcV1lLTp16+f7r77bg0fPtx1lJTYvXu3Nm/e/KnLAa21Kikp0W233aa8vDxH6QBkGq8LwIQJE3TXXXepS5curqM4kZOTox/84Ae66KKLXEdJuWHDhukXv/hFaIvewd3+n3cvgMLCQv3kJz/x9v93AB/nbQE444wzNHXqVO+/ERlj9M1vflNf//rXXUdJmfLyck2bNi0rL+dsj/YM/4Oi0aimTp2qnj17piEZgEzmZQE44YQTdP3114fyGHCipkyZoilTpriOEbijjz5at9xyS9qe1ZBunzzm31433nhj1tzsCEBqeDcBR40apZtuuonhfxhf+9rXdOaZZ7qOEZjS0lL95Cc/Ce3w37Nnz2GP+bfXD3/4Q+/3gAE+82oKDh48WFOnTlVubq7rKBnJGKPvfOc7OvHEE11HSVrfvn31s5/9TJ07d3YdJSXq6uq0adOmpO7/n5ubq5tvvpmrAwBPeVMAiouLdfvtt7Pb8wtEIhF9//vfz9pb4koHTna7/fbb1b17d9dRUiLZb/4f1alTJ33rW98KIBWAbONFAYhEIvre976XkU92y0T5+fmaOnWqCgsLXUdJyHXXXacjjjjCdYyU2LNnT9Lf/D9pyJAhOuGEEwJbD0B28KIATJkyRWPHjnUdI6uUlJTo+uuvdx2jw770pS+psrLSdYyUSMXwP+jCCy8M7R4TAIcX+gIwcuRIXXbZZa5jZKVJkybpjDPOcB2j3crKynT11Ve7jpESqRz+0oGbBX37299OydoAMlOoC0Bubi6X+yXpW9/6VlYcOolEIvrud78byhM89+7dm9LhH4lENGjQIJ144omaMGFCSrYBIPOEejJefPHFoT0WnC5FRUX65je/6TrGFzr33HM1ZMgQ1zECt3fvXtXW1qZ8+B88Ofbaa68N7WWTAD4utAWgX79++upXv+o6RihUVlZq9OjRrmN8puLiYl1xxRWuYwQu3cNfknr37q2LL744JdsDkFlCWwCuueaaUO4OduWaa65RNBp1HeOwrr76ahUVFbmOESgXw/+gCy+8UCUlJSnZLoDMEcoCcNRRR2ncuHGuY4TKoEGDdOqpp7qO8SllZWU6+eSTXccIlMvhLx14SNTll1+ekm0DyByhLACXXnqp6wihdMkll2TcCZWXXHJJqO5kt3fvXm3cuDFlw98Y87nD/6CTTz6ZvQBAyGXWX/MAlJWVqby83HWMUOrfv78mTpzoOsYhAwcODNUNbA4O/1Rp7/CXDuwl8OEx0YDPQlcAwvaNMNNcfPHFGfP+TpkyJeP2SCQqXcO/I89GmDx5svr06ZOyTADcCsdfz3/o0aNHqL4RZqKysjIdc8wxrmOouLg4NMf+0zH8Bw4c2OEHI0WjUZ111lkpSgXAtVAVgMrKytB8I8xkp512musIOuWUUzL2qoSOqK+vV21tbcrWPzj8u3TpktDr+Z0CwitUv9lhvQd8pjnppJOcP0d+8uTJTrcfhIaGhpSf8JfM8JcO3BcgE/b4AAheaArA0KFDVVpa6jqGF4qKinT88cc72/6gQYNUVlbmbPtBaGho0IYNGzJ6+B+UCXt8AAQvNAVg0qRJriN4xeX7ne0DKZuGvyRNnDhROTk5gawFIHOEpgCMGTPGdQSvjB492tkx+Gx+tHO2DX/pwB6f4cOHB7YegMwQigLQpUsXdv+nWWFhoYYOHZr27WbzZ52Nw/+gTH4WBIDEhKIAjBo1ijOVHXAxFEaPHp2Vn3U2D3/pwO8YgHDJvr+kh8EfJzdcvO/Z+E0024e/JB199NHKz89P2foA0i8UBYDjk264eN+z7bPet29fyof/gAEDUjr8pQMPCMr2Ky8AfFwoCgAPLXGjqKhI3bt3T9v2jDHq379/2raXrH379mn9+vUpH/5du3ZNyfqfdMQRR6RlOwDSI+sLQI8ePUL3LPhsks6h0KtXLxUWFqZte8loaGhI6fCXlNbhL1EAgLDJ+gLAHyW30vn+DxgwIG3bSkaqj/lLB56EmM7hL/G7BoRN1hcAdv+7lc6hnA2fdViHv0QBAMIm62/v1aNHD9cRvFZcXJy2baXzfINEpONs/yOOOMLJ8JfS+1kDSL2s3wPApUluFRQUpG1bmXz8P13Dv1u3bilZvz0y+f0H0HFZXwA4AdCtdL7/6SwbHdHY2Jjyp/q5Hv7SgUsBeSYAEB5ZXwD4VuJWOodyJpa9xsZGrV+/XvF4PCXrZ8rwP4jfNyA8sr4AZOq3Ql/4vAfg4HX+vgx/KTNLGIDEZH0BSNUfX7RPW1tb2raVSZ/1wTv8+TT8pfR+3gBSK+sLwP79+11H8FpTU1PatpUpn7Wvw1/KnM8AQPKyvgA0Nja6juC1dA6ETBg+jY2N3g5/a21aCx+A1Mr6AsAfJLd8KgC+nfD3SS0tLRl1GAZAcrK+ALgeCr5L5x4Yl3t7fP7mfxC/a0C4ZH0B+PDDD11H8Fo63/8dO3akbVsfdXD4x2KxlKxvjFFJSUlGD3+J3zUgbLK+AGzatMl1BK+l8/2vra1N27YOStfwz4bb7PK7BoRLKApAKh+8gs+3efPmtG0r3QWA4f9xFAAgXLK+AOzfv191dXWuY3grnQWgoaEhbZ81w//TXOyBAZA6WV8AJGnDhg2uI3hp586daT8xLx1DiOF/eOwBAMIlFAVg6dKlriN4qaamJu3bXLJkSUrXT/Xwl6T+/ftn3fCvr69nDwAQMqEoAIsXL3YdwUvV1dWh2mY6hn9JSYm6d++esvVTpbq6mnsAACETigKwYsUKbgjkgIsCkKrPev/+/Wn55p+Nw1+iZANhFIoC0NbWphUrVriO4ZXt27dr27Ztad9uW1ubli9fHuia+/fv1/r161M+/Hv06JGy9VPNRdkDkFqhKACS9P7777uO4JV58+aFYtsM/y+2detWTgAEQig0BeD1119P6R9xfNycOXOcbfuNN94I5LNm+LePy88aQOqEpgDU1dVp4cKFrmN4YcuWLVq5cqWz7e/Zs0dVVVVJrdHU1MTwb6fXXnvNdQQAKRCaAiBJs2fPdh3BC3PmzHF+98VXX3014dc2NTVp3bp1DP92WLZsWVpv9gQgfUJVAN599101NDS4jhFq8Xg8I4rWvHnztGfPng6/juHfMckULQCZLVQFoKWlRS+88ILrGKH21ltvOTn7/5Pa2tr0/PPPd+g1DP+Oqaur4/j/J0SkFtcZMkSr6wCSZK3l81Di70OoCoAkPfvsszy3PEWstXrqqadcxzjk+eefb/cen3QM/379+oVm+EvS008/rZYW/r5+VNzara4zZIiMOC7U3NzM53HAlkReFLoCUF9fr5deesl1jFCaN2+e1qxZ4zrGIY2Njfr73//+hf9duoZ/z549U7Z+utXX1+vFF190HSPjtEpLJLW5zuGctRlxxvWGDRt2S+JhMFJCn0foCoB04JtLa2tG7KEKlb/85S+uI3zKc88997l7fNK12z9Mw19iT9pnOX758p1Wet11DscaYp07v+w6xEdkzm5JR+Lx+N8uw2cCAAAPi0lEQVQSeV0oC8Du3bs1Y8YM1zFC5fXXX9eqVatcx/iU+vr6zywmHPNPzI4dO/Tcc8+5jpHJ7nQdwLH/Pa6qKr2PAf0cxpj7JWVMHgf+tmbNmoSekhbKAiBJM2bMyIiT1cJg//79euSRR1zH+EzPPPOM1q5d+7F/Y/gn7re//S3f/j9H+fLlr0l6xHUOR5ZE8vLucx3io1auXLnJWnub6xyO7IxGoz9I9MWhLQAtLS166KGHXMcIhccff1w7d+50HeMzxWIxPfzww4fuTZCO4d+3b99QDv8FCxbonXfecR0j43Vua7tO0n+7zpFma6Px+FeOq67e5zrIJ61evfoBSb92nSPN9ki6aPny5esSXSC0BUDij1kQ1q5dmxWXVi5dulSzZs1K2/Dv1atXytZ3paWlRdOnT3cdIyscuXp1c12/fuca6R75cGmgtU/H4vEJo1eu/MB1lM+yatWq70q6TlKd6yxp8J4x5oRVq1YldT5KqAuAJD300EPatWuX6xhZqbW1Vb/61a+y5hkLv//979Nytn8Yh7904P3bupWrqtrrtDlz2sYsXz41Yu3Rkv5V0gJJGfftOEHNMmaNpIdl7cljV6y4cNzKlTtch/oiq1at+o+8vLyhkm6x1s6VFJY//m2SaiU9Ya29YNWqVSesXLky6ceimkReVFFR8b6kimQ3ni4jR47UXXfdpUgkvX2ntbU1kHvml5aWqnPnzgEk6phf//rXeuWVV9K+3WScfPLJOuecc1Kydli/+UvSm2++qfvuy6hDu18oHo+fumDBgow7I79m5MjOsUgkN5HX/r2goPvMeDzpa217Slf9rKXl2UReG4tG7diFC0PzLXrAgAGFkUikINHX9+zZc4kxpiSZDPF4/Be7du26J9HXb9iwYY+keDIZDicn6AUzUU1NjZ544gldccUVrqNkjTfeeCPrhr90YJCNGjVKAwcODHTdMA//LVu26MEHH3QdIzRG1tQkfD/yE0880QRx86VGY/aNXrx4d9ILhUBtbe1+SQmf1dq7d++kB280Gm36xz0LMkroDwEc9OSTT2r+/PmuY2SFDRs2ZPVAmD59upqbmwNbL8zDv6mpSffee68aG32+igrwkzcFIB6P65577tHy5UkfNgm1nTt36s4778zqy8Cstbr33nsVjye/xyzMwz8Wi+nee+/91CWUAPzgTQGQpObmZk2bNk21tbWuo2Sk+vp63X777dq+fbvrKElramrSPfckfMhNktSnT5/QDn9rrR588EH2igEe86oASNLevXt1++23a8eOjD+hNa1aWlo0bdo0bdy40XWUwDQ0NOi+++5TNBrt8Gv79Omj3r17pyBVZnjkkUc0a9Ys1zEAOORdAZAO3Or01ltv1ZYtCT1AKXT27dunO+64Q8uWLXMdJXC7d+/WAw880KErQPr27Rva4W+t1R/+8Ac9/fTTrqMAcMzLAiBJ27Zt049+9CPvj3/u3r1bP/7xj1VTU+M6Ssps3bpV06ZNa9c5AWHe7R+LxfTggw9m1COdAbjjbQGQpLq6Ok2dOlULF2bEky3TbuvWrd6UoPr6ev385z//3Ofbh3m3f1NTk6ZNm6aXX86kh7gBcMnrAiAdeNDNXXfdpZkzZ7qOklbvvfeebrzxRq/u/Nbc3Kw777xTmzZtkjEfvwdWmIf/5s2b9aMf/UhVVVWuowDIIN4XAOnAHfumT5+uu+++W/v2heVOnocXi8X0pz/9SXfffbcaGhK+X0nWisfjevDBB/Xyyy8fKgG9e/cO7fB/++23ddNNN3mxlwdAx3hxJ8D2euedd7R+/XrdfPPNGjp0qOs4gfvwww91//33a8WKFa6jOPfqq69q3bp1uvLKK9WnTx/XcQLX0tKi3/3ud3rppZdcRwGQoSgAn7BlyxbdfPPNOuecc3TFFVeoqKjIdaSkxWIxzZw5U4899lhW3+AnaB988IHuuOMOTZgwQddee21o9gIsWrRIDz/8MPe7APC5KACHEYvF9Nxzz+nNN9/UVVddpcrKSteRElZTU6Pp06drw4YNrqNkrPfee0+LFi3ShRdeqClTpignJzt/LXbu3KlHH31Us2fPdh0FQBbIzr90aXLwGvJZs2bpsssu08iRI11Harf169frL3/5i+bOnStrres4Ga+5uVlPPPGE5s6dq0svvVQnnXRS2p8emag9e/boueee07PPPhvoMxAAhBsFoB2qq6tVXV2tY445RhdddJHGjRv3qbPIM8XatWv1zDPP6LXXXgvkXvi+2bhxo+6//349+uijOv/883X22WcrNzehJ7umXF1dnWbOnKlnn32Wh/kA6DAKQAcsXbpUS5cu1bBhw3T22WfrpJNOUqdOnVzHUktLi959913NmjVLCxYscB0nFLZt26bf/va3evrpp3X22Wfr1FNPzYiTBa21Wrp0qWbPnq05c+aotbXVdSQAWYoCkIDVq1dr9erVevjhhzVhwgRVVlaqoqIioXvOJyoej2vZsmWaPXu25s6dyzfAFNm+fbsee+wx/fGPf9SIESN02mmn6aSTTkr7yaGbN2/WnDlzNGfOHG3bti2t2wYQThSAJLS2tmru3LmaO3euCgoKdNRRR2nMmDEaMWKEhg8fHvj2tm3bpoULF2rRokVavHix9u7dG/g2cHjxeFw1NTWqqanRv//7v2vIkCEaPXr0oc87Ly8v0O3t2bNHS5Ys0bJly7Rs2TKtXr060PUBgAIQkKamJi1atEiLFi2SJHXu3FnDhw/XxIkT1a1bNxUWFh46u/zzjs0bY2SMUSwWU1NTk/bs2aOZM2dqyZIl2r17d1p+Fny+eDx+aC/QU089pdzcXJWWlmrAgAEaMGCASkpKVFJSou7du6uwsFD5+fmHXWffvn1qamrS9u3bVVtbq02bNmnz5s3auHGjNm/ezMmbAFKKApAiDQ0Nmj9//mc+b72oqEidO3dWcXGxGhoa1NDQwDf6LNXa2nqoEByOMUadOnVSYWGh2tra1NTUxP0YADhHAXCksbFRjY2N+vDDD11HQYpZaw+VPADIFNlxoTMAAAgUBQAAAA9RAAAA8BAFAAAAD1EAAADwEAUAAAAPUQAAAPAQBQAAAA9RAAAA8BAFAAAAD1EAAADwEAUAAAAPUQAAAPAQBQAAAA9RAAAA8BAFAAAAD1EAAADwEAUAAAAPUQAAAPAQBQAAAA9RAAAA8BAFAAAAD1EAAADwEAUAAAAPUQAAAPAQBQAAAA9RAAAA8BAFAAAAD+Uk8qKmpqb+1tqgswBAuxljBrjOAGSzhApALBYrjsViQWcBgHbLzc3t6ToDkM04BAAAgIcoAAAAeIgCAACAhygAAAB4iAIAAICHKAAAAHiIAgAAgIcoAAAAeIgCAACAhygAAAB4iAIAAICHKAAAAHiIAgAAgIcoAAAAeIgCAACAhygAAAB4iAIAAICHKAAAAHiIAgAAgIcoAAAAeIgCAACAhygAAAB4iAIAAICHKAAAAHiIAgAAgIcoAAAAeIgCAACAhygAAAB4iAIAAICHKAAAAHiIAgAAgIcoAAAAeIgCAACAhygAAAB4iAIAAICHKAAAAHiIAgAAgIcoAAAAeIgCAACAhygAAAB4iAIAAICHKAAAAHiIAgAAgIcoAAAAeIgCAACAhygAAAB4iAIAAICHKAAAAHiIAgAAgIcoAAAAeIgCAACAhygAAAB4iAIAAICHKAAAAHgooQJgrbVBBwGAjohEIq2uMwDZLKECYIzZF3QQAOgIa+0K1xmAbJZoAdgQdBAA6Ijm5uYq1xmAbJZoAfivoIMAQHtFo9FNq1ev3us6B5DNEioAS5cufTAajdYHHQYA2iMnJ+cu1xmAbJfoVQDxaDT6g0CTAEA75OTkrFmyZMl01zmAbJfwZYA1NTW/y8vL+32QYQDg80Qikb2RSGSC6xxAGCR1H4Campqr8/Ly7jTGxIMKBACHk5OTs7KwsLC0pqZml+ssQBgkfSOgmpqa2/Py8gbn5ubOjkQizUGEAgBJMsbYnJycDfn5+d9atmzZUQsXLqxznQkIi5wgFlmyZMlGSZMlacyYMUc2NzePNMZ0DmLtbJeXlzdN0qBk1ojFYi/HYjGuvMhwubm59xpjSpJZIx6Pz2xra/tjUJmymTFmRUFBQU1VVVWj6yxAGAVSAD5q4cKFqyStCnrdbFVRUXGTkiwAkUhkxeLFix8LKBJSpKKi4lZJSRWAaDS6rLq6ms8aQMrxLAAAADxEAQAAwEMUAAAAPEQBAADAQxQAAAA8RAEAAMBDFAAAADxEAQAAwEMUAAAAPEQBAADAQxQAAAA8RAEAAMBDFAAAADxEAQAAwEMUAAAAPEQBAADAQxQAAAA8RAEAAMBDFAAAADyU4zoAgI/pW15eXuE6BNxoaWnp6joD/EEBADLL14wxX3MdAkD4cQgAAAAPUQAAAPAQBQAAAA9RAAAA8BAFAAAAD1EAAADwEAUAAAAPUQCA4DS7DgBIUjweb3KdAZmPAgAExBiz1XUGQJKMMZtdZ0DmowAAAbHWLnSdAZDU1NrausJ1CGQ+CgAQnKddBwCMMS9XV1fvc50DmY8CAASkqqrqXWvtK65zwGs2Fovd7ToEsgMFAAiQMeZfJO1xnQPe+s2CBQvedh0C2YECAASoqqpqubX2Ikl7XWeBd57s0qXLD1yHQPagAAABmz9//quSjjfGvO46C7xQJ+nGqqqqS+fMmdPmOgyyR47rAEAYVVVVLZd06vjx40+11l4Qj8cnGGNKJHVznQ1Zr1XSh5JWS3qppaXlz4sXL97tOBOyEAUASKF58+a9Juk11zkA4JM4BAAAgIcoAAAAeIgCAACAhygAAAB4iAIAAICHKAAAAHiIAgAAgIcoAAAAeIgCAACAhygAAAB4iAIAAICHKAAAAHiIAgAAgId4GmAWMMaMLC8vv9Z1DgDwUCfXAVKFApAdTjPGnOY6BAAgPDgEAACAhygAAAB4iAIAAICHKAAAAHiIAgAAgIcoAAAAeIgCAACAhygAKWatbXGdAQDgjjEmI+cABSDFIpHIVtcZAADuxOPxza4zHA4FIPXmuw4AAHAnGo0ucJ3hcCgAKRaPx59ynQEA4MyaefPmLXQd4nAoACk2f/78amvts65zAADSzxhzp+sMn4UCkAbxePx/SdrhOgcAIK1eev/99x9zHeKzUADSYOHCheskXShpt+MoAID0eC8Wi10mKe46yGehAKRJVVXVm9Fo9ARr7VuuswAAUqbNGPNgly5dTl24cGGd6zCfx7gO4KNx48Z92Vp7qaSJkgZIKnQcCQCQuF2S1kt6yRjzyPvvv7/CdaD2+H9r7+I6FpNNogAAAABJRU5ErkJggg==;" parent="Ef5aAg3daOjvYsMQ55Ko-1" vertex="1">
                    <mxGeometry x="1000" y="268" width="312" height="312" as="geometry"/>
                </mxCell>
                <mxCell id="2S4IqR70EECTiOiU6gtD-22" value="+" style="text;html=1;strokeColor=none;fillColor=none;align=center;verticalAlign=middle;whiteSpace=wrap;rounded=0;strokeWidth=4;fontSize=50;fontColor=#CC0000;fontStyle=1" parent="Ef5aAg3daOjvYsMQ55Ko-1" vertex="1">
                    <mxGeometry x="1193" y="280" width="60" height="30" as="geometry"/>
                </mxCell>
                <mxCell id="2S4IqR70EECTiOiU6gtD-23" value="-" style="text;html=1;strokeColor=none;fillColor=none;align=center;verticalAlign=middle;whiteSpace=wrap;rounded=0;strokeWidth=4;fontSize=50;fontColor=#000000;fontStyle=1" parent="Ef5aAg3daOjvYsMQ55Ko-1" vertex="1">
                    <mxGeometry x="1253" y="280" width="60" height="30" as="geometry"/>
                </mxCell>
                <mxCell id="2S4IqR70EECTiOiU6gtD-24" value="" style="group" parent="Ef5aAg3daOjvYsMQ55Ko-1" vertex="1" connectable="0">
                    <mxGeometry x="270" y="500" width="200" height="200" as="geometry"/>
                </mxCell>
                <mxCell id="Ef5aAg3daOjvYsMQ55Ko-8" value="" style="rounded=1;whiteSpace=wrap;html=1;strokeWidth=4;fillColor=#f8cecc;strokeColor=#b85450;arcSize=4;" parent="2S4IqR70EECTiOiU6gtD-24" vertex="1">
                    <mxGeometry width="200" height="200" as="geometry"/>
                </mxCell>
                <mxCell id="2S4IqR70EECTiOiU6gtD-2" value="" style="shape=image;verticalLabelPosition=bottom;labelBackgroundColor=default;verticalAlign=top;aspect=fixed;imageAspect=0;image=data:image/png,iVBORw0KGgoAAAANSUhEUgAAAgAAAAIACAYAAAD0eNT6AAAACXBIWXMAAA7DAAAOwwHHb6hkAAAAGXRFWHRTb2Z0d2FyZQB3d3cuaW5rc2NhcGUub3Jnm+48GgAAGaBJREFUeJzt3XmMnOd92PHfOzM7s9csueSSIlc8JFESRcmW1JhxlDItoFh2VcFCgBhuEQQyYsMBYhcJUjSogqAthAZonAQNghZI4NoWAiQpbMApAtuwFdtFetiObFOO5daiDkakKJEUD5ESlzt7zdE/ZKOKLfGa45nZ5/P5d6V5foOZed4vZ955JwIAAAAAAAAAAAAAAAAAAAAAAAAAAAAAAAAAAAAAAAAAAAAAAAAAAAAAAAAAAAAAAAAAAAAAAAAAAAAAAAAAAAAAAAAAAAAAAAAAAAAAAAAAAAAAAAAAAAAAAAAAAAAAAAAAAAAAAAAAAAAAAAAAAAAAAAAAAAAAAAAAAAAAAAAAAAAAAAAAAAAAAAAAAAAAAAAAAAAAAAAAAAAAAAAAAAAAAAAAAAAAAAAAAAAAAAAAAAAAAAAAAAAAAAAAAAAABqdIPcAPfezjBzesFOX3lqJzb6cTd0bEDRGxMSLG0k4GVMdKsWtrNbbP1WLTTCXqk+WoVooolYZmC4Gh02p3otmK9uJSa6mx3Hppcbn91Xa7+Tvv+od7j6eeLWIIAuC3P/HEvk4r/nUUxT+PiInU8wD/38bpStx581TsmR+Pcjn5dgEjr9nqxOlzzefOnlv7tfvvvfmxlLMke0U/8vGDk0Wn+A9FUfyLiKikmgP4cZVyET+5rx77dk/4Vz70QbvdiRdPr37ntdONd99//x3nUsyQ5JX9yKe+M19qxl9GxE+mWB94a5O1Urz7nbOxZaNP36DfXrvYXDpyeuVnH/iZWx4f9NoDD4BHPn7wJ0pR+kJEbB/02sClzW0Yi/e8c2NMjpdTjwLZWF7ttJ59afED9//Mrf91kOsONAAe+cSTO0rt1rfCwR+GztR4KX7uH2128IcEVtY67UMvNf7pAwdu+fKg1iwNaqE/+INvTBSd1l+Egz8MnXK5iPv2zzr4QyK1saJ045ba5z7/18/MDWrNgQXAwmTtd4pOvHNQ6wFX7p376rFl1mf+kNKG6Upttj72l4NabyAB8NufeGLfD872B4bMxulK7NvtG7gwDHZdVzvwxf/53D8YxFqDeQegXTwcvuoHQ+nOm6d81Q+GRKVcxOaNY38+iLX6HgCP/KfHZzoR/6zf6wBXrzpWij3z46nHAN5g+6axff/r4FN9P1+u7wFQjNceDFf4g6G0a2vVFf5gyFTKRaytVh/u9zp9D4BSdO7t9xrAtdk+V0s9AvAmpqcq7+n3Gn0PgHYn7ur3GsC12Tzj1BwYRlO10s5+r9H/jwBe/1U/YAhNT/rePwyjyfHSZL/XGMS3AGYGsAZwDapjA7sUCHAVxirFAD6i77/qANYAroFv/8FwKg/gxSn/ASBDAgAAMiQAACBDAgAAMiQAACBDAgAAMiQAACBDAgAAMiQAACBDAgAAMiQAACBDAgAAMiQAACBDAgAAMiQAACBDAgAAMiQAACBDAgAAMiQAACBDAgAAMiQAACBDAgAAMiQAACBDAgAAMiQAACBDAgAAMiQAACBDAgAAMiQAACBDAgAAMiQAACBDAgAAMiQAACBDAgAAMiQAACBDAgAAMiQAACBDAgAAMiQAACBDldQD9NqmmbHYu2si5ueqUZ8sR6VcpB6JLjRbnVhotOLE2dV45lgjzl1o9nW9uXrE26+P2L25EzMTEWPlvi6X3urJ1BP0VSeK6BTlWCtqsVqeiHYx1tf1zl1Yi2eOLcWJs6ux0GhFs9Xp63r0V6VcRH2yHPNz1di7azI2zayvQ+a6uTelUsRP3zETt+2ejMIxf92olIuYrVditl6J22+YiENHG/H49xei3eN9tVyKuPe2iDt3dDx/1pEiOlF0mlHrNKPWbsRqeTKWyzPR68Nyux3xN9+/EE+/0IiOY/660Wx14vxCM84vNOOpo0ux74bJuOeOepTWyR6xLgKgVIq4/6c2xfxcNfUo9FFRFHH7jVOxsV6Jxx4/37MIKJci3veOiJ2b7NzrWyeqrcUod5qxWNnUswhotyMe++a5OHF2tUe3yDDqdDrx1JHFeHWhGfffM7suImBdnAPw03fMOPhnZH6uFve8baZnt3fvbR0H/4yU2ytRa77Ws9v7m+9fcPDPyImzK/H4/72QeoyeGPkA2DQzFrftnkw9BgO2b/dEzNa7fwNrrh5x544eDMRIqbWXotTp/nyScxfW4ukXGj2YiFFy6IWlOL/Q3/ORBmHkA2Dvrgmf2WaoKIrYu2ui69t5+/Xh+ZOlTlTb3R+4nzm25DP/DHU6nXjm2FLqMbo28gHgrf98zc/Vur6N3Zvt3rkaa3f/tr23/vN14uxK6hG6NvIBMD2x3r+nxVupT3b/9K2P92AQRlIpWl3fxsWl7m+D0bTQGP3HfuQDYKzi/dtcjVW6f/pW18X3YLgmnXbXN7HW9A5SrtbDYz/yAQAAXD0BAAAZEgAAkCEBAAAZEgAAkCEBAAAZEgAAkKHsvwX99WMuJJTSgV2jfTGNL77shwRSemDbS6lH6Mq+u65PPULWDj15PPUISXkHAAAyJAAAIEMCAAAyJAAAIEMCAAAyJAAAIEMCAAAyJAAAIEMCAAAyJAAAIEMCAAAyJAAAIEMCAAAyJAAAIEMCAAAyJAAAIEMCAAAyJAAAIEMCAAAyJAAAIEMCAAAyJAAAIEMCAAAyJAAAIEMCAAAyJAAAIEMCAAAyJAAAIEMCAAAyJAAAIEMCAAAyVEk9QC4qrYsxd+HrMbtwMOpLh6O2cjIqrYtR6jSTztUuKtEsT8dKbXssjN8S5+v74+yGA9EsTyWdiytz6MnjSdffd9f1Sdfnyth/eDMCoM+mlo/GrlN/FtvOfyVK7ZXU4/yYUqcZ1earUW2+GvXFQzH/yueiXarFy7Pvjheueyga47tTjwhcI/sPlyIA+qTUXo49J/44dp75bBSdVupxrkqpvRLzr3whtp/7Ury09f1xePtHol2qpR4LuEL2H66EcwD6oLZ2JvY/95HYdfozI/fie6Oi04qdpz4d+5/95RhfPZV6HOAK2H+4UgKgx+qNp+OdT38w6ouHUo/SM/XGs7H/mQ9HvfF06lGAS7D/cDUEQA/VVk/H3X/3G1FdO5t6lJ6rrZ2Juw//ekwuH0s9CvAm7D9cLQHQI6X2Stz5/G+uyxffD1Wbr8adRx6OUns59SjAG9h/uBYCoEf2nPijmGk8lXqMvptaOhI3vPwnqccA3sD+w7UQAD0wtXw0dp75bOoxBmb36U9Hbe1M6jGAsP9w7QRAD+w+9acjfbbt1Sq1l+PGk59KPQYQ9h+unQDoUqW1GNed/2rqMQZu+7nHotxupB4Dsmb/oRsCoEtzF742lFfY6rdSeznmXvtG6jEga/YfuiEAujS7cDD1CMnkfN9hGOT8Gsz5vveKAOjSdONw6hGSqS89l3oEyJr9h24IgC6Nr55IPUIy4yv53ncYBvYfuiEAulRpLaYeIZlK62LqESBr9h+6IQAAIEMCoEvN8lTqEZJplqdTjwBZs//QDQHQpZXafOoRklmuXZ96BMia/YduCIAuLYzfknqEZBYmbk49AmTN/kM3BECXztf3px4hmXMz+d53GAb2H7ohALp0dsOBaJfGU48xcO3SeLwycyD1GJA1+w/dEABdapan4uXZ+1KPMXAnNz8QrdJE6jEga/YfuiEAeuCF6x6KTlFOPcbAtMoT8fy2D6UeAwj7D9dOAPRAY3x3vLT1/anHGJhjW34hVsfmUo8BhP2HaycAeuTw/EfjwuTtqcfou8WJm+Lotg+kHgN4A/sP10IA9Ei7qMb39nwsVsa2pB6lb1YrG+N7N/1elicdwTCz/3AtBEAPrYxtjSf3/H6sVjakHqXnVisb47s3/2E0ajtSjwK8CfsPV0sA9NjC5G3xxK2fiMWJm1KP0jMXJ/bEE3s/GQuTt6UeBbgE+w9XQwD0QWN8V3xr76NxZNsvjfTbVa3yRBzZ9sH49t5HlTeMCPsPV6qSeoD1ql0aj+fnfyWOb3lf3Hjy0dh+7ktRai+nHuuKtEvjcXLzA/H8tg852xZGkP2HKyEA+mxlbEs8vevheG7Hr8bca9+I2YWDUV96LsZXjkeldTFKnWbS+dpFJZrleizX5mNh4tY4N/OOeGXmgItswDpg/+FSBMCAtEqTcWr2vjj1I1ftOvTk8UQTvW7fXX5RC9Y7+w9vxjkAAJAhAQAAGRIAAJAhAQAAGRIAAJAhAQAAGRIAAJAhAQAAGRIAAJAhAQAAGRIAAJAhAQAAGRIAAJAhAQAAGRIAAJChSuoBuvXJz798yb/7venh9vVj5Uv+vd+/V/4f/6q45N89f4bbF1/eccm/H9jV6uv6H35w2yX/frnnN2ld7vXd7+dPat4BAIAMCQAAyJAAAIAMCQAAyJAAAIAMCQAAyJAAAIAMCQAAyJAAAIAMCQAAyJAAAIAMCQAAyJAAAIAMCQAAyJAAAIAMVVIP0K3L/R53xKV/z9nvdad1ud/bPrDr0o/vJz//clfr/6t/0rnMf/HSJf96ud+jp78e2HbpxydWL/3n16rbu1q/2+ff5X6Pnv469OTxy/z90v//5Y8/w807AACQIQEAABkSAACQIQEAABkSAACQIQEAABkSAACQIQEAABkSAACQIQEAABkSAACQIQEAABkSAACQIQEAABkSAACQoUrqAYDLq7QuxtyFr8fswsGoLx2O2srJqLQuxrs6zaRztf+2Es3ydKzUtsfC+C1xvr4/zm44EM3yVNK5gMsTADDEppaPxq5Tfxbbzn8lSu2V1OP8mFKnGdXmq1Ftvhr1xUMx/8rnol2qxcuz744XrnsoGuO7U48IvAUBAEOo1F6OPSf+OHae+WwUnVbqca5Kqb0S8698Ibaf+1K8tPX9cXj7R6JdqqUeC/gRzgGAIVNbOxP7n/tI7Dr9mZE7+L9R0WnFzlOfjv3P/nKMr55KPQ7wIwQADJF64+l459MfjPriodSj9Ey98Wzsf+bDUW88nXoU4A0EAAyJ2urpuPvvfiOqa2dTj9JztbUzcffhX4/J5WOpRwF+QADAECi1V+LO539zXR78f6jafDXuPPJwlNrLqUcBQgDAUNhz4o9ipvFU6jH6bmrpSNzw8p+kHgMIAQDJTS0fjZ1nPpt6jIHZffrTUVs7k3oMyJ4AgMR2n/rTkT7b/2qV2stx48lPpR4DsicAIKFKazGuO//V1GMM3PZzj0W53Ug9BmRNAEBCcxe+NpRX+Ou3Uns55l77RuoxIGsCABKaXTiYeoRkcr7vMAwEACQ03TiceoRk6kvPpR4BsiYAIKHx1ROpR0hmfCXf+w7DQABAQpXWYuoRkqm0LqYeAbImABIrijzXBtKz/+RNACRWKqd7CMoJ1+Z1zfJU6hGSaZanU4+QPftP3jwCiVWr5WRrj1UrydbmdSu1+dQjJLNcuz71CNmz/+RNACQ2Pj6WbO3aRLq1ed3C+C2pR0hmYeLm1CNkz/6TNwGQ2GR9PNnaU9O1ZGvzuvP1/alHSObcTL73fVjYf/ImABKbnhmPojT4s2GKUhHTM+le/Lzu7IYD0S7l9zi0S+PxysyB1GNkz/6TNwGQWKlUxIbZiYGvu3HjRJQSvPD5+5rlqXh59r7UYwzcyc0PRKs0+Oc9f5/9J28CYAhs3lIf6HdiiiJi09b6wNbj0l647qHoFOlOxhq0Vnkint/2odRj8AP2n3wJgCFQrVVi05bBfR1s05Z6VGvOwB0WjfHd8dLW96ceY2CObfmFWB2bSz0GP2D/yZcAGBJbt83ExGS17+tMTFVjy7aZvq/D1Tk8/9G4MHl76jH6bnHipji67QOpx+BH2H/yJACGRFEUseOGTVHp4/dyK5Vy7Ni9yRW4hlC7qMb39nwsVsa2pB6lb1YrG+N7N/1elic9Djv7T54EwBCpjJVj542bY2ys9y/CSrUcu/ZsjkofbpveWBnbGk/u+f1YrWxIPUrPrVY2xndv/sNo1HakHoW3YP/JjwAYMuPjY3Hj3q0x2cPvyE5MVePGm7dELeFFP7gyC5O3xRO3fiIWJ25KPUrPXJzYE0/s/WQsTN6WehQuw/6TFwEwhMrlUuy6aS7mrqt39R3doojYvLUeu/dsUd4jpDG+K76199E4su2XRvrt8lZ5Io5s+2B8e++j/uU/Quw/+XAq5pAqiogt22ZidvNUnDm1EK+db0Sn3bmy/7dUxIbZydi8ZdrZtiOqXRqP5+d/JY5veV/cePLR2H7uS1FqL6ce64q0S+NxcvMD8fy2Dznbf0TZf/Lg0RlylbFybN+xMa6b3xAXLyzH4sWVWFlai7XVZrRa7Yh4vdjHqpUYnxyLyelqTNddZGO9WBnbEk/vejie2/GrMffaN2J24WDUl56L8ZXjUWldjFKnmXS+dlGJZrkey7X5WJi4Nc7NvCNemTngIj/rhP1nfRMAI6JUKmJm40TMbLSx5qhVmoxTs/fFqQyvGkh69p/1yTkAAJAhAQAAGRIAAJAhAQAAGRIAAJAhAQAAGRIAAJAhAQAAGRIAAJAhAQAAGRIAAJAhAQAAGRIAAJAhAQAAGRIAAJAhAQAAGRIAAJAhAQAAGRIAAJAhAQAAGRIAAJAhAQAAGRIAAJAhAQAAGRIAAJAhAQAAGRIAAJAhAQAAGRIAAJAhAQAAGRIAAJChSuoBUjuwq5V6BEbYA9teSj0CI+zQk8dTj0DGvAMAABkSAACQIQEAABkSAACQIQEAABkSAACQIQEAABka+QBYa7ZTj0Aiq2vdP/ZrLgORr6L77W+sUvRgEEZRdWzkD5+jHwAXlwRArnrx2F9Y6sEgjKR2lLu+jemJ7m+D0TQ9MfKHz9EPgBNnV1OPQCLHz6x0fRsvvOJfcLlaK1W7vo35ue5vg9F0/ZZa6hG6NvIB8MyxRnQ6ndRjMGCdTieefbH7f77/n+Od8PTJURGrpcmub2XvrskoChGZm6Io4tadE6nH6NrIB8C5C804dLSRegwG7KmjS3F+odn17ZxdKOLJF3swECNlpTQZ7aL7n0LZNFOJfTd0HxKMlttvmIjZ+uj/lM7IB0BExOPfX/BRQEZOnF2Nbz610LPb+x9PF3HslZ7dHEOuWVRjuVzv2e3dc0fdRwEZmZ+rxk/d3rvnT0rrIgDanYjHHj8XTx31ccB61ul04vtHGvHYN89Hu927x7nVifhvTxTxt8fCxwHrWhErpalYrGyK6OHb9qUi4v57NsXtN/g4YD0riiLuuHEy7v+p2SiV1sfj3Pd78e8//p2Bbqmz9Urs3TUR83O1qE+WfU1nxK01O7HQaMXxMyvx7Iu9edv/UjZPR7x9Ryd2bypiZqIT1dF/ly9rnSiiU1RirVSN1R697X8p5xea8cyxpThxdiUWGq1YayrKUTZWKaI+WY7rt9Ti1p2Df9t/fn6+rwewdRcAwJX78IPbUo8AvIV+B8C6+AgAALg6AgAAMiQAACBDAgAAMiQAACBDAgAAMiQAACBDAgAAMiQAACBDAgAAMiQAACBDAgAAMiQAACBDAgAAMiQAACBDAgAAMiQAACBDAgAAMiQAACBDAgAAMiQAACBDAgAAMiQAACBDAgAAMiQAACBDAgAAMiQAACBDAgAAMiQAACBDAgAAMiQAACBDAgAAMiQAACBDAgAAMiQAACBDAgAAMiQAACBDAgAAMiQAACBDgwiA1QGsAVyDdif1BMCbaQ3gxTmIALgwgDWAa7C61k49AvAm1pqdvr84BxEARwawBnANFhqt1CMAb2JxqdXo9xqDCIAnB7AGcA3OXWimHgF4E43Vzov9XmMAAVD8df/XAK7FibMrqUcA3kRjqfVX/V6j7wHQXln5QkT0/a0M4Oq9eHo1mi1nAsIwabY60Yrpj/V7nb4HwCO/ds+FIorP9Hsd4OqtrrXj+RPLqccA3uDE2dWn7rvnulP9Xmcw1wFolX43InzYCEPoycMXo+37gDAU1prtuNBY+8VBrDWQAPi3H73rmU4U/3kQawFX57WLrXjqqE/pYBi8eHrlf7/nwK3fHcRaA7sSYKf66m91ivjWoNYDrty3D12MM+fXUo8BWbuw2Fw+v9D8+UGtN7AAeOSD9y6XW6Wfj4gTg1oTuDKtdie+cvB8NFZcGAhSWFnrtJ87ufTeB+/de3ZQaw70twD+zUfuPt6O9oMRMbA7CFyZxnI7vvzN87G8KgJgkFbWOu1nXlx86MF/vPe/D3LdYpCL/dAj/+W7t5Y7rb/oRPG2FOsDb23DVDnetX82Ns1UUo8C695rF5vLh19eeu+gD/4RiQIgIuKRjx+cLKL8W0V0/mVETKaaA/hxlXIRd98yFW+7aSoq5WTbBKxba812vHR69WsLZ5d+7v777ziXYobkr+xHPvWd+aIZ/66IeCiEAAyVyVopfmLvdNy8Y0IIQA80W504cXb1qQuNtV8c1Nn+b2VoXtG/+6mv1ZfXJh4oitLPRsRdEZ2bImJDRFQTjwbZG6sUsXNrLebnqrFpphIzU5WojpWiNDQ7CAyfdidida3dbiy3G4vL7WON5daXWzH9sUFc5AcAAAAAAAAAAAAAAAAAAAAAAAAAAAAAAAAAAAAAAAAAAAAAAAAAAAAAAAAAAAAAAAAAAAAAAAAAAAAAAAAAAAAAAAAAAAAAAAAAAAAAAAAAAAAAAAAAAAAAAAAAAAAAAAAAAAAAAAAAAAAAAAAAAAAAAAAAAAAAAAAAAAAAAAAAAAAAAAAAAAAAAAAAAAAAAAAAAAAAAAAAAAAAAAAAAAAAAAAAAAAAAAAAAAAAAAAAAAAAAAAAAAAAAAAAAAAAhs3/AxtJUtj/0zzPAAAAAElFTkSuQmCC;" parent="2S4IqR70EECTiOiU6gtD-24" vertex="1">
                    <mxGeometry x="19.5" y="19.5" width="161" height="161" as="geometry"/>
                </mxCell>
                <mxCell id="2S4IqR70EECTiOiU6gtD-33" value="" style="group" parent="Ef5aAg3daOjvYsMQ55Ko-1" vertex="1" connectable="0">
                    <mxGeometry x="326" y="891" width="290" height="190" as="geometry"/>
                </mxCell>
                <mxCell id="2S4IqR70EECTiOiU6gtD-9" value="Hubungkan probe merah ke anoda dan hitam ke katoda." style="rounded=1;whiteSpace=wrap;html=1;strokeWidth=4;arcSize=4;fillColor=#b85450;strokeColor=none;fontSize=25;fontStyle=1;fontColor=#ffffff;" parent="2S4IqR70EECTiOiU6gtD-33" vertex="1">
                    <mxGeometry y="30" width="290" height="160" as="geometry"/>
                </mxCell>
                <mxCell id="2S4IqR70EECTiOiU6gtD-32" value="Langkah" style="rounded=1;whiteSpace=wrap;html=1;strokeWidth=4;arcSize=4;fillColor=#f8cecc;strokeColor=#b85450;fontStyle=1;fontSize=25;fontColor=#CC0066;" parent="2S4IqR70EECTiOiU6gtD-33" vertex="1">
                    <mxGeometry x="80" width="140" height="60" as="geometry"/>
                </mxCell>
                <mxCell id="2S4IqR70EECTiOiU6gtD-34" value="" style="group" parent="Ef5aAg3daOjvYsMQ55Ko-1" vertex="1" connectable="0">
                    <mxGeometry x="680" y="790" width="260" height="190" as="geometry"/>
                </mxCell>
                <mxCell id="Ef5aAg3daOjvYsMQ55Ko-25" value="Pilih simbol dioda (â|â)." style="rounded=1;whiteSpace=wrap;html=1;strokeWidth=4;arcSize=4;fillColor=#b85450;strokeColor=none;fontSize=25;fontStyle=1;fontColor=#ffffff;" parent="2S4IqR70EECTiOiU6gtD-34" vertex="1">
                    <mxGeometry y="30" width="260" height="160" as="geometry"/>
                </mxCell>
                <mxCell id="2S4IqR70EECTiOiU6gtD-25" value="Mode" style="rounded=1;whiteSpace=wrap;html=1;strokeWidth=4;arcSize=4;fillColor=#f8cecc;strokeColor=#b85450;fontStyle=1;fontSize=25;fontColor=#CC0066;" parent="2S4IqR70EECTiOiU6gtD-34" vertex="1">
                    <mxGeometry x="75" width="110" height="60" as="geometry"/>
                </mxCell>
                <mxCell id="2S4IqR70EECTiOiU6gtD-35" value="" style="group" parent="Ef5aAg3daOjvYsMQ55Ko-1" vertex="1" connectable="0">
                    <mxGeometry x="975" y="765" width="312" height="312" as="geometry"/>
                </mxCell>
                <mxCell id="2S4IqR70EECTiOiU6gtD-28" value="" style="shape=image;verticalLabelPosition=bottom;labelBackgroundColor=default;verticalAlign=top;aspect=fixed;imageAspect=0;image=data:image/png,iVBORw0KGgoAAAANSUhEUgAAAgAAAAIACAYAAAD0eNT6AAAACXBIWXMAAC4gAAAuIAHVHB4bAAAAGXRFWHRTb2Z0d2FyZQB3d3cuaW5rc2NhcGUub3Jnm+48GgAAIABJREFUeJzt3Xl81PW97/H3dyY7W9ghAiGAKCIICaCiaMStVa9VK25tredWrad6etuqtVhbrZWjVu+xva1Hjm3vsUdtbS3WraJHEVxww7AEwo5sYZMtkBCyzXzvHxSuC2oy85v5zvy+r+efPJzv750Zk897fqtRQMaNG3eOtfYSSSdLKpFUGNTaALwTl7TNGLPKWvtsXl7ef7799tu7XIcCwsQku8CECROGt7W1/acxZmIQgQDgMHZL+nFVVdVDroMAYRFN5sXjx4+fGI/HXzXGDA8qEAAcRqGkc0tKSvpu2bLlBddhgDBIuACMGTNmsDFmlqSeAeYBgM8zvqSkpHnLli1vug4CZLtIoi+MRqMPSOodYBYAaI+flZeXD3MdAsh2CRWAcePGHSvpgoCzAEB75Bpjfug6BJDtEioA1toLgw4CAB3wlSlTpiR1DhPgu0QPAZQHmgIAOqbP6tWrB7gOAWSzhAqAMaZv0EEAoCMikUg/1xmAbJboIYC8oIMAQEfE4/F81xmAbJbwVQAAACB7UQAAAPAQBQAAAA9RAAAA8BAFAAAAD1EAAADwEAUAAAAPUQAAAPAQBQAAAA9RAAAA8BAFAAAAD1EAAADwEAUAAAAPUQAAAPAQBQAAAA9RAAAA8BAFAAAAD1EAAADwEAUAAAAPUQAAAPAQBQAAAA9RAAAA8BAFAAAAD1EAAADwEAUAAAAP5bgOkArdy8o05KyzVFJRoaJevVRQXOw6EpDxYi0tatyxQ7s/+EDr5szRutdek43FXMcCkCKhKgD5XbroxBtv1JHnnCMTYecG0FFFvXqp19FH68hzztGe9ev15r33atN777mOBSAFQjMlu/TvrwseeUTDzzuP4Q8EoFtpqc75zW80csoU11EApEAoJmVuUZG+9MtfqltpqesoQKiYSEQTb75ZgysrXUcBELBQFIDya65R96FDXccAQslEIjrlttuU26mT6ygAApT1BSC/Wzcde+mlrmMAoVZQXMyhACBksr4ADD7lFEXz8lzHAEJvyBlnuI4AIEBZXwB6HXOM6wiAF3oOH65obq7rGAACkvUFoKhnT9cRAC+YSESF/L4BoZH1BSAnP991BMAbHG4DwiPrCwAAAOg4CgAAAB6iAAAA4CEKAAAAHqIAAADgIQoAAAAeogAAAOAhCgAAAB6iAAAA4CEKAAAAHqIAAADgIQoAAAAeogAAAOAhCgAAAB6iAAAA4CEKAAAAHqIAAADgIQoAAAAeogAAAOAhCgAAAB6iAAAA4CEKAAAAHqIAAADgIQoAAAAeogAAAOAhCgAAAB6iAAAA4CEKAAAAHqIAAADgIQoAAAAeogAAAOAhCgAAAB6iAAAA4CEKAAAAHqIAAADgIQoAAAAeogAAAOChHNcBAABfKFJaWnq8MeY4Y0wva+3eSCSyuqWlZXZtbe1+1+F8NHTo0GOttROstSXGmH3W2o2xWGzWhg0bdrvO1l4UAADIUCNHjszbt2/fPxtjbpHU/+C/G2NkrVVubm5jWVnZ73Jzc3++cuXKHQ6j+sKUlZVNkXRHPB4fcfAfrbWSpGg02lZWVvaUMea2Dz74YJWrkO3FIQAAyEClpaX9GxsbXzfG/FIfGf6fUCTpu62trcvKyspOSWM87wwePLigrKzsvyT9WdKIz/jPciRdYq2tLisruzJ96RJDAQCADDNs2LCu0Wj0FUnHt/MlvSS9WFZWNiGFsXwWNcb8VdLX2/nfF0h6ZMiQIVekMFPSKAAAkGHa2tr+01p7TAdfVijpyZKSkqJUZPLZ4MGDb5N0bgdfZqy1vxs2bNjQVGQKAgUAADLI0KFDJxpjLkrw5YPy8/O/F2ggz5WVlfU1xtyc4MsL4/H4XYEGChAFAAAySDwe/5/JvN5am9Tr8XHW2sskdUri9V8dNGhQ9wAjBYYCAACZ5axkXmyMGZrJu52zjTHmzCSXyDXGVAaRJWgUAADIEJWVlTmSSpJdx1pbGkAcHJD0e2mMycjPgwIAABli9erVXSVFk13HWpuRu5yzVHGyC0QikYz8PCgAABAy1lrjOgMyHwUAAAAPUQAAAPAQBQAAAA9RAAAA8BAFAAAAD1EAAADwEAUAAAAPUQAAAPAQBQAAAA9RAAAA8BAFAAAAD1EAAADwEAUAAAAPUQAAAPAQBQAAAA9RAAAA8BAFAAAAD1EAAADwEAUAAAAPUQAAAPAQBQAAAA9RAAAA8BAFAAAAD1EAAADwEAUAAAAPUQAAAPBQjusAAJDt7NixpZK+LGmYrO2S6DqNUv4zLS1J5xkTjX57xJgxZya8gDFNsrZW0egsU1U1P+lAaTZhwoSe8Xj8XElHSeqVzFrNzc3drbVJ5YlGo+eNGzeuXxJLtFprtxpj3iwrK3vjySefjCUV6B8oAACQIDt27DGy9l5J5x36R2MSXq9I0uX5+ckHk85IegVjpHhctrx8ieLxW8zChS8EkCulKioq+ku6MxaLXaWA5lteXl4Qy5Rba8uTXcRaqw8++GBTRUXFHVVVVf9XUjyZ9TgEAAAJsGPHXibpfRlz3hf+x9nM2mNlzN/t2LH32ylToq7jfJby8vITJM2XdLXC/eX2CEm/raioeGrkyJGdk1mIAgAAHWTHjv2ypMckFbrOkkY3as2ae1yHOJzy8vIRxpgXJSWzmz3bfKWgoGDGlCRKGQUAADrAHntsX0lPSMrYb8MpY+1Ntrz8S65jfFRlZWWOMWaGpG6uszhw1tq1a29M9MUUAADoiNzcH0vq6jqGMwfOecgY9fX1V0ka4TqHK9baqWPGjClO5LUUAABop38cA7/cdQ7HRtuxY49zHeIjrnQdwLHinJyc/5HICykAANBea9aMUZKXlYXE6a4DSFJlZWWBpImuc7hmrU3o86AAAEB7xeMDXEfICNYOdB1BkhobG/vLx3MxPi2hz4MCAADtZYy/x/4/LiNOuGttbeXzOCChz4MCAACAhygAAAB4iAIAAICHKAAAAHiIAgAAgIcoAAAAeIgCAACAhygAAAB4iAIAAICHKAAAAHiIAgAAgIcoAAAAeIgCAACAhygAAAB4iAIAAICHKAAAAHiIAgAAgIcoAAAAeCjrC0BLY6PrCIA34q2triMACEjWF4DGHTtcRwC8YK1V486drmMACEjWF4CtCxe6jgB4YdfKlYq1tLiOASAgWV8Aat9+Wy0NDa5jAKH3wSuvuI4AIEBZXwBaGxu16A9/cB0DCLX9O3dqyZ//7DoGgABlfQGQpEWPPqpN8+a5jgGEko3F9OpPf6pWTrgFQiUUBSDe1qZXbrmFEgAErLWxUa/ceqs2vfuu6ygAAhaKAiBJzXv36oUbbtDbDzygpro613GArGat1drZs/XUN76htbNmuY4DIAVyXAcIko3FtPjxx7X0r39VSUWF+o0Zo6LevZVbWOg6GpDxbDyu/bt2qW7dOm2cO1f1W7a4jgQghUJVAA6KNTdr41tvaeNbb7mOAgBARgrNIQAAANB+FAAAADxEAQAAwEMUAAAAPEQBAADAQxQAAAA8RAEAAMBDFAAAADxEAQAAwEMUAAAAPEQBAADAQxQAAAA8RAEAAMBDFAAAADxEAQAAwEM5rgNkmvxio4Jio5xOxnUUSVKsxap5t9S0Ky4bd5ulh6RekoqtdRvkH5ol7TBG2yS1Oc4SL+imeKfeihf1UCa8Oybequi+nYrWb5ViLa7jAMhAFABJuZ2Nhnw5V/1PyFFRn8wY/J/Uuk/aNr9Na//eqvpN6WsCRdbqCklnW6uytG21A6zVPklzJT0WiWhpOjedk6/G0VO0/+hz1NpreBq33H6mrUn5699R0cI/Kn/TfNdxAGQQ7wtAv/FRjb46XzlFmTn4D8rtJA2YlKMBJ+VozfOtWjmjJeV7BI63Vj+3Vj1Su5mkdZJ0lqQz43E9ZYzuN0atKd5ma79jtfvL9yjWpV+Kt5Qcm1OgpqGVahpaqcKV/61us34u07rfdSwAGcDrcwAGTc5R+b8UZPzw/5iINPT8XB33z/lSCmOfYa3+TxYM/48ykr5qrX5pbUqbbcvACdr51Yczfvh/0v7hZ2nXV/9DNrfQdRQAGcDbAtDj6IhGfjO1QzSVSk7I0bDzc1Oy9pGSfmatoilZPfWOt1bfT9F5CrGuJdr15Xtko3kpWT/VWvoco7rTf+I6BoAM4GUBMBHpmK/ny2T5Tz/sK3kq7Bl8g/m+tcoPfNX0mmKthqegBNRPvEG2oGvg66ZT0/Cz1DJwgusYABzL8hGYmJ4joupamv0/eiRXGjg52J3dR0qakCFn+ScjIumSgNeMd+ql/UeeEfCqbuwbc5nrCAAcy/4pmIA+5dm6c/vT+o4NtgBMCsHwP+iUgNdrKpukrN9t9A/NA4/P2sMYAIIRjr9mHdSpX3h+7E79I4GexzA4uKWc62GtgtxZ31ZcGuBqbtmcfMW69ncdA4BD4ZmEHZDXNUvP/DuMSI6UG+BVDJlyk5+gdA/w54kXdQ9srUwQL8qmazwABM3LAhCSvbiHBPnzREx4ypEkRQP9ecL13nj6649ghO2XIdsldCyYvwAA0F7GeH/zNElqtra36wz4/6y1Ce2epAAAQDs1xOPhOREkCTFr+7rOIEmxWKzAdYZMYK3tnMjraLMA0E4t1naOhewwWSJiUkZcQmKt7WFDdt5SIqy1CX2ZpwAAQDutb2lZZBg4klTlOoAkNTc3b25qanIdwzljzJpEXschAAAAPEQBAADAQxQAAAA8RAEAAMBDFAAAADxEAQAAwEMUAAAAPEQBAADAQxQAAAA8RAEAAMBDFAAAADxEAQAAwEMUAAAAPEQBAADAQxQAAAA8RAEAAMBDFAAAADxEAQAAwEMUAAAAPEQBAADAQxQAAAA8RAEAAMBDFAAAADxEAQAAwEMUAAAAPEQBAADAQxQAAAA8RAEAAMBDFAAAADzkZQFo229dRwiOldqagluuMbilMkJDgGuZ1nC9O6YlyHcHQLbxsgA07QpPAWipt4q3BvfzbAtsJffaJO0McL1ow4cBruZe2H4eAB3jZQHYuTTmOkJgdiwJ9meZF+hqbs03RkG+O/kbw/Pu5OxYpcj+3a5jAHDIywKwrSqmtqZw7AXYNLct0PXeNUa7jAl0TVdeCHi93G01yqnbEPCqbhStmOk6AgDHvCwALfVWa2cGOzhd2LU8ru3Vwe4BaJb0cKArurHGGL0QdJGxcXWe+5tg13Qg2rBNRYv+7DoGAMe8LACStPqZlqw+FNCy12rhQwGe/fcRM4zRf6dk5fRolHSrpHgK1i5c86qKFs9IwcppEmtV8Uu3ybQ1u04CwDFvC4CNSfN/1awdi7OvBOzfbvXu3U0pO5nRSvpZJKKXU7J6au2UdEMkojUpPIzR7bX7VLTkqZStnyqmuV49nv+B8jYtcB0FQAbIcR3ApdZGq3n3N2nQ6Tk68oI85XXN7GPf8TZpw6xWrfpbi1r3pXZbzZJujUT0tqTrrFUfm9nnTMQlPWeMHjJGO1K+sTZ1e/Vflb/hXe2deINixQNTvcXkWKuCVS+ry1u/Uc7eza7TAMgQXhcASbJxaf3Lbdo4u009j4mq+5FRFfQwiha4TnZAvFVq3mNVvz6uDxfF1LovfYPYSnpW0t+N0VhJ5ZL6SuqUtgSf7+BlfmuM0ZuSdqV5+wWrZ6lgzWy19DtWLQPGK9alr+L5XdOc4vCMjSmyb6dydq9Twbo3FeGSPwCf4H0BOCjeJm2vjgV+Ul0YxCS9b4zedx0kE9m48rZUK29LteskANAh3p4DAACAzygAAAB4iAIAAICHKAAAAHiIAgAAgIcoAAAAeIgCAACAhygAAAB4iAIAAICHKAAAAHiIAgAAgIcoAAAAeIgCAACAhygAAAB4iAIAAICHKAAAAHiIAgAAgIcoAAAAeIgCAACAhygAAAB4iAIAAICHKAAAAHiIAgAAgIdyXAfwgTFG3bt31+DBg9WjRw916tRJ+fn5KioqUn5+vpqbm9Xc3KympiY1Njaqrq5OGzZs0Pbt29XW1uY6PjooGo2qT58+Ki4uVkFBgYqKig591rFYTE1NTYc+68bGRm3fvl11dXWuYwPwDAUgBfr27atRo0bpyCOP1MCBA2WMkbU2obWstdqxY4dWrlyp6upq1dbWJrwWgtelSxcde+yxGj58uEpKSnTEEUeof//+ysnp2K9WY2OjNm/erNraWtXW1mrp0qVasWIFBRBAylAAAtCpUyeNHz9eo0aN0qhRo9S3b19JUmtrq1auXJnUwDbGaNy4caqsrJQk1dXVafHixVq8eLHee+897d69O4gfAe0UjUY1ZswYjRkzRqNGjVJpaakikeSPpBUVFWnYsGEaNmzYoX9rbm7WsmXLVF1draqqKq1bty7p7QDAQRSABEUiEY0aNUqTJ0/WCSecoIKCgrRst7i4WJMmTdKkSZN03XXXacWKFZo9e7Zef/117d+/Py0ZfDRw4EBNnjxZkydPVnFxcVq2mZ+ff6hsXHnlldqwYYPmzp2rV199VR9++GFaMgAILwpABxUXF+v888/X6aefnrZB8FkikYhGjBihESNG6KqrrtIbb7yhp556Slu3bnWaKyzy8vJ05pln6pxzztGAAQNcx9GgQYM0aNAgXXrppVqwYIH+9re/afHixa5jAchSFIB2Ki4u1le+8hWde+65ys/Pdx3nU4qKinT22WfrzDPPVFVVlf70pz9pzZo1rmNlpcLCQp1xxhm66KKL1KNHD9dxPiUSiaiiokIVFRX64IMP9Ne//lVvvfUW54YA6BAKwBfo0qWLvvGNb+j000/v8IldLkQiEY0fP14VFRV655139Mgjj2jbtm2uY2WF3NxcXXDBBbrwwgvVqVMn13HaZciQIfrhD3+otWvX6ve//z17BAC0W+ZPNEeMMaqsrNQ//dM/qVu3bq7jdFgkEtHEiRM1btw4zZgxQzNmzFBra6vrWBlr1KhRuvbaazVo0CDXURJSVlamu+66S/PmzdP06dO1Y8cO15EAZDgKwGGUlZXpuuuu09FHH+06StLy8vJ0+eWX65RTTtH06dNVXV3tOlJG6dmzp66++mpNnDjRdZRAjB8/XiNHjtTjjz+umTNnKhaLuY4EIENxJ8BPOO200/SLX/wiFMP/o4444gjdeeeduuaaaxSNRl3HyQjHHXec/u3f/i00w/+goqIiXXzxxbrzzjs1cOBA13EAZCj2APxDUVGRvvOd72jSpEmuo6SMMUbnnXeejjrqKN13333enhsQjUY1ZcoUXXrppYFcw59pdu/erS1btsgYo+uvv15z5szRiy++6DoWgAwTvr9+CSgtLdUDDzwQ6uH/UUceeaTuv/9+HXfcca6jpF2PHj10zz336PLLLw/l8K+rq9OWLVsOXREQj8d16qmn6oYbbpAxxnE6AJkkfH8BO+ioo47StGnT1K9fP9dR0qpr16766U9/qlNOOcV1lLTp16+f7r77bg0fPtx1lJTYvXu3Nm/e/KnLAa21Kikp0W233aa8vDxH6QBkGq8LwIQJE3TXXXepS5curqM4kZOTox/84Ae66KKLXEdJuWHDhukXv/hFaIvewd3+n3cvgMLCQv3kJz/x9v93AB/nbQE444wzNHXqVO+/ERlj9M1vflNf//rXXUdJmfLyck2bNi0rL+dsj/YM/4Oi0aimTp2qnj17piEZgEzmZQE44YQTdP3114fyGHCipkyZoilTpriOEbijjz5at9xyS9qe1ZBunzzm31433nhj1tzsCEBqeDcBR40apZtuuonhfxhf+9rXdOaZZ7qOEZjS0lL95Cc/Ce3w37Nnz2GP+bfXD3/4Q+/3gAE+82oKDh48WFOnTlVubq7rKBnJGKPvfOc7OvHEE11HSVrfvn31s5/9TJ07d3YdJSXq6uq0adOmpO7/n5ubq5tvvpmrAwBPeVMAiouLdfvtt7Pb8wtEIhF9//vfz9pb4koHTna7/fbb1b17d9dRUiLZb/4f1alTJ33rW98KIBWAbONFAYhEIvre976XkU92y0T5+fmaOnWqCgsLXUdJyHXXXacjjjjCdYyU2LNnT9Lf/D9pyJAhOuGEEwJbD0B28KIATJkyRWPHjnUdI6uUlJTo+uuvdx2jw770pS+psrLSdYyUSMXwP+jCCy8M7R4TAIcX+gIwcuRIXXbZZa5jZKVJkybpjDPOcB2j3crKynT11Ve7jpESqRz+0oGbBX37299OydoAMlOoC0Bubi6X+yXpW9/6VlYcOolEIvrud78byhM89+7dm9LhH4lENGjQIJ144omaMGFCSrYBIPOEejJefPHFoT0WnC5FRUX65je/6TrGFzr33HM1ZMgQ1zECt3fvXtXW1qZ8+B88Ofbaa68N7WWTAD4utAWgX79++upXv+o6RihUVlZq9OjRrmN8puLiYl1xxRWuYwQu3cNfknr37q2LL744JdsDkFlCWwCuueaaUO4OduWaa65RNBp1HeOwrr76ahUVFbmOESgXw/+gCy+8UCUlJSnZLoDMEcoCcNRRR2ncuHGuY4TKoEGDdOqpp7qO8SllZWU6+eSTXccIlMvhLx14SNTll1+ekm0DyByhLACXXnqp6wihdMkll2TcCZWXXHJJqO5kt3fvXm3cuDFlw98Y87nD/6CTTz6ZvQBAyGXWX/MAlJWVqby83HWMUOrfv78mTpzoOsYhAwcODNUNbA4O/1Rp7/CXDuwl8OEx0YDPQlcAwvaNMNNcfPHFGfP+TpkyJeP2SCQqXcO/I89GmDx5svr06ZOyTADcCsdfz3/o0aNHqL4RZqKysjIdc8wxrmOouLg4NMf+0zH8Bw4c2OEHI0WjUZ111lkpSgXAtVAVgMrKytB8I8xkp512musIOuWUUzL2qoSOqK+vV21tbcrWPzj8u3TpktDr+Z0CwitUv9lhvQd8pjnppJOcP0d+8uTJTrcfhIaGhpSf8JfM8JcO3BcgE/b4AAheaArA0KFDVVpa6jqGF4qKinT88cc72/6gQYNUVlbmbPtBaGho0IYNGzJ6+B+UCXt8AAQvNAVg0qRJriN4xeX7ne0DKZuGvyRNnDhROTk5gawFIHOEpgCMGTPGdQSvjB492tkx+Gx+tHO2DX/pwB6f4cOHB7YegMwQigLQpUsXdv+nWWFhoYYOHZr27WbzZ52Nw/+gTH4WBIDEhKIAjBo1ijOVHXAxFEaPHp2Vn3U2D3/pwO8YgHDJvr+kh8EfJzdcvO/Z+E0024e/JB199NHKz89P2foA0i8UBYDjk264eN+z7bPet29fyof/gAEDUjr8pQMPCMr2Ky8AfFwoCgAPLXGjqKhI3bt3T9v2jDHq379/2raXrH379mn9+vUpH/5du3ZNyfqfdMQRR6RlOwDSI+sLQI8ePUL3LPhsks6h0KtXLxUWFqZte8loaGhI6fCXlNbhL1EAgLDJ+gLAHyW30vn+DxgwIG3bSkaqj/lLB56EmM7hL/G7BoRN1hcAdv+7lc6hnA2fdViHv0QBAMIm62/v1aNHD9cRvFZcXJy2baXzfINEpONs/yOOOMLJ8JfS+1kDSL2s3wPApUluFRQUpG1bmXz8P13Dv1u3bilZvz0y+f0H0HFZXwA4AdCtdL7/6SwbHdHY2Jjyp/q5Hv7SgUsBeSYAEB5ZXwD4VuJWOodyJpa9xsZGrV+/XvF4PCXrZ8rwP4jfNyA8sr4AZOq3Ql/4vAfg4HX+vgx/KTNLGIDEZH0BSNUfX7RPW1tb2raVSZ/1wTv8+TT8pfR+3gBSK+sLwP79+11H8FpTU1PatpUpn7Wvw1/KnM8AQPKyvgA0Nja6juC1dA6ETBg+jY2N3g5/a21aCx+A1Mr6AsAfJLd8KgC+nfD3SS0tLRl1GAZAcrK+ALgeCr5L5x4Yl3t7fP7mfxC/a0C4ZH0B+PDDD11H8Fo63/8dO3akbVsfdXD4x2KxlKxvjFFJSUlGD3+J3zUgbLK+AGzatMl1BK+l8/2vra1N27YOStfwz4bb7PK7BoRLKApAKh+8gs+3efPmtG0r3QWA4f9xFAAgXLK+AOzfv191dXWuY3grnQWgoaEhbZ81w//TXOyBAZA6WV8AJGnDhg2uI3hp586daT8xLx1DiOF/eOwBAMIlFAVg6dKlriN4qaamJu3bXLJkSUrXT/Xwl6T+/ftn3fCvr69nDwAQMqEoAIsXL3YdwUvV1dWh2mY6hn9JSYm6d++esvVTpbq6mnsAACETigKwYsUKbgjkgIsCkKrPev/+/Wn55p+Nw1+iZANhFIoC0NbWphUrVriO4ZXt27dr27Ztad9uW1ubli9fHuia+/fv1/r161M+/Hv06JGy9VPNRdkDkFqhKACS9P7777uO4JV58+aFYtsM/y+2detWTgAEQig0BeD1119P6R9xfNycOXOcbfuNN94I5LNm+LePy88aQOqEpgDU1dVp4cKFrmN4YcuWLVq5cqWz7e/Zs0dVVVVJrdHU1MTwb6fXXnvNdQQAKRCaAiBJs2fPdh3BC3PmzHF+98VXX3014dc2NTVp3bp1DP92WLZsWVpv9gQgfUJVAN599101NDS4jhFq8Xg8I4rWvHnztGfPng6/juHfMckULQCZLVQFoKWlRS+88ILrGKH21ltvOTn7/5Pa2tr0/PPPd+g1DP+Oqaur4/j/J0SkFtcZMkSr6wCSZK3l81Di70OoCoAkPfvsszy3PEWstXrqqadcxzjk+eefb/cen3QM/379+oVm+EvS008/rZYW/r5+VNzara4zZIiMOC7U3NzM53HAlkReFLoCUF9fr5deesl1jFCaN2+e1qxZ4zrGIY2Njfr73//+hf9duoZ/z549U7Z+utXX1+vFF190HSPjtEpLJLW5zuGctRlxxvWGDRt2S+JhMFJCn0foCoB04JtLa2tG7KEKlb/85S+uI3zKc88997l7fNK12z9Mw19iT9pnOX758p1Wet11DscaYp07v+w6xEdkzm5JR+Lx+N8uw2cCAAAPi0lEQVQSeV0oC8Du3bs1Y8YM1zFC5fXXX9eqVatcx/iU+vr6zywmHPNPzI4dO/Tcc8+5jpHJ7nQdwLH/Pa6qKr2PAf0cxpj7JWVMHgf+tmbNmoSekhbKAiBJM2bMyIiT1cJg//79euSRR1zH+EzPPPOM1q5d+7F/Y/gn7re//S3f/j9H+fLlr0l6xHUOR5ZE8vLucx3io1auXLnJWnub6xyO7IxGoz9I9MWhLQAtLS166KGHXMcIhccff1w7d+50HeMzxWIxPfzww4fuTZCO4d+3b99QDv8FCxbonXfecR0j43Vua7tO0n+7zpFma6Px+FeOq67e5zrIJ61evfoBSb92nSPN9ki6aPny5esSXSC0BUDij1kQ1q5dmxWXVi5dulSzZs1K2/Dv1atXytZ3paWlRdOnT3cdIyscuXp1c12/fuca6R75cGmgtU/H4vEJo1eu/MB1lM+yatWq70q6TlKd6yxp8J4x5oRVq1YldT5KqAuAJD300EPatWuX6xhZqbW1Vb/61a+y5hkLv//979Nytn8Yh7904P3bupWrqtrrtDlz2sYsXz41Yu3Rkv5V0gJJGfftOEHNMmaNpIdl7cljV6y4cNzKlTtch/oiq1at+o+8vLyhkm6x1s6VFJY//m2SaiU9Ya29YNWqVSesXLky6ceimkReVFFR8b6kimQ3ni4jR47UXXfdpUgkvX2ntbU1kHvml5aWqnPnzgEk6phf//rXeuWVV9K+3WScfPLJOuecc1Kydli/+UvSm2++qfvuy6hDu18oHo+fumDBgow7I79m5MjOsUgkN5HX/r2goPvMeDzpa217Slf9rKXl2UReG4tG7diFC0PzLXrAgAGFkUikINHX9+zZc4kxpiSZDPF4/Be7du26J9HXb9iwYY+keDIZDicn6AUzUU1NjZ544gldccUVrqNkjTfeeCPrhr90YJCNGjVKAwcODHTdMA//LVu26MEHH3QdIzRG1tQkfD/yE0880QRx86VGY/aNXrx4d9ILhUBtbe1+SQmf1dq7d++kB280Gm36xz0LMkroDwEc9OSTT2r+/PmuY2SFDRs2ZPVAmD59upqbmwNbL8zDv6mpSffee68aG32+igrwkzcFIB6P65577tHy5UkfNgm1nTt36s4778zqy8Cstbr33nsVjye/xyzMwz8Wi+nee+/91CWUAPzgTQGQpObmZk2bNk21tbWuo2Sk+vp63X777dq+fbvrKElramrSPfckfMhNktSnT5/QDn9rrR588EH2igEe86oASNLevXt1++23a8eOjD+hNa1aWlo0bdo0bdy40XWUwDQ0NOi+++5TNBrt8Gv79Omj3r17pyBVZnjkkUc0a9Ys1zEAOORdAZAO3Or01ltv1ZYtCT1AKXT27dunO+64Q8uWLXMdJXC7d+/WAw880KErQPr27Rva4W+t1R/+8Ac9/fTTrqMAcMzLAiBJ27Zt049+9CPvj3/u3r1bP/7xj1VTU+M6Ssps3bpV06ZNa9c5AWHe7R+LxfTggw9m1COdAbjjbQGQpLq6Ok2dOlULF2bEky3TbuvWrd6UoPr6ev385z//3Ofbh3m3f1NTk6ZNm6aXX86kh7gBcMnrAiAdeNDNXXfdpZkzZ7qOklbvvfeebrzxRq/u/Nbc3Kw777xTmzZtkjEfvwdWmIf/5s2b9aMf/UhVVVWuowDIIN4XAOnAHfumT5+uu+++W/v2heVOnocXi8X0pz/9SXfffbcaGhK+X0nWisfjevDBB/Xyyy8fKgG9e/cO7fB/++23ddNNN3mxlwdAx3hxJ8D2euedd7R+/XrdfPPNGjp0qOs4gfvwww91//33a8WKFa6jOPfqq69q3bp1uvLKK9WnTx/XcQLX0tKi3/3ud3rppZdcRwGQoSgAn7BlyxbdfPPNOuecc3TFFVeoqKjIdaSkxWIxzZw5U4899lhW3+AnaB988IHuuOMOTZgwQddee21o9gIsWrRIDz/8MPe7APC5KACHEYvF9Nxzz+nNN9/UVVddpcrKSteRElZTU6Pp06drw4YNrqNkrPfee0+LFi3ShRdeqClTpignJzt/LXbu3KlHH31Us2fPdh0FQBbIzr90aXLwGvJZs2bpsssu08iRI11Harf169frL3/5i+bOnStrres4Ga+5uVlPPPGE5s6dq0svvVQnnXRS2p8emag9e/boueee07PPPhvoMxAAhBsFoB2qq6tVXV2tY445RhdddJHGjRv3qbPIM8XatWv1zDPP6LXXXgvkXvi+2bhxo+6//349+uijOv/883X22WcrNzehJ7umXF1dnWbOnKlnn32Wh/kA6DAKQAcsXbpUS5cu1bBhw3T22WfrpJNOUqdOnVzHUktLi959913NmjVLCxYscB0nFLZt26bf/va3evrpp3X22Wfr1FNPzYiTBa21Wrp0qWbPnq05c+aotbXVdSQAWYoCkIDVq1dr9erVevjhhzVhwgRVVlaqoqIioXvOJyoej2vZsmWaPXu25s6dyzfAFNm+fbsee+wx/fGPf9SIESN02mmn6aSTTkr7yaGbN2/WnDlzNGfOHG3bti2t2wYQThSAJLS2tmru3LmaO3euCgoKdNRRR2nMmDEaMWKEhg8fHvj2tm3bpoULF2rRokVavHix9u7dG/g2cHjxeFw1NTWqqanRv//7v2vIkCEaPXr0oc87Ly8v0O3t2bNHS5Ys0bJly7Rs2TKtXr060PUBgAIQkKamJi1atEiLFi2SJHXu3FnDhw/XxIkT1a1bNxUWFh46u/zzjs0bY2SMUSwWU1NTk/bs2aOZM2dqyZIl2r17d1p+Fny+eDx+aC/QU089pdzcXJWWlmrAgAEaMGCASkpKVFJSou7du6uwsFD5+fmHXWffvn1qamrS9u3bVVtbq02bNmnz5s3auHGjNm/ezMmbAFKKApAiDQ0Nmj9//mc+b72oqEidO3dWcXGxGhoa1NDQwDf6LNXa2nqoEByOMUadOnVSYWGh2tra1NTUxP0YADhHAXCksbFRjY2N+vDDD11HQYpZaw+VPADIFNlxoTMAAAgUBQAAAA9RAAAA8BAFAAAAD1EAAADwEAUAAAAPUQAAAPAQBQAAAA9RAAAA8BAFAAAAD1EAAADwEAUAAAAPUQAAAPAQBQAAAA9RAAAA8BAFAAAAD1EAAADwEAUAAAAPUQAAAPAQBQAAAA9RAAAA8BAFAAAAD1EAAADwEAUAAAAPUQAAAPAQBQAAAA9RAAAA8BAFAAAAD+Uk8qKmpqb+1tqgswBAuxljBrjOAGSzhApALBYrjsViQWcBgHbLzc3t6ToDkM04BAAAgIcoAAAAeIgCAACAhygAAAB4iAIAAICHKAAAAHiIAgAAgIcoAAAAeIgCAACAhygAAAB4iAIAAICHKAAAAHiIAgAAgIcoAAAAeIgCAACAhygAAAB4iAIAAICHKAAAAHiIAgAAgIcoAAAAeIgCAACAhygAAAB4iAIAAICHKAAAAHiIAgAAgIcoAAAAeIgCAACAhygAAAB4iAIAAICHKAAAAHiIAgAAgIcoAAAAeIgCAACAhygAAAB4iAIAAICHKAAAAHiIAgAAgIcoAAAAeIgCAACAhygAAAB4iAIAAICHKAAAAHiIAgAAgIcoAAAAeIgCAACAhygAAAB4iAIAAICHKAAAAHiIAgAAgIcoAAAAeIgCAACAhygAAAB4iAIAAICHKAAAAHgooQJgrbVBBwGAjohEIq2uMwDZLKECYIzZF3QQAOgIa+0K1xmAbJZoAdgQdBAA6Ijm5uYq1xmAbJZoAfivoIMAQHtFo9FNq1ev3us6B5DNEioAS5cufTAajdYHHQYA2iMnJ+cu1xmAbJfoVQDxaDT6g0CTAEA75OTkrFmyZMl01zmAbJfwZYA1NTW/y8vL+32QYQDg80Qikb2RSGSC6xxAGCR1H4Campqr8/Ly7jTGxIMKBACHk5OTs7KwsLC0pqZml+ssQBgkfSOgmpqa2/Py8gbn5ubOjkQizUGEAgBJMsbYnJycDfn5+d9atmzZUQsXLqxznQkIi5wgFlmyZMlGSZMlacyYMUc2NzePNMZ0DmLtbJeXlzdN0qBk1ojFYi/HYjGuvMhwubm59xpjSpJZIx6Pz2xra/tjUJmymTFmRUFBQU1VVVWj6yxAGAVSAD5q4cKFqyStCnrdbFVRUXGTkiwAkUhkxeLFix8LKBJSpKKi4lZJSRWAaDS6rLq6ms8aQMrxLAAAADxEAQAAwEMUAAAAPEQBAADAQxQAAAA8RAEAAMBDFAAAADxEAQAAwEMUAAAAPEQBAADAQxQAAAA8RAEAAMBDFAAAADxEAQAAwEMUAAAAPEQBAADAQxQAAAA8RAEAAMBDFAAAADyU4zoAgI/pW15eXuE6BNxoaWnp6joD/EEBADLL14wxX3MdAkD4cQgAAAAPUQAAAPAQBQAAAA9RAAAA8BAFAAAAD1EAAADwEAUAAAAPUQCA4DS7DgBIUjweb3KdAZmPAgAExBiz1XUGQJKMMZtdZ0DmowAAAbHWLnSdAZDU1NrausJ1CGQ+CgAQnKddBwCMMS9XV1fvc50DmY8CAASkqqrqXWvtK65zwGs2Fovd7ToEsgMFAAiQMeZfJO1xnQPe+s2CBQvedh0C2YECAASoqqpqubX2Ikl7XWeBd57s0qXLD1yHQPagAAABmz9//quSjjfGvO46C7xQJ+nGqqqqS+fMmdPmOgyyR47rAEAYVVVVLZd06vjx40+11l4Qj8cnGGNKJHVznQ1Zr1XSh5JWS3qppaXlz4sXL97tOBOyEAUASKF58+a9Juk11zkA4JM4BAAAgIcoAAAAeIgCAACAhygAAAB4iAIAAICHKAAAAHiIAgAAgIcoAAAAeIgCAACAhygAAAB4iAIAAICHKAAAAHiIAgAAgId4GmAWMMaMLC8vv9Z1DgDwUCfXAVKFApAdTjPGnOY6BAAgPDgEAACAhygAAAB4iAIAAICHKAAAAHiIAgAAgIcoAAAAeIgCAACAhygAKWatbXGdAQDgjjEmI+cABSDFIpHIVtcZAADuxOPxza4zHA4FIPXmuw4AAHAnGo0ucJ3hcCgAKRaPx59ynQEA4MyaefPmLXQd4nAoACk2f/78amvts65zAADSzxhzp+sMn4UCkAbxePx/SdrhOgcAIK1eev/99x9zHeKzUADSYOHCheskXShpt+MoAID0eC8Wi10mKe46yGehAKRJVVXVm9Fo9ARr7VuuswAAUqbNGPNgly5dTl24cGGd6zCfx7gO4KNx48Z92Vp7qaSJkgZIKnQcCQCQuF2S1kt6yRjzyPvvv7/CdaD2+H9r7+I6FpNNogAAAABJRU5ErkJggg==;" parent="2S4IqR70EECTiOiU6gtD-35" vertex="1">
                    <mxGeometry width="312" height="312" as="geometry"/>
                </mxCell>
                <mxCell id="2S4IqR70EECTiOiU6gtD-29" value="" style="pointerEvents=1;fillColor=strokeColor;verticalLabelPosition=bottom;shadow=0;dashed=0;align=center;html=1;verticalAlign=top;shape=mxgraph.electrical.diodes.diode;strokeColor=default;strokeWidth=4;fontSize=50;fontColor=#CC0000;" parent="2S4IqR70EECTiOiU6gtD-35" vertex="1">
                    <mxGeometry x="225" y="29" width="60" height="40" as="geometry"/>
                </mxCell>
                <mxCell id="2S4IqR70EECTiOiU6gtD-36" value="" style="endArrow=none;html=1;fontSize=25;fontColor=#7F00FF;exitX=0.5;exitY=0;exitDx=0;exitDy=0;entryX=0.5;entryY=1;entryDx=0;entryDy=0;fontStyle=0;strokeWidth=4;strokeColor=#b85450;edgeStyle=orthogonalEdgeStyle;" parent="Ef5aAg3daOjvYsMQ55Ko-1" source="2S4IqR70EECTiOiU6gtD-25" target="Ef5aAg3daOjvYsMQ55Ko-17" edge="1">
                    <mxGeometry width="50" height="50" relative="1" as="geometry">
                        <mxPoint x="480" y="610" as="sourcePoint"/>
                        <mxPoint x="520" y="610" as="targetPoint"/>
                        <Array as="points">
                            <mxPoint x="810" y="690"/>
                            <mxPoint x="565" y="690"/>
                        </Array>
                    </mxGeometry>
                </mxCell>
                <mxCell id="2S4IqR70EECTiOiU6gtD-37" value="" style="endArrow=none;html=1;fontSize=25;fontColor=#7F00FF;exitX=0;exitY=0.5;exitDx=0;exitDy=0;entryX=0.5;entryY=0;entryDx=0;entryDy=0;fontStyle=0;strokeWidth=4;strokeColor=#b85450;edgeStyle=orthogonalEdgeStyle;" parent="Ef5aAg3daOjvYsMQ55Ko-1" source="Ef5aAg3daOjvYsMQ55Ko-25" target="2S4IqR70EECTiOiU6gtD-32" edge="1">
                    <mxGeometry width="50" height="50" relative="1" as="geometry">
                        <mxPoint x="820" y="800" as="sourcePoint"/>
                        <mxPoint x="575" y="640" as="targetPoint"/>
                        <Array as="points">
                            <mxPoint x="605" y="900"/>
                            <mxPoint x="605" y="830"/>
                            <mxPoint x="476" y="830"/>
                        </Array>
                    </mxGeometry>
                </mxCell>
                <mxCell id="2S4IqR70EECTiOiU6gtD-41" value="" style="group" parent="Ef5aAg3daOjvYsMQ55Ko-1" vertex="1" connectable="0">
                    <mxGeometry x="1390" y="221" width="200" height="200" as="geometry"/>
                </mxCell>
                <mxCell id="Ef5aAg3daOjvYsMQ55Ko-9" value="" style="rounded=1;whiteSpace=wrap;html=1;strokeWidth=4;fillColor=#fff2cc;strokeColor=#d6b656;arcSize=4;" parent="2S4IqR70EECTiOiU6gtD-41" vertex="1">
                    <mxGeometry width="200" height="200" as="geometry"/>
                </mxCell>
                <mxCell id="2S4IqR70EECTiOiU6gtD-3" value="" style="shape=image;verticalLabelPosition=bottom;labelBackgroundColor=default;verticalAlign=top;aspect=fixed;imageAspect=0;image=data:image/png,iVBORw0KGgoAAAANSUhEUgAAAgAAAAIACAYAAAD0eNT6AAAACXBIWXMAAA7DAAAOwwHHb6hkAAAAGXRFWHRTb2Z0d2FyZQB3d3cuaW5rc2NhcGUub3Jnm+48GgAAIABJREFUeJzs3XmYHFW5P/DvW9XbLFkIgYSwZN8g7F4V8LogKvK74r1iQJBMgsJkAkIIIAkg3JYtCSAhCSSTqJdkIqDEq1w39IJ6VRBUFFlCVrIC2feZ6bXq/f3RCYQwyfR0ddep7v5+nicPmZnuOt+ZMF1vn3rrHICIiIiIiIiIiIiIiIiIiIiIiIiIiIiIiIiIiIiIiIiIiIiIiIiIiIiIiIiIiIiIiIiIiIiIiIiIiIiIiIiIiIiIiIiIiIiIiIiIiIiIiIiIiIiIiIiIiIiIiIiIiIiIiIiIiIiIiIiIiIiIiIiIiIiIiIiIiIiIiIiIiIiIiIiIiIiIiIiIiIiIiIiIiIiIiIiIiIiIiIiIiIiIiIiIiIiIiIiIiIiIiIiIiIiIiIiIiIiIiIiIiIiIiIiIiIiIiIiIiIiIiIiIiIiIiIiIiIiIiKiKiOkARAfTeDwEu2Zw1nEHWsAA5P4cJ8CRLrS3QI4C0B1ACEC3Dg6xE0AGwHYFdljADoW+A1jrVdwNtlprEHGXyq23bvfreyIiChoWAGSUxuMRWJEzXZWPQnEKIKcAehKAqA/DbxZgiUJeVdG/2lb2Rbn99jU+jEtEZBwLAPKVxuMhWJFzXFc+p8C/CvAhADHTuQ6wRSB/VMGzluozEr9ltelARESlwAKASk7j8Z6ORL5oqXxBgfMA9DCdKX/6JiBPWZb+FG76BYnHXdOJiIiKgQUAlYTef3+d0575kqVysQKfBRAxnakINgF40rLQInfc8nfTYYiIvGABQEWl8XvOcGFdBeAy5Br1KtXrgD5qReVRueWWnabDEBF1FQsA8kzj8ZCD2JcBvUGAfzGdx2ftgDxmwXlY4re9ajoMEVG+WABQwTQer3cRaQTkOgD9TecxTAX4tUDulfiU50yHISLqDAsA6jJ98MEad09yAiBTABxlOk/QKPBHG3K7xKf80XQWIqJDYQFAedMnn7TdN968CsDtAPqZzhN0AvxK4N7CSwNEFEQsACgvmfjUcy3gIQAnm85SZlxAHrUi7i1y661bTYchItqPBQAdlt5997GaDc1S6JdMZylzOyFyuzVyULNcfLFjOgwREQsA6pBCxYlPHyNwZwDSy3SeCvKKZeEKueOWl00HIaLqxgKAPkDjUwc5wAIB/tV0lgqVgoupVs/ofXLDDQnTYYioOrEAoPfJfnvqaFGZD2hP01kqneze+7YIxsiD9/7edBYiqj4sAAgAoNOm9XCT7nxALjadpWpkHWDLdkUsNseeNfUbpuMQUXVhAUDQO6ed5Lr6EwDDTGepNrK3Ddi9F4jF3hC35iMyJ95qOhMRVQfLdAAyK/vtaV90XX0ePPkbod3qgEgYSCZPVG3dqN+Mn2E6ExFVBxYAVSrX5T81Lqo/RVltz1t5tGd3AAJkMvW6Z89f9fopl5rORESVj5cAqpDG4xEX0e8CaDCdhfbZvhuSyN0QoCJAbd3d9sx7bjeciogqGAuAKqPTp3fThPuUAueazkIHyGYhm7cDqvs+IdCaWIs9e9pYo7mIqGKxAKgiGo/3dBD9lQBnmc5CHdi5B9LWfsAnBFIb+7nMmnahsUxEVLFYAFQJjd9/tAvnN4CeZjoLHYLjQDZtO2AWYJ+a2HPW7OlclImIiopNgFVA4w/0dpH9LU/+AWfb0PraD34+kfyYXjvlt/4HIqJKxgKgwum0aT0cpJ8GMMp0FspDfW2H83KaSJyr1035pf+BiKhSsQCoYHr//XVOUn8lkA+ZzkJ5sm1obU2HX9L25AU6ccrjPiciogrFAqBC6ZNP2tqWfUyAs01noS6qrzvEFxTalrjUmThlmq95iKgisQCoUO4bbz6kwBdN56AChENANHLIL0tbcrJO+tbXfUxERBWIdwFUIOfbUydB8aDpHFQ4SSSB7bsO+XW1LNeqqz1LZtzzVx9jEVEFYQFQYTLxqedawG8AhExnIQ9UIZu2Ao576IeEQwmrFifId76zzcdkRFQheAmggmh82gkW8EPw5F/+RKA1scM/JJOtcVP2iz4lIqIKwwKgQuisWVEH7n8DOMp0FiqSQ9wNcCBJpgY719+yoPRhiKjSsACoEO6Otnt4u1+FiYRzDYGdkLbEWL3+ln/3IRERVRD2AFQAvfPeT7iu/A4s6CqO7GkF9rR2+jgN2Smrb/e+Eo8funOQiOgAPGGUOY0/2Mt15THw37Iiae3h+wD2k6wTdXYkfl3iOERUQXjSKHMuUg8CONZ0DiqRUCj3Jw9We/IjeuOtV5Y4ERFVCF4CKGP7bvl7FlX87+jYIezu0ROObSOWTKLb3t2mIxXfrj2Q1vbOHwdAbTtt1bh95KGHeCmAiA6Lt4uVKY3Ha13ofECq8uS/9ag++OfpZ+GtEwbBsex3P1/XvhfDlr2Gk199CZF0ymDC4pFoFMizABDHiTjZ2E8BfKq0qYio3FXlyaMSOPF77wHkVtM5TPj7mefgn2ecBT1M7VPXtheffuYpHL1lk4/JSsRVyMYtgGqeTxDIETUfl/un/qmkuYiorLEHoAzpXXcNBOQG0zlMeOlfPoaXzzz7sCd/AGir64ZfX3AxdvTq7VOyErIECIe78ASFtmefKFkeIqoILADKkDrh+wDk1x5eQTb1PRavnPbRvB+fjkTxh3P/rdNioRxorCsFAIBU+li9ccqk0qQhokrAAqDM6J33nqPQL5vOYcLLZ57T5ZP59l5HYe3AYSVK5B8JH3p3wEPRtvTdijh/x4moQ3xxKDPqWneZzmDCnu498Xa//gU9940TTytyGv9p2O78QQfLOrWYlLyv+GmIqBKwACgjmfjUcxVald3dy0aeUnDL6sZjTsDu7kcUN5DfbBuwuv7rqon0NzQe590+RPQBLADKiAB3ms5ggmtZWDX0pMIPIMCKkScXL5AJItA89gX4gKwTxe7ktOIHIqJyxwKgTGh82scEOMd0DhPW9x+C9tp6T8dYMWwU3ALeQQdKpIuNgPu47elr2AtARAfji0KZUGhV3vYHAEtHnur5GImaOqzvP6QIacyRUAF9AADEcWLuxNSUIschojLHAqAMaHzqIAUuNJ3DhNa67njn2MKa/w62bMQpRTmOMXZhBQAASCY7sYhJiKgCsAAoAy7kWgCFv/qXseUjTy7affxvHzcArfU9inIsE9RDAYB05mideOtnipeGiModC4CA03g8BrgNpnOYoCJYOWxUUY+3fHjxjuc7LwUAFOo6U4uWhYjKHguAgHMkehEgvUznMOGtEwahtb57UY+5YkTxZhR8Z0nuT6GSqTP05undiheIiMoZC4CgU1Tt/u5LS3DNvq2uG946YVDRj+sbL7MAquKmdlXlBlJE9EEsAAJM49OPE+ATpnOY0F5bj7eOL82JuhSFhV/U462Mks2OKVIUIipzLAACzBV3NKp0y+blI04u2X37bx0/CG21ZToT7vXyRTpzrF5zY3FuqyCissYCIMBUcYnpDKYUs/nvYK5lYWW5NgN6LQdV4Vqh24qShYjKGguAgNo3/f9h0zlMePu4AdjTvWdJx1g+YlR5NgOK919ZcZ0LipCEiMocC4CAcsT5PKp0+t+PBXv2duuJd/qdUPJxiq4YRUs620/j8dJWWEQUeCwAAspSqyrfpSVjNVg/wJ8le5cVYYlh3xWjJFQVd1eqsQhHIqIyxgIggHTevHC1bvu7YvjJcCx/Fj1cN2AIEjW1voxVNEW6bCGO++WiHIiIyhYLgCDavP3DAMp3zVoPVvjYnOdaNlaVsNmwJFSLc5xMpsy+cSIqNhYAAeS61bnt78Zjjseunkf6OuayESf7Op5nRTr/I+vU6I238XZAoirGAiCABFKVBcCykf4v0LO7Ry9sPOY438ctXLEqAMDNul8t2sGIqOywAAgYhYoCZ5nO4bd0JIZ1A4YaGXv5iDJqBnSLdyjLdc8r3tGIqNywAAia+LT+AI4yHcNvK4edhGwobGTsNYOGIRWNGRm7y9Qp3qFcl30ARFWMBUDAOCJl9Ha0eFYYvBbv2CGsGnKisfG7QtziXQJAJutvwwURBQoLgIARaPnuVFOgLX2OwfZeHiY9FOi/dqWnDMvLZU0At3gzAHBdSydNKeOtEYnICxYAASOKMmtL987rgjzHbNqAj7z4f57643b06o0tfY7xlKPkVAGniDMAAAD7s0U+IBGVCRYAAaMQM51whmTCEawZONzTMUYsfRXd9+zCMZs2eDrOsqA3A7pu8dYB2H/IrFN1DadElMMCIHB0oOkEflo19ERkwpGCnx9JJ9+d/h+x9FVPWVYPHoF0JOrpGCWVLeItAPuoqrfqi4jKFguAANGpU49Ala0AuNzjxj9DVyxBKJsBAAxYvRyxZKLgY2VDYawePMJTnlISJ1v0Y1pwA37dg4hKhQVAkGQwwHQEP23vdRS29e7j6RjDlr327t9t18HgVW94Ol6QNwjSbBEbAPdzXe4KSFSlQqYDFKqxsTEsafm0qJwHRT9I+X4v+y3Ysr1vQ+/quTNr2YmneXr+0Zs34sgdW9/3uZFvvIIlo84s+JjbevfBtt590HvbZk/ZSiKTKf4hs25d09imJ4t+4FJQbBWRlyy1fvZIyyPbTcchKndledIcP2b8BZKUmQDe2ze22M3RBmiRG7yCLGuH8OYQb9PtI5a98oHP9dy1HUdv3uipo3/5iFPQ+7lnvEQrCckU/xKA67o2FKOLfuASUVU4cFqbGpru257Yfu/ixYtLMC1CVB3K7hJA09im60Tk5zjw5F8h6n3aBjcIVg8eiXSk8NX3wpk0Bq5e3uHXOioMuuLNISONrUp4SKpACS4BRAFEUZwthn1UD+DOI2uO/Nno0aML7yAlqnJlVQBMGDvh/0ExA2WWO191dkV+Wx1afqK35r8hK99AOJPu8GuDVi1FJJ0s+NjpSBRrBgesOT5d/On//WJld/5/1wW9Yr1mmw5BVK7K5owzevToiLo6C2WUuasiUr6vxF2xq+eR2Hx0P0/HGL7s0Lf8hZwsBq9a5un4QVsTQNIdFzvFELC5ji4RkavGjxn/IdM5iMpR2ZxMe8V6fQ6Cil62NFR+U7EFWXqit5PrkTu2dtqkN+KNf3oaY3Offth5RHAaMjVVuhmAsmwEeo+IyATTIYjKUdkUAAKp+K1L7SqYAXAsG2963Hgnn5N7PkVCZ7yuUVBMUsJLABUw8/QZ0wGIylHZFAAQHG86QqmFyv+FuFNrBw1HMlZT8PO7Mr1/uMsE+Vg17CQ4dgDeH6czuWWASyRU/rfQ9It/Mh6Afyii8lI+BQBQazpAqWn5vxB3atlIb++qB72Zf4Pf4RoF85GM1mDtQPNbM0gyVdoBtOwLT3vLUVsKv6WEqEqVUwFQ8Sr9huY93XtiY19vEznD38j/XX04k8bANR3fKpivQDQDJkvXAAgA2SooPInogzhtFiDZCl8IaNnIU+Clz9FyXawcPgorh4/K+zmt9d0LHxDAxmOOx+4evdBj9w5PxymY65ZkBcADORBUxEpaRNQlLAACJOtW7ouwa1lYNTT/E/ehjuH7Wv0CLB8xCh/+yx/9HXf/8IlU0bcAPliGJ3+iqsRLAAGS1NI1epm2bsBQtNfWmY5RkJXDRsG1zPyqaKLwBY3yVfoRiCiIWAAESJtTuQXAsgDdUtdViZo6rO9vYOVp1y15A6ACaOcEAFFVYgEQIG0lvNXLpNb67njn2P6mY3iy1MA2weLDu/+MsAmQqFpVSw/A8wp9znSIzsQsawCAS0znKLblI06BlvkaB+8c2x97u/VAt727/Ru0LVHyIWzLchT6QMkH6oRAjgLwNdM5iKpJtRQAz85rmRc3HaIzzXdOO8l1taIKABXByuEnmY7hmYpgxfBROPOl5/0ZMJ0p6QZA+1mW3TqvZd6Ukg/UicZxjSdbrsUCgMhHvAQQJDX2WtMRim3D8YPQWuftVrygWDHiZP9mMnx49w8AYlvbfBmIiAKHBUCAyDe/2QZgq+kcxbTM48Y/QdJW2w1vneDDflSuC2n3pwBwLXnbl4GIKHBYAASMQteYzlAs7bX1eOu4gaZjFNVSH+5mkNZEye/9f3cswUpfBiKiwGEBEDAC8baRfYAsH3GKsfvnS+Wt4wehrbZb6QZQBdraSnf8g1hq+dTUQERBU1mvzhVBXzOdoFhWDiv/5r+DuZaFFSO8rWh4ONKeBHxbD0KAaPRpnwYjooBhARAwrtivmM5QDG8fNwB7uvc0HaMkVgwvUTOgKrC3tfjHPRTbysj98U3+DUhEQcICIGBCoay3TewDwsTCOX7Z261HSRY2krYEkPVxT8iQXVENp0TUNSwAAkZuu20zgHWmc3iRjNVgQ//BpmOUVNGXNvb73T8AiFURs01EVJhqWQio3PwZQNmunbti+MlwLLvg58dSCRzz9voiJvqgdCSKt48bUPDz1w0YgkRNLWoS7UXJI61tPl773zdmyP6lrwMSUaCwAAgikeeheqnpGIVaPuJkT88fueTlkq+4pyL40WWNBS9S5Fo2Vg4bhVNe+av3MI4L7PGv8z9HAEk84fOgRBQgvAQQQJY6ZXtr1jv9jsfuHr0Kfr6oYtjy14uY6NDjDF2+xNMxlhWrz2HPXt/u+99Pw/YemTFjh6+DElGgsAAIovitrwDYaDpGIZaP8HZS7Pf2Ot823Bm+7FWIhxPvnu49sfGY472FSKUhbaXf9e9gGrb/7vugRBQoLAACSCAK4BnTOboqFYlh7cChno4xYpl/N0HUt+5Bv7e99VsuG+mhGVAVsmsPYGA7XtuOPOb7oEQUKCwAAkohZbdAy4b+g+DYhbeV1CTa0H+tvyvTei04NpwwuPDVDve2Apmsp/ELYlkueoQW+T8wEQUJC4CAshH5XwCl3w+2iDb3OdbT84eueB2W628nfP+1K1GTKLwBLx2JYmfPI7v+xEwWsrc4dxB0lUbCayQeTxsZnIgCgwVAQEn8hh0CPGs6R1ckozWFP1mB4Uv9XwXZcl0MXeGt6TBd08XvWxWyfZfvjX/7WWGb0/9ExAIgyFzgSdMZuiKaLryZ7ZiNG9Bjz84ipsnfiKWveroMH0528fvetRfIGpj6BwBLFBH3QTODE1GQsAAIMBuppwCkTOfI15HbtxT83BHLzC1K133PLhyzcUNBzw05WfTcnX/hIokUpM3M1D8AIBJZJdOn+3ObBREFGguAAJN4fJcAvzCdI1/9166C5XZ9LfuaRBsGrDG7Lf2Jb7xc0POOX/cmQtk8WzUyWWDnroLGKRYJW3ONBiCiwGABEHAO8D3TGfJV296KkW/8s8vPO/0fL8J2DE2J7zNgzQr07uIMhuW6OP0ff87vwaqQHbsA18x1fwCAbWfx1hmzzAUgoiBhARBwIaT+F2W0OdC//PVP6L1tc96P779uFUYW+O67mEQVn3r254h0oY/hIy/+H3rt2Jbfg3fsMnPL3wEkGv6dLL7Yx+0GiSjIWAAEnMTjLiBlMwsQymZw/i8X49g8FtgZumIJzn32555W4yumHrt34N9+9gS67T38NL3lujjn+Wdx0ut5Lqa3ey8kYbqVQwAbNxkOQUQBws2AyoAVcee5abkVgIf77PwTSyXw+V8+iTWDhmPJqDOxuU8/qAgAwHId9Ht7PU5+9W95FQl+67VjGy5avABLTjoDK4efhF0H3OMfSyZwwvpVOO0ff0H3PO9YkLZ2YK/fG/10IBZ5U2ZM9/8+SyIKLBYAZUBuvXWrE7+3BZDxprN0xcDVyzFw9XJkQ2G01ncHVNFt727YBTQK+imUzeDUV/6CU1/5C1LRGNpr6xBJp1Hb3tql2QpJJHO3/AWAhKzbTWcgomBhAVAmLOBBF7gKZXjZJpTNoOeu7aZjFCSaSiKa6vr6BpJMATt2G1vs50AaCW+3HprGrX+J6H1YAJQJid+6wo1P+4lCv2w6C3UilQYMrvR3MCscusd0hlJzapwNTQ1NwfiBk78EaSjeAvCMhOS7c/9r7mrTkcoFC4AyIhbi6uJLKMNZgKqRSkO27wzMyV/DoT3WzGkzTOcoNYH0NJ2BDMn9qvUBcKZm9YamhqZ7m1ua74SJbTbLDE8kZUTumLIE0B+azkEdk0QKsm2n2Xv9D2LFwreZzkDkowiA+PiG8d83HaQcsAAoM5YdiqPMdgmsBtKeyN3rH5B3/gCASGSLzJj2sOkYRH4TyBXjx4xvMp0j6FgAlBm5/eaVgDxiOge9R1rbAtPwdyCJhMrqrhGiYhKRO8eMGVNnOkeQsQAoQxaS3waw1XQOArBrT2Bu9XufWOwVeWjqU6ZjEBl0VC1qP2c6RJCxAChDEo/vAnCH6RxVzXWBrTsgrQZ39jsU23IFzn+YjkFkmlhytukMQcYCoExZSM1X4EXTOapSOgPZsh2SSptO0iGNRhfIww+sMZ2DyDhFP9MRgowFQJmSeNy1oVcAML3IfPVQhbS2QbbuALIBXc0wEt5pzYpdZToGUUCETQcIMhYAZUzity4DcJ/pHFXBcXNd/rv2Bq7Z7z0CicS+LIi7ppMQUfCxAChzVq+6eySTXWo6RyWTRAqyZVsAdvQ7PKmNLZaH7v6d6RxEVB5YAJQ5ue66lCQzk7Btp2N6v/mK47jAzt3A9p25vwdZJLwNs2JfMR2DiMoHC4AKIN+58zewrSdky3bI3tYAT1GXD2lLQDZvg7QlTEfpnGW5Eq05l1P/RNQVLAAqhDVzagMi4Q3Y3ZrrUE8Gs0M98NJpyJbtuXf+bjmcTwVaE7tNZtz1mukkRFReWABUCIGohMMfQchOIZMFtu0Atu0E0lw1OC9ZB9ixC7KlzH5mtdFn7JlTp5mOQUTlh7sBVhB56N6NetOUC3R38lmoiiRTQDINrY0C3bsBIdt0xODJukBra26qv8wunWgkvMmaVXO+6RxBoKoXWmKVwfUa6iqFjgfAbdBLgAVAhZEHpv3OmXTLHbK3/a7cZxTSngTak9DaGFBfB0R4ayyyDtDaVpYnfgBAKJS06uvP5HX/HDtp/37O4jmtpnNQ8TWNbTqfG/uWBi8BVCB7xtS7NRb7wLbB0p7M9Qds3QFJJE1EMy+dBrbvhGzamlvGtxxP/rblSDj2Kbkv/o7pKERUvlgAVCj74emXujWxv3X4xVQa2L4LsmkbZG9b8G9x88pxcyv4bd4G2bIj8PfzH5aISjRyucy+h8tAE5EnvARQwexNq89y+wxcKsnU0A4fkM0Cu/dC9rRCI2FIbQ20JgZY4nPSElCFJNPQRCJ3wi/Hd/oHE4HW1k62Zt77gdkdIqKu4gxABZPFix2rd+0oRCMbDvtA1dzGNjt3QzZuAbbvzvUNlNvMgOvmcu/Y/33szH1cCSd/CLS27m575r33m05CRJWBBUCFk3g8LVp3IqKRzXk9QRWSSORuidu4FbJ5W26WIJUO3olUFUhlIHtbIVu3QzZuzeVuTwBuwLJ6IpD62Ex75j23m05CRJWDlwCqgMyJt+pNNw12EVkmqfRx+T9TgUwWkskCe9sgIkA4BA2HIJEwNBwGwiFAfLhkoAAyGUg2C81kIakMkEmj4ruDBZDa2u/IQ/feZDoKEVUWFgBVQh54oE3j8cG6TV7HoXoCOqMKpDOQdAZoS+Dd034oBA3ZgG1BbBuwbSBkQy0rVxxYkvvvoQoF1dyqe27uv+K6QNaBOi6QzUIcJ3fb3r4ZiAroUMiTQLrX3Snfuec/TSchosrDAqCKSDye1tGjR2rfQX9HInlq0Q6czUKyH9yIqMMT9YGFgOphLytUz4m+AyIqtTXXy3fumWU6ChFVJvYAVBlZvNixZk8/TetjTxoJ8O67fTd4PQUBobadlR61X5CZU3nyJ6KSYQFQpeyHpl+i9XX3QIRn4QDRcKjV6ll3mjxw7y9NZyGiysYCoIrZD937LekWuwS2XUa731QujUVXWT3CJ8j0u5aYzkJElY8FQJWTB6ctlp7dhyAW3Wg6S/USaG3NY/bD9w2VadN2mk5DRNWBBQBBpsfXy+Y1x0tdzS+qu/POgJCdlvrYZfasaZebjkJE1YUFAAHINQfKzGlfkPracbBDadN5qoFGo8ulvvvx8tC0J0xnIaLqwwKA3kdmTF0ovSL9tCb2cpXfiFc6tuVoXe3d9iP3jZAH4ltMxyGi6sQCgD5Apk7dbs+efob0rGlEOFTGW+cFjQCx6CqxMMyeOZXL+hKRUSwA6JDkganflT7djpa62md4u6A3Ggolpb72G9bD9w2VuTNWm85DRMQCgA5L4vE9MnPqZ+XIbv+CWGyV6TxlR0RRG/tvq2+3HvLQvY+YjkNEtB+XAqa8yLS7/g5gqN5465WaSN+HdOYI05mCTEUg0cgLYstXZOb09abzEBEdjAUAdYl8597vAfiec/2t10omE0cq3ct0pkARANHo61ZNaIzcf+8/TcchIjoUFgBUEPuhe2cDmO1cf8v1ks7cinTmKNOZjBJRNxZ50Q5Fx8uMu14zHYeIqDMsAMgT+6GpDwF4SG/41gWaSU9HKn0SXK2a+wfVttNWNPI/6BW7LhSPbzKdh4goXywAqCjkwbt/BeBXenO8n5tKPoB05kLJZOtM5yoNgcYiaxC2ZlszYjMFcdd0IiKirmIBQEUl98XfAXAZAOiNd3zeySQnW6nsWXCciOFo3gig4fA2KxJ6CpHYt6374m+ZjkRE5AULACoZ+c6dTwN4GgD0himjNYsrNZv5qKSz3Q1Hy48linD4LQ3bT1uh7DTrgQfWmI5ERFQsLADIF/LgtMUAFgOAXj9lgOvqteLqpzXrDpVsthYIwDpDlihCoe0Ssl+Gbf0IPaKLJB7nvghEVJFYAJDv5KFpawHcuP9jveWWo9ykfZnlZD6lro6E6/RDxq2DuqVrJrQtB6HQLrWstZYtL8PVX6BXzS8lHs+WbEwiogBhAUDGydSpWwHM3PfnXXrTraOQ0XMgOhKq/R1X+4riSLjaTdSNABJWhS0CC+raECujCojAgUhaBW0Q7FGXZnHNAAAgAElEQVRLdtqQja5tLbNg/QN26gV54AFuwkNEVY0FAAWWPHDv6wBeN52DiKgSsQAgIqLAq4kK6usFNdHclcFIBAjZub87riK1b9/SZFrR1p77Q4fHAoCIiIzTNd/sC9s+BeqOgMoAWBgAxcBkWodFbIFld/F4CqRS+oW5d01+FcBaQNZAsBauroCD12Qw9+hgAUBERL7SDZN6wYmcBeBsCD4MxakQHAVVAJLbU2PfG/hYpLBeYBEgFpMogJNzfzR3TAEQAnTd5J0AXoPiJUCegzovyMD7q2o1TxYARERUUromHoOd/DhUPw/gs3AxEoL3zuxmFg8/AsDHIfg4oDdALOi6yasAfRYiv0as5rdydLzVSDKfsAAgIqKi0zcn90BILwRkNJD4NBS1pjPlYQggQ6BoQiKR1nWT/wjgxwhn/1v6fWeb6XDFxgKAiIiKQpfEI6hvvxCQywGcD0jUdCYPIgDOA3AeMqGHdd3k3wH6OMK1i6VfvN10uGJgAUBERJ7ohm8OhWtdCSTGAtLHdJ4SCAH4LCCfRSbxkK6f/Biy+K4Mmv6K6WBesAAgIqKC6LrJHwNwHVx8CUAX+/TLVk8oroGNa3Tdzc8D1kyc8OZPRBY7poN1FQsAIiLKmyoE62++CJApAM40nccsOQfQc7B+0DJdO+V+9I+1iJTPcuKW6QBERFQedN2U87B+8t8AWYyqP/m/zwiIfh/rEyt13ZRG1dFlMRvCAoCIiA5L195ylq6d/CKgz4An/sMZAOg8rB/0qm6Ycr7pMJ3hJQAiIuqQbrjtWLjOVMC9HKbu1i9PJ8LVp3Xd5GcBXC/9py8xHagjnAEgIqL3UR1t69opN8LNLgd0DHjyL9R5AF7WtZPv0TXxmOkwB2MBQERE79INN52C9YP+DNEHANSZzlMBwhDcCivxuq67+dOmwxyIBQAREUE1HtJ1N/8nXPslAB82nacCDQbkGV170/d03YQjTIcBWAAQEVU9XX1jf6xP/g6QOICw6TwVTCD215HIrNZlTRebDsMCgIioiun6yV+BHXoV0H81naVqRLr3RKr1R7r0qh+bjMG7AIiIqpBqPIT17XdDMdl0lqpjh4FoPZDae5Eu+dpahEIfkuHzfd9siDMARERVRlfddDTWJZ8FhCd/U2LdASsEZFP9kU2t1+VXf8zvCCwAiIiqiG6YMgRh+zmIfsJ0lqomAtT0zP09m61BuvUPurRpvJ8RWAAQEVUJXTv5bLj6AoChprMQgHAMsCO5v7uOhXRrsy5tfNCv4VkAEBFVAV1385ch+D2A3qaz0AFqehzwgQKZtkm6tPExP4ZmAUBEVOF0/ZRLAXkCQMR0FjpIKAqEat77WAGk2y7TpY2/KfXQLACIiCqYrpvSCNUfgHd9BVdt9w9+Lt32WV165R9KOSwLACKiCqXrbh4L6FzwtT7YrDAQqfng59OJj+sbjc+WbNhSHZiIiMzRdTd/GZDvg6/z5SHawSwAAGTaPq1LG39RiiH5PwYRUYXR9TdfuO+av206C+XJDuf6ATqSbvt/uvSqhcUekgUAERlnwTrSdIZKoeumnAmVx8Fr/uUnWn/or2XaG3TZ+LuKORz/ByEiI8aMGVNXh7ovQTAOLj5pOk8l0DVTBgD6S3Ab3/IUqsmtDuhmP/i13N0Bt+mKxqUybP7jRRmuGAchIsrXhLETznRdt1FELgXQzXSeSqEr491hJX4JoI/pLFQgARCpB5K7Ov66qiCVbNHl45fI8HmveB2OBQARlVxTQ9OxArlcoVeq6hARMR2poqhCsD7xfQAnms5CHkVrgdRuQLXjr7uOjUz6T7rsa8fKiP/a62UoFgBEVBLjxo2L1Tg1X1DRBgCfVygb0kplw+RbAHzZdAwqArEAOwpkk4d+jJPuBqn9E4DTvAzFAoCIiurdKX5XLlVRTvGXmK6dci5U7zSdg4ooWnv4AgAAsu2n6rLxM2TEvEmFDsMCgIg8a2xoPMGCNRZAg4Epfj1669GdvFpWJl1zfU9Y+iiUt/tVlFBNbiZA3cM/Lt02UVdd/TMZMuf3BQ1TyJOIiBobG2vtpP0lhY4D8CmYu614ffz/4h20TVcBK9IMxQmmY1CRiQChGJBpP/zjVAXJ9v/RldceJUNnp7o6DAsAIuqSpoamYwFMQRINCj3E8mX+EZGSLZUaZLp+yjioXmI6B5VIpKbzAgAAnEw3pFNPAfh8V4fgQkBElLfxY8Z/AcASAN8AYPzkD8AVkYdNh/CbrvlmX6j6tm88GRCO5f/YbNv5umzChV0dggUAEeXl6rFXf1ZEfgKgR6cP9s/sOQvm/NN0CN9Z1mwAR5iOQaUkh14auCOZ5GP6UmO4KyOwACCiTjU2NvZw1V2IYF02/LEbc79pOoTfdP3kL4K3/FWHUBdmAdx0PWrR0pXDswAgok5ZCWs8gL6mc+yzQ1Qm9R3U95L58+dnTIfxk66Jx6CYYToH+STchRkAAMgmLtE3rxqW78ODVM0TUVAJLjKcQAXyvKvuAjtp/2jO4jmthvOYYbffCJWBpmOQT6xIfrcD7qeuIKU/BnBKPg9nAUBE+cjrBaUENqjqQthoaV7QvNJQhkDQ1bf2gTo3m85BPhIAoQiQ6cIyF5nkybriqotk2Hf/u7OHsgAgosOKfzIe2oRNXbgYWTQv2GJf9UjLI0sMjB08dvZOQIJw5wX5yQ53rQCAAunsHACdFgDsASCiw9q3yM5OA0Of5ajzelND0wvjx4xvun7c9T0NZAiE3Da/Ms50ji5xAWwLQd8KAZtDQLKMTjdpAbbY0LfCwNYQ4BjMYnepsT/HSR+tb4z/emcP4wwAEeXjRRSw0EiRfFREPpp0kzOaxjY9paILd7TteGbx4sUmX5b9ZSEOIGI6Rl7aBfpKDPpmBMjkloRWIDed3ScLOT0J6RvQhRu329B/xKBvhwA9IHsIkP5pyGkpoLvP/9vZhf6zZ6YB+P7hHlFGJRkRGaNdu72oRGJQfEVcefrImiPXNTU0TW0c1zjCdKhS0w1ThgB6uekc+dB3wnB/2h26LPruyf+9LwLYFII+XQ/9a827J9ig0NeicH/eLfeu/+BsWUDfjMB9qh66uoB35F5YodzSwF2VSfXW5U1XHfbQhWYiourRd3DfJwXyF9M5DnAsgCmWay1tamh6oamhaXzFXiJw9AagDDb72RaC/rYuN33eCV0Shf7NRFtJx3RJFPpSzb63+4fhCPSPddD1PhcBhc4CZFOH3SWSBQARdSoej7tW1roEwFums3TgowCak25yY9PYpieaxjR9bvTo0cE/YeZBN0zqBUGD6RydcgH3D7VAF2b2dUkU2BSAq9C7rdzJP18K6HO1eRU6RWMV+HPKpvvq8gmHvHTHAoCI8vLI44+sc+GeI5DnTGc5hBgUX4Hg1/svEUy4fMJw06E80fAEAHWmY3RGV0eAPV0/nbgvm58F0FdjuYbFrkgJdGkXF+nxwvJQzzqZ6Yc8bOFHJaJqM79l/vq5LXM/rqoXAngaZvujD+dYAFPU0mVNDU1/LsdLBKqjbUAaTefIy7oCp8Q3hYDdBidrUhZ0TWHT61ro91wILwVAJnmyvnb18R0etvCjElGV0nmL5v28uaX5Atd1j1fo9QBeMR3qMM5C7hLBpqaxTU+OHzP+C/FPxgMw99yJ9YMugOIE0zHyobsKP0HpCnM3N+ib4cJL2F2Wf42MhV4CAAAoEOp4FiD4vwREFFjzfzB/I4CZAGZOGDvhTHW1AYLLAPQ2HK0jUShGi8joTSdseqdpTNOPReT7c1vmvmo62CEctoM7UA7u+O8CXRWGnJkErM468IpPV3iYxncAqOZubyw1LzMAAJDNfLHDw3o7KhFRztyFc//evKh5YrhH+DhVvRCCxehSW5iv+kFwnUJfaWpoeml8w/iJ1zRcc6TpUPvp2luPgbl1F7qupqsX0Q+QtKBrfe6qB4CtNrDTwykwpv6dQcVjAeBmanV5038c/GnOABBRUc2ePTsF4OcAft7U0HQsgDEAxgII6j37ZwrkTAfO1KaGpp9aYi08euDRz8bjcQ9nNY/EuRhl9PosfbPQHR5OUisiwKB08QLlQZd7a+KTPj62vxSyDsDBHOcmAD9932EPfszD8YeHObZzCRQfUdU+IsUY2bt0Jj3Udd2C1sG2LXtjOBx+p9iZCqLIqOg7IvK7jJP50U3xm7aZjkTkhwnjJnxUXR2n0EsEEvSGvOUicuPchXN/aWJwXXfzc4CcY2LsgmwOwf1VvYcDKKwvtwLdfDqpZgD3hz2AbOGnN/lEO8TPomX3O/nvCtgRy85iVEtU5L17Ht797h988MEau9V+ELnrThVxD20Z2APBHRNvnzjTdBAiv4wbNy4Wc2L/DsE4AOch2K83dzS3NN/l54D61s3HwZF1KLNLtO5Pu+ca4wokpyRzvQA+0GUR6Au1hR8g6sK6ZI+//+fu2Qi4Hgukmu5fk2FzH93/oQDA/fffXxdNRJ9R6Fnejk4Fap54x8QJpkMQ+a0cLhGIyNfmLnzvRbPUdO3N34DIbL/GKxZ9PQr9WxcW1DlYjQvrkr2AlL4Z0P1ZN2B74WdvOTEF+UiiiInysGcT4HpsqYnUPC8jv/ex/R9aABBOhr/Lk79RTTPvmnmN6RBEfmtuaX67uaV5WnNL80iFng1gnkJ3mc51IFfdB7/+9a/38m1ASy7wbawikqFpb538CQu63oe2h522p5M/AMiwVJHCdGXQYvQBZE8/8ENr5t0zzxaVS70fmTxR3DUjPiPo10WJSmZey7wXmluam1JW6hgVvQzAbxCAhYYE0jOcDY/1YyxdE49B8Qk/xiq6qEL6e3yH6uW2vDzpMo9jHOUARxjoDy1KAZCp1RVXn7b/QwuKK70flYrgCNuyv2Q6BJFpCxYsSM5bOO+J5pbm87NOdoCK3gpgudFQis/5Mo6d+AQADxenDRvu7Z2xvh0C2krY+pCF5938xOP3aFw2e+3+v1plW21WIBX9pOkMREHyvce+99a8hfOmNrc0jxCRD0ExC8B2A1EG+zKK4lxfxikR6esA3T1M2iigK0u3MqCuiXjbxCeskIGZ4gXqCi1Sb4RkP7n/rxaAfsU5KnmlqseazkAUVG7WTahoAmJkcSG/lqk726dxSkMUMtTbCVJXREq2xK4u91ZcyOA0EPJ/xUIAxSsAss67+wKEALQDML8lE0EgbaYzEAXJtVdce1TaSV8GYJxActcuTbz+CtaWeghdEo8AiTNLPU6pybAU9B/Rwk/ibRb0bRtyXJHrvJ0WsNVbk6EM83exopJws2Fdfu2pMnz2KyEoVkDwUdOZCACw0nQAItMaGxvDkpQLIBiXcTIXCMTcbjH7iMozJR+ktv0MQDzcRxcQMYUcn4Wu93CtfUUUKHIB4GndfwA40sn9MaaIjYeavhTAKyFY+BmUBUAQCORnpjMQmTL+8vGnwsY4ScplAI428k6/Y3tCdmhByUexcUaAvmdvRqQBDwWAbghD2i2gtkgnPWffzn8eyHDD7/6LdQkAANzsxwEg5DruXMuybgQQmI0wqpFAXrj29mv/eN0d15mOQuSbxksbe0tYviqQsQBOD+QJUDBl9qOzt5Z8HJVTSj6GT6RfBlrnFt7R7wK6KgI5pTgrA+q6CJDycHdBSCGDDHb/q1vkAsAdDAChSfFJu2bdNatJVZ+EPxsb0gftcsW9QsSHJbCIDGtsbAzbKfvzLtwrROUCAMan+A9jWvPC5rn+DKWnVMxLsOSul+vLhbeX6fII5ORkUX4knpv/BmYAAxsWvsst8roDrtMLOOBHO/POmVcCeATB/mWsRJth4UsTvzXxz6aDEJXShIYJp7jiXiG6b4o/2NaJyjfnLpq72I/BVCFYP3kXgII2PAukNgvu4m6eOvrl/FbIMR57AXZbcH/SDV4qCevfWoGjDO5snU0BrUWehOrWu+/7fiKz7px1qkLvAXA+gr1BRyVoV9VFYQ3Hr4lfs8l0GKJSaLy0sbcVsS6DYhyA0zt7vGFZAL+GYIEbdX82f/5832741lU3HY2wvdmv8fyiz9RD3yq8814GZiCf9HZzlP6tBvq6hwbAI1xY/77HUwbPUu1AYkdxjxmtu/h9/zLX3XHdKwD+7YH4A73DdvjDcNEHYnTio+IoNCkqG5xuzos33HCDz7tJEJXe6NGj7d41vT+loo1QfBEa+FnFpQJZKJYsnLNgjpliPBoeWPRp3iAYlgI8FAC6LgxJChAr8OqoC+gqj81/Jtb9P5iWYPbBwUc6/JfZt0f9r4o/IhFVqvFfHX8ibDSIyDhV7RPIhr59FLoLiidVdNH8lvnPmc4D1QGmI5SCHJ+B1rpAu8dmwFGFnYR1fRhIemj+swEZbGjlvwN53QWwI5YO9WHrJSKqVBMum3AEwhitqg0AzgFgZqGe/DgAfq+ii2rbaxfPWDwjODNwLk6olP6/97EAGZKGvuqxGfCkdGHbBHtt/uufBqIBmJlxSlCEqB7HAoCIumz85eM/I5ZMUOj/K4Mp/tehWGDZ1mPGpvg7Y7l9SrX8rWkyPA19LVZ4YbjHBrbYQJ8uvgtutaAby/zefyD3cyvFDADcXiwAiChv3/jaN/pls9kWAJ82naUT2wE8ISIL5i6c+3fTYTqlUrnrsNS7kGOy0Hc89AKsiEC6WADk9hQoeEighwv0Mb4bde7kX8w1AN49rnZnAUBEeWlqaDo2m80+D6C/6SyH8G4Xf7h7+BezZ88OQPdWvqR3kK+deDYsDXgpANaEIR8RIJLnz8gFdKW3pX9lWKqwyw7F5paoB0HdGhYARJQPEcgPFRrEk3/wp/g75R5RMYsAdUD6p6GxWOENeY5AV0cgI/Kr6fStMNDu4edpATIkAM1/AJAt0WUI1TALACLq1PiG8Rcp9GOmcxygvKb4O1UBmwAdjpXrptclhb8r1+X5FwBY4bH574QMEAtA8x9QugJAYLEAIKJO7Vur37QynuLvjEYqeQYAAGREGrokgoK/zx12bjvfzlbkaxdPiw8BAILQ/AcAUMAp0f/mqsICgIjycbbBsStgir8TKpEKP/8D3Z1cU91mj82AnRQAujLqafnhXNNihU//AwBYABBRJ+KfjIc2YVMvA0P/VVWvmbdo3ksGxvZXlay4KsPTUC8FwJoI5MPth96YR/d1/3sgw9LBmYzJFmc3xA6pwsMSSURUDeL/F88CMDHd/mERebxpTNNtV19x9fEGxvdTQC44l5YMyOTfyd+RTK4IOBR9OwS0ejitWYAMDdCVpUwJCwAICwAiyoPiVUMjD4Xgbtdx1zY1ND3TNLbpq5NGT6rEhrmgXHQuLVshg719q7r8MI2EKzze+ndcBqgNwK1/AOA6pVkBcD+BsgAgos4JfmI4gQXgPCh+kKhJbGpqaGqZ0DDhPARnstYbqZICAEVYXW+bnWsIPFhSoOs9XtUeFqB/hlJO/+/DAoCIOhV2wnMABKUBrzuAMQp9pqmhae34hvHTrhxz5UDToTxxUfpX+6A4wum8k78T2sEa/7oy4q35r1Yhx5Viyd0CpUu8VYVYbmVUz0RUchMaJnxeoT8H0MHbL+NcAL+DYEFNe81PArXRTx507c1PQ+R80zn8oisi0OdrCz9AWGF9ZTew/w2/Ctyf1Of2DSiQnJqEnBGQOkxdYPdGlHR1SCuc4gwAEeVlbsvcp1X1YgB7TWfpwMGXCL7bNLbpHJTLJQJLdpiO4CcZmD50J38+MgJd+94sgG62PZ38Ifu6/4Mik0Dpl4aWZHn8chBRYFxz2TX9nZDzLQBfBRD0hryVUCy0QlbLnEfnbDAd5lB03eRZAK41ncNP+ufaDqfy89YnC+uC1tyx/lAHXV14RSHHZSGfaS08S7G1bgWyJb4bIRx9pygFQDwet3qGen5MHPksLJwgkMI3fy4jCm0VyPKsZn9xwx03LDGdh8hP13712u7pUPrfRWUMcrsDBvkNhQvgBRFpkXZ5fM7iOQF6tQd07c23Q+RO0zl8tS0E9+f1ng5h/cceoEbh/qgH4GHjPjm3DdI/IIv/OFlgrw/tNqGaZZ5/YWffOfscV9yHoTitGJnKlUB+pq5eOzE+cb3pLER+u6rhqmE27MsE0qDQoDfk7QHwPwJpmdsy97cIwDZ8un7KOKg+ajqH39z/6dZxR3+eZFQKqHWhf/UwERVTWF/ZE4yd/wAgsRtI+XCVLVzzW08FwKxvz7pURRcA8Lb0UuXY7Lru+ZPik/5pOgiRCfF43Hpn9Ttni8oYS6yvKrTOdKZOrFfoE44687636HtrTIXQtTd/CiK/MzW+Kbo0Cn3Ry8nbBaIK7PZQRJycgnwoKD2jCuzeBKiH6Yx8hWubCy4AZtw54ywL1v+BJ//3EciGtJs+46b4TdtMZyEyqVwvEbS6rY8tWrSozc/Bdf03B0OtVX6OGQgZgfvDHrltnoxQWBe15vYpCIJUO5DwqR80Vn9NQb+Qqioz75z5VxH5ULEzVQTF7In/OfE60zGIgmLfJYKxABoAHGc6Tyf2qOh/RazIvbMfnb3VjwFV4yGsT7QC8LaUXRnSP9VCV5l5Hyl9s5DPB6gdZO/m0q7+d6BQ7ekFFQCz7p71UXX1hWLnqSDtMTd21Pj4+HbTQYiCJB6PW1vWbDnPVXcsgP9AsO8i2OLCvWh+y/zn/BhM1938GiCj/BgrULbYcH/ZzcjQ8ok2yKCANP9lk0CrTxPHIiqn/MAqbB0AF+cVOU6lqU1K8izTIYiCJh6Pu3MWzvnf5pbmr7ox9xgRGQ/gz6ZzHcLRNuxfXz3uar8anKvzTqKjHaCngSn4qAan8x8Akj4ur2GH9wAFLgWs0ErfmasYTjAdgCjI5s+fv3vuwrnzm1uazxFXRojKVABvmc51IIXWua67KP7JeOm3Tld5veRjBJSJRXhkSDo4a1pmU6W/7/9AYm0ACt0LQL3ccVkdVDRApSVRsM39wdzlcxfNvbXvoL79Xbj/qqrzBeJrI95hjNp4wsZ/L/koFv5W8jECysTJOFAr/yV2+zue2H8H3ltJuWvPtWSNakDumQwoG7axW4qIylU8HncBPAfgucbGxpslJV8Mwl0EInIRgB+XdBAn9RdYUUWw75YojahC+qehq31qBjw6a+ayQ0cyCcDxuRhRPAUUOAOQ1eyvipum4uzY7m7/i+kQROVs/vz5u+ctnNfS3NL8GXFl5L5LBG+byKKqJ5d6DBn40C4oVpZ6nMDy8R15db/7F8XIfr8ACiwAbrjjhiUC+U1xU1UOgcyIx+MB2leSqLzN/cHc5X0G9/mWunoFAN/vlxeIXwsaPe/TOIEjfR1/7scPK2RgQK7QJlsB1+dTRSi8TSR3fiq4sUVFr4XirwB6Fi1YJRD8M+pEHzQdg6hSXH351UNcy23YtHrTWLHESHOtQDb7M5L+FpAr/BkrYEQhQzPQv5e2GUCGpIFQAC5huw6Q8vndPwBY9ru9JgUXABNvn7hy1p2zLlToUwB6FSVYuRO8npXshbz/n8ibr33ta90i2choCMa56n4Mhq+Lq6o/tyq6oWdhO9XZBwBAhqWg/4gCWrpvPzDT/8ndgJFeutDC/X/z/FOeEZ8xwLbt+1T1IhR6V0H5S6jqw6lY6q7JkycHca90osCLx+PWxjUbPyUqYwFcBKDWdKZ91LXcU+cvmP+aL4OtnfIKRE/xY6wg0t/VQdcVvrXvYfXOwvpCAFb+yySBNgOrxVu2i1GJiMhiByhilTnjnhnHWFnrPBEZ6Kpb9F/c3Xt3X+w4TkG7jIXD4ee71XUr+mpelmXtBLAyEUk8wxM/UWH2T/EDGItgrp/xX80tzV/3azBdO+VuiN7m13hBo2+FoM942yb4UOTsdshwwzMAqrklf/2+9g8AoehKOem/hr37YbGOO+m2SRsBLCrW8Q7W1NB0GoBCtxl9trmlOV7EOETkQdCm+A/jRTfmXuvriIKfAqjaAkCOzULrXKCtyBPKIYUMCsD0f3K3mZM/AIQii9/3oZkURFRt4vG4tenNTZ+EYByy+6b4A9CLdRgLrYT1jeaWZl97eqT/tL/ruslrUPgbnvImuev0+nKsuIcdmAFKdGUhb9kkkDJ0CUJEEZMHDvwUCwAiKqnGsY2DLbXGblq9qQGC/qbzdGKvQn8skNnNLc0vG0uheAqCScbGN0yGpqH/LG4zoAz3candjqgLtO00N34osk76z31fABYARFR0k0ZPqknGkv+moo1Qs6v45cEF8IKItEi7PD5n8RzzXWLqtkCsqi0AUOfmLgW8VaS37Ec4wFEGV/5TBdq2A2owg0QWHvwpFgBEVBTxeNx6Z/U7Z4vKmIQkLgNQmk6u4tmg0MdV9LvzF85/03SYA8nA+/+p6ye/AsWpprMYMzwNFKkAMN74l9zj72Y/B7NsF/U10w/+NAsAIvLk6iuuPl4dvWzTm5saLbEGBfq9PpCA4BeiMn9uy9zfAkHuQpCFgFbtomJyXAZa6wLtHpsBbUAGGVz5L5MEUoZvErMjL8nxMxIHf5oFABF12dWjr653a9yLIRjnOvu6+IN74ncV+gcIFrS77f+9qGVRUHYZPDwn+Sis6F0A/FqGOFisfb0Ar3hrBpQBaSDqFidTVzlpoH2HmbEPJNbtHX2aBQAR5S0ej1ub1mya6Kr7LQC9gvz+GYrVCl0otrTMWzBvrek4XSUDH9ql625+ApArTWcxRYaloa/GPM3TGFv5z83uu+5vqPjYzw5vl5Hz/7ejL7EAIKK8NDY2hje9uekJCC4yneUwWiH4sUIfndcy708I9BR/Hhx5GDaqtgBAvQs5Jgt9p8BTVQ8X6GOg8U7d3MnfDcCWw3Zk9qG+xAKAiPIiKbkvoCf/8pziz4MMmv6Krpv8WwCfNp3FmGFpoMACQIalAPG5Btzf8e8EYMdBK5TCiJ13H+rLLACIqFNNDU2nQ3Gd6Rzvo1gNQQssLCzHKf786VRAqrYAkP5paG0N0NdgW+YAAA6ESURBVN7FJpOQQob4fRLed/I32fF/IDu6SGThIachWAAQUT6uRjA2+6qsKf48SP/7fqvrJv8ZwNmmsxhhAXJ6Avp817aYkVEpIObj9XfVXMNfNunfmIdj2Vm0Y+LhHsICgIjy8RmDYysUfxCRBa3a+uNKmuLPm+JuCH5lOoYpMjQDbExDV0fye/wxWcipfp6I9538Mx+4086cUPQHcvL8wy5jzQKAiA5r9OjRNoDjfR/4gCn+5gXNa30fP0BkwPSndd3k3wP4lOksRohCPp4AYgp9I4LDLSwpgzKQc9r9m69SBdq35+73Dwo7lEYsM6GzhwVhSo+IAuykk05SmJhqFxyhqv3crNvL97GDyNIpqIJLHockCvlIAtYXWnO7+kUP+FGEAemfgZzfCvlEGxDy6cekLtC6NVgnfwCwo7Nl4IJOQwV36Y6DNDU0/RrA5wp8+re5HTBR4ZoamlYBGGwwwssQLHDT7uPzn5i/zWAOo3Td5B8DgbwTw4yUlXsHHoX/3f5uFmjdZm5r30Oxw3tx0oKeIui0AYIzAESUj98YHv90KGZaYevtpoamxyZcPmG44TxmZHEDgOrrgTiUqAvE1P+TfzYFtG4J3skfAKKxa/I5+QMsAIgoD5ZaDwMIwqtdBMBlaunLExomXG46jN9k8PT1UP3Api7ko1Trvnf+hlf460goulSGNi/K9+EsAIioU3MWzVkKYKrpHAeoUWjL+DHjv2Q6iO+09n4AK03HqD4KtO8EErsQyFYMy3YRlQu79JRSZSGiytJ3UN84gO+ZznEAEZHvXtNwzZGmg/hJBsaTUGsskN80LxWBkwH2bAHSAb76YtfMkiHfX9WVp7AAIKK8xONxt7ml+SoVHQtgg+k8+/Ry4FxtOoTfZMDUFyAyx3SOqpBq23e9PwBL+x5KKLpJTpw3qatPYwFARF0yb+G8FjfmDgbwJQA/A2D6lfE/DI9vRka/hXT7JmgAp6MrgesArduBxE4E+mdsWS7saEF3yHEhICLqsvnz52cA/BTAT5vGNB0NC1+FYhyAUwzEGYXcLc0BfpUuPhk8fbcub5qE1r2Po+YIQSi/VfIoD+lWILHH/Fa++QjH7pURc18t5KmcASAiT5oXNW9pXtg8o7ml+VTXdc+EYhYAP+/VD48ZM6ZrC8VXCBne/EPY4V+hbUuuOa0cTlhB5mSAvVuA9jL5WYZrXpUR37290KezACCiopn/g/n/aF7UPHF7YntfgXwGgsXw4RJBt2S3slnUrOhG7PoirOg2pFqBvZuBVHuVzYUUgTq5Dv+9mwEnbTpNfuxwO2rqP+HlELwEQERFt3jxYgfAswCe/frXv94rko18WaHjoTjDdLZKI7LY0ZWNH0XSWQo3G0ZiB5DeC8R6AOGY6XgBp0BqL5BsLY93/PuJpYjFPisDH9rl5TCcASCikvr+97+/Y+7CufObFzafaYs9SqHTAWwxnauSyND5byISuQTWviXxnAzQti03nR2UvemDRPed+PdsLJ9r/fsJgEjtLTKk+Xmvh2IBQES+eWThI0vmtcz7/+3dW4xc913A8d9/bntL0qgWkISEKo0T76UXREAqNA+ViFSBoKhVKlQeGoSS2m6DWpWHtkKgICEQIm0j2tprby6WIiWUfSC0EVQqhYIKhUDDAyRuGpqWBAixa5M6jvc25/x5mC1pKudiZ3fPzPw/H2k0smf3zO/B8vnOnP8556MnVk5ckXN+x04dIihB2rP0p9GZfuFVAqv1wc1qnj0Wsb4y3KvZd0JdRaye2tzxf3c4r+b3cnrTf5JmD23J1SAdAgB23PLy8npEfD4iPn/Te276kU6v8+uR4zebnmvUpbnDH8tHb35DrJ/5hRe8UK0Pblmb2hGTF0T0ZiJSQZ//qo3BRXzWnxvtCOpOfS3NLv3yVm2uoH8BwDC64747nq5T/dmm5xgXaW7pF6M3/dBZX8zV4JPvqf8ZLHob58MDuR7s8J89vrk48vSI7/x7/xVzl79lKzcpAADGzezST0V38hsv+vr3do6njw9iYOXU4FPyyMsRG6sRZ04+HznVGEROp3cyJroLKd26pTfkcggAYMykFHV++NQbo3PhN6O/dvlL/nDdj1g7NXi0uxGdyYjuRERnIgYrzoZcrgc7/f7q4HmUFvS9Ep3eqZjYNZeuuu27W77prd4gAM1LC8vr+eH3z0UnHov+2iWv6JeqjcFj7dmIlAYR0J6M6PYi2kNypcG6Hqxp6K8NHqNy3v75aHdOR/+ChbRw27acNSMAAMZUWjhwOv/9u18fr7no69Ff/bFz+uW8+XX6xmrEakREGnxD0O4OYqDTiWh1t3cxYV09HyX1RkR/Y7hvyrOVOr1nIr1mPr3h9qe27S22a8MANC/9zPJKzu/bHY9MPBz9tavPf0t58Gm7Wo+I77stbmpFtNqbj87gTINWioj24AhCShGRnn+OPHjO1eYVC+vBp/pcD/6uriKq/uDQRKk6E8cj0myav/3ktr7Ndm4cgOaldHgj55iNR2762+ivvHVLN57riKoek0WEQ6Az+c3or785vfme517+h18dZwEAFCClqNPCHddFb+bukVjcV6Lu9N/E/J3X7MTOP0IAABQlzR3+tZi48KOR0gifFD9uUkR3ejHNL70tpdix0xgEAEBh0uzBP4jOzNuj3VltepbipXYV0xe8N80v7d/ptxYAAAVK84e+GJM/9LroTDze9CzFavdOxMzEfLp68Z4m3l4AABQq7b7tWFq466rozRx2SGAnpcHx/tXupemqpRe/YuM2EwAAhUtzh/fG9MzPR7t3uulZxl6rvb75lf/b0k8ebvTUCQEAQKTdh74Q6fSu6Ex+bnDOPlsqRUR36l9javqKpr7y/0GuAwBARAwuHxwRv5Qf3f9z0V/54+hvXNT0TGOh1VmJztT709zikaZH+X6+AQDgBdKeg38R80cuju70JyO1q6bnGVkp5ZiYvj8ufu2uYdv5RwgAAM4ipchpfunDccHlPxq96b9z8aBz1J38RrSn3phml96ZrvjkStPjnI1DAAC8qPT633s6Iq7LR/f+dOSNu2NjbU/TMw21Tu9YdLp7057D9zc9yssRAAC8rDR36KsRMZsf2X995LUD0V+/evNuPkREdCaeim73N9I1h+5repRXSgAA8Iql+YN/GRHX5Effd13U1aejv/amqHO5xwc6E49Fq/fhNLf4QNOjnCsBAMA5S3sOfyUifjw/dMtlMbX28eivvSvqqtf0XDsitavoTnwlcvuWNL/4b02Pc74EAADnLf3Ep/87It6Tc7Ti63s/FHV/X9Rru8fvW4EU0en9Z7R6d0an+/vp6k+tNT3RqyUAAHjVBnexO/SJiPhEPvqBXRHVb0e9dkNUG5dFHuG1Ap3e8Wh1H4jc/Z00/5n/aHqcrSQAANhSae4zJyLigxHxwXz0A7si9z8UUb0zqvVroq66Tc/3klqtKlrdxyN1/zyq9sfTwoEnmx5puwgAALbNZgz81uYj8qN7fzZy/pWoq7dG3X9dVP3JRgdstTei03kyov1gRPfemD3wQEplnN4gAADYMWnPoS9FxJe+9+f80C2XxcT6DZHyWyLFfNT9K6LqXxS53tr9U2pXkdqno5Weilb74Yj2V6O78Wdp953/vqXvM0IEAACN2VxE+Eebj/+Xv/Wrk3Hmwjctf3H9I8efqd510UyOmak6WinFVG9wld2picHPblQRGxuDNYcraxHPrqR4biXFrtemB2+4vv2xqE48mBaW3enwBwgAAIZOuvLIakQ8uO/Gfd+KfN67qifefcviX23hWGPFvQAAoEACAAAKJAAAoEACAAAKJAAAoEACAAAKJAAAoEACAAAKJAAAoEACAAAKJAAAoEACAAAKJAAAoEACAAAKJAAAoEACAAAKJAAAoEACAAAKJAAAoEACAAAKJAAAoEACAAAKJAAAoEACAAAKJAAAoEACAAAKJAAAoEACAAAKJAAAoEACAAAK1Gl6AIBXq5qqntz33n256TnYBjmmmh5hXAkAYOSlSBc3PQOMGocAAKBAAgAACiQAAKBAAgAACiQAAKBAAgCA8ZTCqaEvQQAAMJZy5GNNzzDMBAAAY6lVt442PcMwEwAAjKN+6qTPNT3EMBMAAIydnPNdB+4+8GTTcwwzAQDAuHl0qj31kaaHGHYCAIBx8s/9qn/97Uduf6bpQYadmwEBMA4ey5E/dXLl5KHl5eX1pocZBQIAGHk553e0Umul6TnYeXWq11NKTyweWfx207OMGgEAjLz2avuvDywfON30HDBKrAEAgAIJAAAokAAAgAIJAAAokAAAgAIJAAAokAAAgAIJAAAokAAAgAIJAAAokAAAgAIJAAAokAAAgAIJAAAokAAAgAIJAAAokAAAgAIJAAAokAAAgAIJAAAokAAAgAIJAAAokAAAgAIJAAAoUKfpAXbIZftv3H9t00MAZ1fX9e6mZ4DSlBIAN+ecb256CODsUqSmR4DiOAQAAAUSAABQIAEAAAUSAABQIAEAAAUSAABQoJEJgBy53/QMwHA6M3PG/w9wjkYmAFKkp5ueARhK/3vkyJHVpoeAUTM6AZDSPzY9AzCU/qHpAWAUjUwA5DrfHxFnmp4DGC4p0r1NzwCjaGQCYPGexWMR8YdNzwEMlX/5zsp37mt6CBhFIxMAERGXPHHJ76acvtD0HMBQOJ466Ybl5eWq6UFgFLWbHuBcfPnbX66v3HPl8nR3+ocj4toIdxCBQn0tddLbD9518PGmB4FRNbI70P037r8257w3Rbo+R748IrpNzwRsoxRPR45/yinfe+mVl3721ltvrZseCQAAAAAAAAAAAAAAAAAAAAAAAAAAAAAAAAAAAAAAAAAAAAAAAAAAAAAAAAAAAAAAAAAAAAAAAAAAAAAAAAAAAAAAAAAAAAAAAAAAAAAAAAAAAAAAAAAAAAAAAAAAAAAAAAAAAAAAAAAAABgR/wddlvOCWcKvMQAAAABJRU5ErkJggg==;" parent="2S4IqR70EECTiOiU6gtD-41" vertex="1">
                    <mxGeometry x="19.809999999999945" y="19.5" width="160.38" height="160.38" as="geometry"/>
                </mxCell>
                <mxCell id="2S4IqR70EECTiOiU6gtD-43" value="Mode" style="rounded=1;whiteSpace=wrap;html=1;strokeWidth=4;arcSize=4;fillColor=#fff2cc;strokeColor=#d6b656;fontStyle=1;fontSize=25;fontColor=#FF8000;" parent="Ef5aAg3daOjvYsMQ55Ko-1" vertex="1">
                    <mxGeometry x="1715" y="480" width="120" height="60" as="geometry"/>
                </mxCell>
                <mxCell id="2S4IqR70EECTiOiU6gtD-45" value="" style="shape=image;verticalLabelPosition=bottom;labelBackgroundColor=default;verticalAlign=top;aspect=fixed;imageAspect=0;image=data:image/png,iVBORw0KGgoAAAANSUhEUgAAAgAAAAIACAYAAAD0eNT6AAAACXBIWXMAAC4gAAAuIAHVHB4bAAAAGXRFWHRTb2Z0d2FyZQB3d3cuaW5rc2NhcGUub3Jnm+48GgAAIABJREFUeJzt3Xl81PW97/H3dyY7W9ghAiGAKCIICaCiaMStVa9VK25tredWrad6etuqtVhbrZWjVu+xva1Hjm3vsUdtbS3WraJHEVxww7AEwo5sYZMtkBCyzXzvHxSuC2oy85v5zvy+r+efPJzv750Zk897fqtRQMaNG3eOtfYSSSdLKpFUGNTaALwTl7TNGLPKWvtsXl7ef7799tu7XIcCwsQku8CECROGt7W1/acxZmIQgQDgMHZL+nFVVdVDroMAYRFN5sXjx4+fGI/HXzXGDA8qEAAcRqGkc0tKSvpu2bLlBddhgDBIuACMGTNmsDFmlqSeAeYBgM8zvqSkpHnLli1vug4CZLtIoi+MRqMPSOodYBYAaI+flZeXD3MdAsh2CRWAcePGHSvpgoCzAEB75Bpjfug6BJDtEioA1toLgw4CAB3wlSlTpiR1DhPgu0QPAZQHmgIAOqbP6tWrB7gOAWSzhAqAMaZv0EEAoCMikUg/1xmAbJboIYC8oIMAQEfE4/F81xmAbJbwVQAAACB7UQAAAPAQBQAAAA9RAAAA8BAFAAAAD1EAAADwEAUAAAAPUQAAAPAQBQAAAA9RAAAA8BAFAAAAD1EAAADwEAUAAAAPUQAAAPAQBQAAAA9RAAAA8BAFAAAAD1EAAADwEAUAAAAPUQAAAPAQBQAAAA9RAAAA8BAFAAAAD1EAAADwEAUAAAAP5bgOkArdy8o05KyzVFJRoaJevVRQXOw6EpDxYi0tatyxQ7s/+EDr5szRutdek43FXMcCkCKhKgD5XbroxBtv1JHnnCMTYecG0FFFvXqp19FH68hzztGe9ev15r33atN777mOBSAFQjMlu/TvrwseeUTDzzuP4Q8EoFtpqc75zW80csoU11EApEAoJmVuUZG+9MtfqltpqesoQKiYSEQTb75ZgysrXUcBELBQFIDya65R96FDXccAQslEIjrlttuU26mT6ygAApT1BSC/Wzcde+mlrmMAoVZQXMyhACBksr4ADD7lFEXz8lzHAEJvyBlnuI4AIEBZXwB6HXOM6wiAF3oOH65obq7rGAACkvUFoKhnT9cRAC+YSESF/L4BoZH1BSAnP991BMAbHG4DwiPrCwAAAOg4CgAAAB6iAAAA4CEKAAAAHqIAAADgIQoAAAAeogAAAOAhCgAAAB6iAAAA4CEKAAAAHqIAAADgIQoAAAAeogAAAOAhCgAAAB6iAAAA4CEKAAAAHqIAAADgIQoAAAAeogAAAOAhCgAAAB6iAAAA4CEKAAAAHqIAAADgIQoAAAAeogAAAOAhCgAAAB6iAAAA4CEKAAAAHqIAAADgIQoAAAAeogAAAOAhCgAAAB6iAAAA4CEKAAAAHqIAAADgIQoAAAAeogAAAOChHNcBAABfKFJaWnq8MeY4Y0wva+3eSCSyuqWlZXZtbe1+1+F8NHTo0GOttROstSXGmH3W2o2xWGzWhg0bdrvO1l4UAADIUCNHjszbt2/fPxtjbpHU/+C/G2NkrVVubm5jWVnZ73Jzc3++cuXKHQ6j+sKUlZVNkXRHPB4fcfAfrbWSpGg02lZWVvaUMea2Dz74YJWrkO3FIQAAyEClpaX9GxsbXzfG/FIfGf6fUCTpu62trcvKyspOSWM87wwePLigrKzsvyT9WdKIz/jPciRdYq2tLisruzJ96RJDAQCADDNs2LCu0Wj0FUnHt/MlvSS9WFZWNiGFsXwWNcb8VdLX2/nfF0h6ZMiQIVekMFPSKAAAkGHa2tr+01p7TAdfVijpyZKSkqJUZPLZ4MGDb5N0bgdfZqy1vxs2bNjQVGQKAgUAADLI0KFDJxpjLkrw5YPy8/O/F2ggz5WVlfU1xtyc4MsL4/H4XYEGChAFAAAySDwe/5/JvN5am9Tr8XHW2sskdUri9V8dNGhQ9wAjBYYCAACZ5axkXmyMGZrJu52zjTHmzCSXyDXGVAaRJWgUAADIEJWVlTmSSpJdx1pbGkAcHJD0e2mMycjPgwIAABli9erVXSVFk13HWpuRu5yzVHGyC0QikYz8PCgAABAy1lrjOgMyHwUAAAAPUQAAAPAQBQAAAA9RAAAA8BAFAAAAD1EAAADwEAUAAAAPUQAAAPAQBQAAAA9RAAAA8BAFAAAAD1EAAADwEAUAAAAPUQAAAPAQBQAAAA9RAAAA8BAFAAAAD1EAAADwEAUAAAAPUQAAAPAQBQAAAA9RAAAA8BAFAAAAD1EAAADwEAUAAAAPUQAAAPBQjusAAJDt7NixpZK+LGmYrO2S6DqNUv4zLS1J5xkTjX57xJgxZya8gDFNsrZW0egsU1U1P+lAaTZhwoSe8Xj8XElHSeqVzFrNzc3drbVJ5YlGo+eNGzeuXxJLtFprtxpj3iwrK3vjySefjCUV6B8oAACQIDt27DGy9l5J5x36R2MSXq9I0uX5+ckHk85IegVjpHhctrx8ieLxW8zChS8EkCulKioq+ku6MxaLXaWA5lteXl4Qy5Rba8uTXcRaqw8++GBTRUXFHVVVVf9XUjyZ9TgEAAAJsGPHXibpfRlz3hf+x9nM2mNlzN/t2LH32ylToq7jfJby8vITJM2XdLXC/eX2CEm/raioeGrkyJGdk1mIAgAAHWTHjv2ypMckFbrOkkY3as2ae1yHOJzy8vIRxpgXJSWzmz3bfKWgoGDGlCRKGQUAADrAHntsX0lPSMrYb8MpY+1Ntrz8S65jfFRlZWWOMWaGpG6uszhw1tq1a29M9MUUAADoiNzcH0vq6jqGMwfOecgY9fX1V0ka4TqHK9baqWPGjClO5LUUAABop38cA7/cdQ7HRtuxY49zHeIjrnQdwLHinJyc/5HICykAANBea9aMUZKXlYXE6a4DSFJlZWWBpImuc7hmrU3o86AAAEB7xeMDXEfICNYOdB1BkhobG/vLx3MxPi2hz4MCAADtZYy/x/4/LiNOuGttbeXzOCChz4MCAACAhygAAAB4iAIAAICHKAAAAHiIAgAAgIcoAAAAeIgCAACAhygAAAB4iAIAAICHKAAAAHiIAgAAgIcoAAAAeIgCAACAhygAAAB4iAIAAICHKAAAAHiIAgAAgIcoAAAAeCjrC0BLY6PrCIA34q2triMACEjWF4DGHTtcRwC8YK1V486drmMACEjWF4CtCxe6jgB4YdfKlYq1tLiOASAgWV8Aat9+Wy0NDa5jAKH3wSuvuI4AIEBZXwBaGxu16A9/cB0DCLX9O3dqyZ//7DoGgABlfQGQpEWPPqpN8+a5jgGEko3F9OpPf6pWTrgFQiUUBSDe1qZXbrmFEgAErLWxUa/ceqs2vfuu6ygAAhaKAiBJzXv36oUbbtDbDzygpro613GArGat1drZs/XUN76htbNmuY4DIAVyXAcIko3FtPjxx7X0r39VSUWF+o0Zo6LevZVbWOg6GpDxbDyu/bt2qW7dOm2cO1f1W7a4jgQghUJVAA6KNTdr41tvaeNbb7mOAgBARgrNIQAAANB+FAAAADxEAQAAwEMUAAAAPEQBAADAQxQAAAA8RAEAAMBDFAAAADxEAQAAwEMUAAAAPEQBAADAQxQAAAA8RAEAAMBDFAAAADxEAQAAwEM5rgNkmvxio4Jio5xOxnUUSVKsxap5t9S0Ky4bd5ulh6RekoqtdRvkH5ol7TBG2yS1Oc4SL+imeKfeihf1UCa8Oybequi+nYrWb5ViLa7jAMhAFABJuZ2Nhnw5V/1PyFFRn8wY/J/Uuk/aNr9Na//eqvpN6WsCRdbqCklnW6uytG21A6zVPklzJT0WiWhpOjedk6/G0VO0/+hz1NpreBq33H6mrUn5699R0cI/Kn/TfNdxAGQQ7wtAv/FRjb46XzlFmTn4D8rtJA2YlKMBJ+VozfOtWjmjJeV7BI63Vj+3Vj1Su5mkdZJ0lqQz43E9ZYzuN0atKd5ma79jtfvL9yjWpV+Kt5Qcm1OgpqGVahpaqcKV/61us34u07rfdSwAGcDrcwAGTc5R+b8UZPzw/5iINPT8XB33z/lSCmOfYa3+TxYM/48ykr5qrX5pbUqbbcvACdr51Yczfvh/0v7hZ2nXV/9DNrfQdRQAGcDbAtDj6IhGfjO1QzSVSk7I0bDzc1Oy9pGSfmatoilZPfWOt1bfT9F5CrGuJdr15Xtko3kpWT/VWvoco7rTf+I6BoAM4GUBMBHpmK/ny2T5Tz/sK3kq7Bl8g/m+tcoPfNX0mmKthqegBNRPvEG2oGvg66ZT0/Cz1DJwgusYABzL8hGYmJ4joupamv0/eiRXGjg52J3dR0qakCFn+ScjIumSgNeMd+ql/UeeEfCqbuwbc5nrCAAcy/4pmIA+5dm6c/vT+o4NtgBMCsHwP+iUgNdrKpukrN9t9A/NA4/P2sMYAIIRjr9mHdSpX3h+7E79I4GexzA4uKWc62GtgtxZ31ZcGuBqbtmcfMW69ncdA4BD4ZmEHZDXNUvP/DuMSI6UG+BVDJlyk5+gdA/w54kXdQ9srUwQL8qmazwABM3LAhCSvbiHBPnzREx4ypEkRQP9ecL13nj6649ghO2XIdsldCyYvwAA0F7GeH/zNElqtra36wz4/6y1Ce2epAAAQDs1xOPhOREkCTFr+7rOIEmxWKzAdYZMYK3tnMjraLMA0E4t1naOhewwWSJiUkZcQmKt7WFDdt5SIqy1CX2ZpwAAQDutb2lZZBg4klTlOoAkNTc3b25qanIdwzljzJpEXschAAAAPEQBAADAQxQAAAA8RAEAAMBDFAAAADxEAQAAwEMUAAAAPEQBAADAQxQAAAA8RAEAAMBDFAAAADxEAQAAwEMUAAAAPEQBAADAQxQAAAA8RAEAAMBDFAAAADxEAQAAwEMUAAAAPEQBAADAQxQAAAA8RAEAAMBDFAAAADxEAQAAwEMUAAAAPEQBAADAQxQAAAA8RAEAAMBDFAAAADzkZQFo229dRwiOldqagluuMbilMkJDgGuZ1nC9O6YlyHcHQLbxsgA07QpPAWipt4q3BvfzbAtsJffaJO0McL1ow4cBruZe2H4eAB3jZQHYuTTmOkJgdiwJ9meZF+hqbs03RkG+O/kbw/Pu5OxYpcj+3a5jAHDIywKwrSqmtqZw7AXYNLct0PXeNUa7jAl0TVdeCHi93G01yqnbEPCqbhStmOk6AgDHvCwALfVWa2cGOzhd2LU8ru3Vwe4BaJb0cKArurHGGL0QdJGxcXWe+5tg13Qg2rBNRYv+7DoGAMe8LACStPqZlqw+FNCy12rhQwGe/fcRM4zRf6dk5fRolHSrpHgK1i5c86qKFs9IwcppEmtV8Uu3ybQ1u04CwDFvC4CNSfN/1awdi7OvBOzfbvXu3U0pO5nRSvpZJKKXU7J6au2UdEMkojUpPIzR7bX7VLTkqZStnyqmuV49nv+B8jYtcB0FQAbIcR3ApdZGq3n3N2nQ6Tk68oI85XXN7GPf8TZpw6xWrfpbi1r3pXZbzZJujUT0tqTrrFUfm9nnTMQlPWeMHjJGO1K+sTZ1e/Vflb/hXe2deINixQNTvcXkWKuCVS+ry1u/Uc7eza7TAMgQXhcASbJxaf3Lbdo4u009j4mq+5FRFfQwiha4TnZAvFVq3mNVvz6uDxfF1LovfYPYSnpW0t+N0VhJ5ZL6SuqUtgSf7+BlfmuM0ZuSdqV5+wWrZ6lgzWy19DtWLQPGK9alr+L5XdOc4vCMjSmyb6dydq9Twbo3FeGSPwCf4H0BOCjeJm2vjgV+Ul0YxCS9b4zedx0kE9m48rZUK29LteskANAh3p4DAACAzygAAAB4iAIAAICHKAAAAHiIAgAAgIcoAAAAeIgCAACAhygAAAB4iAIAAICHKAAAAHiIAgAAgIcoAAAAeIgCAACAhygAAAB4iAIAAICHKAAAAHiIAgAAgIcoAAAAeIgCAACAhygAAAB4iAIAAICHKAAAAHiIAgAAgIdyXAfwgTFG3bt31+DBg9WjRw916tRJ+fn5KioqUn5+vpqbm9Xc3KympiY1Njaqrq5OGzZs0Pbt29XW1uY6PjooGo2qT58+Ki4uVkFBgYqKig591rFYTE1NTYc+68bGRm3fvl11dXWuYwPwDAUgBfr27atRo0bpyCOP1MCBA2WMkbU2obWstdqxY4dWrlyp6upq1dbWJrwWgtelSxcde+yxGj58uEpKSnTEEUeof//+ysnp2K9WY2OjNm/erNraWtXW1mrp0qVasWIFBRBAylAAAtCpUyeNHz9eo0aN0qhRo9S3b19JUmtrq1auXJnUwDbGaNy4caqsrJQk1dXVafHixVq8eLHee+897d69O4gfAe0UjUY1ZswYjRkzRqNGjVJpaakikeSPpBUVFWnYsGEaNmzYoX9rbm7WsmXLVF1draqqKq1bty7p7QDAQRSABEUiEY0aNUqTJ0/WCSecoIKCgrRst7i4WJMmTdKkSZN03XXXacWKFZo9e7Zef/117d+/Py0ZfDRw4EBNnjxZkydPVnFxcVq2mZ+ff6hsXHnlldqwYYPmzp2rV199VR9++GFaMgAILwpABxUXF+v888/X6aefnrZB8FkikYhGjBihESNG6KqrrtIbb7yhp556Slu3bnWaKyzy8vJ05pln6pxzztGAAQNcx9GgQYM0aNAgXXrppVqwYIH+9re/afHixa5jAchSFIB2Ki4u1le+8hWde+65ys/Pdx3nU4qKinT22WfrzDPPVFVVlf70pz9pzZo1rmNlpcLCQp1xxhm66KKL1KNHD9dxPiUSiaiiokIVFRX64IMP9Ne//lVvvfUW54YA6BAKwBfo0qWLvvGNb+j000/v8IldLkQiEY0fP14VFRV655139Mgjj2jbtm2uY2WF3NxcXXDBBbrwwgvVqVMn13HaZciQIfrhD3+otWvX6ve//z17BAC0W+ZPNEeMMaqsrNQ//dM/qVu3bq7jdFgkEtHEiRM1btw4zZgxQzNmzFBra6vrWBlr1KhRuvbaazVo0CDXURJSVlamu+66S/PmzdP06dO1Y8cO15EAZDgKwGGUlZXpuuuu09FHH+06StLy8vJ0+eWX65RTTtH06dNVXV3tOlJG6dmzp66++mpNnDjRdZRAjB8/XiNHjtTjjz+umTNnKhaLuY4EIENxJ8BPOO200/SLX/wiFMP/o4444gjdeeeduuaaaxSNRl3HyQjHHXec/u3f/i00w/+goqIiXXzxxbrzzjs1cOBA13EAZCj2APxDUVGRvvOd72jSpEmuo6SMMUbnnXeejjrqKN13333enhsQjUY1ZcoUXXrppYFcw59pdu/erS1btsgYo+uvv15z5szRiy++6DoWgAwTvr9+CSgtLdUDDzwQ6uH/UUceeaTuv/9+HXfcca6jpF2PHj10zz336PLLLw/l8K+rq9OWLVsOXREQj8d16qmn6oYbbpAxxnE6AJkkfH8BO+ioo47StGnT1K9fP9dR0qpr16766U9/qlNOOcV1lLTp16+f7r77bg0fPtx1lJTYvXu3Nm/e/KnLAa21Kikp0W233aa8vDxH6QBkGq8LwIQJE3TXXXepS5curqM4kZOTox/84Ae66KKLXEdJuWHDhukXv/hFaIvewd3+n3cvgMLCQv3kJz/x9v93AB/nbQE444wzNHXqVO+/ERlj9M1vflNf//rXXUdJmfLyck2bNi0rL+dsj/YM/4Oi0aimTp2qnj17piEZgEzmZQE44YQTdP3114fyGHCipkyZoilTpriOEbijjz5at9xyS9qe1ZBunzzm31433nhj1tzsCEBqeDcBR40apZtuuonhfxhf+9rXdOaZZ7qOEZjS0lL95Cc/Ce3w37Nnz2GP+bfXD3/4Q+/3gAE+82oKDh48WFOnTlVubq7rKBnJGKPvfOc7OvHEE11HSVrfvn31s5/9TJ07d3YdJSXq6uq0adOmpO7/n5ubq5tvvpmrAwBPeVMAiouLdfvtt7Pb8wtEIhF9//vfz9pb4koHTna7/fbb1b17d9dRUiLZb/4f1alTJ33rW98KIBWAbONFAYhEIvre976XkU92y0T5+fmaOnWqCgsLXUdJyHXXXacjjjjCdYyU2LNnT9Lf/D9pyJAhOuGEEwJbD0B28KIATJkyRWPHjnUdI6uUlJTo+uuvdx2jw770pS+psrLSdYyUSMXwP+jCCy8M7R4TAIcX+gIwcuRIXXbZZa5jZKVJkybpjDPOcB2j3crKynT11Ve7jpESqRz+0oGbBX37299OydoAMlOoC0Bubi6X+yXpW9/6VlYcOolEIvrud78byhM89+7dm9LhH4lENGjQIJ144omaMGFCSrYBIPOEejJefPHFoT0WnC5FRUX65je/6TrGFzr33HM1ZMgQ1zECt3fvXtXW1qZ8+B88Ofbaa68N7WWTAD4utAWgX79++upXv+o6RihUVlZq9OjRrmN8puLiYl1xxRWuYwQu3cNfknr37q2LL744JdsDkFlCWwCuueaaUO4OduWaa65RNBp1HeOwrr76ahUVFbmOESgXw/+gCy+8UCUlJSnZLoDMEcoCcNRRR2ncuHGuY4TKoEGDdOqpp7qO8SllZWU6+eSTXccIlMvhLx14SNTll1+ekm0DyByhLACXXnqp6wihdMkll2TcCZWXXHJJqO5kt3fvXm3cuDFlw98Y87nD/6CTTz6ZvQBAyGXWX/MAlJWVqby83HWMUOrfv78mTpzoOsYhAwcODNUNbA4O/1Rp7/CXDuwl8OEx0YDPQlcAwvaNMNNcfPHFGfP+TpkyJeP2SCQqXcO/I89GmDx5svr06ZOyTADcCsdfz3/o0aNHqL4RZqKysjIdc8wxrmOouLg4NMf+0zH8Bw4c2OEHI0WjUZ111lkpSgXAtVAVgMrKytB8I8xkp512musIOuWUUzL2qoSOqK+vV21tbcrWPzj8u3TpktDr+Z0CwitUv9lhvQd8pjnppJOcP0d+8uTJTrcfhIaGhpSf8JfM8JcO3BcgE/b4AAheaArA0KFDVVpa6jqGF4qKinT88cc72/6gQYNUVlbmbPtBaGho0IYNGzJ6+B+UCXt8AAQvNAVg0qRJriN4xeX7ne0DKZuGvyRNnDhROTk5gawFIHOEpgCMGTPGdQSvjB492tkx+Gx+tHO2DX/pwB6f4cOHB7YegMwQigLQpUsXdv+nWWFhoYYOHZr27WbzZ52Nw/+gTH4WBIDEhKIAjBo1ijOVHXAxFEaPHp2Vn3U2D3/pwO8YgHDJvr+kh8EfJzdcvO/Z+E0024e/JB199NHKz89P2foA0i8UBYDjk264eN+z7bPet29fyof/gAEDUjr8pQMPCMr2Ky8AfFwoCgAPLXGjqKhI3bt3T9v2jDHq379/2raXrH379mn9+vUpH/5du3ZNyfqfdMQRR6RlOwDSI+sLQI8ePUL3LPhsks6h0KtXLxUWFqZte8loaGhI6fCXlNbhL1EAgLDJ+gLAHyW30vn+DxgwIG3bSkaqj/lLB56EmM7hL/G7BoRN1hcAdv+7lc6hnA2fdViHv0QBAMIm62/v1aNHD9cRvFZcXJy2baXzfINEpONs/yOOOMLJ8JfS+1kDSL2s3wPApUluFRQUpG1bmXz8P13Dv1u3bilZvz0y+f0H0HFZXwA4AdCtdL7/6SwbHdHY2Jjyp/q5Hv7SgUsBeSYAEB5ZXwD4VuJWOodyJpa9xsZGrV+/XvF4PCXrZ8rwP4jfNyA8sr4AZOq3Ql/4vAfg4HX+vgx/KTNLGIDEZH0BSNUfX7RPW1tb2raVSZ/1wTv8+TT8pfR+3gBSK+sLwP79+11H8FpTU1PatpUpn7Wvw1/KnM8AQPKyvgA0Nja6juC1dA6ETBg+jY2N3g5/a21aCx+A1Mr6AsAfJLd8KgC+nfD3SS0tLRl1GAZAcrK+ALgeCr5L5x4Yl3t7fP7mfxC/a0C4ZH0B+PDDD11H8Fo63/8dO3akbVsfdXD4x2KxlKxvjFFJSUlGD3+J3zUgbLK+AGzatMl1BK+l8/2vra1N27YOStfwz4bb7PK7BoRLKApAKh+8gs+3efPmtG0r3QWA4f9xFAAgXLK+AOzfv191dXWuY3grnQWgoaEhbZ81w//TXOyBAZA6WV8AJGnDhg2uI3hp586daT8xLx1DiOF/eOwBAMIlFAVg6dKlriN4qaamJu3bXLJkSUrXT/Xwl6T+/ftn3fCvr69nDwAQMqEoAIsXL3YdwUvV1dWh2mY6hn9JSYm6d++esvVTpbq6mnsAACETigKwYsUKbgjkgIsCkKrPev/+/Wn55p+Nw1+iZANhFIoC0NbWphUrVriO4ZXt27dr27Ztad9uW1ubli9fHuia+/fv1/r161M+/Hv06JGy9VPNRdkDkFqhKACS9P7777uO4JV58+aFYtsM/y+2detWTgAEQig0BeD1119P6R9xfNycOXOcbfuNN94I5LNm+LePy88aQOqEpgDU1dVp4cKFrmN4YcuWLVq5cqWz7e/Zs0dVVVVJrdHU1MTwb6fXXnvNdQQAKRCaAiBJs2fPdh3BC3PmzHF+98VXX3014dc2NTVp3bp1DP92WLZsWVpv9gQgfUJVAN599101NDS4jhFq8Xg8I4rWvHnztGfPng6/juHfMckULQCZLVQFoKWlRS+88ILrGKH21ltvOTn7/5Pa2tr0/PPPd+g1DP+Oqaur4/j/J0SkFtcZMkSr6wCSZK3l81Di70OoCoAkPfvsszy3PEWstXrqqadcxzjk+eefb/cen3QM/379+oVm+EvS008/rZYW/r5+VNzara4zZIiMOC7U3NzM53HAlkReFLoCUF9fr5deesl1jFCaN2+e1qxZ4zrGIY2Njfr73//+hf9duoZ/z549U7Z+utXX1+vFF190HSPjtEpLJLW5zuGctRlxxvWGDRt2S+JhMFJCn0foCoB04JtLa2tG7KEKlb/85S+uI3zKc88997l7fNK12z9Mw19iT9pnOX758p1Wet11DscaYp07v+w6xEdkzm5JR+Lx+N8uw2cCAAAPi0lEQVQSeV0oC8Du3bs1Y8YM1zFC5fXXX9eqVatcx/iU+vr6zywmHPNPzI4dO/Tcc8+5jpHJ7nQdwLH/Pa6qKr2PAf0cxpj7JWVMHgf+tmbNmoSekhbKAiBJM2bMyIiT1cJg//79euSRR1zH+EzPPPOM1q5d+7F/Y/gn7re//S3f/j9H+fLlr0l6xHUOR5ZE8vLucx3io1auXLnJWnub6xyO7IxGoz9I9MWhLQAtLS166KGHXMcIhccff1w7d+50HeMzxWIxPfzww4fuTZCO4d+3b99QDv8FCxbonXfecR0j43Vua7tO0n+7zpFma6Px+FeOq67e5zrIJ61evfoBSb92nSPN9ki6aPny5esSXSC0BUDij1kQ1q5dmxWXVi5dulSzZs1K2/Dv1atXytZ3paWlRdOnT3cdIyscuXp1c12/fuca6R75cGmgtU/H4vEJo1eu/MB1lM+yatWq70q6TlKd6yxp8J4x5oRVq1YldT5KqAuAJD300EPatWuX6xhZqbW1Vb/61a+y5hkLv//979Nytn8Yh7904P3bupWrqtrrtDlz2sYsXz41Yu3Rkv5V0gJJGfftOEHNMmaNpIdl7cljV6y4cNzKlTtch/oiq1at+o+8vLyhkm6x1s6VFJY//m2SaiU9Ya29YNWqVSesXLky6ceimkReVFFR8b6kimQ3ni4jR47UXXfdpUgkvX2ntbU1kHvml5aWqnPnzgEk6phf//rXeuWVV9K+3WScfPLJOuecc1Kydli/+UvSm2++qfvuy6hDu18oHo+fumDBgow7I79m5MjOsUgkN5HX/r2goPvMeDzpa217Slf9rKXl2UReG4tG7diFC0PzLXrAgAGFkUikINHX9+zZc4kxpiSZDPF4/Be7du26J9HXb9iwYY+keDIZDicn6AUzUU1NjZ544gldccUVrqNkjTfeeCPrhr90YJCNGjVKAwcODHTdMA//LVu26MEHH3QdIzRG1tQkfD/yE0880QRx86VGY/aNXrx4d9ILhUBtbe1+SQmf1dq7d++kB280Gm36xz0LMkroDwEc9OSTT2r+/PmuY2SFDRs2ZPVAmD59upqbmwNbL8zDv6mpSffee68aG32+igrwkzcFIB6P65577tHy5UkfNgm1nTt36s4778zqy8Cstbr33nsVjye/xyzMwz8Wi+nee+/91CWUAPzgTQGQpObmZk2bNk21tbWuo2Sk+vp63X777dq+fbvrKElramrSPfckfMhNktSnT5/QDn9rrR588EH2igEe86oASNLevXt1++23a8eOjD+hNa1aWlo0bdo0bdy40XWUwDQ0NOi+++5TNBrt8Gv79Omj3r17pyBVZnjkkUc0a9Ys1zEAOORdAZAO3Or01ltv1ZYtCT1AKXT27dunO+64Q8uWLXMdJXC7d+/WAw880KErQPr27Rva4W+t1R/+8Ac9/fTTrqMAcMzLAiBJ27Zt049+9CPvj3/u3r1bP/7xj1VTU+M6Ssps3bpV06ZNa9c5AWHe7R+LxfTggw9m1COdAbjjbQGQpLq6Ok2dOlULF2bEky3TbuvWrd6UoPr6ev385z//3Ofbh3m3f1NTk6ZNm6aXX86kh7gBcMnrAiAdeNDNXXfdpZkzZ7qOklbvvfeebrzxRq/u/Nbc3Kw777xTmzZtkjEfvwdWmIf/5s2b9aMf/UhVVVWuowDIIN4XAOnAHfumT5+uu+++W/v2heVOnocXi8X0pz/9SXfffbcaGhK+X0nWisfjevDBB/Xyyy8fKgG9e/cO7fB/++23ddNNN3mxlwdAx3hxJ8D2euedd7R+/XrdfPPNGjp0qOs4gfvwww91//33a8WKFa6jOPfqq69q3bp1uvLKK9WnTx/XcQLX0tKi3/3ud3rppZdcRwGQoSgAn7BlyxbdfPPNOuecc3TFFVeoqKjIdaSkxWIxzZw5U4899lhW3+AnaB988IHuuOMOTZgwQddee21o9gIsWrRIDz/8MPe7APC5KACHEYvF9Nxzz+nNN9/UVVddpcrKSteRElZTU6Pp06drw4YNrqNkrPfee0+LFi3ShRdeqClTpignJzt/LXbu3KlHH31Us2fPdh0FQBbIzr90aXLwGvJZs2bpsssu08iRI11Harf169frL3/5i+bOnStrres4Ga+5uVlPPPGE5s6dq0svvVQnnXRS2p8emag9e/boueee07PPPhvoMxAAhBsFoB2qq6tVXV2tY445RhdddJHGjRv3qbPIM8XatWv1zDPP6LXXXgvkXvi+2bhxo+6//349+uijOv/883X22WcrNzehJ7umXF1dnWbOnKlnn32Wh/kA6DAKQAcsXbpUS5cu1bBhw3T22WfrpJNOUqdOnVzHUktLi959913NmjVLCxYscB0nFLZt26bf/va3evrpp3X22Wfr1FNPzYiTBa21Wrp0qWbPnq05c+aotbXVdSQAWYoCkIDVq1dr9erVevjhhzVhwgRVVlaqoqIioXvOJyoej2vZsmWaPXu25s6dyzfAFNm+fbsee+wx/fGPf9SIESN02mmn6aSTTkr7yaGbN2/WnDlzNGfOHG3bti2t2wYQThSAJLS2tmru3LmaO3euCgoKdNRRR2nMmDEaMWKEhg8fHvj2tm3bpoULF2rRokVavHix9u7dG/g2cHjxeFw1NTWqqanRv//7v2vIkCEaPXr0oc87Ly8v0O3t2bNHS5Ys0bJly7Rs2TKtXr060PUBgAIQkKamJi1atEiLFi2SJHXu3FnDhw/XxIkT1a1bNxUWFh46u/zzjs0bY2SMUSwWU1NTk/bs2aOZM2dqyZIl2r17d1p+Fny+eDx+aC/QU089pdzcXJWWlmrAgAEaMGCASkpKVFJSou7du6uwsFD5+fmHXWffvn1qamrS9u3bVVtbq02bNmnz5s3auHGjNm/ezMmbAFKKApAiDQ0Nmj9//mc+b72oqEidO3dWcXGxGhoa1NDQwDf6LNXa2nqoEByOMUadOnVSYWGh2tra1NTUxP0YADhHAXCksbFRjY2N+vDDD11HQYpZaw+VPADIFNlxoTMAAAgUBQAAAA9RAAAA8BAFAAAAD1EAAADwEAUAAAAPUQAAAPAQBQAAAA9RAAAA8BAFAAAAD1EAAADwEAUAAAAPUQAAAPAQBQAAAA9RAAAA8BAFAAAAD1EAAADwEAUAAAAPUQAAAPAQBQAAAA9RAAAA8BAFAAAAD1EAAADwEAUAAAAPUQAAAPAQBQAAAA9RAAAA8BAFAAAAD+Uk8qKmpqb+1tqgswBAuxljBrjOAGSzhApALBYrjsViQWcBgHbLzc3t6ToDkM04BAAAgIcoAAAAeIgCAACAhygAAAB4iAIAAICHKAAAAHiIAgAAgIcoAAAAeIgCAACAhygAAAB4iAIAAICHKAAAAHiIAgAAgIcoAAAAeIgCAACAhygAAAB4iAIAAICHKAAAAHiIAgAAgIcoAAAAeIgCAACAhygAAAB4iAIAAICHKAAAAHiIAgAAgIcoAAAAeIgCAACAhygAAAB4iAIAAICHKAAAAHiIAgAAgIcoAAAAeIgCAACAhygAAAB4iAIAAICHKAAAAHiIAgAAgIcoAAAAeIgCAACAhygAAAB4iAIAAICHKAAAAHiIAgAAgIcoAAAAeIgCAACAhygAAAB4iAIAAICHKAAAAHiIAgAAgIcoAAAAeIgCAACAhygAAAB4iAIAAICHKAAAAHgooQJgrbVBBwGAjohEIq2uMwDZLKECYIzZF3QQAOgIa+0K1xmAbJZoAdgQdBAA6Ijm5uYq1xmAbJZoAfivoIMAQHtFo9FNq1ev3us6B5DNEioAS5cufTAajdYHHQYA2iMnJ+cu1xmAbJfoVQDxaDT6g0CTAEA75OTkrFmyZMl01zmAbJfwZYA1NTW/y8vL+32QYQDg80Qikb2RSGSC6xxAGCR1H4Campqr8/Ly7jTGxIMKBACHk5OTs7KwsLC0pqZml+ssQBgkfSOgmpqa2/Py8gbn5ubOjkQizUGEAgBJMsbYnJycDfn5+d9atmzZUQsXLqxznQkIi5wgFlmyZMlGSZMlacyYMUc2NzePNMZ0DmLtbJeXlzdN0qBk1ojFYi/HYjGuvMhwubm59xpjSpJZIx6Pz2xra/tjUJmymTFmRUFBQU1VVVWj6yxAGAVSAD5q4cKFqyStCnrdbFVRUXGTkiwAkUhkxeLFix8LKBJSpKKi4lZJSRWAaDS6rLq6ms8aQMrxLAAAADxEAQAAwEMUAAAAPEQBAADAQxQAAAA8RAEAAMBDFAAAADxEAQAAwEMUAAAAPEQBAADAQxQAAAA8RAEAAMBDFAAAADxEAQAAwEMUAAAAPEQBAADAQxQAAAA8RAEAAMBDFAAAADyU4zoAgI/pW15eXuE6BNxoaWnp6joD/EEBADLL14wxX3MdAkD4cQgAAAAPUQAAAPAQBQAAAA9RAAAA8BAFAAAAD1EAAADwEAUAAAAPUQCA4DS7DgBIUjweb3KdAZmPAgAExBiz1XUGQJKMMZtdZ0DmowAAAbHWLnSdAZDU1NrausJ1CGQ+CgAQnKddBwCMMS9XV1fvc50DmY8CAASkqqrqXWvtK65zwGs2Fovd7ToEsgMFAAiQMeZfJO1xnQPe+s2CBQvedh0C2YECAASoqqpqubX2Ikl7XWeBd57s0qXLD1yHQPagAAABmz9//quSjjfGvO46C7xQJ+nGqqqqS+fMmdPmOgyyR47rAEAYVVVVLZd06vjx40+11l4Qj8cnGGNKJHVznQ1Zr1XSh5JWS3qppaXlz4sXL97tOBOyEAUASKF58+a9Juk11zkA4JM4BAAAgIcoAAAAeIgCAACAhygAAAB4iAIAAICHKAAAAHiIAgAAgIcoAAAAeIgCAACAhygAAAB4iAIAAICHKAAAAHiIAgAAgId4GmAWMMaMLC8vv9Z1DgDwUCfXAVKFApAdTjPGnOY6BAAgPDgEAACAhygAAAB4iAIAAICHKAAAAHiIAgAAgIcoAAAAeIgCAACAhygAKWatbXGdAQDgjjEmI+cABSDFIpHIVtcZAADuxOPxza4zHA4FIPXmuw4AAHAnGo0ucJ3hcCgAKRaPx59ynQEA4MyaefPmLXQd4nAoACk2f/78amvts65zAADSzxhzp+sMn4UCkAbxePx/SdrhOgcAIK1eev/99x9zHeKzUADSYOHCheskXShpt+MoAID0eC8Wi10mKe46yGehAKRJVVXVm9Fo9ARr7VuuswAAUqbNGPNgly5dTl24cGGd6zCfx7gO4KNx48Z92Vp7qaSJkgZIKnQcCQCQuF2S1kt6yRjzyPvvv7/CdaD2+H9r7+I6FpNNogAAAABJRU5ErkJggg==;" parent="Ef5aAg3daOjvYsMQ55Ko-1" vertex="1">
                    <mxGeometry x="1740" y="700" width="312" height="312" as="geometry"/>
                </mxCell>
                <mxCell id="2S4IqR70EECTiOiU6gtD-46" value="Langkah" style="rounded=1;whiteSpace=wrap;html=1;strokeWidth=4;arcSize=4;fillColor=#fff2cc;strokeColor=#d6b656;fontStyle=1;fontSize=25;fontColor=#FF8000;" parent="Ef5aAg3daOjvYsMQ55Ko-1" vertex="1">
                    <mxGeometry x="1508" y="750" width="140" height="60" as="geometry"/>
                </mxCell>
                <mxCell id="2S4IqR70EECTiOiU6gtD-47" value="" style="endArrow=none;html=1;fontSize=25;fontColor=#7F00FF;exitX=0.5;exitY=0;exitDx=0;exitDy=0;entryX=0;entryY=0.5;entryDx=0;entryDy=0;fontStyle=0;strokeWidth=4;strokeColor=#d6b656;edgeStyle=orthogonalEdgeStyle;" parent="Ef5aAg3daOjvYsMQ55Ko-1" source="2S4IqR70EECTiOiU6gtD-46" target="Ef5aAg3daOjvYsMQ55Ko-27" edge="1">
                    <mxGeometry width="50" height="50" relative="1" as="geometry">
                        <mxPoint x="1785" y="490" as="sourcePoint"/>
                        <mxPoint x="1785" y="361" as="targetPoint"/>
                    </mxGeometry>
                </mxCell>
                <mxCell id="8riVg05Uf_3GBGV_Kzbb-0" value="" style="shape=image;verticalLabelPosition=bottom;labelBackgroundColor=default;verticalAlign=top;aspect=fixed;imageAspect=0;image=data:image/png,iVBORw0KGgoAAAANSUhEUgAAAgAAAAIACAYAAAD0eNT6AAAABHNCSVQICAgIfAhkiAAAAAlwSFlzAAAOxAAADsQBlSsOGwAAABl0RVh0U29mdHdhcmUAd3d3Lmlua3NjYXBlLm9yZ5vuPBoAACAASURBVHic7N1pnBTV2Tbw+1RV73sPmztqTHzcTXyjQRbBDWbAhUSMhmFEhpDok9VdY5wo4gJu0cQtiY9xSYImUZFlcKDZRRgYBhhgAHfECCgwzNZbnfcDtgGcvU/Vqaq+/l/yE2buvg0y19WnqruJAAAAAAAAAMD5mOwFAAAAoHNLl27t05je90uVtHM0t9KXEYtxrmeI2J5MNvNhOsVn8FTg+eLiE5JdmYcCAAAAYFEVFRXK2YNG3en3+a8P+L29maJ0+PW6rvN9+5o2NLW03Dzqov83q6OvRQEAAACwoNlVq8YGg4E/+P2+cHe/l3NODfua3t3VuGP4mOFDt7b1NSgAAAAAFlOZWD09HotfoSj5xXQqlcnu2v3FL0dd+P+eOPT3UAAAAAAsIpFIaFzrtSoSCZ8mYl4qlaatW9/LJFOp0vJxI/9+4O+hAAAAAFhAIpHQmLvPhlAoeIKIealUmrZsfZ9SqRQRUZZz+v7EspLXc7+PAgAAACDZ9Ol17j5H8A2hUOh4EfMOCf8v8UZV5d8e/6NRW4iIOr6dEAAAAAz1+1lbPH2OYPXGhj8REQtmssqzuX9CAQAAAJDkuefe954eSW8OhQL9RcxrP/z3Y0RDnv3rm6OJUAAAAACkSCQSweO+2fJeMBQ4WsS8zsI/hxG7ef//AgAAgKkSiUSQeftuCQUC/UTM62r45ygqP14V8cAAAADQNbNmLQ97QkXSwp+ISCelHgUAAADAJDNmVPeKFIW2BgKB3iLm9ST8iYgYUQYFAAAAwAQzZlT3ivYO1vsD/riIeT0N/9y3owAAAAAYrLKytk847q/3+31WCH8iIo4CAAAAYKBZs5YfGYqH6n1+X0TEPAHhT0Tk0kQsAwAAAF/3WuWKo8LRyAafzxsUMU9Q+BMn2oUCAAAAYICZM5ceE4mF63xeb0DEPFHhT0TEiLahAAAAAAj2+pxl34jGe9V6vR6/iHkiw5+IiHF6DwUAAABAoFlVq0+KhIOrvF6PV8Q80eFPRKQTn4V3AgQAABDkzcTKU+LB6EqPx23Z8CeirIsn++KzAAAAAAT499ylZ8SDkVUWD39iRLPLykZ/jksAAAAAeZpZWXt2POZf7Pa4XSLmGRX+RMR1hd1LRIQCAAAAkIfZC975XiwYWOhyu6we/kREL04cW7ycCAUAAACgxyoXrhgQCcYXuFy2CP+PXDz5q9w/oAAAAAD0wKy5q4eEg+Eql0vMm+oZHP57VIVGlo0d/XnuF3ATIAAAQDfNfmvNxfGiyDy3PcK/gXG9ePzYknUH/iJOAAAAALphxtyVxbGi8BsuTRXyeToGh/9errDh5WNHLT/0N1AAAAAAumjO/OqSWCT2hqapQk7QjT72J65fPHHsqBVt/SYuAQAAAHRBZdWqK+Px+BuaS7ND+O9mRBeWl7Ud/kQoAAAAAJ2aOXflVbF47G+qYv1n/oxoB+fKeRPGlVR38nUAAADQntlVq8YWFcX+qqqqkMw0+Jn/Z0T8gvJxI9d39oUoAAAAAO2YnVg1qVc0/qSiKnYI//8oCjv/2rHFG7ryxbgJEAAAoA2zq2qu6x2LPcEUZofw/5iYOuzascO3dvUbcA8AAADAIeYkaq7v3cs24f9RVmdDy0u7Hv5EuAQAAABwkMr5tT+Px8OPKootjv0/VFQ+7NofjXyvu9+IEwAAAIAvzamquT1eFH7MJuH/gZpVzutJ+BPhHgAAAAAiIpo7f/Wd8Xj0bsbEPDc2OPw3u7g+rGx8ySc9HYACAAAABW92YlVFLBa/i4l54m/06/w3kStzftlVl27Pcw4AAEDhmptYMy0ej97AxNzvZ/Qz/41Zpp4/qXT4p/kOwgkAAAAUrMpEzSPxePSXtgh/Rmuyqn7hpKtLdokZBwAAUIAq56/5fVFR9Ge2CH+iGhdPXlhWNvpzUQNRAAAAoODMTdQ8UVQUu15UDBr8zH8VJdWLysuHfyF2LAAAQAGpXFDzfFEsNs4Oz/wZ0TKPwkaMHVvcIHo23gcAAAAKxtwFa16wS/gT8SWUzgw3IvyJcBMgAAAUiLcW1L4cj0evEjXP4Gv+i1k6WzJhwqX7jBhOhEsAAABQAOYtXPt6NBa5RNQ8I8OfEy1Mef0jrx8ztFH48APgBAAAABytauHaN6OxSImoecZe82eVYW/j5WPGlLQIH34IFAAAAHCseYvXzopGIiNEzTP4bv/ZSsY3esyY4lbxw78ONwECAIAj2Sr8iWY272aXjx8/1JTwJ8I9AAAA4EDzFq9dFI1EBomaZ+ixP+OvZpr7XT1p0llp4cM7elwzHwwAAMBo8xatXRqNRgaImmfoDX+cpuutfceaHf5EuAcAAAAcgnOuzF+6rjoajpwpaqaxx/7s758c7SutGHpWxoDhnT+6jAcFAAAQiXOuJJbWrY6EQ6eLmmnwNf+Xw96mcWPGjMkaMbwrcBMgAADYGudcWbB0wxrbhD+nP217b2WpzPAnwgkAAADYWCKR0Ji7z4ZQKHiCqJkGv87/mY/fW/HTiooKXfjwbu8CAABgQ9On17n7HME3hEKh40XNNPgd/p4qLy2+jjHGhQ/vAVwCAAAA29kf/rTRLuFPjB6eOK7kp1YJfyIUAAAAsJkvw78+FAoeJ2qmoc/8GU0tLy25QfjgPOFlgAAAYBuJRCKouJX6YMh/uKiZxt7wxx6YOK74VvGD84cCAAAAtpBIJILM23dLMODvJ2qm0eFfXmbN8CdCAQAAABuYNWt5WPGGNwcDgb6iZhr7Dn/stxPLiu8RPlggFAAAALC0GTOqe4XjwU0+v69I1Exj39uf3VE+rniK8MGCoQAAAIBlzZhR3SvaO1jv8/viomYaGP6cEf/1hNKSR0UPNgLeBwAAACypsrK2TyDi2eTz+2KiZhoa/pz/YkLZyMdFDzYKCgAAAFhO1fL3+noovcnv90ZFzTQy/DnRzyaOK/mD6MFGwiUAAACwlNcqVxzlZekNPp83KGqmgeGvc0blE0tLnhM92GgoAAAAYBkzZy49JhIL1/m83oComQaGf5Y4nzBx3MjnRQ82AwoAAABYwhuV7xwbiUXX2Sb8icaXl418QfRgs+AeAAAAkG5W1eqTIuHgKq/X4xU108jwZ4yVTSgtfkn0YDPhBAAAAKR6M7HylGgwtNLjcdsh/FOc+FXlpSX/Ej3YbCgAAAAgzeyq5aeFQ5EVHrfbI2qmkeFPjF05sbTkNdGDZUABAAAAKWZW1p4difoWe9wel6iZBoZ/kohdUV5aPEP0YFlQAAAAwHSzEqvOiYf8i1xutx3Cv5kzumxiafFbogfLhAIAAACmqly4YkAkGFngcrlsEf6kKJdMHDtinujBsqEAAACAaWbPrh4YDkQSLpdLWP4YGP5NjPNRE8aOSIgebAV4GSAAAJhi7tw1F4WLQrNcLk0VNdO48OeNnPFRE0tHLRA82DJwAgAAAIabWbVqeDgeftOlqTYIf9rLFWX4xLHFy0UPthIUAAAAMNSc+dUlsUj0DU1TFVEzDQz/PcT1iyeOHbVC9GCrEfaHAQAAcKjKqlVXxuPxNzSXZofw360rykXlZc4PfyKcAAAAgEFmzl15VSwee0lVVGH3mxkY/js5Vy748dgRa0UPtioUAAAAEG521aqxRUWxv6qqLcL/M1WhC8ePHbFO9GArQwEAAACh5sxbXRqPR5+3Sfj/R9fVC8rHDa8TPdjqcA8AAAAIM2fe6p8UxWN2Cf+PVVUf/ONrCi/8iVAAAABAkDmJmut7FcX/qKiKHcL/o6zOho7/0agtogfbBd4ICAAA8lY5v/bn8Xj4UUWxRfh/qKh82LU/Gvme6MF2ghMAAADIy5yqmtvjReHHbBL+H3DKDi308CfCTYAAAJCHufNX3xmPR+9mTNzzSQPDf7OL68PKyi75RPRgO0IBAACAHpmdWFURj8XuYootwr+euTLDyq66dLvowXaFAgAAAN02N7FmWjwevYExcbeSGRj+G7NMPX/SVSWfih5sZ7gHAAAAuqUyUfOIbcKf0Rolw4ZMKh2O8D8EXgUAAABdVjl/ze+LiqI/s0X4E9W4ePLCsrLRn4se7AQoAAAA0CVzEzVPxOOx620R/oxWUVK9qLx8+BdiBzsHCgAA2AZPVHizUfdwrrGBOtGpqsqOI0WNM8Y8xBQ3U5lKnBPplCUiIsazekZvJJ7do3P+H9L19RmdL/K1ZGaycyoaJP/r2MrchTX/F4/GymwR/kTVKZVfdN2PRu4WPdhJUAAAwLJ4XUU8xT3XM6KLFc11sqJpUSbopeZ6Jt2qp7P1pOtVusL/4jn59g1CBjvQ3AVr/hqPRUttEf6MlnoZKx47thgFrxMoAABgKclV957GPOxW1aUNY6qrr8iXmHVET6f36Zn0YtIzj7lOvXOuKQ9qA28tqH05Ho9eJXKmgc/8F7N0pmTChEv3iR7sRCgAACAdr3kkmlKbblBd7mtUj/tI2T+a9EwmqWfS8/WM/mvPabdvkrqMRPMWrn09GotcInKmUeHPiRamvP6R148Z2ih0sIOhAACANKnqu89mPvdjqsfzXSbwbWRF4ZyTnkq+l04m7/Kd8dsXZe9jpqpFtTNi0ehIkTONCn9GrDLkbbx8zJgxLUIHO5zl/sIBgPMlayZfqnrcv1e9nqNl79JVejrdkEklH3efkv4tYxW67H2MNG/x2lnRSGSEyJkGXvOfrWb8o8ePH9oqdrDzoQAAgGlaa+8Zrrk9T6oeT3/Zu/SUnsm0ZFpST7hPS97qxCJgq/Anmqlm/T9A+PcMCgAAGK5l9eRjNLf2uub3nS57F1H0TKY529p6s/u0O/4gexdR5i1euygaiQwSOdOwY3/GX80097t60qSz0kIHFxAUAAAwDOcVWnqD5znN672amXU7v6k4ZZOpj1KZ1FX+U3+zTPY2+Zi3uHZJNBI9V+RMw2744zRdb+07FuGfHxQAADBEy9rJg91uz2uK2x2TvYvhOFGmpaU2ncmU+M/4ja0+apZzrsxfuq46Go6cKXKuccf+7O/bjvKVVgwdmhE8uOCgAACAUJxXKKk69ysur2+0I5/0d4Drejbd1Pyg5/Q7bpe9S1dwzpXEkvWrI5Gw0EszBl7zf3nbUf4yhL8YKAAAIEzzioeOcoezy1S350jZu8iUTSa3ZdOZC638HgKcc2XB0g1rwuHgqSLnGvg6/z9/8t7KH1dUOO/GS1kKq54DgGFa10yZ5Ikr7xd6+BMRqR7Pka6Ary697t5HZe/Slv3hX7fWLuFPxJ9F+IuHEwAAyFtq3X3Pu/z+cfiJ8nXZZHK7mmweys6o2Cx7FyKi6dPr3H2O4BtCodDxIuca+Mz/qfLS4usYY1zoYMBfVwDoOZ6o8Gb6+t7RvN7TZO9iZTyrZzPJ5pvcp9zxiMw99oc/bQyFgseJnGvgm/w8PGFs8Y0If2OgAABAjzTUT+vl53qd6vb0kb2LPXDKNLfWaq2tA9hZFc1mP/qX4V8fCgX7i5xrWPhzNq28rPgmsUPhQLgHAAC6bXbNk+dt5JFtCP/uYKT5fafrocB/mtdNHmDmIycSiWDfI5T3bRT+DyD8jYcCAADdUrXh2Qs3FX0zsSJysmeJHpa9ju0oLnfI6w0sSa6bYspLBROJRFD19N0cDPkPFznX4PC/VexQaAsuAQBAl7284bkLdwT7z3W5fUREpHOdzmiqp4FKg+TN7IhTpqV1uXZS6yDGKgx5XfusWcvDgVikPhjw9xM517h3+GO/nVhWfI/QodAuFAAA6JLpdS8P2x4+fJ7L5T3o13Wu07eb6mkASkCPZFPJHelk8hzf6Xe+L3LunDnL4sFofLPP7ysSOde4u/35byaOG3mv0KHQIVwCAIBOvVr3pzO3h/tVHRr+REQKU2h14FuEywE9o7o9fdz+QH1yzZTRombOmFHdyx+NbbFJ+HNG/FcIf/PhBAAAOvRq/XMnfuI9eoPmCXT48wInAfnhnFOmtfnP7pNvL89nTmVlbR9/xLPJ7/cJ/QwGo8KfE/1y4riS34scCl2DAgAA7are/rR/WfLofaov1qXTQtwTkL90S8sqF7UOYCdXdDtp94e/t97v90ZF7mRg+P9s4rgSx3ycst3gEgAAtGtFy2E7uxr+RPsvB6zB5YC8uHy+72TVwCfNyx/o1lsqv1a54qhA1PuubcKfsesR/nKhAABAm57Z/Or7PNDH393vy5WAZSgBPaa63b08cXVLc82Uc7vy9TNnLj2mVzSywefzBkXuYVD4Z4nz8RNLi58UORS6DwUAAL7mbxtffCUdOqJ/T78fNwbmT9FcXm/YtyhVO/m6jr7ujcp3jo307lVnm/AnGl9eNvJ5kUOhZ1AAAOAgM9b/eeLOcP8fEMvvFiFcDsgfY4qiBYN/aK2d8se2fr+ycu2JRbHYBp/XGxD5uEaFP2OsrHxcyQsih0LP4SZAAPhK5Yq/HLWx3zEfudzi8gSvDhCBU6aldZ52UutFjO3/SNxZVatPioaDqzxez9dfm5kHg8I/xYlfNXHcyH+JHAr5QQEAgK88+e7rTXqgb7ev+3cGrw4QI9vS+q7a0nLazH0lx8VCkWqv2+MROd+o8CfGriwvLX5N5FDInyZ7AQCwhr9veKFyV6Cv34hnBbnLAYQSkBfV5z0+q6rb+5LHq9gj/JOM8TETSkveEDkUxFBlLwAA8s1Y+1TxttgJv1UV434kMMboU1cRpVKNdDRLGvY4TqeoqreP9p62J3s4ZUnM6b8R4c+JWojRJeWlI2cLGwpCoQAAFLgET2ibWkIbNHfH7/QnAkqAGIrKqEh5nxoyvSlD+V2xMeiZf7PK+aXl40ZWiRwKYuFVAAAF7sMtO97TfFHTfhbgfQLEUDVG3/IvohB93OMZBoV/Eyc26toyhL/V4QQAoIC9VvenSTsj3/gRy/Mlf93FGKPtOAnIG2OM4tonlE6r1ELd+9wfw8Kf6SMnjhuZEDkUjIETAIAC9lHgqD8qipwfA3ifADGYotDRgTrqQ+u7/D0Ghf9errALJpaOWiByKBgHJwAABer5+r9tyAT79ZG5A+4JEIMxRmH3F8RTrdRI/Tr8WoPCf49CNLy8tOQdkUPBWCgAAAXotfXPXPxZ9Bu/Upj8Q8BcCcikGukolIC8hNx7iJJN1MgOb/P3DQr/3bqiXFxeWrxC5FAwnvy//QBguk98h83QFOu8DQg+O0Ccw4If0eH09Sw2KPx3cq6c9+OxI1aKHArmwAkAQIGZsfH//rI3fPR3rPZGoLgcIAhjFHQ1EMvso310BBEZE/6MaIeq0AUTxhWvEzYUTIUCAFBAEjyhbWwO/UvVhL6JnDAoAYIwRkF3A2npPbQr1Y+2in/m/2k2qw8tLxu5QeRQMBcuAQAUkIZNHyx2eYR+aqxweJ8AURgVebYT/2wRJcWG/zad03mTxo/aJHIomA8nAAAFomHjlKKTtcwj67JuJeuydgnA+wTkT89mqWXXDurt2kktWTftToVEjP0oq7Ohk64p2SpiGMiFEwCAAuHTlVdUVVUn0Afkbv5M9jqdwvsE9JyezVLLzh2kZ7JExOk78c10dCDvP/MPFZUPnXRN8bsCVgQLwAkAQAFIrrr3NFfIf//+59ZEZ9IeWpt2kR1OAnBPQPfo2Qy17Nz5ZfjvxxjR4f4vaE8qSPsyPfrsgHezpJ83sXTUB6L2BPlwAgBQABSv9vz+GNiPERFOApxn/zP/g8M/R2E6Deiznvr5vuju2M0urg+ZNG7UR0KWBMvACQCAw6VqKs7QAsGKQ9/vHycBznLwsX/bGCM60r+TdrVGqTnbpY8SrmeuzLDxYy/ZLmxRsAycAAA4HPP4/treh/3gJMAZuhL+Oaqi08B+6yjqbuzw6xjRpixTh0646lKEv0PhBADAwVLVd5+tBQN3dPRpfzgJsLfuhH+OynQ60r+TPm3pRUnd1daX1CoZNmziNSOs3wyhx3ACAOBgzO/+S1c+6hcnAfa0/4a/7oV/jkdN0+C+a8mnfa1I1WQ1/YJrry3eKWRJsCycAAA4VHLlvadoIf9dXSkARDgJsJuObvjrKpeSoX6+3fRRU1/SuUKc2Go3T140ofSyzwWuChaFEwAAh1L86rNdDf8cnATYQ0+O/dsTcTXRuX3Wk8r4O7rXNaysbDTCv0BY69NAAECIpup7D/NFA58wpZsN4EuciP5M/Snl7yt4M/F0rtMZTfU0UGmQvYopRIb/QXNJfSUy6P4rGSMudDBYFk4AABzI7VWe6Wn4E+EkwKqMCn8iIoWyVzQsuvku4YPBsnACAOAwvLrCz6PhBqaoed/jg5MA62jrHf4MwWhCeNDUvxj7IGAFOAEAcJiMxzVFRPgT4STAKkTc8NdlnJ7au+iWi41/IJANBQDAYZjLUyZ0HqEEyGTksX87XIz0V/YtueVksx4Q5EABAHCQ1pp7ilW3FhU9FyVADgnhnxPiuv5mQ+KGXmY/MJgHBQDAQVS3a7JRt/agBJhLYvjn9Oeq8neeqNBkLQDGQgEAcAheVxFXPd4zjHwMlABzWCD8iYiIEZ3fqDVNk7oEGAYFAMAh0rpnaj4v/esqlABjWSX8czinXzQsunGi7D1APBQAAIdQ3e4xZj0WSoAxrBb+/8X+sG/hDYNlbwFioQAAOEBm7X1XKC7N1DfwRwkQy7rhT0RELk7K9OaFvz5K9iIgDgoAgANwVfmdjMdFCRDD4uG/H6O+Gab+k8/6mUf2KiAGCgCAzTXUT+uleb0nynp8lID85PORvhL8v8agBzcFOgQKAIDNeZPpu4jJfVtvlICeMfUd/gThxP5378Ibr5a9B+QPBQDA5hS3eqXsHYhQArrLFsf+7WCMnm5I3CDt1AnEQAEAsLFk3ZSTVLe7t+w9clACusbO4b8fC5KqTOfLfuWTvQn0HAoAgJ3pzLB3/usplICO2T/8v3Lqvqz2iOwloOdQAABsTHO7LpK9Q1tQAtrmoPDfj9OkvYtvLpW9BvQMCgCATbXW3jNccbkCsvdoD0rAwRwX/l9iXP8j7gewJxQAAJtSVNedsnfoDErAfjZ7qV83sSBT1Rd59Y9dsjeB7kEBALAhzis01es5W/YeXVHoJcCOL/XrLk78Ow3NUcsXUjgYCgCADaXWum5SFEWVvUdXFWoJcOqxf1sY8dv2Lrn5HNl7QNehAADYkOp2/Vj2Dt1VaCWgkML/SxrT+Ys7EhWmfiYF9BwKAIDNPPSXhQM27Dmiv+w9eqJQSoCzr/l36HiP0viA7CWga1AAAGxm9Z7+r09IXEmr/9NP9io94vQSUAjX/DvCGPvp3kW3XCx7D+gcCgCAjTz9cqJXfesRvXRVpZ8s+D5KgAm6UwIK8Ni/LUwh/Zn/VN5o2Zeown4oAAA2suqLw5dydf+9fygB5ulKCUD4/xcnOtrvJbwqwOKs9R6iANC+Cq6c405l06r7oF9Wsll6asi/6NuHfSppsfxwIvoz9aeUv6/sVTqlc53OaKqngUrDwb+O8G9LRmHKWcFBD9TKXgTahhMAAJv4SdGW+kPDn+jLk4CFo2n1p4dJ2Cp/dj8JQPi3S9O5/qjsJaB9KAAANvDAX5eWVjd+4xvt/b6uqvTThZfT+h19zFxLGLuWgAK+27+rzmtYfNNI2UtA21AAACxu+vQ58RmfnPk8Vzq+YpdVNbp2/hUOOAnYIXuVTilMoRWeY6lm1z6Ef2c4TcPbBFsTCgCAxf3twzO2tSi+Lt2vo6sq/WSR3U8C3rf8SUAyk6RN/9lCT/Ii2sS8stexum/ta46UyV4Cvg4FAMDCfvz45nc/0vv6uvM9uuKUkwBrloBkJkkbP91MrekkpYjR02oflIDO3coTFZrsJeBgKAAAFnXDU7XzVzWfcFxPvhc3BhrjwPDPQQnokuMb1MYfyl4CDoYCAGBBD/zf0scW7D51aD4zUALEaiv8c1ACOseI3cY5XnpuJSgAABbzh7+9NfGV7Wf/nDq56a8rUALE6Cj8c1ACOnVS05Ibz5e9BPwXCgCAhTz+8rxhL7w/+Jncu/2JkLsxcO0O67/RTltkl4CuhH8OSkDHdE6TZO8A/4XjGACLeOj5xd/89/azNrUoXkP+XuIdA7uvO+F/IDdxmpTdQSfyVoM2s620kqWjg0On/kf2IoATAABLePrpOYe9uf3MjUaFPxEuB3RXT8OfCCcBHXDpKo2TvQTshwIAINm///3v6Kt7zvm4QQkY/vcRJaBr8gn/HJSAdo2WvQDshwIAIFEi8Zz32a2Dd3xBEXEX/TuBEtAxEeGfgxLQpu82L/z1UbKXABQAAGkqEgntkeriPZ/pcdPfJhU3BrZNZPjnoAR8DUsz9TLZSwAKAIAUnFco62u+2fCJ3scjawdd0ah8/g9wEvAlI8I/ByXgYIxouOwdAK8CAJDiioc/2fde+vCg7D2I8OoAImPD/0B4dcBX9oQGBYoYq9BlL1LIcAIAYLIxD3281yrhT4R7AswKfyKcBBwg2rig8STZSxQ6FAAAE4155JNd72aODMve41CFWgLMDP8clIAvKXSu7BUKHQoAgEmueey9He+mDi+SvUd7Cq0EyAj/HJQAIq6wM2XvUOhQAABMsHfdI3O2NvfrLXuPzuRKgNNfHSAz/HMKvgRwOkH2CoUOBQDAYOkN988KB5SLX7/kRQrwZtnrdEpXVUe/OsAK4Z9TyCWAEwqAbCgAAAZKb7h/lub1jSAiivta6N+jXrJNCXDi5QArhX9OoZYARnQkX/Yrn+w9ChkKAIBB0nX3z82Ffw5KgHkOLQFWDP+cAi0BrCGtHSl7iUKGAgBggPSG+2dpPt+Fbf0eSoB5ciXA07iNNmyvt2T45xRkCVB4XPYKhQwFAECwdN398w995n8olADz8GyGrtyxir6X3iV7lU4VXglgMdkbFDIUAACBvnzmP7QrX4sSYDw9m6WWnTuJZzL0g+weOo83yF6pUwVVAnScAMiEAgAgAOfEUnX3vd3ZM/9DoQQYSdirAwAAIABJREFUZ3/47yA9kyUiIkYcJcBimOLwf0GLQwEAyBPnFUpmwwOrXT7/OT35fpQA8Q4N/xyUAIvRWbbzLwKjoAAA5IHzCiWz0Ver+bxn5DMHJUCc9sI/ByXAOjjTUQAkQgEA6CFeV+HObvBt0bzeU0TMi/ta6PVRL9iqBFRvP1z2KgfpLPxzUAIsghM+DVAiFACAHuDVFf6s6n9X9XmPEzk36kvaqgRct+hyy5SAroZ/DkqABTDaK3uFQoYCANBNvK4imA0EtqpujyFvYoIS0IM9uhn+OSgBkul8h+wVChkKAEA3NNRP65VV/R+oHrehF8BRArrx+D0M/xyUAHl0F6EASIQCANBFfOvUPgHON6tujykf6YsS0IXHzTP8c1ACpOBRpqMASKTKXgDADppXPHSU6ub1itsdMfNxva4sXX5cHf2z/iRKM5eZD91tXFFo1gffojPjn9DhoX2GP56o8M9hRHQST1IzY/QB8wiZaZQsMVqjBKg/T1Ivyshep0c40TbvwIemyt6jkOEEAKATLasnH+OJ0AbF5Q7JeHycBLTxOILDPwcnAeZhRHWydyh0KAAAHUjWTTnJHfRtVFxaUOYeKAEHzDco/HNQAszCNsjeoNChAAC0I7X67tM1l2e1ommW+MxylADjwz8HJcAEnNbKXqHQoQAAtCFVO/kcNRhcqWiapS4GF3IJMCv8c1ACjKUrymLZOxQ63AQIcIiWNZMHuv3+BYqmWvKuu0K8MdDs8M/BjYEG4fRJZPCDd8peo9DhBADgAK219wz3BP0LmEXDP6eQTgJkhX8OTgLEY4wWyd4BUAAAvpJcM2W0OxCYyRTVFidjhVAC9GxGavjnoASIpTOaI3sHQAEAICKiljV3j3WFfK8wRbXV3wknl4D9z/x3Sg//HJQAYdKc1BmylwDcAwBAmWWjn3dHjq5gqttW4Z/jxHsCZB/7twf3BOSPEa+KDH7wT7L3AJwAQIFLL7t0turdPo7veZ2Rbv1n0e1x0kmAVcM/BycB+eHEXpW9A+yHAgAFK72seInm/Ww4KYyYm4h/8QahBJijvRJg9fDPQQnoKd6YdrdOl70F7IdLAFCQ0kuHr9cCu79DjH31a0wl4o31xLzHEVn8KL09dr4cYJfwz8HlgJ5Qno+d+whOACwCJwBQcDJvX/iR5t978v4f4Qdz0klA0EYnASu29bVV+OfgJKB7OBGu/VsITgCgoGTfvmCH6ms6rI3s/4pTTgIuO66O/lV/EqUs/u+g60QLa3rR4MM2UNjTKnudbsNJQJe9HRk89W6zHxTahxMAKAicVyjZt4c1KL6m3l35eqecBLxm8ZMAntGpdVsT7Wjw00/mltIn+6KyV+oRnAR0jjNC+FtMB8+DAJyB8/M0/W29QfGnu/2hPjxFxOKXECl+I1YzxZ4WD102o5QambX+HXLhr6f1r36tb6CBnrroBToitEfiZj3HidGrapQWsLDsVTrlJk6TsjvoRG78qQvntCY8eOq3GSNu+INBl+ESADgaX3JtSP90V4Piy/TobBaXA4zRVvgTETWlPbTg4xNp8FFbcDnAYGZeDmDEJnn7L6039EGg21AAwLH4iiv6cfbBDsWb1fKZgxIgVnvhn7O/BHwLJcAEJpWAheEhU28zajj0HO4BAEdKLvv+iTrftp15dSElF/cEiNFZ+Od81hSmn84dS9v2xUzaTCzcE/AVrivsRiMGQ/5wAgCOk172wwGa9vEqxcOE3uOCk4D8dDX8c3ASYB7DTgI4vRAZPPWP4gaCSDgBAEfJrLziEtX1/lLmFhv+OTgJ6Jnuhn8OTgLMY8BJwOeMaXj2b2E4AQDHSC2+dJyqbf8Hcxnba3ES0D09Df8cnASYR+RJAGf00/DgB94WtBoYAC8DBEfIvj3m50z78DGjw/9AeIlg5/IN/wP1DTTQkxe9SEeGdgvYzHyF9BJBRjQ3OGjqcLzsz9pwAgC2l11+2d3Mve0+ppl7RQsnAR0TGf5EOAkwU54nAbs1ni129397rxG7gTgoAGBrqWWjntLcO37NVDm3s6AEtE10+OegBJinpyWAcX5NcMhDOPq3ARQAsK3M26P+qXl3lpIq90oWSsDBjAr/HJQA83S/BLBnw0Om3m/4YiAEXgUAtpReVrxA9e4cTYo1bmPBqwP2Mzr8c/DqAPN09dUBnFhNSEv/wqS1QACcAIDtZJePqFG9e84hY17p12OFfhJgVvjn4CTAPF04Cficc36Bb9DDO83eDXoOBQBsJbPsgq2qd99JVn39SqGWALPDPwclwDwdlIAUY/ySyOBpa2TtBj2DAgC2kV5zxxsqqz+HSb7m35n9JWAzMc/xRIrzS4Cs8M9BCTBPGyWAE9HE8OBpr0leDXoABQBsIbXuvgWuUPQiUvoSJd8lZpFr/+1hKhFvcv5JgOzwz0EJMM+BJaA3S/8uPHjaY7J3gp6x9k9RACJKr79/qeb3Dcj9M0/uIGqqIrNf998TznmzoLHUyAIH/bpVwv9ATnizoFeUGC1UQrJX6dSp1LLhpu/ddAre7Me+rP8TFAoW5xVKuu7+1QeGPxER8/QhClxAPGOd4GmPc14d8CIFedNXv2bF8CdyxqsDrtB3W/7VAd/grZ/0TjZ9B+Fvb7gEAJbEeYWS2eir0Xy+M9r6faYFyFaXAxxxY+AG+lf9/1Ayq1ky/HOccjmgiRT60IKXA47lyc/O8jR+48pzK1pk7wL5QQEAy+F1Fe7sLt9Gzev9n46+DiXAXF5Xli7pv47eWR+iT/cEZa/TIWeUgFbL3RNwLE/uOKU5/a3Rg37TKHsXyB8KAFgKr6twZxXfRtXrPb4rX48SYB49myW++1O68Ii1tH7XkbS9MSp7pQ45owRY58bA4yn52dl7933zsuG/sfb1CegyFACwDF5XEcwqvq2qx3t0d74PJcB4ejZLLTt3kJ7JkqbodMExG1ECTGCVywHf4q0fnsiUEy4bdltT518NdoECAJbAl1eEsz7/ZtXjPawn348SYJwDwz8HJcA8si8HnKa31J5zbtMpI4++LWX6g4OhUABAupbVk49Rwv561e3ulc8clADx2gr/HJQA88i4HKAQp7P1ln/8cuDNFzz/uwXWvOMT8oICAFK1rpkyyRP0zVY0LdD5V3cOJUAcPZuhlp072wz/HJQA85hZAjyM8+/qzXddN/CWnxv6QCCVtX9CgmMla+/5ger2TFU9nv5GzMebBeWnK+F/oGRGo18nrqSVn/Y3djEBnPBmQa+qUVrAwobMD1E2e6be/KOJA2/7hyEPAJaBAgCmaV43eYCLqbcyTRumut1CnvF3BCWgZ7ob/jkoAeYx6h0DD+Pp5pPU1sHXnHPbKqGDwZJQAMBQqdrJ53BFvVlzu85XXFrY7P/kUAK6p6Nr/l2BEmAe0ScBJ/LW905gjf9vzICKL4QMBMtDAQDhZIf+oVACuibf8M9BCTCPiBLgIc7P4k1P/OTcW3G9v8CgAIAQzesmD1BJvdEqoX8olICOiQr/nGRGoxsSY2jFp8cKmWekQi4BvXgmeTpvHnPNwNvfMGA1sDhr/ZQGW0nV3Xcm43S34nYPUzRN/sXrTqAEtK2n1/w705rV6Mb5KAFm6EkJ+Ca1bjlZTX1v9Nm3f27gamBhKADQLQ3vTCny+vldisv1Q9Xt6S17n+5CCTiY6Gf+h0IJME9XbwwMUFY/gzc//pNzb/ulSauBRaEAQJck10wZrbjVKZrX800iZuv/blAC9jPqmf+hbFUC/PvoyYtfsHUJ6OgkoL+e/PRovXX4xMF3rDV5NbAgW/8gB2NxXqFl1rl/rXi0Xysud18n/edS6CXA6Gf+h0IJME9bJSDAdP2kbOuTPx948/9KXA0sxjk/0UEYXvNINONqfUbxeC5TVNV6b1EnSKGWALOe+R8KJcA8B5aAE3jy42+w5EVXD7h9k+y9wFpQAOArfHlFOBVwP+Py+n7AVKUg3ia60EqA2c/8D4USYB5O7MO5LPLkFYPueED2LmBNKABAvK4imCbPk5rbe1WhBP+BCqUEyA7/HJQAw6UYZ0+16P47+gytaJS9DFgXCkAB47xCS6/3PK15vWWFGPwHcnoJkHXs3x6UAMO8pnP+6+iQae/LXgSsDwWgQKXW3Xut6vI8prhdQdm7WIVTS4BVnvkfCiVAqC2c0y8jQ6bOkr0I2AcKQIFprqkY4Pb4Xla9nmPwx/91TisBVg3/HJSAvG1nRJOD/r1/Ymc9k5a9DNgLEqBA8JpHomlX65uaz3cus/fL+A3nlBJgtWP/9qAE9MjnRPRgoz/wxOFnVTTLXgbsCUlQAFK1k69Tfb5HFE1zy97FLuxeAqz+zP9QKAFd1kScP5HVM/fHhj66R8YC4BwoAA7WUn3/0aqPZrl8vpNl72JHdi0Bdgv/HJSADu0lRk8yrj0cGnzfTrMeFJwNBcChkrVTpmp+768VVbV+elmY3UoAj5RQy+eNtgv/HJSAQ7FPidFjaVfLk0XnPN5g4ANBAUIBcJim6nsPc/u0eZrP+z+yd3GK/SVgHjHN2n9deCZLqf/olA4NIs402ev0GEoAERG9zzk9FnZlnmEDHmkRPRyACAXAUVrW3DPeEwg8zRz89r2yWP0kgGeylPl4F/F0hnR3b8rEBqMEmERgCdAZ8bc40ZOh/3z4Jhvzij2PccA2UAAcgPMKJbXe86rb778cf6LGsWoJODD8c5xQAlK6RrcsGE1Lt50ge5VO5VkC9hKnfzCmPxYa/NAG0bsBtAdxYXOpjXd/R1X8VYrLFZW9SyGwWgloK/xzUALM1c0SoBPRYuLsuZDu/wcbWtFq8HoAX4MCYGOpdff9RPN5/sAU3OhnJquUgI7CPwclwFxdKAEbOWfTuaL8NTro/vfM3A3gUCgANpVaP+Ully9wNf4E5ZBdAroS/jkoAeZqowR8SIxe1Tm9HB08dbXM3QAOhPiwGb68IpwJ+1ZoXu+3ZO9S6GSVgO6Ef44TSoCdbgw8uWh78unhLz3rdmX+ETr3gaWMEZe9E8ChUABsJFV335mq6lqED/CxDrNLQE/CP8cJJcDKJwF9AvsyJ8Q+q+0V2P30Azdd8CcihtAHS0MBsInWmnuK3cHA60xV7fvT26F4cgdRYxUxl7ElIJ/wz3FCCbDSSYBHzdA5R7z7zmGBL56ouGHEi7L3AegOFAAbSNVOLtOCgb8wpuBmP4syugSICP8cJ5QAK5wEeNQMXX7CmlsqbrzgQWlLAORBlb0AdCy9dsrNrmDwCcYYwt/CmBYgUvsStb5LTBXbq0WGPxERyzYTS+8i7j2KyKb/WalMp2HH1FP9F33p44Yi0x8f4Q9OgAJgYal19z7pCgZuI3x+ry0YUQJEh38OSkDPIfzBKVAALCq5fso/3YFAKa7S2IvIEmBU+OegBHQfwh+cBAXAglLr7nveHfD/EOFvTyJKgNHhn4MS0HUIf3AaFACLSa2778+ugP8ahL+95VMCzAr/HJSAziH8wYlQACykdd19z7oD/gmy9wAxelICzA7/HJSA9iH8walQACwitfbeh93BwPWy9wCxulMCZIV/jpNKwOYv+tJHAkoAwh+cDAXAApK1997lDgVvk70HGKMrJUB2+Oc4pQQMFVACEP7gdCgAkrWunzzKHQg8xfBSP0frqARYJfxzUAIQ/lAYUAAkSq669zR3wD+fKSr+HApAWyXAauGfU8glAOEPhQLBIwmvq4gzj3+d4tK8sncB8xxYAojrlgz/nEIsAQh/KCQoABJwXqFkP/dvUD3uPrJ3AfMxLUA69aLMR3VEqRbZ63SokEoAwh8KjT3/Rttcps7zlurxHCN7D5BDz2aotYEoGRpCXLP+JzsrqZ2k7V5EjFvzpKIr3EqG7j/vXzTwyC1t/j7CHwoRTgBMlqqdfJ0rGPxf2XuAHHo2Sy07d5KeyRIpLsp6jiQ1tZ2YnpK9WoecchIw7OhNtHn3wScBCH8oVCgAJmpZPfkYd8A/myn4WN9CtD/8d+wP/xyUAFOpCj+oBCD8oZDhpWcmymx48EPV6zla9h5gvjbD/0DZZnLvThDLNJq7WA/o7t6UiQ0mzjTZq/RYMqvR7Ysvzx7hb7gd4Q+FCgXAJKl1973oCvh/JHsPMF+n4Z+DEmCmFoXxS4KDplXJXgRAFlwCMEFrzT3FroD/frzXT+HRs5n/XvPvDC4HmAXhD0B4FYApNJ/3RYbL/gXnoBv+ukr1Uyo2FK8OMA7CH+BLOAEwWGrtfY9rPu8Q2XuAubp87N8WnAQYBeEPcAAUAAM1Vd97mCfoe5kp1v/JCOLkFf45KAGiIfwBDmHZv61O4ParM5iqoGQVECHhn4PLAaIg/AHagAJgkGTN5Es1r/c7svcA8wgN/xyUgHwh/AHagQJgEM3n+TNeZVk49t/tLzj8c1ACegrhD9ABFAADpGonX6e43d3/EHKwpR7d7d9dtisBC2WXAIQ/QCdQAAyger33yt4BzGHIsX97bFUCdsksAQh/gC5AARAstf7eXykuV1T2HmA8Q4/924MS0BmEP0AXoQAIpmiu22TvAMYz5di/PSgB7UH4A3QDCoBArbX3DFfdnt6y9wBjmXrs3x6UgEMh/AG6CQVAINXlxqeKOZyUY//2oATkIPwBegCvUxOE11XEuSeyiykK/j91KEs882+LrT5FsBdlYkNEfoogwh+gh3ACIEhad09B+DuXZcOfqJBPAhD+AHlAARBEdbm+L3sHMIaljv3bU3glAOEPkCcUAAFaVk8+RnG5e8neA8STerd/dxVOCUD4AwiAAiCA6lHuxN0UzmPpY//2OL8EIPwBBEEBEEBRXcNl7wBi2eLYvz3OLQEIfwCBUADyxOsq3IrmOlz2HiCOrY792+O8EoDwBxAMBSBP6Yx2FVMYLgA4hC2P/dvjnBKA8AcwAApAnpiqjpa9A4hh62P/9ti/BCD8AQyCApAnpqhnyN4B8ueIY//22LcEIPwBDIQCkCemaYfJ3gHy46hj//aofkrHhhJXA7I36ZSS2kWuPUuzCH8AY6EA5GFfbUUfRVNdsveAnnPksX87uOqnVHyY5U8COFNJV0K3I/wBjIUCkAc3dw+UvQP0nKOP/dtj8csBnKmke4+7xT9qHj5YC8BgKAB5UDT+Xdk7QM8UxLF/eyxaAhD+AOZCAciLcqLsDaD7CunYv10WKwEIfwDzoQDkgTPqI3sH6J6CPPZvj0VKAMIfQA4UgDwwxiKyd4CuK+hj//ZILgEIfwB5UADywBQlJHsH6Boc+3dAUglA+APIhQKQD87wEkAbwLF/F5hcAhD+APKhAOSBKRyfAWBxOPbvBpNKAMIfwBpQAPLAOf7/szIc+/eAwSUA4Q9gHQiwfHBKy14B2oZj/zwYVAIQ/gDWggKQF94qewP4Ohz7CyC4BCD8AawHBSAPnFOT7B3gYDj2F0hQCUD4A1gTCkA+ON8lewX4Lxz7GyDPEoDwB7AuFIA88Kz+kewdYD8c+xuohyUA4Q9gbSgAeeBEW2XvADj2N0U3SwDCH8D6UADyoOt8qewdCh2O/U3UxRKA8AewBxSAPHhPTy/mnMteo2Dh2F+CTkoAwh/APlAA8sBYRYZnsy2y9yhEOPaXqJ0SgPAHsBcUgDzpmfT7sncoNDj2t4BDSgDCH8B+UADyxLPZRbJ3KCQ49reQr0pAWEf4A9gPCkCesln+kuwdCgXC34JUf0um6MIRCH8A+8Gn2QmQ3fpIRlEUVfYeTobwt6QWhfFLgoOmVcleBAC6DycAAvBU+hPZOzgZwt+SEP4ANocCIICezS6QvYNT4W5/S0L4AzgACoAAeiYzWfYOToS7/S0J4Q/gELgHQJDMpqmfq253XPYeToFjf0tC+AM4CE4ABNEz6UrZOzgFwt+SEP4ADoMCIAjX6W7ZOzgBwt+SEP4ADoRLAALhMkB+9t/wh2v+FoPwB3AonAAIpKdSz8vewa5ww58lZYnY1Qh/AGdCARDI1bjrDq7rSLBuwrG/VbHbwoMffE32FgBgDBQAgdiAR1oyydZlsvewE4S/Zb0dGuR/SPYSAGAcFADR0tkbZa9gFwh/C9PpFsYqdNlrAIBxcBOgATKbpm5T3e4jZO9hZbjhz7o4sZrI4Ae/LXsPADAWTgAMkEombyListewLNzwZ3Gc42ZWgAKAAmAA/+m/+Vs2ldopew8rwrG/5XEXZf8lewkAMB4KgEHSmfTtsnewGoS/LSzzD3n4Y9lLAIDxUAAM4jvljj9lU6ndsvewCnyqnz1w4q/K3gEAzIECYKB0a/oG3AuAa/42wrOKiuN/gAKBVwEYLLPxwY9Vj+dI2XvIgmN/O+HLwoOnnSt7CwAwB04ADMYpM7ZQDwEQ/vbCiV6RvQMAmAcFwGCu/7l9Yaa1tVb2HmZD+NsOjv8BCgwKgAmy+r7vc64XzLuqIfxtaXl84AMfyV4CAMyDAmAC76mT3820tPxD9h5mQPjbE47/AQoPCoBJXCenxmVTqSbZexgJ4W9bXFd1HP8DFBgUAJMwVpHR06mfy97DKHidv62tiJ370IeylwAAc6EAmMh96h1/ybS2rpO9h2h4nb/NcYbjf4AChAJgslRz5mJd1x2TlDj2tz1d06kg7k8BgIOhAJgscNYdn2aamu+RvYcICH/7Y0RV/qEPbpO9BwCYDwVAAs/pd/wum0za+ocurvk7g87ZX2XvAAByoABIkkklL+C6Pd8bANf8nYI3JnX/67K3AAA5UAAk8Z5+Z326uelB2Xt0F479HeWVPkMrGmUvAQByoABI5DntN7fpydb3ZO/RVQh/Z+E6f1L2DgAgDwqAZKkmPlTXs5ZPVFzzdxq+LHLeQytlbwEA8qAASOY769aPsk2tN8reoyO45u88jOhx2TsAgFwoABbgPv32RzPNzQtk79EWHPs70vagv+GfspcAALlQACxCY8mLs63JPbL3OBDC35kY439kZz2Tlr0HAMiFAmAR7OSKVLZ532A9m7XESwMR/o7VkCXtj7KXAAD5UAAsxHPWPesyTU23E3GpeyD8nYsz+n100P27Ze8BAPKhAFiM54w7H0g3NS2S9fgIfyfjjSyjPyZ7CwCwBhQAC3KdcsKwbCq50+zHRfg7Hft9eOhDu2RvAQDWgAJgQYyNyWbTySFmfmogXufveE2MtEdlLwEA1oECYFGeU+/cmGpsGM+58fcE4nX+zseJHgoNvs/0UyUAsC4UAAvznXHXC+nG5vuIG3dTII79CwCnz1IKmyZ7DQCwFiZ7Aejc7trffxQN8aNEz0X4FwjOy8NDpv1Z9hoAYC04AbC4ynk1f3yXjTqquUXsHxXCv2CsDX324f/JXgIArAcFwMKqFq55uqhX7KeMFNqcGU7ppJhLAQj/wqFzuomNeQV/0ADwNSgAFlW5oOb5aDT6Y8b2X6XRmZs2p86nbCa/mwIR/gXlzeiQqXNlLwEA1oQCYEGVC2pfKorFxuXCPyfJwrS15Vzies9KAMK/cDCiZp3zn8veAwCsS5W9ABzsrQW1LxfFo1cfGv45aRakZMZNUddn1N7XtGX/6/zxUr+Cwen2yJBps2SvAQDWhRMAC5m3cO3r8Xj0qs6+bjc/nj5u/CZxvWv3BOB1/gVnXSiwF2/5CwAdwgmARcxbWDszGouO7OrXN7M+xFMtFHbvIergJADH/gVHJ52P9g54/EPZiwCAtaEAWMBbC9dUxmKx4d39viZ2GLHUXgp6Gtv8fYR/4WFET4SHTHtW9h4AYH24BCDZvMVrZ8VjsYt6+v3b2Tm0Y18vOvTdAhH+hYht3ucP3Cp7CwCwB5wASDR/0brF0Wjk/HznNLCjyZXaRX5PMxExhH9hynDGR/X+3pQPZC8CAPaAAiDJvEVrl0WjkXNFzdvLjiF3eid51UaEfwHinN0TGTz1Jdl7AIB94BKAyTjnyvyl61ZFo5HviZ69Jfk9qt4SRPgXGEa0OhzYc6/sPQDAXnACYCLOubJgSd2qSDh8pujZqVSatmx9nz7dF6AMV6mfb4/ohwALYkTNXGEXec/5/Q7ZuwCAvaAAmIRzriSW1NVEIqHTRc/OhX8qlSIios+TEWrNuukw3+cdvUIQnOHH4UFT58leAgDsBwXABJxzZcHS9bWRSPhU0bMPDf+c3akQNWb8dLj/c2JMzIcIgbVwoqcig6fi6B8AegT3ABjs6aerXYve3rApHA6fInp2e+Gf81FTH1q28yTKcvwxOw6n6nBj6y9lrwEA9oUTAANNn17nPvoE18ZQMPgN0bM7C/+cfWk/fdYaoyP8u0hT8vskQbCML3TiF/oufHSX7EUAwL5QAAwyfXqdu8+RbFM4GDxO9Oyuhn9OS9ZD21t60eH+z8mtZESvA+bSOaPvRwdPq5a9CADYGwqAAb4M//pQMHCs6NndDf+vvk930ceNfamPdw/5tO59L1gIZzdFBk99QfYaAGB/KACCJRKJYDge2hoMBo4SPbun4Z+T4Sp92NSXIu5mCruaBW8HRuNET0aGTP2N7D0AwBlwd5hAiUQiqHj6bg4E/YeLnp1v+OdkuUpLd5xMdXv6ExHh5QH2MSecDfxc9hIA4BwoAIIsWbIkpHj7bQkGA4eJni0q/P+L0Ya9x97BOP8hI8JRgNUxWp9JKj9kQytwAwcACIO3iRFgzpxl8WA0ttnn9xeJni0+/IkTo1+Vl5Y8RkS0d9HN32XE/0lER4p6ABBqm6ZlzvEPeOQT2YsAgLPgBCBPM2ZU9/JHY1vsEv6M81/kwp+IKDL4wRWU1c9kjN4S9SAgzA5G+sUIfwAwAk4A8lBZWdvHH/Fs8vt9MdGzjQh/TvSzieNK/tDmb06/Qm3oe+ydjPE7CcXQCnaxLB8aGjptvexFAMCZUAB6aH/4e+v9fm9U9GwDwl/njMonlpY819kXNiy6+TIi/hciEl5qoMu+UJgyLDjogVrZiwCAc+GZXg+8VrniqEDUt9Um4Z8lzq/tSvgTEYUHP/iaxrNSPfrHAAAO8ElEQVSnE6PFohaAbtnLdX04wh8AjIYC0E0zZy49plc0ssHn84REzzYk/InGl5eNfL473+Qf8vDHoUxgGGc0+csZYI7dnPGLI+c9tFL2IgDgfLgE0A0zZy49JtK7V53P6w2Inm1E+DPGyiaUFr+Uz5B9C24eqiv8eUYk/I2N4CDbWJaPwDV/ADALTgC66I3Kd461UfinOfEx+YY/EVHovAcTGXfrKcTpGRGLQZs2ZhTlXIQ/AJgJJwBdMKtq9UnRcHCVx+vxip5tQPiniLEry0uLXxM1MGfvkhtGMF35ExEJf6fDAraCkTYyNPi+nbIXAYDCghOATryZWHlKNBKyTfgzxq8wIvyJiCIDH5rNSDuDE/3DiPkF6M1Gf2Aowh8AZMAJQAdmVy0/LRwpWuH1uD2iZxsQ/kkidkX5uOIZogZ2ZO/Cm4oVRk9yoqPNeDyH4Yyzx4O6/wa8vS8AyIIC0I4Z89Z8tyjiX+Jxe1yiZxsQ/s0K55deWzayStTArtheXeEPNjX+lhi7kfDJkl21jxGNDw2e+k/ZiwBAYUMBaMOsxKpzYqHwIrfbbYvw58RGTRxXPF/UwO7au/jGs5nOniBGZ8nawSbWcU7fjwyZukX2IgAAKACHqFy4YkAkGF/gcrnsEP5NjPNRE8pGJkQN7CnOK5TGJc3lnPMpRCT8cxHsjhG91NTCJ/W7eFqT7F0AAIhQAA4ye3b1wGjvSMLtdmuiZxsQ/nsZ10dMKBv1tqiBIjRU3VbE3ZnJjGgi4bIAEdEuRvxnocHT/i57EQCAA6EAfKmqqubCQCw82+3ShIeWEeHPFTZ84tji5aIGitaQuOFEUpW7iegK2btI9KaqsEmBgQ9ul70IAMChUACIaGbVquFF8dibLk21Q/jvIa5fXF42aoWogUbas+DmC1WF38+Jvi17FxPtYMSuDw1+8FXZiwAAtKfgC8CMuSuL+xQVvaG5bBH+uxnRRRPGlVSLGmgGzok1Lrr5cq7w3xGnU2TvY6AMEXuOstnbw0Mf2iV7GQCAjhR0AZgzv7okFo29oWma8DdEMiD8d3KuXDCxbMRaUQPNxnmF0rCk6UrG6VYiOk32PgJx4vQa6frt4aEPbZK9DABAVxRsAaisWnVlrFfsZVVRLR/+jGiHotAF48eWrBMy0AIaltwykHT9FiIqITv/d8hpOSP9ltCQhxbJXgUAoDvs+4M3D7Pnrb6qKBZ9SdVU4f/+Bjzz/0zX1fN/fM3wOlEDrWTP4hu+o+jKdcToSiIS/kFLxmGLOOcPRIZMnSV7EwCAnii4AjC7atXYoqLYX1XVFuH/H0Vh5187tniDqIFW9fnyn4XdSc9VxJSJnPh3ZO/TjlZG9M+swh6NDnzQVvdhAAAcqqAKwOzEqkm9ovEnFVWxQ/h/TEwdVl46fKuogXaxb8ktJ5OeHa1zNpoxOkP2PozYKp3485ypL0YH3b9b9j4AACIUTAGofGv1T4t6x//AFGaH8P8oq7Nhk64pflfUQLvas/jW4xRdv5wYH0ZEA4kobMLDponY28TpDZ30f0WHTHvfhMcEADBVQRSAOYma63vFYo/bJPw/4JQdNnHcJQidQ/DpV6h7+/U/nXEaxBidS0QnE9E3iMid5+jdnGgV43wVJ7YoqQcW9Rla0Zj/xgAA1uX4AlA5v/bn8Xj4UUWxwbE/py1cZcMmji3eJmag8/HpV6h7j+jfn3H9m5RVvkmM4oxYkIhCRDy6/38pw4maGKe9xKiBc9bEFP4RI/6equvv+oc8/LHkfw0AANM5ugDMqaq5vah39F6FCX+lnxHP/OtdXD+/rGzUJ6IGAgAAtEf4h95YRWVi9W+KYtF7mA3CnxFtIlfm/LKrLsV7xgMAgCnEp6MFVCZq7iqKxe5hivXDn4g2Zpg6bALCHwAATOS4E4A5C9b8Lh6N/paJv+QvPvwZrcmq+oWTri7B+8YDAICpHHUPQOX8moeLimK/YuJv9jfimX+NiycvLCsb/bmogQAAAF3lmAIwN1HzaDwe+4Utwp/RKkqqF5WXD/9CzEAAAIDuccQ9AJXz1/zeNuFPVJ1S+IUIfwAAkMn2JwBvLVjzl1gsOt4W4c9oqZex4rFjixvEDAQAAOgZW58AVC6oed424U+0mKUyIxD+AABgBbY9AZi7YM0L8Vh0rC3Cn9GipMdfcv2YoXh7WQAAsARbvgzwrQW1L8fj0auMmG1A+M8Ne5ouGzOmpEXMQAAAgPzZrgDMW7j29WgscokRsw049p+jZvyXjyktaRU1EAAAQARb3QNQtXDtm/YJfz5LzfovHz9+KMIfAAAsxzYFYN7itbNisUiJEbMNeG//N5v3KKMR/gAAYFW2uAlw3uK1s6KRyAgjZgsPf8ZfzTT3u3rSpLPSQgYCAAAYwPL3AMxbtHZhNBIZbMRs0eHPOU3fdlTgRxVDz8oIGQgAAGAQSxeAeYtrl0QjkXONmC3+mj/7+ydH+0orhg5F+AMAgOVZ8hIA51yZv3RddTQcOdOI+Qbc7f9y2Ns0bsyYMVlRAwEAAIxkuZsAOefKgiV1q2wT/pz+tO29laUIfwAAsBNLXQLgnCuJJXU1kUjoNCPmG/BSv2e3vV/9k4qKCl3QQAAAAFNY5hIA51xZsHR9bTgcPsWI+cJv+CN6qry0+DrGGBcyEAAAwESq7AWIiJ5+utrVmNyzKRwOnWjEfAPe3vfh8tLiXyD8AQDArqSfAEyfXufufSRtCAeDxxsxX/w1fzatvKz4JjHDAAAA5JBaAKZPr3P3OZJtCgUDxxox34C7/R8sH1dyi6hhAAAAskgrANOn17n7Hsnqg8FAfyPmG/DM/4HysuJbxQwDAACQS8qrABKJRFD1KPWBoP9wI+YbcLf/XeVlJXcLGgYAACCd6QUgkUgEFU/fzYGg/zAj5htw7H9n+biRk0UNAwAAsAJTC8CsWcvDijdSHwz4+xkx34Dwv718XMl9ooYBAABYhWkFYM6cZfFgNLrZ5/cVGTFfcPhzYvSr8tKSx0QMAwAAsBpTCsCMGdW9/NFAvc/vixsxX3T4M85/MWHcyMdFDAMAALAiwwtAZWVtH3/Es8nv98WMmC/8mT/n/zuhbOQfRQwDAACwKkNfBrg//L31fr83asR8weGvc0blE0tLnhMxDAAAwMoM+zTA1ypXHBWI+rbaJPyzxPm1CH8AACgUhlwCmDlz6TGRaGS9z+cJGjFfePgTjS8vG/mCiGEAAAB2ILwAzJy59JhI76I6n9cbED2bSHz4M8bKJpQWvyRiGAAAgF0ILQBvVL5zbCQWXWeT8E9z4j8sLy35l4hhAAAAdiLsJsBZVatPioaDqzxej1fUzAMJDv8UMXZleWnxayKGAQAA2I2QE4A3EytPiQZDKz0ety3CnzF+xYTSkjdEDAMAALCjvF8FMLtq+WmxUKTaJuGf1Dl9f0LpSIQ/AAAUtLxOAGZW1p4difoWe9wel6iFDiQ4/JsVzi8tLxtZJWIYAACAnfW4AMxKrDonHvIvcrndtgh/TmzUtWUl80UMAwAAsLseFYDKhSsGRIKRBS6Xyw7h38Q4H1VeVpIQMQwAAMAJul0AZs+uHhgORBIul8uQNxESHP57GddHTCgb9baIYQAAAE7RrZcBzp275qJQUWiW26WpRiwjOvy5woZPHFu8XMQwAAAAJ+nys/iZVauGh+PhN12aaofw30Ncv3ji2FErRAwDAABwmi4VgBlzVxb3isXe0OwR/rsZ0UUTykZVixgGAADgRJ0WgDnzq0ti0dgbmqYa8smBgsN/J+fKBeVlI9aKGAYAAOBUHRaAyqpVV8bisZdVxfrhz4h2KApdMH7siHUCVgMAAHC0dgvA7Hmrr4rFoi+piirs8wIOJPiZ/2dZXT1/wrjhdSKGAQD8//buJjaKMo7j+P95pmyn20KlL8SExGjixYSTIfVCjNsC1gXbeBkElyZLaUgkxpPhZGjC1QOJcuPUA5h4MDEGy0slUi6N3egJBRJsFJWYpov0ze3uzOOBsIBs2LbzXwvs93PcPPPbvf1mnn3meYBnXcVy/+ZCLtPevnHE856K8r9lrek5kElf0QgDAKAePDK1PzqWG+pob6tx+d/QKv9fw8hso/wBAFiZh0r+7IXcno0dbac9a2tc/kWNuCkvtKls9q0pjTAAAOpJuei/OjvxUmdH+7XE07HD35STsHtooO8XjTAAAOpNuexb16//trblr/Tk7+S680z3UKbvZvwwAADqkxURGb34w+GWluYXa/EFmuVvRH42idIbQ5k05Q8AQAxWRCTpNx2tRbjyf/5XbCipwb39f2iEAQBQz+z587lXmpv9Tu3g+//5q5T/T6Hxtmezu25phAEAUO+sW2c/WuGhgFWpLvgz8mPYEL1+aH/vn/HDAACAiIhtTCR2aAaqvudvJCcFr+fQvren44cBAIB77LqGRJtWmOq0/93y33nwYO9M/DAAAPAg6zVYXyNI+T3/ySXrdlD+AADUhvW8+Cf96W7v6y6bYqn7/fd25xXCAABABTYKoyhOgPJq/3FTDNODg/2zGmEAAKAyWyqVVv3Yrrza/1LBT1L+AAD8D2wxDG+v5kLl1f7nNjTO9x4OUnPxwwAAQDW2WFwaX+lFytP+o14p2R8EwaJGGAAAqM4WFgufreQC3dX+7owXJt/JZlP/KIQBAIBlMiIilyeuzjY1+S3VBmvu7e+M+bK1ce7dIAhU3hsEAADLZ0VEFhbmT1QbqHuwj/kiWti0h/IHAGBtlA8BGJ+4mk82+c9VGqR6pK+T07+9kBwYTqVKscMAAMCqlDcBunP77/4oitx/B+gu+DOfU/4AAKy98g3Arje7LuVn8kedu38PoLy976kN/lyG8gcAYO09tA3wzu5Xj03P5I+7yKm+529ETty88f3+IAjC2GEAACA2U+nDM2OTH0xPz3y8VCh2xsxfMuKODA7sPh4zBwAAKKp4EFC6Z+un8wW3xYmMiMgj6wKWxci5KJTXKH8AAJ48FWcAHnRy5Ost4syHxkifE9n0uLFOZNGKjBkxnxwYSH+n9zMBAICmqjcA9wwPD9vNL3d1GRdtc042G7HPizjfiPzuxP3lxJts9WcvsqUvAAAAAAAAAABPgn8BZ6lCJVvBU0QAAAAASUVORK5CYII=;rotation=45;" parent="Ef5aAg3daOjvYsMQ55Ko-1" vertex="1">
                    <mxGeometry x="1962.76" y="720" width="64" height="64" as="geometry"/>
                </mxCell>
                <mxCell id="0" value="" style="shape=image;verticalLabelPosition=bottom;labelBackgroundColor=default;verticalAlign=top;aspect=fixed;imageAspect=0;image=data:image/png,iVBORw0KGgoAAAANSUhEUgAAAWEAAAFOCAYAAABXBaw0AAAWMHpUWHRSYXcgcHJvZmlsZSB0eXBlIGV4aWYAAHjajZppdiQ5cKT/4xRzBOzuOA7W93QDHX8+C7Ja3f2kGTGrkslkZATgMLcFwXD/8z9e+D98tdhrqM28j94jX3XUkScvPP58je85fd/Tz1s9/b5K/3w/1PvzMuV//uLP9zT/+X79vUha/z7R7y+y/+tE+edb0QV4nerPzzZ/T1R49+8n+mvIwy3W//qF35/vZ/85YdH/VibfE8+51Bx57bxOpYWfbzrTb1FM4//9sD6aC9UY6e/vf2MsejH/Oj78foCRlq8g/12dYv7n+38VvPzX+9+J/hT8r6/+nT19V01/e+//Ufzw7+r//4r/Tetvtczz51Xg7X/8YnjKfx/ce8ffu98BddYO1voviv5M/udEHLgYhybRmEr9HoXXP6/a9+iUdANT+328uHiMuFOKL2UeKfBCXyX1tJPxvaaZ2vee83vnp8PjfY+SLOdcc043V46/vHd/hhKqivpzXfuufLmyx8tBlZPVdP93j/C/PfC/e7wntDI9FijY+HqUcWUVmdlo2fXMYSxCOr9rlj9ApH8B5c+XBaYzvqJ6VPf8fry89Gep27eqhePyd6QK8U9869M9cG1jGFlVpsalU/HoqaqmTmuU3HJqPVv2DMekRY1fzKUUK5ODSvOy8knh/ZmCf4Mu/+Pg/4xCEMk/n8k9pd9ps/wabP3ThP/6kCpWKN6HisgoGR840Y8GLlj9d0QrO5YfGvn5QFJtYryFWURX6f2d6nlyyZpyvayRj3THbaNYOm+Bu1bz6rOm0KCYvJ6PzW93Blt+J0e0PfJIbz/wO84sa1hthfMBz7J6G+ON0cea52yumcPkDe8ve2/tjFHTGeWtanmW2/YsvHVqvZkLpjKs1P3O2DDYfbmfOc6YdN894c5eqDPTbixsXm3amsz/pfHmY3LFr+dV+Hi1eu+oXvNdpzCp5blHPu75nPCsdyuXprbd/LVWy9v3WjYrh3bxtf2MZCPX7Y2mq7PUAxI444grQTfg4tawLPM+ZVGZLnBaO/XVYKm0Yz6TStfX30l33/Ke735ZiZuZX1tZEDv5neJhTs/Z7u7LxuFFZ7W9n/asilMtWX8r7z5Gg2FXa6pWXnZeWV7ygXFuX+WG7laypesTaukwxxwFuOaOjOxTx+s9ncoZzrJu3Sdiem2iShS1Iah1ckQuYY1OCY0BzMlsWLC74mPkNpgg80iVAdR8aBk+ZQA73do5IKc+5h4zv253BpZ4+auvrjit9Ye6HY0fUgA712mtPXZ988K57hNg2KbQt72RF8N24DR3D2OdfWY/FsdsbSfws+nHDDoGhcuNA2sEfHHeW+aset61MKYNRu/+msBF/rmO2SlF6xPSXBx6QFIp22hxqEEwH5fCr/TTAJd1L/exsGtAoltd1IL0p9IcwIHueL0twNCp1NylXzAGvuNyRu91vXJni0+DfCwJk7foZTSzFlI5TgkLfUNHf9/4AKsFemB+hrrUmN8Q6yreqkpxcmFoy+yVufZa2YJWglUG0ydR9pNp5rWMAcy0dzultb4HYiAmZZC1bwOSEVjFVworXHwzk8CAfYIPUJAz45htDhAyT92z1+QN+kg00HTb/Hy9+s5W3qRb+p5g/6QuZPcj4LDyRtH6uXmzwg5TABjLm8pS8ESTi1QE/NS41FwApbI+92ix27EAn2QfzxY4KGv2TSX8MB5mDipZ+Vm8XrveM2iCqEejirvR1+OmYXdYmx0T8WgKKrEA6O0tm5qyTKdjeXbYp9iCdwbkgMAyNLj2sTATHLzYOwN62zxQ3jXA6d5wZ7TtfgUOtd3qpuoc+LaK7YFZSvTmXvc4+t6mdIoF2Qw0jP3UUNt3edS3TbpwuHfYJM25al8RMoVZDozs6jiAcPJ2W8CGgvpztxPDZfURB6iRVk4TBm9ngpb2osrUiyiO6tTqsMC4J7EyVgF9BxMNvBZGX1egQWkM+qhN9DAuWgUWF3aet5SRjGyjsgwDOdCgBZyHeel31jVh0WSFJQzYDz7RAH6y13btSBBNR4fDfq5i2GTVqlpkAArA/WbyYb0B9VuctxD6Gwwy3wsebK8xxFv6bpRxONoCL0FisRtVuKAAqoULUbbSACScA3DX3AeqGAFF6B3WNlp6M/5HCdbS0q1+8HxgIs2X2rkX6hbdM35A35CalXqhLw806kSIVs5DKXasNP68fuuq71bmpSHl0lk0xOq9uRcd0EDdB0iMHebM985uvgJc7oN2wnZsppGoKxQDq12m4/X4osvpI28r1ZnkSgrIb6xYAfXeE4yz1gtDVopC+b7rIsF0F+P2gk9Ar/rhsoCaCQBbpOciV9EuJ3x5bqN/ueCsWv7se0KviD2KWPZoC0drzI6Foo85/6PbafSj+qeNAaCsKpXYv8g1IUw5oKUv+Ur0PE2FQYNdoCp4l1a81vClYNohufKKZp5HmwhCqQ5dgv9teG9qRF4aTBykDErkaBunZUYVFqx2OScGilqjKJwgr4QkYySwP7PL4lD1nFiHUN4tSL/BHzT2Qd8j2oZ60Br5dPCM32feqwEURsN5aEw8VlYoYD7ICXVKAVk/fQu0kk1YIe4VqTdTS71VVKohbREw4xtH8musaroHt4T3yhf+h5l8YLSo4229n3UjcHx4+gEIedqiiUyrU5nqKMm9UHolpLH8dYwJKa4qQ0a3h4mq4aqYr+h0RiOy0NKYJexQRpuh2EUlsmPGGNGB5sp8A8eEcaayZ0GABz5iROdEAAFV6QTQboPpWD+c0CFu0Vq7G2Z17VcVN+HhgebPeOmWmgqB5+Xw0QFtUvnYvoqi9HO8iM4XEaGTi1CVwVAqEg4dMCkEia48mBraD9tN73wtApsjLZAQKrM7+p59mbS2bfwwLbKkG5KeAQM+FiEz5l4LDggmm4pegfwNx9PqW7WgMTBA+3K2hbhnmhzCWqXTehQAe7speoNqq0/EiLWQgDGIMFuOtDSqFilsVDKAM049CwO3SxxZ2ABT9DGLhI6iIYMjur3xclq1GAwzMRGLLqvIEN43YvIcdJxJIMHIyuO+OLY1zHU6E9PVgUqeEjhLS3Iswh1GsS/rgjvD9wCXwehWOYjbOMYcO14onnK0+suBIzXorrY1kSimyUrbKGUPsK69tOZ8G3t+7HAy0WMVWduGrE+VgxLKUJ2HsrCQeHVmjIV72BESc+2BysMy9BteDRsAJicjOFwLjcG3D4O04SasPuTiIAsDj/s8Kgl4eQSRh94HkgczZIKgAl9C68Bxeb+tDIF0PVZ3q01obeCJDaQxUCMK59iVg5Kj0Mkw7E/m4+bF4kMxKA0QgW83JIIvodNbBllt4L82ogcVmLLF3rb4OeFU6eEdRi94aqkjdACYMGbwaHvkIEiH9FBIDFdRTxmLODkfDAQJ0AGRia0j9jJoBHzJkq8Om6sWmXxGLwls2igY79U2aY3U+D+JGPgB/ZrAhInl0wUjbpXlP9oCGSAPEw2SWkxfEntYqrdP7xlTgtYBr4oOVLzww3BMmmcpBMKUQCqFcZBTw86Q1LQgtfP8YmWAtDNzqZ0jD5rqTJqFYRAirPrjkgkcB9YahRENCtcnMMS7xo8qUSUSBLYX+G8AU+Dy1fCPZPaOm0RYiUbQ45uVDnQzit0kLo/YgdwYdsAYtmR/YFWv0ATvXbX/wvW1QeOTBTL5BQYo2F96CnnJK2ACQOclE/jTesoRHHzLxUsoOSmFNIwhstpxpQtRrzXTNy7P1z+X93p+QdYCYGHvkJr94GIMIm+AYenlm+2PhaGDF806vqogOxSQsHzQeILcCyVjgPFmBIP6qdVAdqgyqsQzMttLpNkhVaEfFjp0n64NflQnrr8J8yVcONe1NYRuY2IKph65IJHgW1nuQQAHH9ZooAq7EBxgS7OeUWUYF66JeIlqIeVtpJQs74rywYym9IF3IVBgJzFzDZFGLvrEBTZUB8rC7/BSjDUf0r8LtmY8NBsYshRTMo5SPBZWzouABeFlxW4sMxwmHSbyT6I7RAWuwAcMirW6IW0SMIOh0NCXDXLiVsCAnWFTFOCKZhkWnbTA51zUsMIpKQI1TsmaE9JuYJprwKDE0NVHjhc9qlyM7kO6le+Qd5rqgHHWbSP6AHoM7dRIKTM6aXhqlBZRau1yCVw+XEhMRCZIjog/kQUf6YRCMHZoAjT1Ylo7rqErR8PY0MvOiShqcZJJ/EHS+OtcaENqRPvRU8cRIsUBVIX5Iqt0qTlakzExYzzs693fXgwRgq5/5IUDKPem8MzJCGpyhP3b/wES1KthHEgbEwpiAtjOyXLIXInHJ4bdsNbaKLh44Oa0Lc6HyEIUxnD1b30BBbmEyEf0BtVP24/DCPnaAmlwLS4zlEMjnsnCKNKdHOEtPCYlZg1sMPEDTqu2v1ifKiOvnS0EJGOADlTa5SZrWHKsKIvhpJBkOMvoFoe9WRkCeoUTtiIEPyIxtBV+Aq7AOR+4Gz6Q4W8tKIASwlh5DCzB68D3o0A99I3R/TTS5fTpEFbt3EJkQQRQTthmKQQU+BfSCOKwnYv3AicbouyHPiPnI/1oMOkE0VMyo7qPQqmxBxluErgBAPqDcYYGAyYANaLZaCiiBd8IhVpEZI1m4sqohHJbwp9ugN0wCOAHK0h/Gq4L64lU4kbqR6oLdaebrkhlfeJM9D00+cPXTMABKeL+OAnCoD1roq3oVzvjqKIFmoNW8CLGoq7IKaS4yLPt9kOPsMQVJ+Qy8n8NNuX179GFc+0zhRp4BdlmjA6Xn0kqE4xv0QGemKvBk6CbmoEB7ed1KBhRQiOZQTgic2ty/Y1mvcgRFoBcwMIB8PSaEYwkETDa4iRlYrqRaQrwprY/IXuchqyfX1AM7T3oaOEQKsHFdTNkHHgW+zfk9YuyF1Qjg0D/gWkWFh+syMHqBuLM7tpcuAq/WVmYrqKYeAoGhA/eWITm6CjXQQEpgDaPEex0q3wmagMnh8cPTXEht4dP4fr3aW9yIIJZREi0ATEDMOZaRYCU+05sDtxEDTacB2tZMAyzQqqjPMDiLb5EkXR6xQgbUII7EkoHptoblBAvtlRYZoE1wNjAso/ghz29RR1ouCPmkrSpivluhINNXXEgAzRhT1Aa4hCVYO3glHV1wYYenNiCG7pMtEaCEEaIyrH8+wowCsdNz5QFwsDF+8JQUP8r+3kRTgSVJHUnOCIswb/aPIMasM0NLC8uU+XCsxhIqfCykphWZtR2JxaYNn430k1lZVmgES5IYqnMWJs3akmUcMoJauOYF7ggJsckNuy0UBy6CM+B2hX4CrIofHR5gAkRtKzdpklcQ6bo8Puo4SN1HCCmRLdcZaTlWM0pa/xzKwGxRDJAmZegzTAEWnvdhTQmYcdc4DIMTifJVSGSIsBHqDyMg4BoE4Z5aI/JSfoNNwEf7dtcbEEnvsnwSCPE0ydvCrNmWscYh3F9wKhtWnEOkqp8OHXDqSkyomu2fzZh5u8mzPhxMNBlpGnKRcy1lc4UB1yy6CVkkPTZMFlUTm90uFc7o7e2A1GjNfiDfuGgmyfpC4uFHeOaHNgZCr6TSzCAqK2PvEXROHskjwSC9WNSj7WkjU3mlkW7jxEy/CZfaQOBJdwsEE3nZe0gIbfaTNRW3OCopW2f+jy//WnWIfoQ9/EIYz8NRreQlramsRRxJRKpNkMJG8IVnDPRjPHjCvBHfYIqhb+sqGL4EDLDOrAuhhVa5ppFJHl1S4nwNpBeyJBWjKg3vAzb0AiyNVcwXNoXI+vyD8/6SMhPOhOF1IErIe8SDA8Dm0d7cXSYtmML57hQqQXwC7CoI2fCQkxiOypNQx0tdDHk0YlwC8VVrmG9yFUR2uSSkKh8ILF5pQA5VwgB4iIyEmzBJo5bcL4wNTH54Qm1nwgoV4eALg4bMxknVEGjy7SmFHFsCXnQg66FiDCqDq613TzjITOYTCRiXEB+78CM1qc+xEhOsTEEJuOVboBmKRocJE7VmqsDGAGT0sqCzEaAf8TqAh/3yBpxTlYZAotNsYvk6RAbaS9pCwcu1F4LJILwvSKfMOCOmru2t4nMxH8C/lQIb7gnPBR2ijQLBJCEFKghY1mynISyzVJfdAazRcalAgoNWNMi/hbzygw8vCPti9nChxeb/RGeA8uxjjSKkdMJueO/48YdbPQemwHd1vpoFEwy0Z8lp0G043wWXv1uUDe1GR+OIPftMM9KjMIITZwYKjZp30UNbmdGjnA0e5t6akyov/aONqpMPU5t8YR8Etzt2k20hMDrAlBHJg6Ad9x8u0Xbg0/74MoqdscikRHHU/32HLCYiHHIZAgtPL1DD3Ica0vGaGhCgQkNvTUFHbIbnLAlCCBsqZEa1Scey84o+FFZbK9Kxpg3OrWxKYmeGEAbq0F58IXYA0f7iG6X0mtK2lu9un/bDxnohgeXwAOna2vdB5rg2tJBR7JMmb5F7WQOujvigcjujzZZrjo93SlmEbF92hhf3x0pHILrTpM25snIoBVTmhPhB36AQJe2ixYQZdyNSXTdIOzg+ttdSsEk/DGdbw8EXl26VztxPDhWPLAoEiKuMtzayKmoAj2Mya26DaEUxGpAWPjs8kn0jLfp5iz6O0eC3uhdVIfwAAXhTeCQwQzoHHwIR0VJSUGmfCZtfwfMpOH+/XboHR+Gnc54aO1zVN12zOPP1rHj3+pDfTkYsjlF9vK7K61oENpOUIriwJVjfvHPrdW97YKIDNZ12wytibqfrT8USHC5y3nKSVLp3mcir1XYvi5YGJTo1kDSveinjVzK+bRHXGLXvcT6UQR5IwL83eTIyBfahqB8oU+nzBUrdxP0PA5yBhsPCSKqTduqQQujhlzoUCIhelzJeN6BAU63fbEwPDknQmSMGCTSF5PGt6VtCbLEI8nemxagd6XjSaUMribkkbWutoOBPp0aZISNRmr0JZDHFRcuRxdrv4iR6vZevYgL+eAs6bjBwrrPIN3fEIvuPZNpXbdKtZ2OracZKmRmrCBIZwb4qP6ibgY9tTlsipGAbYC8c0UACo1CLddVox21nQaFkLrRmkHyp4E4T9fdIJwT68j6W9PfR1TehbHrvqZGQ+CGLo9h104OarVE/pxGu0lEO5LDnzuw37Z20r8YqeKGxrZ23TcYRcnoVWw+xcYwwSxLBnLI0pMMiX4dYtOfk1wiEMmsT4Xsc/WXAgkZY93XuFgsREC2HO4KdFxSYTPXyzhsLD6iomCMZcSEDrxzJH2yaCtCrpMEwgJM8IlY4nwurZFIR/iB2ux8d9nI31Q+EYm2np1FKmq8SrcCGxS3DnUXac9xG2R2UPXtB45IzOqiAeaD1/GJH8A6Ot5k4/GRd+1ZYFDLwrXvsmUecIv6EwCgQnb+NjmZcdiKJgxUrYrk6w/CYEAX3yUwg/Zj8BEeLACySCp5yhnwWVfM2BjdgnO3iImQrbax1rv3gyE2DO7b3+2HCVsSGaku7gn2ZH06dvg0KdFo+hOOzixI/AGq120FMh4SlY5u4Wjb3CUgjgGaAFt/GEBiwg1iLuhH5//C0BGYl3ZhyH4tDNwFjIQ1XrE2/bkBFgeCafsXPVjFX/4wjMkI/xdipoDCW+t2dAAAAARzQklUCAgICHwIZIgAACAASURBVHic7Z15fFTV3f8/3ztZIGCIkEASEjYhJJlJiIBCoGwqxl1Eoda6PRWl9lGrrfbxqdXa9vGnba3aauuKe9WC4r6gIqsEXCDLzISEnQxJIIRlgLAkc7+/P8Kwmcx67z33zpz369XXizp3zvnMhbxz5txzvgeQSCQSiTBIdABJ7LNo06JuGSkZaezj0xVSUol8qe0+9LQRerCidAejGzEnM3EiWEkAVAWKAqgqAEUFqe3E1MZEh0E4BKBVgdrKsO0DY58twbdX5YS9CXsSduXl5R0W/XklknCQEpZERUVjRd/kBCVX9XGOqir9iShbIWSqQCYBfRnclxh9QNTTgDgHADQz804QbYfK20HUyMwNiqJs86k+j0pqfUlWyQ4DskgkISElLAmKk51J1ETDQL5hDOUMAoaAeQiIBjF4EIG6ic4YBgcBbAHzZhBtZGCj6lM3qIq6PqEloc7hcBwRHVASX0gJS06ibmdd6mHfYYeNUehjFCpAARMNJ2Cw6Gx6wypvhkI1xLyWCG4fwX048bBrdO/Re0Vnk8QuUsJxTk1zzXC1vb0EhBEMKiZwEUADROcyD7yVQdUErgKj0qdyZXH/4rWiU0liBynhOKO6obpAsSmjmdXRBIxkYBSBuovOZSFambEGxN8T4TvVh++KsotqRIeSWBcp4RinorGib6JKpbApYwCMAeNsgx6SxQfM+0H4BsAqBq1Uoa4qzizeLjqWxDpICccgrkaXnYnHEzAejPEgnCE6U7zAjA1E+FoBvvYlYLkj3eEWnUlibqSEY4SahqpRPkWZBOaJBEwAUW/RmSS8ixnLQLTUZrMtKcgo+F50Ion5kBK2MNXbq0cQ0zkETAHzFDnNYGKY94NoEQOLuI2/KsotqhQdSWIOpIQthqvBNVBV1KkEOg/gcwmULjqTJGx2MtSFDPqyndu/PDPrzM2iA0nEISVsARYtWpTQL79PGROVMaOMiPJEZ5JoRi3AnxPzgoLMos+IyCc6kMRYpIRNTE1zzXCfz3cRmC8koqmi80j0hRlfgPCpzeb7pCBjRK3oPBJjkBI2Ia4m13nMfAmgXkKkyJUN8QZjAwMfEdFH9kz7l6LjSPRFStgk1DTXnNbW1na5oiiXEnApALmBIs5h5kMg+gDAB/u9+z8cmzfWKzqTRHukhAVTWV+Zk5hkm8bMVwB0jug8EnOiqvyVzUbvttl8741IH+ERnUeiHVLCgnDtcA1jn+9KQJlOhLNE55FYBf6Gmd9t96nzS3JK6kSnkUSPlLDBVG2ryldsygxiXAVCseg8EmvCjCoQ3k6wJczLz8iXBYUsjJSwQbh3uPNY9c0E00wQikTnkcQGzFxNhLmk2OYW9i2UI2MLIiWsM85tzgGk8NVMuJpAZ4rOI4lNmHkNAW+xSm85+ju2is4jCR0pYZ3YtHtT2sEj+69hla4BYbzoPJJ4gZYTqW+2H+I3iwcW7xadRhIcKWEdcDY5f0LATwFcLDqLJG75mIF/OzIdb4oOIgmMlLCGOBud5xDxdQBdCyBBdB5JfMPMPiK8xkyvObIcX4nOI+kcKWENqPBU5CUlJlzPjBsA5IjOI5GcgocYr7CNXrH3ta8THUZyMlLCUcDMCTXbnTcy6EZAzvtKzA0zVkDFy811zS9NmTKlXXQeSQdSwhFS1VA1SVGUnxFwvegsEkmYvEqq+mJhdvES0UEkUsJhs7phdUYSJd0EYBbJY4MkVoV5PYPmJPGROXnZI5tFx4lnpITDwNXguoiJbybCNNFZJBItYOb3iPl5e3bxJ6KzxCtSwiFQ1VTVLwHKLQzcAvngTRJ7eAh4rh3qc/KkaOOREg6Ce3v1+Qz6ORhXiM4ikegK4V2C8kxhv8LPRUeJJ6SEu6CisaJHIttuBdGtIAwRnUciMQJm3kiMp9vI93RJVskB0XniASnhTqhprhmt+tr/Gx1LzySSOIRfVlT+Z0F28Xeik8Q6UsKn4GpyXctQbyPQGNFZJBKRMHgVQXnKnml/XXSWWEZK+Chrt61Nb1Pa7lCIbgeQJjqPRGIKGHtU8JOJPRL/kZ+av1N0nFhEShiAq9E1BlDvANE1orNIJKaE+Y2ERPr78HTHN6KjxBpxL2FXo2smg+8kQqnoLBKJqSGUg+gJe1/7XNFRYom4lfBcnmuz7yi4i1W6iwjZovNIJFaAmRtIweOFfR2PE5FPdJ5YIC4lXO2pziUb/5pI+aXoLBKJJWE8ofr4saKconrRUaxO3Em4uqH6LALuJoVmis4ikVgZBs9NsOHR/Iyib0VnsTJxJWF3Y9XFKin3EDBJdBaJJBZg8BKF+a+FWcUfi85iVeJGws4G5w1QcA8BdtFZJJKYgtnNTH9xZDteER3FisSFhN1N1Xcy070g9BOdRSKJTbiJgD8XZhY9ITqJ1YhpCS/atKhb327p94LofwB0E51HIollGHyYGI8kZiY/nEd5h0XnsQoxK2G3x92Hbb7fguhXorNIJHEF82Pks/2/wpzCFtFRrEBMSnhdS3XukSO4D0SzRWeRSOIS5mdVHx6SS9iCE3MSdm53DiXm3wF0g+gsEkl8w6+gre0he+5IecJzAGJKws6dzkK0434CrhadRSKRAAy8BRV/cmQ73KKzmJWYkXBNU2WRCuUBgK4SnUUikRyHGe/YyPaHgsyCatFZzEhMSLh6e/UIUvF7IpJHEEkk5mS+DQl/yM/MrxIdxGwoogNES01TZZEUsERieqa3c9uDNU01RaKDmA1LS9i501moQnlAClgiMT9EdIWK9gecDc5C0VnMhGWnI5zbnUPB+JNVHsK1th5C847d2LXLC6+3Fa2th3DkSBtUVYWiKEhKSkRKSjekpqagd+9UZPQ9HSkpcn+JJCZ5C21HHpCrJjqwpITXtVTnHmnDn8y8DM3t3oS62q3YsLEBW7c0oaVlb9ht9OnTCwMGZuKMIdnIGz4AhYWDdUgqkYiAX1Hbcb9cR2xBCR/dCfeQ2TZiHD58BN98U4PV369FZeV6HDnSpnkfSUmJGDFiKEaOysfZZxcgOTlJ8z4kEsNgfpZ8tvvifWedpSR8tBbEQ2baily7dguWLK3A18sr4fOphvVrsykY/6MRmDSxBMPzBxrWr0SiJSrzY8mZyb+N51oTlpKwq7H6QRD9XnQOAPjuuxosWLAKNe7NoqOgoHAQysrGYPToAtFRJJLwYf6DPavoQdExRGEZCbubqu9k0MMQXA2tunoDPnh/GWpqNouM0SkFBYNw2eUTUFR0hugokhjD621FamqKLm0z+LAC3BuvZTAtIWFng/MGIvxZZD3gXbu8mDt3IZYvqxQVIWR+NGEEZs48F717p4qOIokBvN5WLFhQgZycPigtHa5TL9zEKt0bj4XhTS/ho0cS/VnkiRiLF6/G668twKFD1pm26tYtGddeV4bJk0eKjiKxMH4Be+o7np2NLc3TT8TMboLtN4VZhXF1VJKpJVzdUH0WKfRXUWfCtbW148U5H2HZsgpN2uuT3gv9+vbG6aefhtNOS0FychJsNgU+n4rDh49g375W7N69D9t37ELLzvCXtHXGhAkl+NlNlyAxMUGT9iTxw6kC9qOniBm8hFXcU5QdP4eHmlbC1Z7qXFLwqKhTkTdvbsRzz76HrVu3R9xGfv5AFNoHIy9vAIYMyQ5r80Vr6yFs3NiAurqtcLs2Ye3aLRHnGDCgH26ZPQ2DBmVF3IYkvuhKwH50FvFc+OgeR3/HVl06MBmmlPBcnmsrbMr/G5HySxH9r15di6eefDuitb55wwdgXGkRzjq7AL169dQs0969+/HtNzVYUV6Nutrw/20mJSXittuvwsiRes3pSWKFYAL2o+/UBJ4ozLT/moiMW/cpCFNK2LW9+m4w/VVE38uWVeLZZ94N+33jxxfjvKlnYdiwXB1Sncy6dfX48otv8fXX4Rekmv3zKzBhwggdUkligVAF7EdXERPfY+9X9Kg+jZsH00nY1eiayeDHiZBtdN+LF6/GC89/ENZ7xoyx47LLJ2DgwEydUnXNli1N+OD9ZVi1yhXW+2bdfJl8YCf5AeEK2I+OIm6AQnfZ+9rn6tG4WTCVhF2NrjFHBVxqdN8rvq7Gv/71TsjXZ2en4+qrp2LkKPFf71d/X4u33voCDQ07Q37PL35xJcaNl1UFJR1EKmA/eomYmcsTE+nO4emObzRv3CSYRsJrt61N9yltfwfRNUb3XV29AX9+5LWQr596/tm4/voLQWSa2wdmxquvfoovPg/93+r/3Hud3NghiVrAfnQbETO/YeuR+Mv81PzQRxkWwjT1hNuUtjtECLipaRf+9c/QRsBEhNmzp+GGGy4ylYCBjmw33HARZs+eFnK2f/3zHTQ1xXXtlLhHKwEDgNvl0SBRJxBd03ag7Q59GhePKUzianJdC/CTANKM7vtPf3wJtbXBl3/16dML/33bVcjL0//BW7TU1dXjn0+9HVL5zOHDB+L+B/7LgFTWxetthae+BXu9rfB6D8LrbQWALsV14vbe1F7dj/3/3Jw+SO2VgpycPvqHDgEtBZyamoKbZp2rQaouYOwB0e32TPvr+nUiBuESrmmuGe3ztT9FoDFG9/3v1xfg00/Lg17Xv38G7vrV1cjMNMcPTyg0NbXg8cfewrZtzUGvvfDCUvz02jIDUpkf71HR1tfvhMfToomgOiM1NQU5uX2Qm9MHhXbjf7FbSsBHYfAqVnF7rG3kECrhisaKHolkewqgG43ue/XqWjz2tzeDXpeVnY7f/OZaZGQYPkiPmubmPfjLX15HYwgP7H7165/E7Rpir7cVLle9rtINRmpqCgrtOcjNTdd9pGxFAR+HXz7oO/zfo/uPbjWwU10RKmFXQ/XdUIxfD8zM+M09T6GxMfA/wtTUHrjvvhvRPyfDoGTas83TjIceehle74GA12Vl9cFf/nqb6ea69cIvXrfLc2x6wSz4hWy352peuczaAj6KyvfYs2Nn/bCwnzj39urzWaWnQRhidN/z5n6F999fGvS6e++9Do4YWD3grN6AR0JY/XH55RMxY+Y5BiQSh1++K8vrREcJiUJ7Luz2XE1GxzEhYABgbCRFubWwX+HnYgJoixAJVzVV9bOR8jQYhp+S3NTUgrt//WTQ66677gKUXTDWgETGsOCzlXjttc+CXvfo32631Nx3qHi9rSgvr4PbZc0jzVJTU1Bamhfx/HHMCPgozHhXJfXW4sziyIu7mAQhS9QSoNwiQsAA8OGHy4NeM3asI6YEDABlF4zF2LGOoNeFcn+shF8+c15YaFkBAyd/Do8nPJHGmoABgAhXJEC5RXQOLTBcwq4G10UMCLl527Y1Y8niNQGvSUnphmuvi82VAtdeVxa0ktuSxWtCWlFhdjpGvrWWl++peL2tmDd3BRYsqAhpLjsWBeyHgVtcO1wXic4RLYZKeHXD6gwmvhlAjpH9+vnii+C7yWbMPAdpaacZkMZ40tJOC2nON5T7ZGb88rXKvG8kuF31mDe3HOXltV1eE8sCPkoO+9Sb125bmy46SDQYKuEkSrqJCNOM7NPPgQOH8NXC7wNeM2RINqZOPdugRGKYOvVsDBkSuDbSVwu/x4EDhwxKpB1ebyvmzVsR0/I9Ea+3FSvL6zDnhYU/GBXHgYABAEQ0rV1pnyU6RzQYJuGqhqpJAITdrOXLK6GqgUuTXnzJeE37rKnZjPnzF+Oh/3sZS5dWoLl5j6btR0qwz6mqKpYvN/9Zeifi8bR0zJcKWucrko4piuOj4ngRsB8CZrk7/GJJDDnzhpkTXNtdPyNA2Hqv8hXVAV8fPDgbY8ZEf4xdTc3mDvm+s/gH/x0A0jPSMHFiCaZPnxx1X5EyZowdHw3+Gps2NXR5TfmKapSVGb6JMSLKy2vjZvTbFf5Rsf+hXbwIGABAOEOF8rNFixZ9PWXKlHbRccLFEAnXbHfeSKDrjeirM7Zta8b69YGLi5xzzqio+6mp2YyH/u/lgNfsbN5zTNAiRXzOOaMwZ07XEl6/3oNt25rRv795N6poOeKLFbS6F5YR8FGIcH2/gvRlAF4QnSVcdJdwhacijwVsSz4pw5rAo6Ru3ZIwcVJJVH00N+8JKuATES3iiZNK8O9/L8ChQ0e6vKZiTZ1pJSxKwP4dbP7CPKmp3QEAvU7Y2XZqoR/v3oOm25UXCKsJ2I/K9F9uj3tpYU6hpb4W6S7hpMSE65mh7WRrmFRXbwj4+pgxdthstojbb27eg7vufCLs981/ZzHS0zumJ4zGZrNhzBg7lizpesledfUGzefJtcDrbcWcFxYa0peWNR3MUKMiGFYVMAAQYRxs6vUAfic6SzjoKmFno/McZtygZx/B8PlUuN2bAl4zanR+VH3Mn784qveKkDDQ8bkDSdjt3gSfT4XNZpqy0/B4WjBv7gpd+9CrdkPHrreOIkn+8pj1nhbTrGO2soD9qOAbnI3OrxxZjq9EZwkVXSVMxNcBJGRNsJ/16+uhqtzl6zabghEjhkbcfnPzHixbWhHx+3c278HSpRVCRDxixFDYbAp8vs5XjagqY/36egwfPtDgZJ2jp4Cj3RYcSX+F9hQU2nNRWpoHr/fg0YJCYoQcCwIGACLKAfg6AJaRsG5DHGeT8ycAXatX+6GyaVNjwNfz8wdGNRURzShYyzYiwWazIT8/sGCD3T+j0EvAqakpGFuah5tmnSukrq8/Q05OH5SVleCmWeciJ9fY2h2xImA/zLiuwz/WQBcJb9q9KY2An8Kg1ReBqK8PXN9j6NDIB+qhjILTM9Iw/crJAa/xj4ZFEOzzB7t/RqCHgE+Ur25HtkdAamoKZswYh7KyEkNkHGsCBgAishHw0zWb1liiCLgukjx4ZP81AF2sR9vh0tgQ+AHIwIFZEbcdygh29uxpSE9Pw9KlFdgZYLOGqLnhYJ8/2P3TG60F7J/vNZN4O6PQnotCey7crnqUl9fpsroiFgV8AhcnpyRcA+BfooMEQ/ORsHObcwCrxh/Y2RXNzbsDvp7dP/Jt5/4NGF1RUDAIBQWDkJGRFnQp2s7mPUHb04Ngnz/Y/dMTrQWck9vHdCPfYBTaczFjZinGluZp2m6MCxgAwCpd49zmHCA6RzA0lzApfDVI7JI0P8yM3bv3BbwmI+P0iNquqdkccGQL4KRpiIKCQUgPckSSCAkH+/y7d+8Dc9cPNvVCawGPLc3DjBnjNGvPSPyrKsrKtPumlNqru2ZtmRbCeFL4atExgqGphN073HlMMM2H3r//YMDXU1K6ITk5MaK2Q5nDLSgYdOzPGRnB1wOLmBdOTk4MWt4y2H3UGq0FPGPmOEuNfrui0J6Lm2adq8myOU99S8AKbLECA1dXeCq0/RqhMZpKmFXfTAKdqWWb0XDw4OGAr/foEVg+gQg2ap3QiXBPlHJniJqSCHYfgt1HLdFSwKmpKZgxc5xpjpjXgo7PVKrJQzu3yxN2gXirQURnJibYZorOEQjNJFy1rSofTKb6sG1tgWt5JCZFNgoGOh64Tb9ycpdi7WzUG+2UxEP/9zKeffY9zUUd7D4Eu49aoaWA/fO/sSRgP6mpKSgrK4l6ntjrbcWCz8SsyjESBn68tnltdDuydESz1RGKTZkBoEir9owgmoOF/Q/dML1jqZq/epp/NNuVnAsKBmFZc9f/8Gvcm4HpXbxWsxmoAZYtrUB6Rhoy0tNQUDjoeJYIMcMBy1oL2Krzv6Fy4u67aCrI+WtwaDnfbDYI5Gj3tc8A8CfRWTpDEwm7driGwcdXiTu7uXOCbbdtb/Np0k9GRhoyMkpCWmI2cWJJwLXFzTs7f9h36nzxzuY9J01fpGek4Ykn7gw99AkEuw96b1uWAo4cLUTsqW+Bx9MSk98ajsG4ylXvesuea18nOsqpaPLTxT7flSAUa9GWliQnJwV83ci5Tj/p6YGnI7qaFw62KSSakXCw+xDsPkaDFHD02O25Uc0R+8/ji2WIUMwJvitF5+iMqCVcWV+ZAyhdfIEWS48egZfheL0HDEpynIyMtKDCPHXU2xzCA7toNnoEuw/B7mOkSAFrg3+OOJpVE/7RcCxDpEyv3FkptJZNZ0Qt4cQk2zQinKVFGK1JSkoI+uR/Zxdf//WkoHBQwNdPFW4oO/MiHQkH+/w9enRDUpL2GyulgLXFv2oiGuLgId1Ztja6QnSIU4lKwjXNNacxs+k+1In0CfL1v7HR+N/+oSxV84+GQ6lP0dlyuFAJ9vmD3b9IkALWB/+IOFK83taYHw0z0zTndmdP0TlOJCoJt7W1XQ5Q8DPUBZKZ2Tvg6/VbjS9QE8pqhvnzF6O5eQ+ee/a9oO1FMxUR7PMHu3/hIgWsL4X23KiWrsX6aFhR6BwwLhed40SikrCiKJdqFUQvcvr3Dfj6ho3bDEpyMsFGrzuPntYRan2KSAn2+YPdv3CQAjaGaB7UxcNoWAEuE53hRCKWsKvJdR4BppfwwEGZAV+vq91qUJKTCWXjRigEK5MZjGCfP9j9CxUpYOM4cQ1xJMT6SgmV+bKqbVVTRefwE7GEmfkSAKavAnLGGYEfhu7evQ8bN3Z96rBehFJZLRjRjoI3bmwIWuAo2P0LBSlg48nJ6RPxaDjWV0oQUTdFUUxRaheIUMI1zTXDAfUSrcPoQVpaT+Tm9gt4zZrVYn7zRzsajnYUHOxz5+b2Q1padM8wpIDFEc1ouL5+p4ZJzAeBL65prjRFVaeIJOzz+S4iUs7QOoxeOIqGBHz9m2/cBiU5mYyMNNx3340RvfeW2dOiGgUDwT93sPsWDClgsUQzGna7PBqnMRlEQ31ttotExwAikPCiRYsSwHyhHmH0omTEsICvb9vWDKdzo0FpTiYjIw2Ph7ndePqVk6M+hcPp3Iht25oDXhPsvgVCCtgcRDoajocHdCBcuIgXCT+CLWwJ98vvU0ZEppnUDgW7YwhOP/20gNcsXvS9QWl+SEZGGu773Y0hTU1Mv3Jy1HPJQPDPe/rpp8HuiGwkLAVsHqIZDbsEnfxsFESY2q+pT5noHGH/FmAi4aEjYWypA59+Ut7l6ytXunD55ROROyDw/LFeFBQMwhNP3NmxOWNZBWrcHVXZ0o8Wg09PD14UPlTqt27HypWugNeMLXVE1LYUsPkoLR2OefXh/5146mN8JIxjPvtYZIawJOxqcA1kVsvMUPowXMaPLw4oYQD4+OMV+PmtYjcAHls1cbREZoYGy9hO5eOPg/9Ajh8fWT0mrRb7SwFrR2pqZIuYvN5WeL2tmpzkYV7ofFfD9wPt2aO2iEoQ1nSEqqhTicjUR4V0xaBBWSgqDvwscfnySqwVcLJFV+gh4LU1m7F8eWXAa4qKz8CgQeGfQj1v3gpNTgWWAtaW1NSUKDZvGHu0lQCGq0qS0OnVsCRMoPP0CmIE550XvM7QvHmLDEgijlA+Xyj3qTO0+PoqBawPkT6gi/WNG4B4r4Us4ert1SMAtvQZ2aNG5SMvLzfgNbW1W/Dhh8sNSmQsH364HLW1gb915eXlYtSo8E+CkSNgcxPxlMTemB8Jg4Bza7dXjxDVf8gSJqZzCJSuZxgjuOTSHwW95j9vfYm6OjHbmfWirm4r/vPWl0GvC+X+dIYWX1tj+Ygd0UQ6JaHFL1cLkN7G4gqRhS5hYIqeQYxi5MjhIY305rzwoZCTN/Tg4MHDmPPCh0GvGzUqHyNHRva1NdKR1onMm1seLz/0Qoj0+KKYXy/cgTC/hSThmoaqUWCOCQkDwJVXBf8o27Y14+l/zTcgjf48/a/5QTdmAKHdl65ITU2J+im619sqRawjdnvgqbiu8O6N/b8PYp5S1VA1SkTfIUnYpyiTQGSqQsjRMGBAP1wVgnBWr67F88+/b0Ai/Xj++fexOoTaGFddNQUDolwjXRrlEeyAFLGeRPpLcm88/F0Q9VQUZZKIrkObjmCeqHMOw5l2xSTkh1B7YcniNXjpxY/0D6QDL734EZYsXhP0uvyCQZh2RfT//gqjPHDSjxSxfkQi4jiZjhDmuaASdjW67ESYYEQYo7nxxouQmBh8v8rChd/hmaffNSCRdjzz9LtYuPC7oNclJibgxhu1q2MS7YGTfqSI9SG1l+mrzwqDCBNcjS670f0GlTATjwdI2zNuTEJOTl/cfHNoJ50sX16Jhx9+NWj9XdHs3r0PDz/8atANGX5uvvly5ORod3qG/8BJKeLYIR6WqXVAvRXi8Ub3GlTCBBgeykjGjS8K+YGUy7kRD9z/XEhzrCJYvboWD9z/HFwhVoS78qopGDe+SPMcUsTmJba3IEePKsB3ASVc0VjRFxzbEgaAK66YhPOmhrZLbPfufXjsb2/i9dcXwOdTdU4WGj6fitdfX4DH/vZmyCP186aehSs0mAfuCilicxLJUsJ4uu/MGF/RWKHdV8MQCCjhRJVKQbBM8fZouPHGi8M6Ov6zT8tx96+fxLJloX3t14tlyypx96+fxGefBi5OdCITJpbgxhv1P91Fith89JIj4YAQ4YwEShhrZJ+BpyNsyhiDcpiC2bOnYdKkM0O+vrl5N5595l384cE5WLUqcGlIrVm1yoU/PDgHzz7zLpqbd4f8vkmTzsTs2dN0THYyUsTmIrWXlHAwCGyohIMtDYgrCQPAzbdcju4pyfjs05Uhv2fdunqsW1ePd3OWYOKkEowfX4xevbRfVr137358/XUVli6pgMezI+z3X3DhWFx77QWa5wqGX8RaCNQvYq3EHm/Ew8YLDTDUe11WBq5uqC5QCN/E0iaNcPjk4xV4443PI35/cfFQjCgZBodjCPr3z4i4Hf/RS5UV61BVtT7idq655nxcdLHY4jhajmS1HGHHE25XPRYsCL/m812/ulSHNKblgKryWUXZRTVGdNblSFixKaPBHJcCBoCLLh6HrOx0zHnhA+zZsz/s91dVrT8mzV69emLQoCz0z8lAv7690bv3aeh5Wgq6dUuCTVHgU1UcOnQE+/e1Yteufdi+Yxe2eZqxeXMj9u4Nv+8TfWqZvAAAIABJREFUSUvriZtmXYYzzxRfBlqOiMUTF7vfoqcHgLMAGCLhLkfCzqbqvxPoDiNCmJk9e/bj1Vc+EXYiczScfXYhrr/hoqiPrdcaOSIWx4IFFXBHcHZcnI2EweB/ODKLfmlEX10+mCNgpBEBzE5aWk/c8cuZmDXrMvTsaY0f9J49UzBr1mW445czTSdgQD6ssxrx+AvOSP91KuGa5prhDAipKGRWJk8Zib89djvKysz9rLKsbAz+9tjtmDzF3L9DpYjFEMnpJ/G51ZlGVnoqI6vrGiadSlhtby8hUDze+YD06NEd111/IR758y80O/lYKyZOLMEjf/4Frrv+QvToYY2/OiliaxCPI2EAKQk2xZAf8s6nIwjCjvqwAjk5fXHL7Gn466O348KLSpGS0k1IjpSUbrjwolL89dHbccvsaZrWgDAKKWJjieTeaFGw35IY5MFOH8w5m5wfEaD/lqoYQWVG+YpqrFrlwurv9a8rMXLUcIwZY0fpuCIo1OWzVUshH9bpT6TL08rKSlAYYUF4K8PAx45MxyV69/ODn+C6nXWpbe2HqwEaoHfnscihQ0dQVbUebtcm1NZtRf3W7VG3mTugH4bnDUChfTCKi4eiW7ckDZKaDylifYl0ZcRNs86N1/tYfzDpUNHo3qP36tnJDyRcvb16nML0tZ6dxhMHDx5G/dbtaGjYie07dmHXLi+8ew+gtfUQjhxpg6oyFIWQlJSIlJRuSO3VA717p6Jf397Izk5H7oB+6N49WfTHMAwpYv2Y88LCiO5rvC1POxGFbOML+hWs0LOPH2zWsDEKWc8e44zu3ZORN3wA8obLLxahIDd06Eck91OLk1KsDHN7IQBdJfyDB3M+RqGeHUokwZAP67QnkmkIIG5XRhzDCB/+QMIKUKB3pxJJMKSItaU+wnPicnPieyRMRPl693GShJ3sTGIiQxYoSyTBkCLWjkhHwvE+HQFwvtPp1PVJ+EkSpiYaRsBgPTuUSMJBijh6IhVwoT037qcjCDSY+rQN07OPk6cjyKdrZxJJJEgRR4fLHel8cJxu0jgFn2ozTsIMJS6OMpJYDyniyHC76iOqFwEA9jjcoNEZik1fL548HQEM0bMziSQapIjDJ9JRcE5un7ifivCjtxdPno5glhKWmBop4tCJahRcKEfBx9HXi6fMCdMgPTuTSLRAijg0ysvrIn6vXBVxIjRIz9aPSbiisaIvg3XtTCLRCiniwLhd9RF/Hrkq4mSYeXBFY4VuJQqPSTg5QcklkJiajJKI8XpbO752RrgY38pIEXdNNKNg+UDuZIgoWWFFt7oDx2pHqD7O0asTibZ4va1wueqx8pQftNTUFBTac1Baas79Nm5XveYlEWWtiR8yb96KiO9FTm4f5MT5LrnOsCm2/gC+06PtYyNhVVX669GBRFs8nhbMeWHhDwQMdEhkZXldxNWy9GTBgopj/9MaOSI+Tnl5bcQP4wCY9he4aEhVdfPjMQkTUbZenUi0weNpwby5wQs6mU0kJ9axjbSweDCkiDv+fXT2yzlU5Ci4a1Qd/XhMwgohU69OJNETqoD9mEUknRUSlyLWno680VVclKPgAOjox+PTEZASNivhCtiPaJEEOslBilhbor2XhfZcOQoOjP4SJsB6p0TGAZEK2I8okYRylI4UsTbMm7ciqnlgACgtzdMoTcyi/xI1BksJm4xoBezHaJGEc5aZFHF0LFhQEbWAy8pKLL0axAgIyNCrbQUAFm1a1I0Y8ruIidBKwH6MEkkkh0lKEUdGpAd3nkhObp+4PEk5bJjT6+rqdDnsUQGAjJSMNBD11KMDSfhoLWA/eoskGilIEYeHFgIG5MO4kCHqeaTXkdP1aFoBAPaxLo1LwkcvAfvRSyRaSEGKODS0EvCMmePkw7gwSFDUND3aVQBAISVVj8Yl4aG3gP1oLRKtpADod6ZZrIhYq3stV0OEj69d7aVHuwoAEPmkhAVjlID9aCUSLQVcVlai6/yk1UWs1b3Oye2DsrISDRLFGZR4mh7NKgDQ7oOcDxaI0QL2E61IrCRgP1YVsVb3OjU1RQo4cnTxpAIANkIPPRqXBEeUgP1EKhIrCtiP1USs6b2+QC5HixQG6+LJjgdziiJP9BOAaAH7CVckVhawH6uIWMt7LR/ERY0uv706NmswZB1hgzGLgP2EKpJYELAfs4tYCthk6OTJjgdzzLosQpZ0jpYCzsntg5tmnWuISGJJwH7MKmIpYBNCSNKj2Y7pCOJEPRqX/BCtBTxjxjhDRBKLAvZjNhFLAZsUVvWTMFhJCHKdRAP0ELAfPUUSywL2YxYRSwGbGIYunjxawEdVAl8miRY9BexHD5HEg4D9iBaxFLDp0cWTHY0q0sF6YoSA/WgtkngRsB9RIpYCtgA6ebKjVVXVpXGJsQL2o6VItMAqAvZjtIilgC2CTp48qnZFWlgHRAjYj1lEbDUB+zFKxFLAVkIfT3ZImNR2PRqPZ0QK2I9oERslYI+nxZLV16SALYZOnjy6Tpja9Gg8XjGDgP2IErGRAp43d4XlymBKAVsPvTx5dJ0wHdaj8XjETAL2Y7SIjRawH6uIeM4LC6WALQgT6+LJo9MROKRH4/GGGQXsxygRixKwHyuIWCukgA2GFF086V9zIf68FovT8VXTnAL2o7dIRAvYTzyIWApYCLp4suNkDahSwlHgn+PTAr0E7EcvkZhFwH5iWcRSwGJQffp4smNOGLZ9ejQeL2hx7Digv4D9aC2S1NQU5OTqL4Vwp3tiUcRSwOKw2fTxpL+UpZRwhJSX11pKwH5Eb9ENl0jn22NJxFLAgtHJkx0nayT49urReKzj8bRgZXld1O0YLWA/VhFxtA88Y0HEUsDi8an6eFIBAJUTpITDRKsHcaIE7MfsItZqxYnbVa/ZsrATMULEUsDmQElQ9ujSLgAk7EnYBeCAHh3EKlqMrEQL2I9ZRazlkr9Ce65uDw71FLEUsElg3o++2KVH0woA5OXlHQbQrEcHsYjbVR/1PLBZBOzHbCLWWsB6nzCsh4ilgM0DE3Y6yHFEj7aP1WZj5p16dBCLRDsKNpuA/ZhFxFYTsB8t758UsLkgkG6D1OMFMom269VJLBGtgFNTU0wpYD+iRWxVAfvR4v5JAZsPVnmHXm0fl7DKUsJB8Hhaon64U3aBsVKIBFEitrqA/URz/6SAzYmiUJNubR/7E1GjXp3ECuXltVG930o/YEaLOFYE7CeS+2elfx/xhsrQX8LM3KBXJ7GAx9MS1cO4saV5lvsBM0rEsSZgP/77F2w3Ycd1UsBmRk8/HpOwoijb9OokFohmFJyT2welpcM1TGMceos4VgXsx/8MYGxpXqev5+T2wU2zzpUCNjl6+pH8f6hqqBplU5Tv9OrIykQrirt+damGacSg5fpfv9i93oMxLeDO8Hpb4alvQWqvFCleC6HYbKMLMgq+16PtBP8fVFLrbVAOAuiuR0dWxhXFw7iuRkBWwy9OLUSs9c46qwgY6LiPhXbxpTAlocPgQ22+No9e7R+bjijJKtkBYIteHVmZaFZEWHUaojO0nprQAisJWGJRGFuKM4t1Wz2mnPT/mDfr1ZFViUbAsSgHM9TT9SMFLDECAjbp2f7JEibaqGdnVsTljkzCHV87rXfUeyiYQcRSwBKjYLBxEmZASvgUIl2WVhojc8FdIVLEUsASQyFlg57NnyRh1afq2pnViHQqIpZHwSciQsRSwBKjIdB6Pds/WcKKqmtnViPSqYhYHwWfiJEilgKWCIFhnIQTWhLqWJUP5/xEOhVhxHlrZsIIEUsBS0TAwKaDmQejPz4nACdJ2OFwHIFCNXp2aBUinYootOeaYuWA0egpYilgiTh47Wga3aZnD8qp/4GY1+rZoVWo90Q2Cs6N411QeohYClgiEmbo7sMfSpjg1rtTKyCnIiJDaxF76lt0PcVZIgkEqfrPDCSc+h98BLfCencbu8TjVMSp6LHFWfS6ZBG0tOyFp34HGhtb0Ny8G7t378O+fa04ePAw2trbAQZsNhu6dUtEj57dkdbrNPRJ74XMfr3RPycDubn9RH8Ey8MJ7NK7jx9I+HDiYVf3I8lbARqgd+dmJhJ5xMOytFCRIg6fpqZdcDo3oMa9GXXr6rF7lzeq9hITEzBsWC7y8wfC7hiM4cMHapQ0XuCtKYkpukuYOvuPzibnRwRcrHfnZsXtqo/oGKOyshIp4lPQo/paLIm4uXkPVpY78c03bmzapG9J77S0nhg9ugBjx9qRXzBI175ihI/tmY5L9O7kByNhACBwFUBxK+G9EQoj3ueDO0OOiDunsnI9Fi36Ht99a9xipD179uPLL7/Fl19+i4EDMzF5ykice+5oKMoPHg1JAABcZUQvnd99RqURnZsVr/dgRO+zuhj0QvThoWbi229r8Mc/vIi//uV1QwV8Klu2NOGVlz/Bbf/9N3zwwTL4fKqwLGZFNciDnUrYp3IlAGv+KxeEFHBg4l3EtbVb8cjDr+HvT/wHdXVbRcc5htd7AHP/sxB3/vJxfLVQnungh8GtCQlqdEerh0inc8IA4Gx0LifCeCNCmI1581aEvUQtJ7ePqY+yNwvxNkfc1taOt978AgsWrBIdJSQKCgbh6p9MxRln9BcdRTC83J5ZNMGInrqeDCLW5SgPK+DdG/50hJlFYCbiaURcWbkO9/7PvywjYACoqdmM3z/wPN5/b6noKEJhYLVRfXX6YA4AiPAd5HphiQ7Ew8O6+fMXY/47i6NuJzs7HQMGZiI7Ox0ZGacjLa0nevTojqSkBBAR2tt9ONh6CHu9B9DSshdNjS2or9+BjRsb4PP5Iu533ryvsG69B7NmXYq0tNOi/hxWg8i48za7nI6obqguUAjfgKinUWHMwuOPfRj2e8aW5sXUUUZGEItTE+3tPjz99HysWhnZ8tKePbtj5KjhKC4eisLCwUhN7RFRO8yMtWu3oLp6A9asqUP91shO50lP74Wf3zod+flxtMaYeT8zjXFkOwzZPdylhAHA1VS9EKBzjAhiJiKRsFwjHBmxJOKWlr148h/zsH59+GdCnnlmHiZMLMHZZxfqkAzYuHEbli+rwpIlq3H4cPj1aG67/SqMHevQIZkZ4a/smUXnGtVbl9MRR1kFIO4kLDGOWJmaaGzcicf+9hYaG3eG9b4JE0twwQVjMXBgpk7JOhgypD+GDOmPmT8+F58vWIVPPinH/v2h3++nnnwbhw4dweTJI3VMaRoMncQPuEqbQSuNCmJ1It3gIbH+w7qmphY8+tc3whLwmWfm4Y9/uhmzZ0/TXcAn0q1bEi67fAL+/o+7cOmlPwrrvS88/wEWLzbseZUwjPZeQAmrUFcxI+6OPBI9rxiPWFXEe/cewBOP/wfbt+8K6fqePbvjltnT8Ou7r8GQIeKWgSUnJ+LHV5+H/3toNuz2wSG/74XnP8DKlU4dkwmGeX07t5tHwsWZxduJ8LVRYayMJ8L6w5LjWFHE/3zqbXg8O0K69syRw/H/Hr4VEyeapz7yoEFZ+N/f3oArr5wc8nueevJtrF27Rb9QIiFaUZJVEtpfqEYE3TSuIP4knNqru+gIcYuVRPzC8x/A7Q7tNPTLLpuAX//6J+jdO1WXLNFyxfTJuOtXV6N79+SQrn/m6fnYs2efzqmMh1V1hdF9BpWwLwHLAQ7tu1YcE8kGD0nnWEHECxasCnl+9Mb/uhgzf2zYw/aIGTUqH7+7/7+QmRm8ENXOnXvxwgvhryIyNYzdRLblRncbVMKOdIebGcuMCGMW5JywePQQsVZs3NiA1179NKRrf37rdJx33lma9a03Awdm4n/uvQ65uX2DXluxpi6mdtYxeKk9y657/eBTCa2GHVHs3OkQSE0NfzrCrFtnrYzWIi4vr9UgFfD665+FdN3s2dPwox8Va9KnkWRkpOFXv74mpBHxvHlfYcOGbQakMgAW47mQJGyz2ZaAeb/eYcxCbm56RO+TD+e0R0sRu13hb6I4lY8++hp1tcGroP302jJMMNEDuHDJyEjD7XfMCGmO+K03vzAgkb4w8z4b1CUi+g5JwgUZBd+DaJHeYcxCJCNhAKivD2+hviQ0tBKx19sa1S/KXbu8eHveV0Gvm3r+2bjwwtKI+zELAwdm4ue3XhH0upqazZYvg0lEiwuyi4UULQu5pD4DcSThyH7YtRhpSTrHL2KRvPfeUrS3By6Kk5eXixtuuMigRPozalR+SMvX3n13iaULw4v0W+gSbuOvAMTNUC+So4qiHWlJAlNeXhd1G5F+y/F4doQ02rs+hgTs54rpk4Nu6Ni9ex8+/tiaq1kZ3MLEwb/i6ETIEi7KLapkqAv1DGMmcnIiOy9OTknow4IFFXC76qNuJ9JvOZ99FnwT1YwZ52DQoKyI2jc7P7nm/KDXfPbpSqiqFUfD9GVRvyJhR7qFdcIfg77UK4jZkA/nzINWAo60yt2uXV4sXhR4TXBObl9cPm1iRO1bgUGDsoLWmvB6D2ChBeeGGSzUa8GqqJ1EO7d/mUSJtQBivnBupF9b5aYNbdFKwEBHudFIWBLCpoxpl2sj4ObmPZq0cyoZGWlRtzHtiklYtGh1wOprixetxtSpZ0fdl1Ewo1ZhRejyjrAkfGbWmZtdTdWfAxQHEk5BTm6fsM+a888LRzqdITmOlgKeMTPy8/+WLQv8TXXo0ByMLY2+1m5z8x7cdecTUbfTGdOvnIzp0ydH1UZyciIuuqgUc+d2PSu5ZUsT1tZsRn7BoKj6Mgoi/tye5RBaCCOs6QgAIOYFegQxI5GKVKtNAfGM1gKO9O/S5dyIHTt2B7xm6vnWGflFy/llY5CcnBjwmpURnioiAmKbcJ+FLeGCzKLPmGH91dkhYI9wDtFT3yLnhqPALAIGgO++Xxvw9T59emH8eOvtiouUbt2SMGlS4MLu331XY1CaKGF8sX3tdutJmIh8IIS2cd7i+KckImHBZxUap4kPzCRgoKM+QiDGjS+Kqn0r8qMJgX/p7NmzH7W15i91yYRPp0yZ0i46R9gSBgCbzfcJ4qTYu70wstGw19uqmUziBbMJuL5+R9AHZWPG2KPqw4oMGdIfuQP6BbzG5QytxKcomNUNvnbfJ6JzABFKuCBjRC0DH2kdxoxEOhIGtNlcEC+YTcAAgo7msrLSY3ZdcDDOPDMv4OvmL/qufDQiZ4QpHt5EJGEAIKKPmPmQlmHMSGpqSsTrS+VoODTMKGAAQU9NdjiGaNKPFSkqOiPg6+vWmfrf/SEiMs0gMmIJ2zPtX4LoAy3DmJXS0sC/9QMhR8OBMauAAWDz5saArw/PH6BZX6GSnpHW6f+MJj9/IGw2W5evt7W1o75+u4GJQoeBD+yZdtNsPAtrnXAnfABgphZBzEyka4aBjtHwggUVEW8UiGXMLGBVZXjqAx81dsYZOZr1FwrpGWl44ok7O31t/vzFmP/OYsOyEBGGDMkOOOLd5mlGbm7guWNBmGrwGPFIGAD2e/d/qKriCl8YSWlp5PtT3K56uXb4FMwsYABBT0/u0aO7JrvQrEyw0zeaQjyB2kiYeaHNZosdCY/NG+u12ehdrcKYmZycPlE9pHO7PHLt8FHMLmAAaGnZG/D1zMzemvdpNTKzAt/3lp2B76EIFIXeK8goMNUJpVFJGADabL73AP5GizBmJ5opBa+3FQs+q4j7Y5CsIGAA2Ls38EEyffr00qVfKxHsHuzZayrXgRnfJtiS3hOd41SilvCI9BEeZo6L0XA0KyUA7Q+ctBpWETAA7N8fuBBTamoP3fq2Cr2C3IMDQe6h8ajz89LzTHfyQtQSBoB2nzqfGVVatGV2olkpARx/UBdvWEnAAHD48JGAr3dPCX72WqzTPaVbwNcPHWozKElIVJLN9o7oEJ2hiYRLckrqQHhbi7bMTmpqStQrHeLtQZ3VBAwAvvbAxckTErpenhUvBLsHPl/go6CMhIF37H3t60Tn6AxNJAwACbaEecxcrVV7ZiYnN7qHdACwsrwu5kfEXm8r5s1bYTkBAwAo8MvMxsQwMxzsJgS5h4bBqGaVTTtI1EzC+Rn5a4kwV6v2zIwWo2GgY0Q854WFMfmwzj//Hcna6s4wVMAAEhMDL6E/csRUX7WFcORI4No3iQnRbkPQCOK5RdlFpi3tppmEAYAU21xmXqNlm2ZFKxH7ZRVL25s9nhZNf7kYLWAA6N4t8Jxv64GY37EflAMHAj94695d/Lw5M68hxWbqwaGmEi7sW1hHwFtatmlmCu25Ua2W8OP1tqK8vC4m5onLy2sxb+4KzdoTIWAAOO20wAeC7tljruVXItizJ/AyvmD30AgIeKuwb6Gpawdo/n2BVXqLbHQpwIFPBYwBvN5WzUZ7Xm8rVh6tMxHN7jxR+Fd9aDX9AIgTMACknX5awNf1OgvOSjQ3Bz5x5PQg91B3GF9zMpl+UKi5hB39HVvd26vfZKaYlrAe0gE6Hti5XR4U2nMsI+Py8tpjv0C0QqSAgeAHYzY2toBhnmdPImho2Bnw9YyM0w1K0jmk8Bv23kVbhYYIAV1mztsP8Zu2ZLoIwMV6tC8avQR8Yvt+GZeW5mky5aEHesgXEC9goGMUl5KSjNbWw52+rqoqtmxujLqe8Ikj6p079RtdNzfvOakvLepebN3SFPD1rCDbmvWEgY9Tknq+ISxAGOgi4eKBxbudTc5/g/kCIoqpBZV6C7izvsrL61B2QYlwMfnxeFp024JtBgH7yc3th9rargdS69bVRy3hZcsqDKl+tmxpBZYt7VgSGagaW6h4vQeCjoRzghT40QtmVkH078GnD7bEnJGmD+ZOxJHpeJMIr+nVvgiMFPCp/c6buwJzXlgorAiQv0D9nBcWYt7cFTEvYAAYPCQ74Os1NWY/PUI/3O7Axxed3jtVWH0NIrzqyHS8KaTzCNB1IR8zvUaE8wAYW3hVB0QJ+NQM8+auOFbfOPdoZbfUVH2eQnu9rXC56uHxtOj+uc0mYAAYNiwXn326ssvXq6vWG5jGXFQF+ex5w4RNoXmYyVKDP10l7MhyfOVudL7ChPv07EdvzCDgE+kYlR4/OqmjsFAOcnPToxaZX7xul8eQTSSpqSmmmmo5kfz8QQFfP3jwMFavrsXIkdZ4gKolq78PvJyyoHCQMUFOgRiv2LMclqpxrvuWFrbRK+zjKUQYp3dfemA2AXeG/0Ge/yGZf2Sc2qv7sT/nniC5vUfl6vUe7Fhmt/egkF17ZhYwAPTq1QPDhuUGPD1iZbkz7iT8zTfuoFXmHI7AZ9DpAmPFEV/7q8Z3HB26S9je177Ouc35MmzWk7AVBNwZ3mOSbQXQkd1sO/JSU1Nw06xzRccIypkj8wJKeMWKavz02jL06tXTwFRi8T/g64rBg7OFFL0n4pdKckpMvTGjM3R7MHcizXXNLwGw1G8oLQWcmpqCsVGWwIwlCu25lhAwAJx1VkHQaxZ++Z0BSczBli1NWLMmsOfOPrvQoDTHYeDVgn6OlwzvWAMMqbAxZcqUdndD1YtMNA5EQ43oMxq0FvCJwtFjXa2VMOMDuEBkZaWj0D4YblfXqwE+/3wVLrl0PJKSEsNuPz099NOSM9K7vk6rdoLx2WddP6j0M7bUEXH7kcCMDYpNeZGIzFM7MwwM3fDjbHTeS4SHjewzXPQUsNbtW4nU1BTMmFmq20oOPVm+rBLPPBP48Jgrpk/ClVdOMSiRGDZu3IYH7n8+4DWjzyrAnXf+2KBEHTDjfx1ZjkcM7VRDDJmO8JPER+Yws+nOePKjt4D9/72srCRupif8UzE3zTrXkgIGgB9NGIHefVIDXvPeu0uxY0fgWgpW5935S4JeM2XKKAOSHIeZ3zvCR+YY2qnGGCrhvOyRzcT8PADTnfNkhIBPfL20dDhumnVuTMvYP/drlRoYgTj//DEBX2dm/Oc/XxqUxniWLq0IOheclzcAI0YYN9vIjG3EyvMjs0c2G9apDhgqYQCwZxd/QsBzRvcbCCMFfOq1fhlHe1KHmeiYehinSb1ls3DhhWODroBYtdKFxYtXG5TIOHbt8uKNfy8Iet2FF5UakOY4CuFZe7b9E0M71QHDJQwA7VCfA8EUJzSLEvCp75sxY5zlZeyX702zzrXUw7dQsNlsuOzyCUGve+XlT+Dx7DAgkXG89NLHIa0LDmUliWYQ3k3ibs8a16F+CKvE597uPl9VfU8T0RBRGcwg4M7wF3k329rerhhbmge7Pdeyc77h8Lv7nsXmzY0BrxlyRn88+OBNUBQhYxxNmfufhfjgg2VBr7v/gZ9h+PABBiQCwNioqvyLov5FwYfnFkBoOVRXQ/XdUOivIvo2q4BPxOtthae+BS53velWU/i3SsfCfG84VFWux1/+8nrQ684eU4g77phpQCL9+PLLb/HySx8Hva6sbAyuu/5CAxIdReV77NlFjxrXob4IlXBFY0WPRLI9BdCNRvZrBQGfipHFdLrCL954GfV2xauvfILPP/8m6HWTp4zErFmXGZBIe5Yvr8IzT88Pel2/fr3xyJ9/EfRgVO3gl9vYd1tJVskBgzrUHeEHA9Q0VI32KfQUgQI/ftYIKwr4VPwj5HpPy7E/64FfuoA1j1zSC1VVcd9vn0F9ffC5XyuKeNnSCjz7bGgrSe/5zU8xYsQwnRN1wMAqm812W0FGQUxtURQuYQBwNbmuBfOTIERf7j8AsSDgzvDXivB/Lr+cAQQsznNqoZ/U1O4AoEk1tlinrq4ef/xDaMtTzx5TiNtuu8oSc8SfflqOf78e2lTr9CsnY/r0yfoGOs5ugO6wZ9qDzwVZDFNIGACqG6v/qBDdr2cf8+atiDkBS8Tx1Vff48U5H4Z07ZAz+uOWWy5HTo6Y0yZC4ZVXPsEXIUyzAMCYsXbcfvsMnRMdR2X+U1FW0QOGdWggpvnVnNgj8R9g1vVMKC1Gd1LAEj/nnDMqpGVrALBxwzbc/7vnTLmOePPmRvzxD3NCFvDQoTm49dbM9hwYAAAL2klEQVTpOqc6AeY32rjtSeM6NBbTjIQBoHan8+x2H54AQ7dV39EcTikFLOmMF1/8CF8tDH2acsxYO3784/PQt6/Y04gB4P33lmLevNBroGdlpePe/73OsKOLmFEO4E5HliO03xAWxFQSBgDXDtdM9qmPE1HgA76iIBIRSwFLAvHcc+9h6ZLAdXZPhIgw7YqJuPTSH0VUfS1aVpY78d77S+EJ4eGin379euPue65BVla6jsmOw4wGBv+qKKvoP4Z0KAjTSRgAXNur7wbru344HBFLAUtCIdwRMQD07Nkd558/BueeN9qQwvBff12FLz7/BuvXh1e+JSenL+6868fIzDTwgS3xPfZ+sbMeuCtMKWFmtrmbXI+CEN253EEIRcRSwJJwmDt3IT54P/gOs84YN64IY0sdmh+XtHlzI1atcmHF19Voadkb9vsLCwfjv2+7Cr169dA0V0AYT7gy3XfPpJmWrBEcDqaUMABUe6pzKQGPEkjXbUeBRCwFLImEcFZNdEb37skoKh6KgoKBGDYsFwMHZYX1g9rcvAcbNnhQu3YrnM6NaGzcGXGWyZNHYtbNxq5zZvBcbsfdRTlF1ti3HyWmlTAAOBvXnA1K+AuBJunZT2cilgKWRENdXT1eevHDkDZ0BENRFGRl9UFGRhrS0k5DSo9uSEpKBBHQ3u7DwdbD8HoPoKVlL5qaduHAgcDFdkLluusvRFmZIXuojsHMS5hxT1F20beGdiwQU0sYANyNVRcz6C8g0vXgqhNFLAUs0QJVVfH6a5+FtMXZTOQNH4Brr70AQ4bo9my8C9hNzL8pzCoOXrAihjC9hAHA2eC8gRR+BKBMPfspL6+F2+WRApZoSlXlesyduzBo9TXRJCTYcNWMc3DJJeON75y5iZnudWQ7XjG+c7FYQsIA4G6qvlMFHiFQsugsEkkkLFiwCh+8vwx79+4XHeUHnHPuaEybNhG9ewc+xkknDhP43sLMoidEdC4ay0gYAFyN1Q+C6Peic0gkkeLz+fDppyvx+eersKvFKzoOJk8ZiQsuGCt2OzXzH+xZRQ+KCyAWS0m4juuS25oO/z8Q/Up0FokkWpYvq8TSZRVwuzYZ2m/fvqdjwoQRmDR5pKiR73GYH0vcl/zbvLy8w2KDiMNSEgYAt8fdh22+h0A0W3QWiUQLGht34ttva7BmdR3WrdNnVVZGRhpKzszD6FH5sDuEHWZzMszPHlQP/250/9GRr6GLASwnYaBjDbGSgD8BdIPoLBKJluzdewBr127GunX12LSxAfX129HaGv4gMSe3LwYNysLQoTkYPnwgcnPNVr2NX1HbcX+8rAUOhCUlDACu+tXDODHpjwRcLTqLRKInu3fvQ3PzHuzZvQ/79rXi4KHDaGtrBxiwJShITk5Cz57d0atXT/Tp0wv9+vWGopj3R5uBt0ihB+x97etEZzED5v2bCgFng7MQhD8S4UrRWSQSSSjw26zS7x3ZDrfoJGbBNPWEI8GR7XDbyPYHAMEPw5JIJEJh5nd94D9JAZ+MpUfCftY2rS1u57YHiegK0VkkEskPYeZ3E4gfzM8srhKdxWxYeiTsJz8zv8pGCb8H+G3RWSQSyanw26oUcJfExEjYj7PBWUgK7od8WCeRmAIG3oIKOQURgJiSMNCxagKJiffJ5WsSiWj4FSjKQ3IVRGBiTsLA0XXENtwnN3RIJIJgflb14SG5Djg4MSlhoGNnnc/m+60itzhLJMbC/NhB9fDD8b4TLlRiVsLAsVoT/8uEe2X1NYlEdw6D+ZHEfckPx3MtiHCJaQn7cTdV38nA/+hdj1giiVuYm4jw53gtRxkNcSFh4GhheOLf6H1Ch0QSf7CbVfpLPBZk14K4kTAAuBvdF6vku0fvM+skkniBmZco4L/G25FEWhJXEgaA6obqs0jB3Xqf4iyRxDoMnssqHo2nQzn1IO4kDADObc4BpOAuEO4UnUUisSSMJ1QfPyaXoEVPXEoYAJhZce9w/gpMdwEw+lhZicSSMKOBFH7c1bfm8Zk00yc6TywQtxL249rhmsk+9U4iKhWdRSIxM8woZ/Dfi7KK/iM6SywR9xIGgNqdzrPb2/iXILpGdBaJxJQwv8GgvzuyHN+IjhJrSAkfZa13bXrbgbY7FNDtIKSJziORmITdKvNTbdz25Mjskc2iw8QiUsKn4GpyXctQbyPQGNFZJBKRMLCKQE/ZM+2vi84Sy0gJd0J1Q/VZioJfAHSj6CwSiRj4ZcWW8M+CjILvRCeJdaSEu+C7bd+ldKfkX4DoVhBMcka4RKIzjI1gfrqNfE+XZJUcEB0nHpASDoJ7u/t8VVV/TgR5dJIktiG8q7bzs0X9ixaIjhJPSAmHQFVTVb8EKLcwcAuAHNF5JBItYcY2hfBsEnd7dmjW0B2i88QbUsJh4Nrhuoh96s1ENE10FolEC5j5PWLleXu2/RPRWeIVKeEwWbttbXq70j6LgFkgnCE6j0QSCczYAOCFI3xkjlx6JhYp4QhxN1RNUkn5GRGuF51FIgmTV0lRXizsW7hEdBCJlHBULFq0KKFfQfqNKtN/EWGc6DwSSUAYK4j4pYJ+jpeISNZ9MAlSwhrg9rjzYFOvV8E3EJF8cCcxGx5ivHLE1/5qSU5JnegwkpOREtYQZ6PzHCK+jhnXEZFNdB5JfMPMKhFeZabXHFmOr0TnkXSOlLAOOJucPyHgpwAuFp1FEp8w8DGAfzsyHW+KziIJjJSwTqzZtCYtOSXhGlbpGhDGi84jiRMYX5PCb3RP6vnG4NMH7xEdRxIcKWGdcW5zDqAEvppVXE1EZ4rOI4lNmHkNAW9xMr3l6O3YKjqPJHSkhA2iwlORl5hgm8nAjwnkEJ1HEiMwqkE8lxTb3MK+hfKhmwWREjaYtc1r89t97TPAuIoIxaLzSCxLJQPvsMpvF2UX1YgOI4kcKWFBuOpdwzjBdyWRMh3AWaLzSKwBM74F1Plks71j72tfJzqPJHqkhAVTubMyx9ZGVzDTNEWhc0TnkZgTZl6oKPRegi3pvbz0PI/oPBLtkBI2Cc7tzp5gXK4Al6nMlxFRN9GZJMI5xMAHAD6w2WwfFGQU7BMdSKI9UsImpGpb1VRFUS4m8MUgGio6j8RYmNUNgPIREX1kz7R/KTqPRF+khE1MjadyuE+xXQTChUSYKjqPRGcYXzDhU1+775MROSNqRceRGIOUsAVYxIsS+jX1KWOiMoDOBzBcdCaJNjCjlog/J7Yt2L52+4IpU6a0i84kMRYpYYvhavh+oKokTSXQeQScCyBddCZJeDC4BaAvGfyloipf2LPtW0RnkohDStjC1G6vHtHGdA6AKcQ8BUQ9RWeSdA4z7yOixQwsYuKvivoVVYrOJDEHUsIxQlVD1ShFUSaBeSIRJgDUW3SmuIexm8FLwbTUBnVJQXbx96IjScyHlHAM4mp02RXi8SownhnjSR7DZBzM60G0glV1BZFtuT3L7hIdSWJupIRjnIrGir4JlDCWwGMBjGHQGAJ6iM4VMzDvB+EbAKsYtLKd21eWZJXIE4slISMlHGdUN1QXADiLFIwiYCRAIwGkiM5lFRjcSsBqBlYTKd+xj793ZDvconNJrIuUcJxT6akcnmBTSkAYwaBiAooB5IrOZR54K0DVAFepjMqEhISKgowCuYZXohlSwpKT+G7Xd716tPWwM7cX+hiFRJQPcD6BBovOpjcMbAJ4LTPWkko1nMCulMQU1xm9z9grOpskdpESlgTF6XQmUZ+2YT7VNkyxKWcQMATgIQANYubBRJQsOmOoMPgQGFsI2MTgTSBlA4HWg7H+YObButE0uk10Rkl8ISUsiYqKxoq+CisDbIqtP6lqf5UoG4RMAJkA+hKQAeZ0Q9YwM+9nwk4CNbPKOxSFmlRGEzM3KIqyTbH5PG0+eIozi7frnkUiCREpYYnu1NXVJR/pdeT0BEVN87WrvUCJpwHoyeAeAFLA6AZCElhNAiMBgAJFAVQVgKKC1HZiamPiwyDlEIBW1ae22my2fWDs86m+vUqCsgd9sctBjiNCP6xEIpFIJBKJRCKRSELg/wMlvoKItxKmpAAAAABJRU5ErkJggg==;" parent="Ef5aAg3daOjvYsMQ55Ko-1" vertex="1">
                    <mxGeometry x="2010" y="80.39" width="132.76" height="125.61" as="geometry"/>
                </mxCell>
            </root>
        </mxGraphModel>
    </diagram>
</mxfile>